<svg xmlns="http://www.w3.org/2000/svg" viewBox="0 0 24 24" fill="currentColor" aria-hidden="true">
  <path d="M16.33 4.421A4.16 4.16 0 0012.009.503a4.15 4.15 0 00-3.973 4.435 4.14 4.14 0 004.524 3.856c1.102-.09 2.025-.575 2.751-1.412.733-.843 1.084-1.845 1.019-2.961zm-7.878.961c-.073-.034-.097-.093-.104-.158 0-.028.01-.055.014-.083.021.021.052.034.065.059.038.051.038.113.025.182zm.247.393c-.103-.014-.175-.131-.185-.217-.004-.035.006-.059.044-.042.086.038.186.135.141.259zm.018.223c.141.021.272.138.275.279-.103.021-.248-.127-.275-.279zm.172.534c.076.021.176.114.176.169-.069.003-.169-.097-.176-.169zm.382-.062c.086-.031.275.086.32.196-.082.028-.296-.106-.32-.196zM9.46 7c.097-.02.341.145.379.262-.12.034-.372-.145-.379-.262zm.448-.206a.481.481 0 01.358.114c.034.028.052.079.079.127-.158.031-.385-.062-.465-.183-.024-.038-.017-.055.028-.058zm.21.644c.09-.065.461.096.479.21-.183-.018-.327-.117-.479-.21zm.668-.169c-.083-.031-.158-.079-.234-.124-.017-.01-.021-.038-.031-.059a.475.475 0 01.055-.028c.014-.007.028-.003.041-.003a.529.529 0 01.403.152.13.13 0 01.027.038c.028.041.014.076-.038.069a.97.97 0 01-.223-.045zm.255.482c.09-.059.527.041.592.131a1.11 1.11 0 01-.592-.131zm.788-.3a.796.796 0 01-.334-.076c-.007-.003-.017-.007-.021-.014-.024-.024-.045-.052-.069-.079.031-.017.059-.038.086-.045.158-.038.3.01.437.072a.107.107 0 01.041.038c.027.028.024.059-.014.069-.04.018-.084.025-.126.035zm.142.445c.076-.048.392-.021.475.038-.069.079-.4.051-.475-.038zm.705-.414a1.073 1.073 0 01-.444-.014c-.021-.003-.038-.034-.055-.052.014-.01.028-.031.048-.038.062-.014.127-.024.2-.038.079.01.169.017.255.034.028.003.052.034.076.052-.028.018-.052.049-.08.056zm.183-.678c-.003-.024.031-.065.059-.083a.443.443 0 01.41-.003c.069.034.076.103.007.141-.062.034-.134.048-.193.072-.079-.017-.148-.024-.21-.045a.137.137 0 01-.073-.082zm.065 1.105c.083-.059.279-.065.337-.017-.065.065-.271.076-.337.017zm.561-.492a7.163 7.163 0 01-.282.065c-.003-.003-.003-.007-.003-.01-.052 0-.103-.003-.155-.003-.014-.003-.028-.003-.041-.01-.017-.014-.034-.031-.052-.045.017-.014.031-.038.052-.045a1.235 1.235 0 01.475-.045c.021.014.041.031.059.045-.018.017-.032.041-.053.048zm.183-.623c-.01-.028.007-.072.028-.096.079-.093.193-.127.32-.145.024.003.055.003.083.01.048.01.069.045.048.09a.204.204 0 01-.059.083.464.464 0 01-.337.11c-.031-.004-.073-.028-.083-.052zm.64.409c-.055.038-.11.079-.172.107-.062.028-.127.041-.193.055-.017.003-.038-.007-.059-.014.01-.017.014-.038.028-.052a.695.695 0 01.344-.152c.01 0 .021-.003.031 0 .014.003.034.007.034.014.005.015-.002.036-.013.042zm.486-.537a.405.405 0 01-.31.169c-.028-.003-.062-.003-.093-.017-.055-.017-.069-.059-.034-.107a.432.432 0 01.383-.172c.078.007.102.062.054.127zm-.041-.606c.062-.114.165-.162.282-.186.024.003.045.003.065.007.045.01.062.041.052.086-.034.165-.196.244-.324.255-.082.004-.11-.093-.075-.162zm.313.689c-.052.003-.069-.017-.045-.062a.475.475 0 01.275-.234c.048-.014.083.024.065.079-.033.096-.188.214-.295.217zm.368-.575c-.062.041-.09.024-.093-.052 0-.127.107-.269.213-.324.048-.021.079.007.076.062-.013.138-.089.235-.196.314zm.358-.678a.195.195 0 01-.11.007c-.021-.003-.045-.034-.052-.055-.024-.127.072-.296.193-.337.069-.028.148.021.148.086.004.123-.079.264-.179.299zm.321-.854a1.766 1.766 0 00-.124.182c-.017.031-.038.041-.069.031-.21-.069-.368.083-.399.293a.635.635 0 00-.003.145c.003.048.017.093.028.145-.024.01-.048.017-.069.031a1.777 1.777 0 00-.165.124c-.059.055-.055.059-.107.003a.274.274 0 00-.317-.065.43.43 0 00-.255.324c-.01.065-.014.131-.01.193a.16.16 0 01-.048.134c-.134.127-.269.176-.451.09-.214-.1-.348-.076-.51.1l-.072.072c-.045-.045-.079-.09-.121-.121a.397.397 0 00-.51.045c-.059.062-.103.145-.155.217a.345.345 0 00-.034.059l-.041-.131a.398.398 0 00-.63-.176.459.459 0 00-.176.358c-.003.065.021.079.079.055a.782.782 0 01.365-.083.318.318 0 01.227.131c.007.01-.003.048-.017.062a.425.425 0 01-.269.124.504.504 0 01-.341-.079c-.169-.117-.337-.096-.506.01-.076.048-.055.045-.11-.024a.584.584 0 00-.596-.227c-.048.01-.096.014-.138.028-.045.01-.065-.003-.083-.038-.065-.117-.155-.2-.293-.22a.502.502 0 00-.31.052c-.031.014-.059.031-.09.048-.107-.32-.341-.386-.64-.306-.02-.223-.154-.336-.34-.398.003-.055.014-.107.014-.155.003-.135-.069-.221-.19-.265-.055-.021-.069-.048-.069-.1 0-.083-.017-.162-.079-.224a.2.2 0 00-.044-.038c-.114-.048-.128-.151-.128-.255 0-.134.01-.265.003-.396-.003-.062-.034-.124-.058-.186-.017-.034-.014-.051.014-.079.048-.052.093-.107.131-.165.052-.086.034-.182.024-.275a1.605 1.605 0 00-.028-.138c-.013-.042-.003-.069.038-.093a.374.374 0 00.186-.296.358.358 0 00-.021-.162c-.024-.086-.02-.093.056-.135a.538.538 0 00.286-.475l.003-.045c-.007-.034.01-.045.041-.052.279-.069.417-.262.461-.534.003-.041.017-.059.069-.062.172-.003.334-.045.451-.176.059-.062.086-.148.127-.224.01-.017.031-.038.045-.038.224.003.389-.107.534-.258.021-.024.038-.031.069-.024a.518.518 0 00.145.024c.134.007.234-.062.31-.165.034-.045.065-.055.121-.038.155.055.3.021.441-.055.041-.024.076-.034.127-.014a.59.59 0 00.427-.021.1.1 0 01.076.003.513.513 0 00.458.014c.052-.021.083-.017.124.028.103.11.238.148.379.096.124-.048.196-.017.272.079a.55.55 0 00.341.2.428.428 0 00.107-.003c.038-.007.052.01.062.038.079.172.2.296.393.334.034.007.076.01.11.007.052-.007.072.01.089.055a.71.71 0 00.265.365.985.985 0 00.234.117c.045.017.065.034.069.083a.573.573 0 00.189.393c.045.041.103.065.158.096.024.01.034.021.028.052-.069.224.014.393.186.534.059.048.059.045.024.114-.055.117-.103.234-.093.368a.235.235 0 00.141.207c-.01-.055-.028-.107-.031-.162a.394.394 0 01.007-.141c.003-.017.031-.045.048-.041.017 0 .041.024.045.045a.348.348 0 01.017.121.463.463 0 00.096.275c.007.014.014.038.007.052-.083.176-.045.351.007.527.01.033.006.051-.014.075z"/>
  <path d="M11.623 6.729c-.063-.042-.12-.088-.185-.118a.46.46 0 00-.165-.035c-.071-.004-.142.004-.213.007-.088.004-.128-.032-.136-.121a.323.323 0 01.168-.29c.287-.131.616.032.617.395a.192.192 0 01-.086.162zM12.457 6.021c-.072-.204.005-.35.199-.434.193-.084.384-.002.498.166.072.105.029.323-.07.392-.114-.192-.362-.289-.627-.124zM11.525 6.026c-.103-.062-.124-.327.056-.418a.447.447 0 01.652.415c-.001.016-.01.031-.016.047-.012-.009-.027-.017-.036-.028a.377.377 0 00-.358-.141c-.048.006-.1.005-.142.024-.054.023-.1.064-.156.101zM9.946 6.3c-.121-.183-.258-.324-.483-.327-.048-.147.086-.306.248-.3.148.005.242.086.305.213.055.11.057.22-.001.328-.017.03-.043.054-.069.086zM10.773 6.524c-.033-.041-.055-.075-.083-.103a.421.421 0 00-.35-.135c-.096.008-.11-.01-.105-.108.008-.158.171-.276.352-.228a.34.34 0 01.257.325.763.763 0 01-.025.177c-.004.023-.026.042-.046.072zM11.156 5.972c-.04-.125-.089-.241-.231-.277-.124-.032-.245-.04-.355.04-.038-.09-.006-.176.087-.244.171-.126.445-.077.553.106a.309.309 0 01.017.316c-.013.024-.028.047-.043.07a.136.136 0 00-.028-.011zM10.337 5.768c-.043-.108-.078-.211-.169-.277-.093-.068-.201-.068-.319-.054.003-.027.002-.047.009-.064.047-.118.135-.179.261-.201a.25.25 0 01.233.064.33.33 0 01.1.221c.006.093-.002.183-.061.261-.013.017-.031.029-.054.05zM11.08 5.283c-.056-.046-.067-.147-.034-.229.082-.201.366-.234.491-.146.159.112.219.261.154.429-.008.02-.021.039-.031.058-.041-.063-.077-.126-.12-.182-.077-.099-.274-.156-.385-.034-.029.032-.05.069-.075.104zM14.442 5.43c-.081-.091-.086-.195-.076-.298.024-.231.209-.35.432-.283a.246.246 0 01.153.315c-.006-.003-.013-.004-.016-.009-.077-.103-.183-.099-.285-.031a.49.49 0 00-.186.25l-.022.056zM14.057 6.083c-.081-.217.006-.465.262-.518.141-.03.229.036.247.181.008.066.011.131-.024.19-.042-.012-.082-.025-.123-.034-.1-.021-.183.013-.255.081-.035.031-.068.063-.107.1zM13.925 5.985c-.082-.103-.179-.153-.31-.131-.126.021-.208.102-.282.2-.047-.145.037-.316.177-.4.112-.067.295-.043.367.036a.261.261 0 01.048.295zM12.624 5.403a.48.48 0 00-.284-.235c-.128-.045-.245-.007-.338.099-.026-.077.044-.193.145-.257.155-.099.294-.063.413.031.101.08.138.277.064.362zM14.172 5.462c.024-.14-.019-.25-.148-.311-.135-.064-.233.014-.321.111l-.015-.01c.001-.029 0-.058.004-.086.02-.172.182-.272.349-.226.185.051.295.285.192.459-.014.023-.031.044-.047.066l-.014-.003zM12.98 5.344c-.049-.117.001-.264.11-.34.113-.079.284-.097.393-.006.089.074.15.265.106.353-.045-.147-.142-.205-.289-.198a.374.374 0 00-.32.191zM11.399 4.375c-.021-.151-.073-.277-.223-.335-.154-.061-.267.008-.364.124-.023-.097.07-.231.197-.284a.346.346 0 01.399.11c.076.111.063.324-.009.385zM10.83 5.071a.392.392 0 00-.14-.359c-.125-.108-.246-.066-.366.013-.02-.089.038-.174.136-.207a.363.363 0 01.456.244c.03.095.039.187-.029.271-.012.015-.027.028-.041.043l-.016-.005zM15.457 5.116c-.088-.017-.178-.065-.251.006-.058.057-.101.131-.153.2-.004-.013-.013-.03-.015-.047a.613.613 0 01.038-.336c.036-.085.122-.14.205-.129a.2.2 0 01.17.177c.004.038.003.078.006.129zM11.539 4.6c-.034-.112.051-.277.135-.316.117-.054.314-.075.431.062.072.085.126.235.05.367-.038-.15-.094-.288-.258-.313-.156-.024-.265.073-.358.2zM12.492 4.686a.287.287 0 01.164-.333.346.346 0 01.4.095c.082.108.1.247.038.322-.005-.016-.009-.027-.011-.039a.27.27 0 00-.269-.227.767.767 0 00-.158.019.167.167 0 00-.123.102c-.011.021-.028.04-.041.061zM14.505 4.457c-.08-.101-.176-.139-.298-.107-.121.032-.155.14-.203.24-.081-.097-.06-.23.045-.363.082-.103.214-.102.327-.052.085.036.156.193.129.282zM13.303 4.021c-.038-.056-.065-.104-.1-.146a.266.266 0 00-.28-.087.143.143 0 00-.109.108l-.019.069c-.073-.081-.04-.248.06-.309a.318.318 0 01.461.164c.021.062.03.13-.013.201zM13.73 4.553a3.339 3.339 0 01-.02-.097.213.213 0 00-.123-.163c-.075-.035-.157-.017-.22.053a.403.403 0 00-.054.076c-.015.026-.024.056-.036.084l-.015-.002c.001-.036-.004-.074.004-.109.015-.069.029-.14.058-.203.05-.109.164-.137.268-.077.125.072.194.176.185.323-.003.039-.018.077-.027.116l-.02-.001zM12.631 4.107a.406.406 0 00-.324-.194c-.157-.011-.222.109-.301.215-.033-.087.005-.234.084-.29.153-.107.221-.124.393-.035.103.053.166.18.148.304zM10.726 3.962c-.029-.049-.05-.09-.076-.127-.089-.128-.187-.163-.337-.124-.04.01-.079.024-.119.034-.014.003-.029 0-.043 0 .001-.015-.001-.031.004-.045.021-.059.07-.093.122-.122a.321.321 0 01.474.23c.008.05.012.098-.025.154zM9.042 3.423c.122-.122.374-.08.406.107.021.129-.016.303-.158.359l.017-.133c.023-.165-.069-.268-.202-.313l-.063-.02zM9.241 5.043c.037-.078.152-.12.241-.095.112.031.225.185.235.287.006.063.016.123-.015.181a.174.174 0 01-.045.052c.002-.284-.176-.386-.416-.425zM14.154 3.839c-.037-.083-.054-.166-.013-.245a.423.423 0 01.106-.125c.098-.08.211-.073.297.019.025.027.031.071.04.112-.099-.022-.19-.029-.278.018-.088.047-.113.136-.152.221zM15.626 4.269h-.008c-.044-.011-.09-.041-.133-.005a.23.23 0 00-.089.175c-.001.058.015.115.022.173.002.013.001.026.002.038-.014-.002-.036.001-.041-.008-.027-.039-.063-.079-.072-.123a.539.539 0 01.027-.302c.023-.058.056-.11.123-.123.103-.02.174.053.169.175zM15.845 4.674c-.016-.014-.035-.026-.048-.042-.08-.093-.096-.319-.031-.424.028-.046.062-.088.122-.081.064.007.095.059.118.112.003.008-.01.034-.019.035-.09.017-.119.086-.13.162-.008.062.001.127.002.19l-.001.04a.091.091 0 00-.013.008zM10.084 4.77c-.019-.102-.031-.2-.056-.294-.03-.115-.11-.18-.229-.196-.028-.004-.056-.012-.096-.021.077-.069.159-.06.236-.043a.26.26 0 01.211.212c.024.122.025.243-.066.342zM9.951 3.826c-.021-.105-.012-.209-.086-.292-.075-.083-.176-.094-.283-.12.061-.071.134-.084.213-.082.077.002.201.103.229.184a.322.322 0 01-.073.31zM14.894 3.894c-.129-.151-.057-.397.112-.439.088-.022.235.048.24.155-.196-.015-.345.04-.352.284zM13.389 1.429c-.06.104-.221.168-.32.128a.424.424 0 01-.252-.304.99.99 0 00.572.176zM9.294 6.093c-.008-.034-.015-.055-.018-.076-.023-.167-.124-.263-.277-.315-.02-.007-.037-.025-.055-.037.019-.012.036-.03.057-.036a.286.286 0 01.3.091c.082.091.088.207.032.32-.007.015-.021.028-.039.053zM14.699 4.645c-.054-.031-.078-.109-.06-.178a.31.31 0 01.297-.222c.057.002.118.046.134.098.012.036-.007.063-.043.052-.074-.022-.15-.028-.204.03-.046.05-.073.118-.108.179-.006.012-.01.025-.016.041zM14.112 1.361c-.018.069-.063.096-.115.109-.138.036-.236-.035-.32-.132a.195.195 0 01-.016-.21.562.562 0 00.451.233zM9.163 4.174c.164-.062.276-.013.356.137.056.105.056.33-.06.381.012-.232-.044-.427-.296-.518zM11.999 1.147a.287.287 0 01-.115.218c-.094.065-.196.089-.3.026-.062-.038-.111-.091-.115-.183.03.01.052.015.073.024.102.044.207.06.311.017.051-.022.094-.065.146-.102zM9.079 5.369c-.038-.18-.104-.341-.293-.409.033-.071.135-.092.207-.043.104.07.192.247.147.377-.009.029-.027.053-.042.079l-.019-.004zM13.941 3.684c-.269-.064-.303-.056-.482.116a.208.208 0 01.038-.178c.07-.094.225-.161.351-.101a.165.165 0 01.093.163zM14.287 1.517c.075.204.227.29.424.313-.055.089-.211.114-.329.037-.096-.063-.156-.241-.095-.35zM15.587 3.116c-.079.009-.128-.039-.178-.081-.101-.085-.094-.202-.082-.316.005-.052.046-.09.111-.103a.746.746 0 00.149.5zM15.096 3.172c-.098.007-.213-.096-.247-.227-.033-.122.022-.214.143-.24.008-.002.016-.001.03-.001a.276.276 0 00-.025.244c.024.076.064.148.099.224zM9.289 2.247c.013.033.032.066.038.1.027.149-.12.324-.271.324-.022 0-.044-.014-.066-.022.012-.019.02-.044.037-.056a.562.562 0 00.228-.307c.003-.013.012-.024.018-.035l.016-.004zM10.625 1.537c.188.01.376.02.519-.138.029.104-.047.224-.161.248a.424.424 0 01-.331-.068c-.011-.007-.019-.019-.029-.029l.002-.013zM10.092 1.56a.622.622 0 00.434-.293c.058.074.02.195-.08.281-.102.087-.274.098-.354.012zM8.838 2.83c.11.017.157.127.139.232a.256.256 0 01-.266.207c.099-.131.17-.268.127-.439zM14.716 2.395c-.129.069-.253.051-.341-.04A.334.334 0 0114.33 2c.05.21.156.357.386.395zM13.578 1.046c-.028.078-.136.133-.221.12-.12-.019-.252-.142-.255-.24.077.034.151.078.23.098.077.02.162.016.246.022zM12.959.895c-.003.096-.091.173-.253.161-.121-.009-.257-.124-.253-.204.08.03.16.079.244.086.086.008.175-.026.262-.043zM15.202 2.55c-.073.023-.133-.006-.181-.046-.104-.085-.193-.184-.162-.336.006-.03.021-.058.035-.085.005-.01.024-.019.034-.017.008.002.016.02.018.032.004.017.002.035.003.052.013.164.076.297.23.375a.066.066 0 01.017.012l.006.013zM9.754 1.712c.077.041.075.176.019.247-.105.134-.245.186-.328.099.144-.078.28-.164.309-.346zM8.596 5.123a.547.547 0 00-.182-.352c-.012-.011-.016-.032-.024-.048.017-.007.033-.018.05-.019a.174.174 0 01.187.108.328.328 0 01-.005.285c-.003.006-.01.01-.026.026zM11.812.828c.079.02.154.05.231.055.076.006.154-.013.23-.021-.03.121-.136.165-.256.149-.114-.015-.215-.115-.205-.183zM11.411.945c.036.102-.044.216-.175.259-.097.032-.255-.013-.295-.094.185.03.344-.012.47-.165zM8.447 4.5c.006-.019.01-.038.017-.056a.382.382 0 00.011-.284.114.114 0 01-.009-.03l-.005-.073c.027.009.062.01.078.028a.306.306 0 01.072.122.283.283 0 01-.077.263c-.018.02-.049.029-.074.043a.08.08 0 00-.013-.013zM8.719 4.201c.09-.043.191.002.216.066a.418.418 0 01-.016.374c-.007.012-.018.022-.033.039-.004-.097-.001-.185-.013-.271-.013-.089-.077-.151-.154-.208zM15.527 3.762a.224.224 0 01-.101-.165.608.608 0 01.009-.204c.013-.066.09-.099.153-.078.031.011.047.033.022.057-.109.104-.097.232-.081.363-.001.005-.002.01-.002.027zM9.903 2.28c.06.068.05.174-.014.247-.075.085-.205.11-.299.049.147-.055.268-.133.313-.296zM9.165 3.207c.075-.117.13-.235.109-.374.071.012.119.084.112.16-.012.131-.097.217-.221.214zM14.573 3.208c-.024-.008-.052-.012-.072-.026-.092-.065-.127-.215-.069-.311.015-.025.051-.037.079-.052.003-.001.026.021.024.028a.444.444 0 00.048.345l-.01.016zM11.919 3.613c-.098-.086-.218-.079-.336-.074-.001-.011-.003-.016-.002-.018.042-.061.194-.118.264-.099.072.021.119.131.074.191zM8.597 3.43c.099.037.13.12.104.239-.016.069-.092.154-.186.136a.456.456 0 00.082-.375zM10.589 3.089c-.079-.069-.159-.114-.263-.084-.01.003-.024-.006-.036-.009.003-.011.003-.024.01-.032.068-.089.221-.089.284.002.026.036.035.077.005.123zM8.845 3.931c.041-.126.06-.248.002-.375.081.019.126.094.129.187.002.067-.048.178-.131.188zM9.813 2.788c.075.035.113.126.099.214-.014.076-.083.135-.172.141a.426.426 0 00.073-.355zM18.63 22.126c-.265.003-.296-.034-.296-.31 0-.461.003-.923 0-1.384-.003-.282-.052-.331-.334-.331h-2.61c-.393 0-.406-.014-.413-.41-.003-.282-.055-.341-.351-.341-.141 0-.227-.052-.279-.179-.11-.275-.241-.541-.337-.816-.303-.909-.654-1.821-.551-2.803.069-.689.172-1.381.344-2.049.53-2.052 1.419-3.963 2.383-5.84.041-.076.076-.155.117-.231-.757 1.005-1.728 1.677-2.94 2.011-.09.024-.2.155-.213.248-.134.912-.3 1.825-.358 2.741-.117 1.797-.176 3.595-.248 5.395-.017.413-.003.83.003 1.246.003.193-.083.282-.275.272-.065-.003-.134-.007-.203 0-.213.017-.293-.083-.296-.296-.041-1.877-.055-3.753-.148-5.626-.062-1.219-.244-2.434-.365-3.653-.021-.224-.127-.324-.341-.375a4.507 4.507 0 01-1.808-.912c-.324-.272-.62-.582-.916-.868 0-.007-.01.01-.003.017.108.226.218.449.328.673.937 1.908 1.787 3.849 2.231 5.939.169.813.282 1.639.093 2.452-.172.74-.451 1.453-.671 2.183-.11.358-.306.527-.706.475-.327-.041-.372.034-.375.372 0 .327-.048.375-.386.375H5.983c-.265 0-.317.055-.32.324-.003.362.003.727 0 1.088-.007.534.107.654-.568.616-.186-.01-.275.09-.269.279.003.227 0 .455 0 .682 0 .375.034.41.417.41h13.576c.293 0 .351-.059.351-.341v-.475c.004-.479.076-.575-.54-.558zm-5.11-4.09c.3 1.023.43 1.274.43 1.274h-.54s-.134-.999-.176-1.374c-.041-.375-.107-1.357-.107-1.357s.272 1.04.393 1.457zm-.334-6.053c.09-.623.289-2.052.368-2.149.076-.093.379-.169.609-.272.234-.107.53-.272.53-.272s-.358.727-.754 1.697c-.393.971-.968 3.464-.968 3.464s.129-1.849.215-2.468zm-2.786-.995c-.396-.971-.754-1.698-.754-1.698s.296.165.53.272c.231.103.534.179.613.272.076.096.279 1.525.365 2.149.086.62.214 2.469.214 2.469s-.575-2.494-.968-3.464zm.434 7.048c.121-.417.392-1.456.392-1.456s-.065.981-.107 1.357c-.041.375-.176 1.374-.176 1.374h-.541c.002-.001.133-.253.432-1.275zm-1.553 1.945h5.526v.11H9.281v-.11zm4.928.579v.968H9.75v-.968h4.459zm3.832 1.525H5.955v-.11h12.086v.11z"/>
</svg>
