<svg xmlns="http://www.w3.org/2000/svg" viewBox="0 0 24 24" fill="currentColor" aria-hidden="true">
  <path d="M13.822 18.817h-.01c.021.031.031.063.042.094-.001-.032-.022-.063-.032-.094z"/>
  <path d="M18.105 9.549c.052-3.33-2.786-6.116-6.063-6.147-3.33-.021-6.168 2.817-6.147 6.095.01 2.964 2.053 5.414 4.828 5.99h-.063l.021.094c.031.084.01.147-.063.188-.073.063-.157.126-.22.189.073.168.157.314.209.471.115.377.126.765.084 1.152-.031.293-.094.565-.262.817a.68.68 0 01-.22.209c-.115.052-.199.115-.241.209h-.021c-.021.031-.021.052-.031.084-.209.534-.597.963-1.037 1.33-.084.073-.126.136-.115.251.01.178 0 .346 0 .524 0 .073-.021.094-.094.105-.084.01-.168.031-.251.052-.084.01-.115.063-.105.147v.534c0 .073-.031.094-.094.105-.094.021-.199.042-.283.073-.042.021-.084.084-.084.126-.01.304-.01.607 0 .922 0 .042.042.105.084.136.073.031.157.052.241.073.23.031.471.073.702.094 1.162.115 2.325.136 3.487.126.953-.01 1.906-.031 2.859-.147.188-.031.377-.073.565-.105.094-.031.147-.084.136-.199 0-.293.01-.586 0-.88 0-.042-.052-.105-.084-.126-.073-.031-.147-.063-.23-.073-.126 0-.157-.063-.147-.178.01-.073 0-.147 0-.22-.01-.398.105-.367-.367-.45-.073-.01-.094-.042-.084-.105 0-.168-.01-.346 0-.513.01-.115-.031-.199-.126-.272-.44-.367-.817-.775-1.037-1.32a.353.353 0 00-.042-.094.455.455 0 00-.199-.199c-.094-.042-.188-.094-.23-.178a1.453 1.453 0 01-.22-.44c-.168-.702-.168-1.382.22-2.032a1.127 1.127 0 00-.168-.147c-.136-.073-.147-.168-.105-.304 2.84-.511 4.955-2.972 4.997-5.967zm-3.906 5.089c.084-.23.44-.429.785-.429-.23.262-.471.398-.785.429zm.775-1.057c-.042-.01-.105-.105-.105-.157.01-.188.346-.492.534-.482.063 0 .115.052.157.073 0 .241-.387.597-.586.566zm1.204-.231c.031-.346.251-.639.524-.743-.053.335-.262.523-.524.743zm.293-1.361c-.021.042-.126.073-.178.052-.042-.021-.063-.105-.115-.209.105-.168.209-.356.325-.524.031-.031.126-.063.168-.042.031.021.084.115.063.157a4.623 4.623 0 01-.263.566zm.828-.639a.855.855 0 01.241-.764c.083.293-.042.544-.241.764zm-.021-1.382c-.01.021-.115 0-.115 0-.031-.157-.073-.304-.052-.45.021-.105.136-.188.209-.293.052.105.105.209.178.335-.084.146-.147.282-.22.408zm-10.787.565a1.3 1.3 0 01.283.848c-.272-.23-.387-.638-.283-.848zm.199-.576c-.01-.01-.021-.01-.031-.031-.063-.116-.105-.262-.147-.398.01 0 .021-.01.031-.01 0-.052 0-.115.021-.157a.255.255 0 01.105-.126c.031-.01.126.042.126.063.031.209.073.408.063.597-.011.104-.105.135-.168.062zm1.079 3.351c-.168-.22-.325-.44-.482-.649.283 0 .534.325.555.597-.031.021-.052.031-.073.052zm-.513-1.895c-.031-.157.105-.23.209-.105.147.147.241.346.346.513-.063.105-.073.199-.115.22a.281.281 0 01-.126-.01c-.031-.01-.052-.031-.052-.042-.105-.189-.22-.377-.262-.576zm1.696 2.157c0 .01 0 .01-.01.01-.021 0-.042-.01-.073-.021-.042-.021-.105-.052-.157-.094a.741.741 0 01-.251-.293c-.01-.021-.021-.042-.021-.063 0-.052.063-.168.115-.168.188-.041.565.315.575.566-.021.01-.031.021-.052.031a.202.202 0 01-.073.021c-.021.011-.032.011-.053.011zm.817 1.089c-.23-.136-.471-.262-.712-.398.283-.105.649.094.764.325a.3.3 0 01-.052.073zm1.163-.283a8.49 8.49 0 01-.513-.22c-.042-.021-.084-.105-.073-.136.021-.042.094-.105.136-.105.178.021.366.031.534.094.073.021.126.136.188.209-.084.054-.178.106-.272.158zm.565-.555c-.346-.272-.723-.377-1.173-.262-.555.126-.691.052-.932-.461-.136-.283-.367-.429-.66-.503-.461-.126-.566-.272-.524-.754.031-.44-.115-.764-.545-.974-.555-.283-.628-.618-.471-1.026a.58.58 0 00-.084-.597c-.775-.859-.45-1.749-.073-2.608.775-1.77 3.006-3.006 4.838-2.932 2.178.01 3.77.901 4.932 2.545.45.618.555 1.351.513 2.094-.01.209-.115.44-.241.618-.241.335-.387.649-.23 1.079.115.283-.073.503-.283.681-.063.052-.136.115-.209.147-.45.178-.576.524-.555.974.021.534-.042.618-.566.765-.314.084-.534.262-.66.565-.168.398-.283.461-.712.419-.188-.031-.377-.084-.576-.094-.293 0-.545.147-.775.325-.459.355-.553.366-1.014-.001zm1.435.503c-.042 0-.115-.052-.136-.094-.01-.052.031-.136.073-.157.147-.084.314-.147.482-.22.115.063.199.105.293.157-.063.073-.115.199-.199.22-.157.063-.335.073-.513.094z"/>
  <path d="M16.869 8.522c.042-.084.042-.178.063-.251-.021.073-.031.168-.063.251zm-2.094 3.446c0 .105.042.209.147.325a.503.503 0 01-.147-.325z"/>
  <path d="M14.44 11.591c-.23.188-.461.356-.691.534h-.01a.361.361 0 01-.073-.126.536.536 0 01.01-.335.292.292 0 01.105-.147.43.43 0 01.492-.063c.042.01.073.031.094.063.031.011.052.042.073.074zM10.397 11.832a.559.559 0 01-.084.304c-.115-.094-.23-.178-.356-.272l-.367-.272.01-.01c.031-.031.052-.052.084-.073a.806.806 0 01.188-.094.471.471 0 01.367.084.318.318 0 01.115.147c.033.05.043.123.043.186zM13.246 12.46c-.293.073-.566.147-.859.22-.073-.147.042-.45.251-.534a.418.418 0 01.44.052.659.659 0 01.168.262zM11.633 12.69c-.293-.073-.576-.157-.859-.23.042-.22.241-.366.492-.335.252.031.388.241.367.565zM7.957 10.575c-.052-.168-.094-.314-.157-.45-.073-.126-.167-.241-.261-.356.22-.094.429-.021.555.178.136.22.104.429-.137.628zM12.45 13.528c-.147-.021-.304-.063-.45-.063s-.283.042-.45.063c.052-.272.209-.408.45-.419.22 0 .387.147.45.419zM14.377 12.795c-.272.136-.545.272-.806.398a.373.373 0 01.094-.429c.021-.031.052-.052.094-.084a.322.322 0 01.126-.052.352.352 0 01.23-.01c.094.02.178.083.262.177zM9.057 12.271c-.094-.126-.188-.262-.283-.398-.073-.105-.157-.209-.23-.325a.433.433 0 01.534.094c.157.2.157.42-.021.629zM16.367 9.769c-.136.272-.262.534-.398.796a.441.441 0 01-.157-.545c.104-.22.303-.304.555-.251zM10.45 13.183c-.262-.136-.524-.262-.785-.398.115-.188.335-.251.576-.136a.416.416 0 01.23.251.44.44 0 01-.021.283zM15.466 11.57c-.105.115-.22.22-.314.335-.052.084-.105.168-.157.262-.021.042-.042.084-.073.126a.508.508 0 01-.147-.325c0-.094.021-.178.084-.262.136-.199.345-.241.607-.136z"/>
  <path d="M14.921 12.292c-.105-.115-.147-.22-.147-.325a.509.509 0 00.147.325z"/>
  <path d="M16.932 8.271c-.021.073-.031.168-.063.251-.031.063-.094.105-.147.157-.031-.052-.105-.105-.105-.168 0-.168.01-.335.042-.503.01-.042.084-.084.136-.126.031.042.084.084.094.136.033.075.033.159.043.253z"/>
  <path d="M16.932 8.271c-.021.073-.021.168-.063.251.032-.083.042-.178.063-.251z"/>
  <path d="M7.361 8.585c-.053.095-.105.126-.189.021-.136-.178-.115-.565.052-.754.178.178.241.545.137.733zM9.179 2.94l.147.859-.765-.409-.764.409.147-.859-.629-.607.859-.126.387-.775.388.775.859.126zM12.667 2.008l.146.859-.775-.409-.764.409.146-.859-.617-.607.858-.126.377-.775.388.775.858.126zM16.143 2.94l.147.859-.765-.409-.774.409.146-.859-.618-.607.859-.126.387-.775.377.775.859.126z"/>
</svg>
