<svg xmlns="http://www.w3.org/2000/svg" viewBox="0 0 24 24" fill="currentColor" aria-hidden="true">
  <path d="M3.273 5.275v2.316H.501V.503h7.088v2.763H5.257c.079.083.119.127.162.169 1.225 1.226 2.452 2.45 3.676 3.677.459.461.566 1.013.344 1.61-.334.898-1.57 1.12-2.288.416-.795-.782-1.578-1.575-2.366-2.363-.454-.454-.907-.908-1.362-1.361-.039-.04-.081-.076-.15-.139zM5.264 20.728H7.59v2.769H.5V16.41h2.762v2.369c.087-.081.135-.124.181-.17 1.234-1.233 2.466-2.468 3.701-3.7.528-.527 1.3-.595 1.861-.172.656.494.723 1.492.137 2.102-.251.261-.511.513-.766.768l-2.945 2.946c-.045.045-.088.092-.167.175zM18.726 3.274h-2.323V.502h7.093v7.092h-2.77V5.313l-.08-.056c-.03.057-.048.125-.091.169a2122.783 2122.783 0 01-3.674 3.677c-.451.45-1.093.571-1.64.314-.829-.39-1.044-1.481-.425-2.172.117-.13.244-.251.368-.375 1.143-1.143 2.285-2.286 3.429-3.427.044-.044.104-.071.156-.105a7.275 7.275 0 01-.043-.064zM23.5 16.408v7.09h-7.095v-2.767h2.322l.037-.065c-.076-.061-.159-.115-.228-.184-1.206-1.203-2.409-2.408-3.615-3.611-.275-.274-.455-.59-.458-.987-.004-.613.296-1.044.835-1.302.504-.241 1.084-.13 1.5.28.756.745 1.504 1.499 2.254 2.25l1.51 1.51c.04.04.084.078.155.145v-2.358l2.783-.001z"/>
</svg>
