<svg xmlns="http://www.w3.org/2000/svg" data-name="Layer 1" viewBox="0 0 521.86 542.55" fill="currentColor" aria-hidden="true">
  <circle cx="242.79" cy="281.86" r="8.94" transform="rotate(-22.5 242.798 281.857)"/>
  <circle cx="262.05" cy="211.52" r="7" transform="rotate(-9.22 261.991 211.482)"/>
  <circle cx="234.53" cy="239.24" r="12.71"/>
  <circle cx="300.1" cy="287.78" r="11.74" transform="rotate(-9.22 300.033 287.696)"/>
  <path d="M281.91 250.06a7.33 7.33 0 10-7.33 7.33 7.33 7.33 0 007.33-7.33z"/>
  <path d="M246.22 385.79h172.63c0-2.1.05-3.61 0-5.12-1.36-29.79-2-59.63-4.3-89.36-1.89-25-4.9-49.93-8.7-74.69-4.85-31.22-10.85-62.26-16.52-93.35-4.47-24.65-24.39-41.15-49.47-41.15-81.6 0-163.19.2-244.78-.13-22.53-.09-37.53 18.48-36.51 36.39.72 12.48 4.62 24.78 7.3 37.12.17.79 2 1.7 3.06 1.74 5.57.17 11.15.08 16.73.08h31.76a22.79 22.79 0 00-.26-2.71c-3.59-14.73-7.14-29.47-10.83-44.17-1.35-5.37.65-9.92 5.43-11.45 4.51-1.44 9 1 10.82 6 1.34 3.8 2.49 7.68 3.49 11.59 14.53 57.12 24.06 115 26.62 174 1.71 39.62.55 79.18-2 118.73-1.09 16.66 3.8 31.47 17 42.59 4.85 4.07 10.37 7.3 16.91 7.45 19.5.47 34.79-9.37 42.64-27.24 4.79-10.9 6.41-22.43 6.6-34.23.16-9.39 2.91-12.09 12.38-12.09zm110.52-177.24a5.36 5.36 0 11-5.36 5.36 5.36 5.36 0 015.36-5.36zm-32.2-47.61a8.65 8.65 0 11-8.65 8.65 8.65 8.65 0 018.65-8.65zm-6.24 33.41a8.07 8.07 0 11-8.07 8.07 8.07 8.07 0 018.07-8.07zm-126.13 49.09c2.35-46.89 43.66-83.4 90.55-81-4.16 13-.64 24.57 9.94 28.5-9.59 30.81 11.82 51 40.52 41.7 7.3 10.89 16.53 14.22 28.53 6.86A86.91 86.91 0 01362 252a85 85 0 11-169.82-8.55z"/>
  <path d="M462.54 403.18H252.09c-2.44 10.59-4.32 20.72-7.15 30.56-2.89 10.07-8.86 18.6-16.62 26.63 1.81.1 2.63.18 3.46.18h187.46a45.5 45.5 0 009.55-.86c23.01-5.07 38.27-27.69 33.75-56.51z"/>
</svg>
