<svg xmlns="http://www.w3.org/2000/svg" data-name="Layer 1" viewBox="0 0 521.86 542.55" fill="currentColor" aria-hidden="true">
  <path d="M267.73 54.73c5.33 1.07 10.68 2 16 3.22 36.27 8.51 67.27 43.13 72.13 80.16 3.22 24.39-.33 47.43-14.1 68-18.29 27.39-43.59 43.33-77.07 45.59-43.94 3-80.09-22.88-96.5-58-15.41-33-9.18-76.86 15-104.17C198 72.83 215.87 61.28 238 56.77c3.76-.76 7.56-1.36 11.34-2z"/>
  <path d="M260.83 464.33h-97.18c-16.61 0-32.3-3.27-46.07-13.13-15.64-11.2-24.85-26.53-26.47-45.51-2.88-33.87 1.06-67.11 13.79-98.8 7.53-18.76 18.79-34.94 37.23-44.94a74.92 74.92 0 0137.6-9.18c4.13.08 8.49 2.12 12.26 4.16 6.07 3.3 11.7 7.4 17.59 11q51.38 31.8 102.78 0c6.46-4 12.86-8.07 19.25-12.17 6.86-4.4 14.36-3.41 21.74-2.41 26.61 3.63 45.37 18.32 58 41.54 11.31 20.72 16.4 43.23 18.66 66.42a331.07 331.07 0 011.57 36.31c-.44 35.52-25.53 62.47-60.86 65.86-5.69.55-11.43.74-17.15.75q-46.35.18-92.74.1z"/>
</svg>
