<svg xmlns="http://www.w3.org/2000/svg" viewBox="0 0 24 24" fill="currentColor" aria-hidden="true">
  <path d="M20.132 11.722v.851c0 .016 0 .033-.008.049v-.9a.357.357 0 00-.098-.246.329.329 0 01.106.246z"/>
  <path d="M23.021 16.968v5.713c0 .45-.368.819-.819.819h-5.713a.821.821 0 01-.819-.819v-5.713c0-.45.368-.819.819-.819h2.079v-3.225H5.431v3.225h2.071c.458 0 .819.368.819.819v5.713c0 .45-.36.819-.819.819H1.797a.816.816 0 01-.819-.819v-5.713c0-.45.36-.819.819-.819h2.071v-4.428c0-.196.164-.352.36-.352h6.99V7.85H9.139a.821.821 0 01-.819-.819V1.319c0-.45.368-.819.819-.819h5.713c.45 0 .819.368.819.819v5.713c0 .45-.368.819-.819.819h-2.071v3.52h6.998a.33.33 0 01.246.106.353.353 0 01.098.246v4.428h2.079a.819.819 0 01.819.817z"/>
</svg>
