<svg xmlns="http://www.w3.org/2000/svg" viewBox="0 0 521.9 542.5" fill="currentColor" aria-hidden="true">
  <path d="M413 116.1c0-19.4-13-32.2-32.4-32.2-58.1 0-116.1 0-174.1-.1-3.8-.1-7.6 1.4-10.2 4.2-23.1 23.2-46.3 46.4-69.5 69.5-3 2.8-4.7 6.8-4.6 10.9 0 82.1.1 164.3.1 246.4 0 19.6 12.9 32.4 32.7 32.4h76.2v25.6c0 4.1 1 7.6 4.9 9.7 3.8 2.1 7.3 1 10.7-1.3 6-4.1 12.1-8 18-12.1 2-1.4 3.5-1.6 5.6-.1 5.6 4 11.5 7.7 17.2 11.7 3.6 2.5 7.2 4.1 11.4 1.9 4.2-2.3 5-6.2 5-10.5-.1-8.1 0-16.1 0-24.8h76.7c19.4 0 32.3-12.9 32.3-32.3V116.1zM285.4 457.3c-3.8-2.6-7.2-4.9-10.6-7.2-5.9-4-8.4-4-14.3 0-3.4 2.3-6.7 4.5-10.6 7.2v-49.4c11.5 3.9 24 3.9 35.5 0v49.4zm109.3-43c0 10.3-4.5 14.8-14.8 14.8H304c0-6 .3-11.6-.1-17.2-.7-9.2 1.4-16.6 7.4-24.3 15-19.4 13.9-44.5-.9-63.9-14.6-19-39.6-26.6-61.6-18.6-22.5 8.2-36.9 30.2-35.6 54.1.7 13.5 6.1 25.2 15.4 35.1 1.4 1.6 2.3 3.7 2.5 5.8.2 9.5.1 19 .1 28.7-1.5.1-2.6.3-3.7.3h-72.8c-9.5-.1-14.2-4.6-14.2-14.1V174.7h33.1c4.7 0 9.4.2 14-.5 15.1-2.6 25.3-14.7 25.4-30.1.1-13.4.1-27 .1-40.4.1-.4.2-.9.3-1.3 1.3-.1 2.8-.2 4.3-.2h162.2c10.5 0 14.8 4.3 14.8 14.6v297.5z"/>
  <path d="M351.5 247.9c-1.9-.4-3.9-.5-5.9-.5H189.5c-1.1 0-2.3-.1-3.4 0-5.5.4-9.3 4.2-9.3 9.1 0 5 3.8 8.7 9.4 9.1h159.9c1.8 0 3.7-.1 5.5-.5 3.3-.8 5.8-3.4 6.6-6.6 1.1-4.7-1.9-9.5-6.7-10.6zM349.5 211.2h-160c-1.6 0-3.1 0-4.7.1-3.8.3-7 3.1-7.7 6.8-1.6 6.2 2.9 11.1 10.3 11.1h80l64.7-.1c5.8 0 11.6.1 17.4-.1 4.9-.1 8.9-4.1 8.9-9 0-4.8-3.7-8.5-8.9-8.8zM258.5 156.6c1.3.1 2.5.1 3.8.1h83.9c7.9 0 12.3-3.4 12.2-9.2s-4.4-9.1-12.4-9.1h-84.3c-1.1 0-2.3 0-3.4.1-5.4.5-8.8 4.2-8.7 9.2s3.5 8.4 8.9 8.9zM259.3 192.8h89c4.5 0 7.8-1.6 9.5-5.8 2.4-6.2-2-12.2-9.2-12.3-14.2-.1-28.4 0-42.6 0-15.5 0-30.9-.1-46.4 0-6.1 0-10 3.8-10 9.1s3.7 9 9.7 9z"/>
</svg>
