<svg xmlns="http://www.w3.org/2000/svg" data-name="Layer 1" viewBox="0 0 521.86 542.55" fill="currentColor" aria-hidden="true">
  <path d="M475.82 390.65c-1.85 7.72-3 15.7-5.66 23.13a89.11 89.11 0 01-92.92 58.38c-40.18-4-73.39-35.76-79.11-75.66-6.78-47.28 23.57-90.94 70.1-100.85 47.86-10.19 95.91 21.43 105.78 69.63.69 3.37 1.21 6.78 1.81 10.17zm-76.71 11.84v-30.76c0-8.37-5.07-13.9-12.56-14s-12.88 5.45-12.92 13.72q-.15 30.94 0 61.9c0 8.2 5.61 13.77 13.06 13.6s12.36-5.62 12.41-13.75c.05-10.2 0-20.46.01-30.71zm-12.79-83.07a12.76 12.76 0 00-12.68 12.77 13 13 0 0012.84 12.72A12.78 12.78 0 00399.07 332a12.58 12.58 0 00-12.75-12.58z"/>
  <path d="M399 166.3v102.75c-1.26 0-2.41.1-3.54 0-28.13-2.86-53.17 5.25-75.84 21.5a16.26 16.26 0 01-10.2 3.36c-41.86-.13-83.73-.08-125.59-.07-10.69 0-15.32 4.61-15.33 15.3v46.4c0 10.1 4.85 14.94 15 15h88.9c-3.93 41.23 11 74.43 41.89 101.65h-171V166.3zM258.08 268.25h76.38c8.09 0 13.66-5.54 13.5-13.1-.15-7.41-5.81-12.44-14.18-12.45H181.82c-5.57 0-9.81 2.45-12.19 7.51-4.1 8.73 2.3 18 12.48 18 25.32.08 50.65.04 75.97.04zM258 217.1h77.97a12.65 12.65 0 0011.79-10.16c1.07-6-1.83-11.94-7.35-14a23.51 23.51 0 00-8.19-1.25q-74-.1-148-.05a15.41 15.41 0 00-3.19.07 24.33 24.33 0 00-6.09 1.71 12.56 12.56 0 00-6.15 14.3c1.53 5.72 6.39 9.44 12.79 9.46q38.25-.03 76.42-.08zM390.54 63.89c-18.54 6.54-29.31 19-29.48 38.83-.14 15.88 9.49 31.43 30.11 37.53-1.2.07-2.4.2-3.6.2h-280.7c-20 0-33.92-10.28-39.29-28.7-6.37-21.9 10.42-45.92 33.14-47.48 3.45-.24 6.92-.36 10.38-.36h274.7zM66.22 152.65c15.39 12.19 32.53 14.49 50.81 13.13v306.44a37.35 37.35 0 01-19.17-3.54c-19.64-8.82-30.56-24.1-31.47-45.68-.67-15.7-.17-31.45-.17-47.18v-217.1z"/>
  <path d="M194.15 344.6v-24.87h95.93a14.86 14.86 0 01-.65 1.95c-3.24 6.83-6.41 13.7-9.84 20.44-.63 1.23-2.34 2.71-3.56 2.72-26.77.15-53.53.1-80.3.09a11.41 11.41 0 01-1.58-.33z"/>
</svg>
