<svg xmlns="http://www.w3.org/2000/svg" viewBox="0 0 24 24" fill="currentColor" aria-hidden="true">
  <path d="M11.985 10.264c-3.564 0-6.603 2.894-6.603 6.618C5.374 20.537 8.344 23.5 12 23.5a6.62 6.62 0 006.618-6.626c-.007-3.701-3.023-6.618-6.633-6.61zm4.897 5.94l-.914.64c-.533.373-1.066.739-1.599 1.112-.038.023-.069.053-.099.076.084.251.175.495.259.739.274.754.548 1.5.822 2.247.091.251-.03.48-.274.518-.107.015-.19-.023-.274-.084-.305-.213-.609-.419-.922-.632-.579-.404-1.158-.815-1.744-1.219-.015-.008-.038-.023-.069-.038-.061.046-.129.084-.19.13-.807.564-1.607 1.135-2.414 1.698-.091.061-.183.107-.297.091-.228-.03-.358-.244-.289-.472.099-.297.19-.602.289-.899.213-.663.426-1.333.632-2.003a.342.342 0 00.03-.107c-.183-.129-.373-.259-.556-.388-.716-.495-1.432-.99-2.155-1.485-.213-.137-.221-.404-.099-.541a.362.362 0 01.297-.129c1.051.015 2.11.023 3.161.03.053.008.099 0 .152 0 .046-.122.084-.236.122-.35.267-.868.541-1.744.815-2.612.061-.198.175-.289.343-.297.175 0 .289.076.358.251l.251.708c.267.746.533 1.485.8 2.224.038.099.038.107.152.107.853.008 1.698.008 2.544.015.229 0 .449 0 .678.008.236 0 .396.183.366.404a.35.35 0 01-.176.258z"/>
  <path d="M17.621.972c-.069.244-.137.48-.213.716-.373 1.318-.754 2.627-1.135 3.945-.388 1.348-.784 2.696-1.173 4.044-.069.244-.137.487-.213.739-.008.03-.015.053-.03.099-1.477-.647-2.993-.777-4.562-.404.008-.046.008-.069.015-.099.305-1.059.617-2.117.922-3.176.327-1.15.663-2.292.998-3.442l.731-2.536.023-.091c.061-.175.175-.259.358-.259C13.698.5 14.056.5 14.422.5c.929 0 1.858 0 2.787.008a.66.66 0 01.175.015c.191.053.29.244.237.449zM11.787 3.447a.23.23 0 010 .175c-.335 1.158-.663 2.308-.998 3.458-.297 1.021-.586 2.033-.883 3.054-.023.076-.053.114-.13.137-.213.069-.419.152-.64.236-.076-.259-.145-.503-.221-.746-.22-.785-.449-1.577-.677-2.361l-1.28-4.425c-.19-.663-.373-1.318-.579-1.98A.388.388 0 016.753.5c1.295.008 2.582.008 3.876 0 .183 0 .343.114.396.289.168.609.35 1.219.525 1.828.077.274.153.556.237.83zM13.538 18.131c.251.663.487 1.325.724 1.98.008.03.015.061.03.114-.053-.038-.091-.053-.122-.084-.617-.426-1.234-.853-1.843-1.279-.183-.129-.32-.129-.503 0l-1.835 1.287a.843.843 0 01-.107.069c.015-.061.023-.099.038-.13.221-.693.434-1.378.663-2.064.061-.206-.015-.381-.183-.503-.625-.419-1.241-.853-1.866-1.279l-.038-.038c.038-.038.084-.023.13-.023l2.178.023c.282.008.373-.061.457-.335.183-.579.366-1.15.548-1.721.038-.137.084-.267.129-.434.03.061.046.091.053.122.251.693.503 1.386.754 2.087.038.114.084.221.198.267a.612.612 0 00.206.038l2.262.023h.137c-.046.038-.069.061-.091.076-.571.404-1.142.807-1.721 1.196-.236.158-.312.311-.198.608z"/>
</svg>
