<svg xmlns="http://www.w3.org/2000/svg" viewBox="0 0 24 24" fill="currentColor" aria-hidden="true">
  <path d="M19.211 4.767c-.006.532-.372 1.022-.843 1.172a1.312 1.312 0 01-1.389-.418 1.013 1.013 0 01-.236-.657v-1.35h-.008c0-.438-.01-.876.002-1.313.022-.745.547-1.259 1.262-1.251.699.008 1.209.554 1.211 1.304.003.838.01 1.675.001 2.513zM13.261 4.66c-.014.788-.521 1.316-1.238 1.325-.762.01-1.248-.477-1.283-1.309-.017-.399-.003-.8-.003-1.2h-.004c0-.4-.011-.801.002-1.201.023-.749.572-1.319 1.262-1.325.698-.005 1.246.549 1.261 1.309.015.8.017 1.601.003 2.401zM7.259 4.781a1.203 1.203 0 01-1.227 1.203c-.704.003-1.225-.48-1.239-1.186a67.975 67.975 0 01-.005-2.594c.014-.739.561-1.259 1.276-1.252.686.007 1.188.54 1.193 1.272.003.414.001.827.001 1.241h.005c-.001.438.007.877-.004 1.316z"/>
  <path d="M23.494 17.482c0-3.766.007-7.524 0-11.283 0-1.07-.443-1.907-1.408-2.428-.542-.289-1.119-.246-1.696-.275-.373-.014-.507.106-.493.493.021.514.063 1.021-.148 1.513-.324.767-1.175 1.288-1.999 1.182-.859-.113-1.612-.795-1.682-1.577a11.063 11.063 0 01-.035-1.274c0-.225-.063-.331-.289-.331-.486 0-.978.014-1.471 0-.246-.007-.324.127-.317.345 0 .282.007.556 0 .831-.042 1.154-.88 2.013-1.964 2.013-1.083.009-1.906-.85-1.942-2.011a10.04 10.04 0 01-.014-.795c.021-.274-.084-.394-.359-.38-.289.014-.577 0-.873 0-.921-.008-.893-.008-.823.935.049.781-.197 1.478-.88 1.921-.696.444-1.436.444-2.132.008-.711-.45-.887-1.147-.887-1.95.007-1.021.197-.922-.908-.915C1.555 3.532.527 4.553.506 6.186c-.014 1.035 0 2.076 0 3.111 0 3.702-.014 7.397 0 11.1 0 1.57 1.07 2.646 2.646 2.646 2.942.007 5.891.007 8.833.007h8.608c.282 0 .556 0 .83-.042 1.246-.239 2.041-1.239 2.069-2.632.016-.958.002-1.929.002-2.894zm-1.647 2.541c0 .127.007.253 0 .38-.035.669-.38.999-1.049.999-1.921.014-3.836.014-5.757.014-3.885 0-7.763-.014-11.649 0-.908 0-1.239-.317-1.239-1.218-.014-3.716-.014-7.44-.014-11.163 0-.443.056-.493.507-.493h18.602c.598 0 .598.007.598.612v10.869z"/>
  <path d="M7.256 17.968c.014.275.007.549 0 .824-.021.521-.275.802-.802.852-.303.028-.605.007-.901.007v.007c-.26 0-.528.014-.788-.007-.486-.021-.788-.331-.816-.809a10.755 10.755 0 010-.823c.014-.528.303-.852.83-.88a19.415 19.415 0 011.689 0c.471.02.774.35.788.829zM7.249 14.484c.021.324.021.648.007.971-.028.436-.31.732-.739.753a28.03 28.03 0 01-1.879-.007c-.373-.007-.655-.296-.683-.669a9.455 9.455 0 01.007-1.091c.028-.415.317-.669.746-.697.021 0 .049-.007.07-.007h.823c.289.007.577-.007.866.007.465.015.747.276.782.74zM8.185 15.448a4.717 4.717 0 01.007-.943c.042-.472.352-.753.824-.76a25.84 25.84 0 011.647 0c.577.014.852.296.873.866.007.274.014.549 0 .823-.021.443-.324.753-.767.774-.296.014-.598.007-.901.007h-.866c-.451-.021-.782-.316-.817-.767zM8.192 12.063a6.052 6.052 0 01-.007-.943c.035-.472.359-.76.845-.774.274-.007.549 0 .823 0 .204 0 .401-.007.605-.007.098 0 .197 0 .296.007.458.028.767.345.781.802.014.289.014.577 0 .866-.028.472-.317.781-.781.795-.584.021-1.175.021-1.767 0-.457-.014-.746-.296-.795-.746zM11.543 18.024c.007.239.007.479 0 .718-.021.556-.331.88-.894.915-.275.014-.549 0-.824 0-.176 0-.352.007-.528.007-.084 0-.176 0-.26-.007-.493-.035-.831-.352-.852-.838-.063-1.323.049-1.753 1.513-1.696.31.014.626 0 .936.007.578.022.887.331.909.894zM15.618 14.034c.303.366.296 1.534-.007 1.9a.724.724 0 01-.584.282h-.901v-.007c-.303 0-.605.021-.901 0-.479-.035-.753-.324-.767-.802-.007-.303-.014-.598.007-.901.021-.436.331-.753.767-.76.591-.021 1.175-.014 1.767-.007a.802.802 0 01.619.295zM15.794 17.891c.056.338.049.676.014 1.014a.847.847 0 01-.816.746c-.563.021-1.126.028-1.689 0-.535-.021-.831-.359-.845-.901-.007-.253-.007-.5.007-.753.014-.507.296-.816.802-.859.289-.021.577 0 .866 0 .183 0 .366-.007.549-.007.091 0 .183 0 .274.007.486.028.76.274.838.753zM12.465 11.985a8.79 8.79 0 01-.007-.859c.021-.436.331-.746.767-.781.148-.007.303 0 .45-.007h.45v.007c.274 0 .549-.007.823 0 .479.007.781.26.852.732.049.345.049.697-.007 1.049-.07.429-.366.683-.809.69-.563.007-1.126.014-1.689-.007-.528-.014-.802-.296-.83-.824zM20.038 14.477c.021.345.021.697 0 1.049-.021.401-.296.655-.711.683-.162.014-.324 0-.486 0h-.45v-.007c-.331 0-.655.021-.978 0-.394-.028-.647-.289-.669-.683a9.799 9.799 0 010-1.014c.021-.465.303-.746.767-.76a24.788 24.788 0 011.767 0c.429.007.739.31.76.732zM20.038 11.056c.021.331.021.655 0 .978-.021.458-.296.739-.76.774-.31.021-.626 0-.936 0v.014c-.267 0-.528.007-.795-.007-.479-.014-.774-.282-.802-.76a6.961 6.961 0 010-.936c.028-.472.296-.753.767-.767a26.79 26.79 0 011.837 0c.393.015.668.303.689.704z"/>
  <path d="M20.038 14.477c.021.345.021.697 0 1.049-.021.401-.296.655-.711.683-.162.014-.324 0-.486 0h-.45v-.007c-.331 0-.655.021-.978 0-.394-.028-.647-.289-.669-.683a9.799 9.799 0 010-1.014c.021-.465.303-.746.767-.76a24.788 24.788 0 011.767 0c.429.007.739.31.76.732zM15.611 15.934a.724.724 0 01-.584.282h-.901v-.007c-.303 0-.605.021-.901 0-.479-.035-.753-.324-.767-.802-.007-.303-.014-.598.007-.901.021-.436.331-.753.767-.76.591-.021 1.175-.014 1.767-.007a.806.806 0 01.619.296c.302.365.295 1.533-.007 1.899zM15.808 18.904a.847.847 0 01-.816.746c-.563.021-1.126.028-1.689 0-.535-.021-.831-.359-.845-.901-.007-.253-.007-.5.007-.753.014-.507.296-.816.802-.859.289-.021.577 0 .866 0 .183 0 .366-.007.549-.007.091 0 .183 0 .274.007.486.028.76.275.838.753.056.338.049.676.014 1.014zM11.543 18.024c.007.239.007.479 0 .718-.021.556-.331.88-.894.915-.275.014-.549 0-.824 0-.176 0-.352.007-.528.007-.084 0-.176 0-.26-.007-.493-.035-.831-.352-.852-.838-.063-1.323.049-1.753 1.513-1.696.31.014.626 0 .936.007.578.022.887.331.909.894zM7.256 17.968c.014.275.007.549 0 .824-.021.521-.275.802-.802.852-.303.028-.605.007-.901.007v.007c-.26 0-.528.014-.788-.007-.486-.021-.788-.331-.816-.809a10.755 10.755 0 010-.823c.014-.528.303-.852.83-.88a19.415 19.415 0 011.689 0c.471.02.774.35.788.829zM7.256 15.455c-.028.436-.31.732-.739.753a28.03 28.03 0 01-1.879-.007c-.373-.007-.655-.296-.683-.669a9.455 9.455 0 01.007-1.091c.028-.415.317-.669.746-.697.021 0 .049-.007.07-.007h.823c.289.007.577-.007.866.007.465.014.746.275.781.739.022.325.022.649.008.972zM11.535 14.611c.007.274.014.549 0 .823-.021.443-.324.753-.767.774-.296.014-.598.007-.901.007h-.865c-.45-.021-.781-.317-.816-.767a4.717 4.717 0 01.007-.943c.042-.472.352-.753.824-.76a25.84 25.84 0 011.647 0c.576.014.85.296.871.866zM11.535 11.148c.014.289.014.577 0 .866-.028.472-.317.781-.781.795-.584.021-1.175.021-1.767 0-.457-.014-.746-.296-.795-.746a6.052 6.052 0 01-.007-.943c.035-.472.359-.76.845-.774.274-.007.549 0 .823 0 .204 0 .401-.007.605-.007.098 0 .197 0 .296.007.458.028.767.344.781.802zM15.794 12.126c-.07.429-.366.683-.809.69-.563.007-1.126.014-1.689-.007-.528-.014-.802-.296-.831-.824a8.79 8.79 0 01-.007-.859c.021-.436.331-.746.767-.781.148-.007.303 0 .45-.007h.45v.007c.274 0 .549-.007.823 0 .479.007.781.26.852.732.05.345.05.697-.006 1.049zM20.038 11.056c.021.331.021.655 0 .978-.021.458-.296.739-.76.774-.31.021-.626 0-.936 0v.014c-.267 0-.528.007-.795-.007-.479-.014-.774-.282-.802-.76a6.961 6.961 0 010-.936c.028-.472.296-.753.767-.767a26.79 26.79 0 011.837 0c.393.015.668.303.689.704z"/>
</svg>
