<svg xmlns="http://www.w3.org/2000/svg" viewBox="0 0 24 24" fill="currentColor" aria-hidden="true">
  <path d="M16.3 20.337c-.24-.004-.479 0-.719 0h-.869v-.776h-3.963v.767h-.211c-.483.004-.967 0-1.446.016-.357.012-.67.288-.686.642a19.252 19.252 0 00-.024 1.766c.02.459.414.755.832.743.772-.02 1.543-.004 2.311-.004 1.584 0 3.163.004 4.747.008.467 0 .82-.337.828-.796.008-.524.008-1.048 0-1.567-.008-.474-.329-.787-.8-.799zM11.338 3.005c-.533.341-1.07.677-1.599 1.023-.624.409-1.249.818-1.859 1.246-.176.123-.435.218-.256.572.094.187-.005.471-.016.712-.188-.056-.451-.053-.547-.179-.193-.253-.268-.598.051-.828.486-.352 1.003-.662 1.504-.994.833-.553 1.662-1.11 2.485-1.659-.168-.577-.712-1.215-.009-1.657.671-.422 1.094.153 1.419.767.429-.43 1.01-.524 1.301-1.104.252-.503 1.146-.516 1.587-.145.687.577 1.092 1.329 1.395 2.154.118.321-.155.993-.736 1.339-.286.171-.564.356-.842.532.319.616.603 1.166.604 1.859.001.481.147 1.034.417 1.425.38.551.253 1.079.182 1.626-.09.695-.225 1.384-.338 2.076-.159.971-.313 1.943-.475 2.914a46.415 46.415 0 01-.321 1.781c-.023.113-.144.286-.233.294-.483.044-.97.065-1.454.048-.13-.004-.255-.166-.382-.255.118-.102.226-.27.357-.292.351-.058.622-.107.349-.549-.035-.057 0-.161.012-.242.124-.902.265-1.802.371-2.706.074-.63.102-1.265.15-1.899l-.144-.027c-.125.519-.218 1.049-.384 1.554a21.521 21.521 0 01-.816 2.146c-.12.265-.377.519-.636.659-.445.24-.508.585-.379.987.122.382.003.585-.366.617-.331.029-.665.018-.711-.46-.068-.717-.084-1.377.394-2.027.28-.38.294-.956.428-1.444.03-.11.037-.24.102-.325.666-.88.59-1.904.602-2.92.004-.366.133-.729.151-1.096.011-.23-.006-.523-.137-.687-.477-.599-.566-1.356-.898-2.01-.035-.068-.045-.161-.098-.206-.702-.596-.822-1.325-.346-2.098.086-.139.138-.299.206-.449l-.085-.073zm2.594-1.63c-.32.197-.644.356-.918.578-.18.145-.441.438-.394.56.083.214.36.456.581.484.215.027.475-.179.688-.324.089-.061.076-.264.163-.338.429-.362.313-.656-.12-.96zm.817 1.628c.219-.011.404.016.562-.038.169-.058.397-.16.45-.299.149-.39-.433-1.229-.827-1.311l-.185 1.648z"/>
  <path d="M15.327 16.681c.024-.004.047 0 .083.031-.162.095-.327.185-.488.276-.343.197-.685.398-1.032.587-.122.067-.154.122-.098.256.244.603.481 1.209.717 1.812.008.016.008.035.016.087-.603-.516-1.182-1.009-1.769-1.509-.591.5-1.17.997-1.749 1.489-.012-.004-.02-.012-.028-.016.244-.622.485-1.245.733-1.859.055-.134.031-.189-.091-.26-.508-.28-1.012-.575-1.552-.886.087-.004.13-.008.177-.008.595 0 1.19-.004 1.785 0 .098.004.146-.028.177-.118.177-.461.355-.922.548-1.41.185.473.362.91.524 1.359.051.142.13.177.264.177.593-.008 1.188-.008 1.783-.008z"/>
</svg>
