<svg xmlns="http://www.w3.org/2000/svg" data-name="Layer 1" viewBox="0 0 521.86 542.55" fill="currentColor" aria-hidden="true">
  <path d="M366.67 451.76h-211.5a15.19 15.19 0 00-2.06-.71c-21.24-4.12-36.15-21.9-36.16-43.5q-.08-123.92 0-247.83c0-15 6.45-27 18.6-35.81a42.91 42.91 0 0129.35-8v18c0 26.82 18.9 45.75 45.75 45.78h100.48a51 51 0 009.33-.65c21.75-4.14 36.35-21.84 36.43-44v-18.93c25.12-2.88 47.92 17.66 48 43.24q.17 124.49 0 249a43.64 43.64 0 01-33.24 42.05c-1.65.38-3.32.89-4.98 1.36zm-9.75-192.15v-3.88-37.85c0-9.58-4.62-14.17-14.29-14.18h-97.4v55.91zm0 96.37H245.24v55.84h72.49c8.75 0 17.49.07 26.24 0 7.18-.07 12.7-4.5 12.82-11 .28-14.82.09-29.71.09-44.82zm-.14-72H245.23v47.63h111.51zm-136-24.31V204a11.16 11.16 0 00-1.68-.28c-14 0-28-.15-41.95 0-7.44.1-12.13 5.25-12.15 12.83-.05 13 0 26 0 39v4.08zm-55.8 96.23v41.87q0 14.06 14 14.08h38.2c1.2 0 2.39-.13 3.59-.2v-55.78zm55.86-24.25V284h-55.61v47.58z"/>
  <path d="M260.83 163.76H210.6c-17.74 0-29.62-11.85-29.73-29.57q-.06-10.31 0-20.62c0-9.19 4.62-13.71 13.9-13.74 7 0 14-.09 21 0 2.13 0 3-.75 3.74-2.67C226.41 79 242.36 67.74 261 67.77s34.55 11.3 41.25 29.23c.88 2.35 2.1 2.89 4.39 2.85q11.06-.18 22.11 0c6.79.11 11.86 4.56 12.09 11.29a226.48 226.48 0 01-.24 27.33c-1.3 14.9-13.08 25.18-28.05 25.26-17.24.1-34.48.03-51.72.03z"/>
</svg>
