<svg xmlns="http://www.w3.org/2000/svg" viewBox="0 0 24 24" fill="currentColor" aria-hidden="true">
  <path d="M18.681 22.687c-.002-.381-.07-.451-.447-.458-.283-.005-.359-.08-.361-.369-.002-.47-.001-.939-.002-1.409-.001-.299-.057-.355-.359-.356-.788-.001-1.576-.002-2.364-.001-.407 0-.412.001-.411-.397.001-.207-.076-.321-.294-.301-.16.014-.255-.058-.312-.203-.107-.275-.219-.547-.33-.82-.542-1.327-.62-2.676-.257-4.066a22.435 22.435 0 011.042-3.065c.085-.202.041-.321-.129-.439-.336-.233-.662-.48-.992-.721-.247-.18-.366-.133-.406.165-.067.495-.152.988-.188 1.485a236.352 236.352 0 00-.308 4.758c-.046.884-.036 1.772-.043 2.658-.001.198-.084.278-.274.266-.053-.003-.106.001-.159.001-.255-.003-.304-.054-.302-.31.004-.402.01-.803.01-1.205 0-1.948-.087-3.891-.295-5.828-.065-.616-.16-1.23-.255-1.842-.041-.262-.178-.305-.396-.149-.338.244-.67.495-1.012.732-.166.115-.183.23-.114.422.341.952.694 1.902.981 2.87.25.843.433 1.723.25 2.598-.161.772-.43 1.523-.683 2.273-.145.429-.173.419-.623.415-.356-.003-.395.035-.396.383-.001.284-.033.317-.311.317-.833 0-1.667 0-2.5.002-.256.001-.322.067-.323.325-.003.447 0 .894-.002 1.341-.002.424-.025.446-.446.468-.246.013-.342.105-.351.348-.005.159 0 .318 0 .477.001.39.055.444.45.444H18.268c.316 0 .405-.09.411-.402.005-.135.003-.271.002-.407zm-13.176.643s-.012-.306-.012-.448c0-.142.012-.436.012-.436s.013.295.013.442c0 .147-.013.442-.013.442zm.245.008s-.035-.306-.035-.447.035-.436.035-.436.039.295.039.442c0 .147-.039.441-.039.441zm.246 0s-.052-.306-.052-.447.052-.436.052-.436.06.295.06.442c0 .147-.06.441-.06.441zm7.491-5.039c.242.831.349 1.033.349 1.033h-.439s-.11-.811-.143-1.116c-.033-.306-.086-1.103-.086-1.103s.22.846.319 1.186zm-.318-5.85c.055-.513.229-1.794.315-1.859.055-.043.154.037.154.037l.415.309s.099.067.1.156c.002.106-.369.917-.526 1.351-.177.49-.649 2.204-.649 2.204s.136-1.685.191-2.198zm-2.454-.006c-.157-.434-.529-1.245-.526-1.351.001-.09.1-.156.1-.156l.415-.309s.099-.08.154-.037c.086.065.261 1.346.315 1.859.055.513.191 2.198.191 2.198s-.472-1.714-.649-2.204zm.076 5.856c.099-.339.319-1.186.319-1.186s-.053.797-.086 1.103c-.033.306-.143 1.116-.143 1.116h-.439s.107-.203.349-1.033zm-1.385 1.624h5.172v.153H9.406v-.153zm4.528.556v1.113h-3.95v-1.113h3.95zm-7.589 2.859s-.076-.306-.076-.447.076-.436.076-.436.087.295.087.442c0 .147-.087.441-.087.441zm.486 0s-.076-.306-.076-.447.076-.436.076-.436.087.295.087.442c0 .147-.087.441-.087.441zm.596 0s-.089-.306-.089-.447.089-.436.089-.436.102.295.102.442c0 .147-.102.441-.102.441zm.658 0s-.111-.306-.111-.447.111-.436.111-.436.126.295.126.442c0 .147-.126.441-.126.441zm.812 0s-.111-.306-.111-.447.111-.436.111-.436.126.295.126.442c.001.147-.126.441-.126.441zm.83 0s-.111-.306-.111-.447.111-.436.111-.436.126.295.126.442c0 .147-.126.441-.126.441zm.845 0s-.111-.306-.111-.447.111-.436.111-.436.126.295.126.442c.001.147-.126.441-.126.441zm.95 0s-.111-.306-.111-.447.111-.436.111-.436.126.295.126.442c0 .147-.126.441-.126.441zm.883 0s-.111-.306-.111-.447.111-.436.111-.436.126.295.126.442c.001.147-.126.441-.126.441zm-6.011-1.156v-.175h11.195v.175H6.394zm6.846 1.156s-.111-.306-.111-.447.111-.436.111-.436.126.295.126.442c.001.147-.126.441-.126.441zm.903 0s-.111-.306-.111-.447.111-.436.111-.436.126.295.126.442c0 .147-.126.441-.126.441zm.869 0s-.111-.306-.111-.447.111-.436.111-.436.126.295.126.442c0 .147-.126.441-.126.441zm.884 0s-.126-.295-.126-.442c0-.147.126-.442.126-.442s.111.295.111.436-.111.448-.111.448zm.658 0s-.102-.295-.102-.442c0-.147.102-.442.102-.442s.089.295.089.436-.089.448-.089.448zm.596 0s-.087-.295-.087-.442c0-.147.087-.442.087-.442s.076.295.076.436-.076.448-.076.448zm.486 0s-.087-.295-.087-.442c0-.147.087-.442.087-.442s.076.295.076.436-.076.448-.076.448zm.348 0s-.06-.295-.06-.442c0-.147.06-.442.06-.442s.052.295.052.436-.052.448-.052.448zm.247 0s-.039-.295-.039-.442c0-.147.039-.442.039-.442s.035.295.035.436-.035.448-.035.448zm.245-.008s-.013-.295-.013-.442c0-.147.013-.442.013-.442s.012.295.012.436c-.001.142-.012.448-.012.448zM13.512 6.413l.011.02a.053.053 0 00-.011-.02z"/>
  <path d="M17.521 4.512c-.045-.093-.2-.136-.313-.192-.03-.015-.075-.002-.113-.002h-3.136c-.396 0-.418-.019-.538-.402L12.445.804c-.046-.148-.089-.308-.283-.301-.18.006-.244.142-.295.298-.342 1.048-.697 2.092-1.031 3.142-.079.248-.211.331-.461.325-.537-.015-1.075-.005-1.613-.005-.553 0-1.106.003-1.659-.002-.167-.002-.328.003-.395.189-.07.194.05.304.195.411.907.658 1.807 1.325 2.715 1.982.181.131.231.263.157.481-.36 1.058-.704 2.121-1.056 3.182-.05.151-.089.297.065.409.158.116.281.017.407-.075.897-.658 1.797-1.313 2.691-1.975.171-.127.309-.137.486-.005.898.669 1.805 1.327 2.707 1.991.125.092.243.197.404.077.155-.115.11-.257.06-.408-.354-1.06-.699-2.123-1.058-3.181-.075-.22-.041-.364.156-.501.484-.338.955-.694 1.431-1.043.44-.322.884-.638 1.313-.974.083-.066.172-.241.14-.309zm-6.233-.421c.049-.057.164-.407.303-.9.145-.516.442-1.899.442-1.899s-.147 2.692-.205 2.823c-.057.131-.237.09-.237.09h-.442s.09-.057.139-.114zM9.183 5.966c-.438-.287-1.623-.961-1.675-.991.076.029 2.523.951 2.629 1.043.108.094.015.254.015.254l-.133.421s-.028-.103-.068-.167c-.04-.064-.339-.279-.768-.56zm2.538 2.54c-.074.015-.38.22-.793.523-.426.312-1.484 1.195-1.517 1.223.047-.054 1.775-2.03 1.899-2.098.126-.068.242.075.242.075l.348.272c.001.001-.105-.009-.179.005zm1.631-2.088c.032.189.11-.069.16-.006a.062.062 0 01.011.02c.015.083-.045.135-.081.198-.105-.059-.12.03-.15.091-.037.077-.001.11.075.118a1.565 1.565 0 01-.595.589c-.085-.115-.168-.044-.23.018-.043.042.013.063.055.069-.331.138-.662.117-.994.001.036-.01.101-.003.073-.065-.032-.071-.111-.09-.178-.069-.045.014.011.055.011.085-.149-.175-.466-.169-.502-.466-.012-.101-.207-.061-.16-.207.029-.001.078.077.084-.01.005-.08.004-.176-.126-.157-.173-.117-.095-.317-.102-.459-.008-.167-.022-.376.102-.536.002.042-.028.114.043.106.062-.007.084-.079.086-.144.004-.093-.048-.055-.091-.039-.02-.138.15-.121.179-.219l.08-.003c.175-.05.205-.098.125-.207l-.042-.035c.123-.007.186-.095.247-.185.044.047.069.11.163.069.095-.041.091-.108.091-.184.291-.068.581-.044.872 0-.005.06-.055.135.05.163.063.017.132.07.164-.04.262.135.427.371.613.586-.041.003-.084.002-.108.045.009.085.028.165.119.203l.079.008c.03.073.107.154-.03.202-.003-.038-.005-.103-.057-.078-.076.037-.04.123-.023.183.012.045.058.095.083-.002.161.032.089.141.075.23-.148-.079-.194-.007-.171.127zm1.623 3.638c-.042-.07-1.382-2.315-1.407-2.454-.026-.14.146-.207.146-.207l.366-.247s-.043.098-.051.173c-.009.075.092.429.252.916.165.498.673 1.766.694 1.819zm-1.004-4.842c-.141-.021-.149-.205-.149-.205l-.115-.426s.079.072.147.104c.068.032.436.052.948.057.536.005 1.948-.07 1.948-.07s-2.637.561-2.779.54z"/>
  <path d="M16.273 7.205a9.32 9.32 0 00-.823-.318c-.167-.058-.516.215-.47.369.145.484.299.966.465 1.443.05.143.226.177.293.068.26-.421.47-.837.723-1.298.026-.064-.108-.227-.188-.264zm-.2.508c-.062.11-.157.286-.165.271-.01-.02.007-.318-.061-.523-.02-.06-.065-.184-.045-.205.03-.033.085-.009.085-.009l.205.091s.065.028.09.065c.034.049-.069.232-.109.31zM8.903 6.884c-.221.077-.478.163-.732.257-.25.092-.294.21-.169.454.179.348.36.697.552 1.038.042.074.14.168.204.162.066-.006.149-.114.177-.193.139-.398.262-.802.39-1.203.078-.247-.121-.514-.422-.515zm-.366.539c-.069.204-.051.503-.061.523-.008.014-.103-.161-.165-.271-.04-.078-.142-.261-.11-.309.026-.038.09-.066.09-.066l.205-.091s.054-.024.085.009c.021.021-.024.145-.044.205zM13.512 6.413l.011.02a.053.053 0 00-.011-.02zM12.036 5.926c-.004.114-.073.174-.189.168-.108-.006-.156-.071-.163-.176.02-.107.077-.169.195-.165.114.003.16.073.157.173zM12.531 6.419c.001.115-.06.177-.179.182-.099-.008-.168-.053-.165-.165.002-.113.059-.179.176-.18.109-.001.167.057.168.163zM12.036 6.432c.004.103-.056.168-.164.168-.114 0-.182-.062-.185-.175-.002-.105.06-.161.13-.167.156-.005.216.065.219.174zM12.534 5.923c-.014.12-.073.179-.181.17-.116-.009-.174-.077-.165-.195.009-.115.084-.153.187-.146.111.009.151.083.159.171zM12.521 5.476c-.021.105-.094.137-.185.126-.091-.011-.157-.059-.15-.164.006-.095.076-.137.157-.13.094.008.168.06.178.168zM12.971 5.942c.004.082-.041.146-.134.158-.102 0-.154-.061-.165-.153-.012-.094.028-.175.128-.179.106-.004.166.076.171.174zM12.974 6.405c-.025.093-.062.182-.172.182-.092 0-.132-.078-.131-.159 0-.101.049-.175.164-.174.096.002.126.069.139.151zM12.521 6.891c-.023.101-.093.157-.192.156-.084-.001-.148-.051-.144-.145.005-.115.083-.153.186-.151.088.002.143.044.15.14zM12.049 5.441c-.017.1-.078.161-.181.164-.084.002-.155-.035-.156-.13 0-.111.078-.162.177-.168.084-.006.143.044.16.134zM11.56 5.924c-.015.093-.057.168-.166.172-.095.003-.133-.057-.133-.147 0-.107.055-.177.158-.18.083-.002.132.063.141.155zM11.556 6.424c.006.087-.047.156-.13.159-.103.002-.16-.068-.164-.175-.002-.086.025-.15.135-.155.1.004.152.072.159.171zM12.043 6.907c.002.087-.063.141-.15.139-.098-.004-.176-.054-.18-.162-.003-.093.06-.132.149-.133.107-.002.178.052.181.156zM11.583 6.902a.104.104 0 01-.133.1c-.087-.021-.148-.077-.149-.176 0-.078.042-.114.139-.106a.17.17 0 01.143.182zM12.931 6.828c-.025.094-.08.167-.181.175-.072.005-.114-.048-.105-.124.011-.095.066-.15.162-.16.077-.009.114.034.124.109zM12.931 5.529c-.014.074-.057.112-.131.102-.095-.013-.149-.069-.156-.164-.006-.078.038-.124.111-.115.1.011.157.079.176.177zM11.59 5.463c-.03.106-.081.173-.191.17-.07-.002-.098-.043-.095-.109.006-.108.072-.165.171-.172.074-.005.106.053.115.111zM13.277 5.977c-.001.058-.004.123-.075.127-.099.005-.125-.071-.135-.151-.008-.069.015-.123.09-.145.084.024.121.081.12.169zM12.476 5.099c-.002.07-.051.103-.107.106-.085.005-.172-.012-.186-.118-.01-.075.051-.086.11-.089.082-.003.15.017.183.101zM12.479 7.234c-.023.101-.096.12-.175.122-.054.002-.119-.001-.12-.078-.002-.102.082-.121.155-.13.062-.007.12.021.14.086zM13.275 6.367c.004.084-.025.163-.11.174-.074.01-.1-.064-.098-.13.002-.08.022-.156.122-.159.075-.002.087.054.086.115zM11.151 5.931c0 .087-.024.164-.114.174-.062.007-.096-.053-.096-.112 0-.078.025-.161.109-.178.082-.018.094.057.101.116zM12.048 5.085c-.007.089-.094.107-.167.124-.07-.007-.135-.035-.125-.109.011-.078.081-.103.157-.102.065.002.141.004.135.087zM12.048 7.268c.002.08-.074.085-.124.087-.087-.004-.159-.025-.168-.106-.009-.08.063-.105.125-.101.074.006.163.026.167.12zM11.147 6.421c-.001.056-.015.124-.081.119-.103-.009-.12-.102-.124-.183-.002-.057.032-.104.1-.108.096.02.106.094.105.172zM13.232 5.59c-.001.07-.026.105-.074.094-.092-.02-.133-.088-.134-.179 0-.044.015-.089.069-.077.093.022.117.103.139.162zM11.55 7.304c-.085-.002-.148-.042-.167-.128-.011-.05.023-.073.064-.084.092.021.171.053.189.148.009.055-.043.065-.086.064zM12.853 5.186c-.014.064-.06.074-.109.064-.077-.017-.144-.06-.15-.144-.005-.064.055-.071.104-.06.075.017.135.059.155.14zM12.848 7.172c-.024.09-.091.134-.185.132-.053-.001-.078-.031-.064-.08.025-.082.095-.112.168-.128.05.006.094.027.081.076zM11.642 5.117c-.046.089-.107.14-.202.134-.054-.004-.073-.043-.054-.088a.182.182 0 01.179-.119c.051.001.069.035.077.073zM13.229 6.73a.192.192 0 01-.121.19c-.062.009-.081-.021-.083-.07a.167.167 0 01.117-.175c.043-.015.086.002.087.055zM11.137 6.921c-.093-.018-.132-.091-.137-.18-.003-.047.028-.075.083-.07.084.021.111.092.12.168.005.04-.016.092-.066.082zM11.208 5.512c-.026.088-.051.162-.144.17-.057.005-.066-.04-.061-.084.01-.09.053-.161.148-.168.045-.003.053.053.057.082zM10.797 6.134c-.047-.101-.055-.177.003-.25.021-.027.055-.02.069.006.047.087.015.159-.072.244zM12.443 4.889c-.103.046-.184.057-.258-.008-.036-.032-.004-.063.025-.078.101-.051.159.01.233.086zM13.139 7.059a.24.24 0 01-.147.156c-.027.01-.052-.012-.049-.045.007-.087.068-.129.14-.154.024-.008.054.007.056.043zM12.046 7.501c.005.063-.066.055-.112.053-.055-.003-.119-.017-.118-.085.002-.058.063-.032.1-.041.056.003.125.015.13.073zM12.417 7.481c-.016.066-.088.077-.153.074-.034-.001-.084.001-.08-.044.008-.08.077-.082.14-.084.042.002.105.005.093.054zM13.135 5.303c.005.031-.038.037-.061.028-.087-.035-.15-.087-.12-.201.1.024.163.079.181.173zM10.886 6.409c-.005.04-.021.092-.068.07-.065-.029-.058-.1-.055-.161.002-.035.009-.068.057-.066.054.037.074.092.066.157zM11.232 7.213a.173.173 0 01-.133-.14c-.005-.026 0-.055.042-.058a.204.204 0 01.136.135c.015.041-.004.073-.045.063zM12.049 4.857c-.008.06-.076.066-.139.066-.036-.007-.109.015-.095-.057.01-.051.074-.076.13-.079.049-.002.111.018.104.07z"/>
</svg>
