<svg xmlns="http://www.w3.org/2000/svg" data-name="Layer 1" viewBox="0 0 521.86 542.55" fill="currentColor" aria-hidden="true">
  <path d="M365.18 287.24c-8.19 0-15.91 0-23.64.05a7.9 7.9 0 00-4.2 1c-17.67 12.13-36.91 20.27-58.2 23.38-.71.11-1.41.32-2.26.51l-.29 4.82H121.51c-5.52 0-8 1.54-8.12 5-.11 3.64 2.6 5.49 8.17 5.49h155v32.76H121.89c-5.85 0-8.36 1.51-8.49 5.09s2.56 5.41 8.54 5.41h154.78c.06 14.46-.81 28.65 4.69 42.75H122.02c-1.61 0-3.63-.37-4.75.42-1.63 1.15-3.62 3.23-3.6 4.88s2.07 3.72 3.74 4.77c1.3.81 3.4.4 5.15.4h159c2.94 0 4.59.74 6.11 3.49 11 20.09 27.07 35.38 46.27 47.57 1 .65 2 1.32 3.75 2.44-1.81.1-2.85.22-3.89.22H90.43c-6.78 0-9.51-2.59-9.51-9.12v-287.1h47.54c10.71 0 16.22-5.47 16.23-16.07V117.7h210.42c7.74 0 10.07 2.33 10.07 10v155.24zm-75-88.58h-29.23c-8.45 0-13.59 5.06-13.62 13.48q-.08 29.23 0 58.46c0 8.32 5.25 13.51 13.64 13.53q29 .08 58.08 0c8.31 0 13.69-5.27 13.73-13.54q.13-29.24 0-58.46c0-8.3-5.41-13.44-13.74-13.47-9.65-.02-19.27 0-28.89 0zm-91.35 42.64v-28.48c0-9.2-5-14.15-14.09-14.15h-57c-9.33 0-14.41 5-14.43 14.31q-.06 28.49 0 57c0 9 5.24 14.21 14.21 14.22h57.33c8.81 0 13.89-5.13 13.94-14 .08-9.66.04-19.28.04-28.9z"/>
  <path d="M440.91 321.2v42.75c0 10.12.34 20.29-.5 30.35-1.32 16.06-8.62 29.86-18.48 42.3-14.51 18.32-32.62 31.86-54.63 40a7.83 7.83 0 01-5 .41c-32.19-12.13-56.7-32.83-70.09-65a68 68 0 01-4.78-23.67c-.64-21.6-.22-43.24-.22-64.86 0-.74.09-1.49.14-2.3 5.34-1.44 10.68-2.71 15.9-4.32 12.73-3.93 24.47-9.94 35.71-17.05a13.32 13.32 0 016.55-1.93c12.62-.18 25.25-.12 37.87 0a9 9 0 014.55 1.15c15.94 10.43 33.06 18 51.81 21.74a7 7 0 011.17.43zm-95.72 70.93c-.56-.7-.9-1.06-1.18-1.47-4.88-7.25-9.72-14.53-14.65-21.75-2.19-3.2-5-4-7.65-2.3s-3.18 4.82-.94 8.18c5.8 8.74 11.67 17.44 17.52 26.14 3.44 5.11 5.9 5.51 10.66 1.65q25.92-21 51.8-42.07a13.21 13.21 0 002.18-2 5.14 5.14 0 00-6.5-7.7 18.31 18.31 0 00-3 2.22c-16.02 12.97-32.02 25.97-48.24 39.1zM87.11 171L134 124.07c.06.78.18 1.71.18 2.64v38.59c0 4.79-.88 5.65-5.7 5.66zM257.78 241.1c0-9.12.11-18.25 0-27.37-.06-3.29.79-4.67 4.41-4.64q27.93.22 55.86 0c3.34 0 4.34 1.29 4.32 4.44-.08 18.49-.11 37 0 55.49 0 3.67-1.38 4.71-4.89 4.69q-27.56-.2-55.12 0c-3.36 0-4.68-1-4.61-4.49.16-9.37.03-18.75.03-28.12zm23 5.59c-2.58-3.83-5-7.47-7.46-11.05-2.34-3.38-5.21-4.21-7.9-2.42s-3.05 4.76-.79 8.2q4.83 7.35 9.79 14.61c2.93 4.28 5.64 4.7 9.64 1.48 5.46-4.37 10.87-8.8 16.29-13.21 4.84-3.94 9.73-7.82 14.49-11.86 2.43-2.08 2.84-4.77.77-7.3s-4.72-2.52-7.34-.73c-1.13.77-2.15 1.7-3.21 2.57zM123.83 241c0-9 .1-18 0-27 0-3.4.85-4.92 4.65-4.89q27.75.25 55.49 0c3.55 0 4.49 1.25 4.47 4.59q-.18 27.75 0 55.49c0 3.43-1.13 4.57-4.56 4.55q-27.74-.2-55.48 0c-3.49 0-4.61-1.29-4.56-4.63.08-9.4-.01-18.77-.01-28.11zm39.34.66c4-3.9 7.19-7 10.35-10.21s3.6-6.42 1.17-8.75-5.3-1.93-8.45 1.22c-3.31 3.31-6.56 6.68-10.19 10.39-3.76-3.91-7.11-7.43-10.49-10.92-1.89-2-4.06-2.92-6.72-1.56-3.38 1.72-3.83 5.68-.88 8.77 3.49 3.65 7.11 7.17 10.88 11-3.78 3.69-7.21 6.95-10.55 10.32-2.87 2.9-3.09 5.92-.75 8.2s5.25 2.07 8.2-.87c3.44-3.43 6.75-7 10.26-10.63 3.75 3.79 7.05 7.18 10.42 10.51 3.12 3.09 6.07 3.34 8.45.83 2.18-2.29 1.88-5.36-1-8.21-3.38-3.38-6.87-6.54-10.7-10.12z"/>
</svg>
