<svg xmlns="http://www.w3.org/2000/svg" data-name="Layer 1" viewBox="0 0 521.86 542.55" fill="currentColor" aria-hidden="true">
  <path d="M452.67 269.16c-27.17 16.69-48.1 9.13-64.63-15.54-65 21-113.54-24.68-91.81-94.47-24-8.91-32-35.09-22.53-64.57C167.47 89.22 73.86 171.93 68.54 278.2S145 474.89 251.24 480.27 448 403.81 453.31 297.55a192.68 192.68 0 00-.64-28.39zm-317-.48a28.81 28.81 0 1128.81 28.81 28.83 28.83 0 01-28.77-28.81zm47.53 116.8a20.25 20.25 0 1120.25-20.25 20.25 20.25 0 01-20.21 20.25zm43.64-163.75a15.86 15.86 0 1115.86-15.86 15.85 15.85 0 01-15.82 15.86zm28.39 88.06a16.6 16.6 0 1116.6-16.6 16.6 16.6 0 01-16.56 16.6zm57.81 95.47a26.6 26.6 0 1126.6-26.6 26.59 26.59 0 01-26.56 26.6zM441.42 199.15a12.14 12.14 0 11-12.14 12.14 12.13 12.13 0 0112.14-12.14z"/>
  <path d="M354.32 167A18.28 18.28 0 11336 185.24 18.27 18.27 0 01354.32 167zM368.46 91.25a19.61 19.61 0 11-19.6 19.61 19.62 19.62 0 0119.6-19.61z"/>
</svg>
