<svg xmlns="http://www.w3.org/2000/svg" data-name="Layer 1" viewBox="0 0 521.86 542.55" fill="currentColor" aria-hidden="true">
  <path d="M258.41 252.74a84 84 0 01-83.75-84.48c.22-46 38-83.57 84.08-83.5a84.06 84.06 0 0183.9 84.76c-.25 46.06-38.1 83.48-84.23 83.22zM275.19 433.07H132.12c-19.46 0-30.92-11.52-30.92-31.05v-54c0-12 5.25-20.61 16-26.18 31.32-16.25 64.4-27.13 99.38-31.49 15.69-2 31.63-1.88 47.46-2.71a15.87 15.87 0 012.27.2v8c0 29.37.09 58.73 0 88.1-.12 16.62-.63 33.29 8.88 49.13zM290.3 346.79c0-17.37-.07-34.75 0-52.12.13-22.55 14.49-40 36.32-43.24 7.23-1.08 14.72-.59 22.08-.51 7.86.08 15.79-.07 23.54 1 8.91 1.21 16.33 6 22.44 12.62 4.78 5.18 4.72 12.57 0 17.18s-12.17 4.54-17.13-.49a20.48 20.48 0 00-15.78-6.4c-9.37.18-18.75 0-28.12.06-11.52.09-19.29 7.76-19.32 19.34q-.12 52.5 0 105c0 11.57 7.74 19.33 19.25 19.5 9.63.14 19.25 0 28.88 0a19.86 19.86 0 0014.77-6.16c5.24-5.32 12.48-5.57 17.38-.85s4.86 12.27-.38 17.71c-7.79 8.1-17.33 12.75-28.55 13.11-11.61.37-23.28.67-34.86 0-23.83-1.45-40.34-19.49-40.5-43.61-.11-17.39-.02-34.76-.02-52.14z"/>
  <path d="M402.1 358.82h-53.59c-1.5 0-3 .06-4.5-.06-6.8-.53-11.88-5.89-11.7-12.27a11.88 11.88 0 0112.21-11.63c17.87-.1 35.74 0 53.61 0h4.76a30.24 30.24 0 00-1.93-2.49c-3.07-3.12-6.27-6.11-9.25-9.31a11.83 11.83 0 010-16.59 11.62 11.62 0 0116.54-.55q16.83 16.32 33.2 33.08c4.55 4.68 4 11.73-.75 16.54q-15.63 15.66-31.39 31.18c-5.24 5.16-12.61 5.34-17.41.59-5-4.91-4.74-12.25.62-17.68 3.3-3.35 6.7-6.6 10.06-9.89z"/>
</svg>
