<svg xmlns="http://www.w3.org/2000/svg" viewBox="0 0 24 24" fill="currentColor" aria-hidden="true">
  <path d="M14.694 12.563c.467-.377.922-.752 1.386-1.118.774-.611 1.556-1.213 2.244-1.925.576-.597 1.078-1.246 1.379-2.029.257-.668.381-1.357.291-2.074a1.521 1.521 0 00-.235-.674c-.159-.235-.368-.323-.643-.256a2.389 2.389 0 00-.404.148c-.181.083-.355.182-.534.269a.645.645 0 01-.486.032c-.066-.02-.131-.042-.209-.067-.191 1.371-.475 2.711-.936 4.01-.462 1.305-1.104 2.518-1.853 3.684zM6.521 4.886c-.025-.006-.029-.009-.032-.008-.031.01-.063.019-.094.031a.728.728 0 01-.631-.03c-.144-.076-.286-.156-.434-.223a2.758 2.758 0 00-.453-.172.54.54 0 00-.605.222 1.231 1.231 0 00-.135.24 2.14 2.14 0 00-.16.877c.013 1.116.396 2.1 1.076 2.976.568.731 1.25 1.346 1.965 1.927l2.201 1.787c.009.007.02.011.03.017l.023-.016c-1.556-2.317-2.415-4.885-2.751-7.628zm4.234 11.194c.054-.044.116-.103.186-.149.064-.043.07-.089.051-.159a5.247 5.247 0 00-.444-1.144c-.188-.347-.392-.686-.589-1.028-.011-.018-.024-.035-.048-.067-.01.081-.015.145-.026.207a.607.607 0 01-.231.379c-.019.015-.05.013-.076.02-.001-.023-.011-.052-.001-.069.175-.308.068-.567-.135-.812a4.104 4.104 0 00-.808-.721c-.6-.424-1.207-.839-1.805-1.266-.801-.572-1.562-1.191-2.219-1.931-.507-.571-.931-1.195-1.207-1.91-.271-.706-.384-1.434-.235-2.185a1.75 1.75 0 01.458-.895c.398-.415.924-.526 1.448-.289.177.08.338.195.502.301.106.068.206.145.304.222.166.13.346.137.533.065.028-.011.06-.06.059-.091a2.005 2.005 0 00-.032-.319c-.019-.097.02-.153.105-.175.214-.055.428-.12.645-.152A22.195 22.195 0 019.963 3.7c1.226-.024 2.453-.033 3.679-.021a24.73 24.73 0 013.205.215c.2.028.396.087.593.136.1.025.144.093.127.2a3.33 3.33 0 00-.037.33c-.002.029.026.077.051.086.186.067.366.073.535-.057.152-.117.309-.229.466-.339.2-.14.418-.251.662-.291.554-.09.971.143 1.287.58.302.417.376.9.366 1.4-.021 1.032-.406 1.933-.997 2.76-.603.845-1.354 1.544-2.181 2.159-.702.523-1.428 1.012-2.137 1.525a11.79 11.79 0 00-.813.649 2.048 2.048 0 00-.319.38.577.577 0 00-.04.629c.014.028.008.066.012.099-.031-.012-.069-.016-.093-.036-.184-.161-.249-.367-.214-.615-.017.013-.028.017-.033.026-.435.692-.851 1.393-1.073 2.19-.033.12-.027.203.086.269.053.031.096.078.14.115-.323.542-.329 1.109-.179 1.688.033.129.101.254.174.368a.49.49 0 00.193.15.392.392 0 01.209.256c.065.215.13.432.212.641.199.506.557.893.966 1.234.089.074.125.149.118.263-.01.158 0 .318-.004.476-.001.064.02.089.085.101.434.077.335.048.347.421.002.07.006.141-.002.21-.013.108.022.163.137.172a.554.554 0 01.212.058c.039.02.08.08.081.122.007.273-.002.547.005.82.003.106-.042.162-.135.182-.177.038-.353.081-.532.103-.889.112-1.782.135-2.677.143-1.094.009-2.187-.012-3.277-.121-.22-.022-.439-.059-.658-.095a.692.692 0 01-.22-.071c-.04-.022-.083-.08-.085-.122a17.776 17.776 0 010-.864c.001-.039.043-.097.079-.112a1.34 1.34 0 01.267-.068c.063-.011.086-.038.085-.103-.004-.166.003-.333-.003-.499-.003-.083.031-.124.107-.14.079-.017.158-.039.239-.048.065-.008.087-.033.086-.099-.004-.162.005-.325-.004-.488-.006-.106.029-.175.112-.243.414-.343.771-.735.972-1.243.08-.202.143-.411.204-.62a.398.398 0 01.245-.277.48.48 0 00.187-.177c.137-.203.194-.437.22-.678a2.262 2.262 0 00-.073-.954c-.043-.131-.111-.254-.173-.395zM9.233.5l.319.647.714.103-.516.504.121.71-.638-.335-.638.335.122-.71L8.2 1.25l.714-.103zM12.123.5l.32.647.713.103-.516.504.122.71-.639-.335-.638.335.122-.71-.516-.504.713-.103zM15.014.5l.319.647.713.103-.516.504.122.71-.638-.335-.639.335.122-.71-.516-.504.713-.103z"/>
</svg>
