<svg xmlns="http://www.w3.org/2000/svg" viewBox="0 0 24 24" fill="currentColor" aria-hidden="true">
  <path d="M1.709 11.999V1.154c0-.161.01-.32.116-.454a.531.531 0 01.443-.2c1.65.002 3.3.001 4.951.001h.356c.348.001.551.195.569.544.004.082.001.164.001.246V22.871c0 .133-.006.265-.079.383a.47.47 0 01-.416.244c-1.814.001-3.629.002-5.443 0-.291 0-.494-.237-.495-.573-.003-.588-.001-1.176-.001-1.764v-6.564c-.002-.866-.002-1.732-.002-2.598zm1.398 8.417c.004 1.023.83 1.852 1.851 1.826a1.822 1.822 0 001.792-1.833c-.016-1.02-.813-1.817-1.833-1.812a1.804 1.804 0 00-1.81 1.819zM9.141 22.267c-.038-.045-.024-.083-.024-.118V2.208c0-.322.109-.403.426-.301.602.195 1.203.395 1.804.594l3.231 1.067c.363.12.491.372.374.734l-2.296 7.113c-.77 2.384-1.543 4.767-2.314 7.151L9.163 22.22c-.004.012-.011.023-.022.047zM10.808 20.889c-.038-.063-.003-.103.009-.144l2.328-7.603 2.267-7.393c.06-.197.062-.199.223-.073l3.279 2.596c.293.232.588.461.879.695.248.199.278.52.08.763l-2.663 3.278-3.638 4.476-2.411 2.972c-.115.144-.232.286-.353.433zM19.944 10.986l.512.881c.576.998 1.151 1.998 1.728 2.996.201.347.121.639-.236.814-1.69.828-3.381 1.654-5.071 2.48l-4.238 2.069c-.039.019-.076.05-.137.042.036-.099.114-.163.175-.237.813-.989 1.628-1.976 2.444-2.963l2.798-3.379c.569-.688 1.137-1.377 1.704-2.067.146-.178.23-.391.321-.636z"/>
</svg>
