<svg xmlns="http://www.w3.org/2000/svg" id="Layer_1" x="0" y="0" version="1.1" viewBox="0 0 522 542.7" xml:space="preserve" fill="currentColor" aria-hidden="true">
  <style>
  </style>
  <g id="phIbY7_3_">
    <path d="M101.6 391h65.7c33.4 0 66.8.4 100.1-.2 9.8-.2 15.6 1.9 16.4 12.3.2 2.1 1.1 4 1.9 7H81.5V135.5h46.7c0 7.5-.1 14.7 0 22 .2 16.6 10.2 27.5 25.1 27.3 14.4-.2 24.3-11.1 24.6-27.1.1-7.2 0-14.4 0-22H302v21.4c.1 16.8 9.7 27.7 24.6 27.8 14.9 0 24.6-10.7 24.8-27.5.1-6.9 0-13.9 0-21.4h46.7v136.9c-6.2-.5-12.1-1-19-1.5v-54H101.5c.1 57.7.1 115.2.1 173.6z"/>
    <path d="M380 454.3c-45.2-.2-81.6-36.8-81.3-81.8.3-45.3 36.5-81.2 82-81.1 45.2.1 81.6 36.7 81.4 81.7-.3 45.2-36.9 81.4-82.1 81.2zm10-91.4c0-12.5-.1-23.6 0-34.8.1-6.4-2.4-10.8-9.1-11.2-7.3-.4-10.4 4.3-10.5 10.9-.2 14.2-.1 28.5-.1 42.7 0 8.1 4 12.2 12.4 12.1 13.3-.1 26.6-.1 40 0 7.3.1 13.1-1.8 12.9-10.2-.2-7.8-5.8-9.7-12.7-9.6-10.5.2-21 .1-32.9.1zM311.9 135c0-7.6-.2-15.2 0-22.8.3-9.7 6.4-16 15-16 8.6-.1 14.9 6.2 15.1 15.9.3 15.8.3 31.6 0 47.3-.2 9.2-6.3 15.4-14.5 15.7-8.5.3-15.1-6-15.5-15.5-.4-8.2-.1-16.4-.1-24.6zM167.9 136.1c0 7.9.2 15.8 0 23.7-.3 9.2-6.2 15.3-14.5 15.4-8.3.2-14.9-5.9-15.1-14.9-.3-16.4-.3-32.8 0-49.2.2-9.3 6.4-15 15-14.8 8.5.1 14.3 5.9 14.6 15.2.2 8.2 0 16.4 0 24.6zM190.6 239.1h35.5v35.8h-35.5v-35.8zM226.2 298.8v35.5h-35.7v-35.5h35.7zM163.1 274.9h-35.4v-35.6h35.4v35.6zM289.3 274.8h-35.4v-35.5h35.4v35.5zM317.3 239h35.3v35.7h-35.3V239zM127.4 334.5v-35.4H163v35.4h-35.6zM253.7 335v-36.1h36c0 9.3.4 18.3-.1 27.3-.3 5.5-2.9 9.4-9.9 8.9-8.3-.5-16.8-.1-26-.1z"/>
  </g>
</svg>
