<svg xmlns="http://www.w3.org/2000/svg" viewBox="0 0 24 24" fill="currentColor" aria-hidden="true">
  <path d="M11.997 9.345c2.079 0 4.159-.004 6.238.002.645.002 1.212.231 1.699.655.414.361.687.809.826 1.34.058.222.085.448.085.676 0 2.936.008 5.871-.004 8.807-.005 1.088-.52 1.891-1.483 2.399a2.304 2.304 0 01-.96.261c-.107.006-.213.013-.32.013H5.835c-.579 0-1.11-.161-1.578-.504a2.586 2.586 0 01-1.066-1.73 2.883 2.883 0 01-.036-.464c-.002-2.921-.001-5.842-.002-8.763 0-.65.196-1.231.613-1.73A2.557 2.557 0 015.34 9.39a3.08 3.08 0 01.507-.043c2.049-.003 4.1-.002 6.15-.002zm.002 10.613c.043-.004.087-.005.13-.011a.901.901 0 00.754-.919c-.012-.634-.003-1.269-.004-1.904 0-.049.016-.076.057-.104.101-.07.205-.141.292-.227.394-.388.575-.859.529-1.414a1.67 1.67 0 00-.461-1.042c-.457-.479-1.018-.66-1.668-.527a1.748 1.748 0 00-1.387 1.902c.056.562.34.996.813 1.303.044.028.06.057.06.109a418.25 418.25 0 00-.001 1.94.89.89 0 00.886.894zM18.186 8.46h-2.651v-.082c0-.348.006-.696-.002-1.043-.015-.712-.111-1.41-.361-2.081-.221-.591-.552-1.104-1.055-1.495a2.708 2.708 0 00-1.094-.5 4.827 4.827 0 00-1.346-.093 3.66 3.66 0 00-1.099.221c-.467.178-.85.47-1.166.854-.404.492-.636 1.065-.781 1.677a7.022 7.022 0 00-.17 1.596v.95h-.085c-.829 0-1.659-.001-2.488.001-.067 0-.086-.017-.085-.085.007-.456-.003-.913.016-1.37.048-1.18.283-2.316.828-3.374a5.699 5.699 0 011.192-1.587c.54-.5 1.159-.873 1.846-1.135A6.11 6.11 0 0110.96.579c.484-.073.97-.093 1.46-.064a6.39 6.39 0 011.979.427 5.445 5.445 0 011.923 1.267c.488.5.863 1.076 1.154 1.71.28.611.472 1.249.576 1.911.061.387.1.78.119 1.171.023.473.014.948.018 1.422.001.01-.001.019-.003.037z"/>
</svg>
