<svg xmlns="http://www.w3.org/2000/svg" id="Layer_1" x="0" y="0" version="1.1" viewBox="0 0 522 542.7" xml:space="preserve" fill="currentColor" aria-hidden="true">
  <style>
  </style>
  <g id="_x39_gkX1a_1_">
    <path d="M192.4 281.2h110v-14.5h-110v-26.9h137.1v234.5H192.4V281.2zM351.1 340.6H461v-14.4H351v-27.1h137.3v175H351.1V340.6zM171.1 336.9v137.3H33.7v-95.8h110.1v-14.8h-110v-26.7h137.3zM244.2 197.9v-23c-6.7-2.3-13.3-3.9-19.3-6.7-19.1-9-28.9-25.3-33.9-45-1.3-5.1-2.1-10.4-2.7-15.7-.8-6.9 1.8-9.5 8.7-9.6 3.4-.1 6.8 0 10 0-1.8-13.6-3.6-26.9-5.5-40.7h118.1c.2 13.6-1.9 27-5.3 40.7 4.4 0 8.4-.1 12.3 0 5 .2 7.7 2.7 7.3 7.5-2 23.6-8.9 45.1-29.9 58.8-6.4 4.2-14.2 6.1-21.4 9-1.3.5-2.9.7-4.7 1.1v23.6h-33.7zm76-87.2c-1.6 0-3 .2-4.3 0-4.3-.7-6.5.9-8.4 5.2-6 13.7-14.5 25.7-27.8 33.5-.8.5-1.7 1.7-1.7 2.6-.2 2.9-.1 5.9-.1 8.8 21.2-.5 43-26.6 42.3-50.1zm-118.4.4c1.1 22.8 17.4 47.2 42.3 49.7 0-3 .1-5.9-.1-8.8-.1-.9-.9-2.2-1.7-2.6-12-7.1-20.3-17.5-26-29.9-3-6.6-6.2-11.2-14.5-8.4zm10-44.6c.7 5.7 1.2 11.2 2.1 16.8 2.7 17.4 8.2 33.7 19.6 47.5 6.3 7.6 14 13.4 25.6 14.5-9.2-5.9-15.7-12.7-20.7-21-9.7-15.8-14.1-33.2-16.2-51.3-.9-7.3-1.1-7.3-8.7-6.9-.4-.2-.6 0-1.7.4zM204.2 223c7.6-6.7 14.3-12.6 21.2-18.4 1.1-.9 3-1.2 4.5-1.2 20.7-.1 41.4-.1 62.2 0 1.4 0 3.1.2 4.1 1.1 7 5.8 13.9 11.9 21.7 18.6h-56.8c-18.6-.1-37.1-.1-56.9-.1z"/>
  </g>
</svg>
