<svg xmlns="http://www.w3.org/2000/svg" viewBox="0 0 24 24" fill="currentColor" aria-hidden="true">
  <path d="M11.995.5C5.648.5.5 5.648.5 11.995.5 18.352 5.648 23.5 11.995 23.5c6.357 0 11.505-5.148 11.505-11.505C23.5 5.648 18.352.5 11.995.5zm2.822 16.46l-1.649-2.226c-.43-.595-.806-1.163-1.191-1.74h-.046c-.366.605-.742 1.127-1.191 1.74L9.147 16.96H7.031l3.92-5.093L7.223 7.04H9.33l1.594 2.125c.412.55.76 1.026 1.127 1.575h.046c.366-.568.733-1.063 1.117-1.603l1.548-2.098h2.079l-3.728 4.763 3.856 5.157h-2.152z"/>
</svg>
