<svg xmlns="http://www.w3.org/2000/svg" viewBox="0 0 24 24" fill="currentColor" aria-hidden="true">
  <path d="M20.69 18.289c-.613-.543-1.338-.896-2.099-1.175-2.665-.977-5.431-1.125-8.23-.996-.334.016-.443.189-.437.501.01.592.008 1.186 0 1.779-.004.251.095.414.3.568.74.552.686 1.295-.144 1.722-.91.466-1.854.466-2.763-.002-.84-.433-.891-1.143-.152-1.721.15-.117.284-.221.282-.435-.005-.547-.001-1.095-.003-1.642 0-.231-.106-.339-.346-.281-1.34.322-2.645.735-3.726 1.633-1.154.96-1.145 2.122-.001 3.09.697.589 1.515.955 2.37 1.243 2.026.683 4.12.908 6.28.927 2.167-.018 4.336-.252 6.427-.992.807-.286 1.577-.648 2.228-1.218 1.081-.945 1.086-2.05.014-3.001zm-5.424 1.906c-.67-.018-1.185-.387-1.171-.84.014-.455.528-.793 1.206-.794.691-.001 1.241.372 1.227.83-.016.445-.606.821-1.262.804z"/>
  <path d="M8.275 10.302V1.087c0-.689.003-.692.651-.415 3.453 1.477 6.905 2.955 10.356 4.437.132.057.351.07.349.242-.002.168-.219.183-.352.241-3.199 1.374-6.397 2.752-9.605 4.104-.434.183-.584.416-.581.883.019 3.011.011 6.022.004 9.032-.001.221.093.512-.271.582-.411.079-.55-.059-.55-.585-.002-3.102-.001-6.204-.001-9.306z"/>
</svg>
