<svg xmlns="http://www.w3.org/2000/svg" viewBox="0 0 24 24" fill="currentColor" aria-hidden="true">
  <path d="M5.66 17.567L.5 1.499h4.775l1.722 6.318c.512 1.8.958 3.558 1.349 5.62h.048a79.33 79.33 0 011.331-5.549l1.764-6.389h4.624l-5.31 16.068H5.66z"/>
  <path d="M12.632 17.97c.988.489 2.582.996 4.208.996 1.488 0 2.222-.512 2.222-1.323 0-.769-.729-1.222-2.566-1.842-2.733-.959-4.558-2.455-4.558-4.846 0-2.843 2.421-5.024 6.522-5.024 1.938 0 3.323.358 4.389.823l-.91 3.439c-.698-.303-1.903-.763-3.529-.763-1.324 0-2.052.483-2.052 1.186 0 .817.86 1.145 2.907 1.901 2.927 1.061 4.233 2.611 4.233 4.846 0 2.777-2.18 5.138-6.918 5.138-1.957 0-3.853-.507-4.775-.977l.827-3.554z"/>
</svg>
