<svg xmlns="http://www.w3.org/2000/svg" id="Layer_1" x="0" y="0" version="1.1" viewBox="0 0 522 542.7" xml:space="preserve" fill="currentColor" aria-hidden="true">
  <style>
  </style>
  <path d="M314.5 428.3H213.9c-5.3 0-9.6 4.3-9.6 9.6v8.7H324v-8.7c.1-5.4-4.2-9.6-9.5-9.6zM213.9 383h100.6v39.8H213.9zM314.5 358.3H213.9c-5.3 0-9.6 4.3-9.6 9.6s4.3 9.6 9.6 9.6h100.6c5.3 0 9.6-4.3 9.6-9.6s-4.3-9.6-9.6-9.6zM368.1 140.2H342c.1-3.8.2-7.6.2-11.4h-156c0 3.8.1 7.6.2 11.4h-26.1v4.8c0 58.1 23.9 103.6 54.4 103.8 5.2 8.6 11.1 15.7 17.3 21.3l.1 2.7c.3 7.3 5.5 13.5 12.6 15.1h.6v31.6l-.6.1c-7.1 1.6-12.2 7.8-12.6 15.1l-.1 1.7c-5.7 3.3-9.6 9.4-9.6 16.5H306c0-7.1-3.9-13.2-9.6-16.5l-.1-1.7c-.3-7.3-5.5-13.5-12.6-15.1h-.6V288h.3l.3-.1c7.1-1.6 12.2-7.8 12.6-15.1l.1-2.7c6.2-5.6 12.1-12.8 17.3-21.3 30.5-.1 54.4-45.7 54.4-103.8v-4.8zM170 149.8h17c2.3 34.3 10.3 65.1 22 88.5-21-6.1-37.9-43.7-39-88.5zM290.3 332h-52.1c1.1-3.4 3.9-6.1 7.5-7h37.2c3.5.9 6.3 3.6 7.4 7zm-7.5-49.5h-37.2c-3.6-.9-6.3-3.6-7.5-7h52.1c-1 3.4-3.8 6.1-7.4 7zm36.8-44.2c11.7-23.4 19.6-54.2 22-88.5h17c-1.2 44.8-18.1 82.4-39 88.5z"/>
  <g>
    <path d="M264.2 55l9.7 19.6 21.5 3.1-15.6 15.2 3.7 21.5-19.3-10.2-19.3 10.2 3.7-21.5L233 77.7l21.6-3.1zM195.4 66.8l7.7 15.6 17.3 2.6-12.5 12.2 3 17.2-15.5-8.1-15.5 8.1 3-17.2L170.3 85l17.4-2.6zM333.1 66.8l7.7 15.6 17.3 2.6-12.5 12.2 2.9 17.2-15.4-8.1-15.5 8.1 2.9-17.2L308 85l17.3-2.6z"/>
  </g>
</svg>
