<svg xmlns="http://www.w3.org/2000/svg" data-name="Layer 1" viewBox="0 0 521.86 542.55" fill="currentColor" aria-hidden="true">
  <path d="M89.18 195.94c1.46-7.71 2.38-15.56 4.45-23.09A121 121 0 01200 84c65.61-6 124.56 42.06 131.55 107.3 6.85 63.88-35 120.73-98.18 133.24-65.13 12.9-130.53-31.76-142-97-.8-4.52-1.44-9.06-2.16-13.59zm217.55 9a96 96 0 10-96 96.09 96 96 0 0096-96.13z"/>
  <path d="M342.68 467.44c-8.67-1.72-17.62-2.58-25.95-5.31-47-15.37-75.31-47.57-84.94-96-1.3-6.56-1.25-13.41-1.71-20.13-.17-2.59 0-5.21 0-7.62l26.37-6.61c-3.91 36.07 6.83 66.63 35.06 90 19.39 16.07 42.1 23.1 67.21 21.52a96.5 96.5 0 0090.44-96.52c-.08-29.5-11.39-54.26-33.76-73.5s-48.63-26.15-77.94-22.38c2.23-8.9 4.37-17.43 6.6-26.29a117.36 117.36 0 0136.79 3.21A121.44 121.44 0 01472.61 335c5.67 63.32-38.35 120.43-100.88 130.84-3.67.62-7.37 1.1-11.05 1.65z"/>
  <path d="M420 393a81.09 81.09 0 01-21.19 21.25c-3.21-4-5-11.53-12.18-7.06-6.34 4-1.33 9 .62 13.6a77.8 77.8 0 01-29.1 7.83c-.61-5.25 1.36-12.45-6.94-12.1-7.33.31-5.7 6.81-6.25 12-10.3-.45-19.78-3.38-29-7.6 4.18-9.15 4.24-11.8.45-14s-6-.92-12 7.34a81.7 81.7 0 01-21.21-21.15c4-3.26 11.52-5.15 6.93-12.25-3.91-6.07-8.76-1.54-13.39.77a76.32 76.32 0 01-7.92-29.42c2.16 0 4.09.1 6 0 3.75-.24 6.23-2.67 6.35-6.09a6.35 6.35 0 00-5.93-6.54 66.08 66.08 0 00-6.7 0c.85-4.84 1.51-9.21 2.48-13.52.19-.85 1.46-1.62 2.39-2.13a135.85 135.85 0 0056.17-56.13 6.18 6.18 0 013.57-2.72c3.72-.93 7.56-1.41 11.71-2.14.73 5.31-1.13 12.53 6.92 12.4 7.57-.12 5.79-6.92 6.34-11.64 6.58-.81 21.64 3.06 29.07 7.52-2.05 4.59-7.21 10.07.24 13.82 6.47 3.26 8.29-3.23 11.19-7.54a78.86 78.86 0 0120.87 20.55 104.68 104.68 0 00-7.59 8.69c-.58.8.15 3 .84 4.17 2.22 3.89 5.19 3.72 13.75-.63a77.56 77.56 0 017.91 29c-5.3.63-12.19-1.1-12.13 6.8s6.89 5.77 12 6.51a77.09 77.09 0 01-7.64 29c-9.3-4.2-11.94-4.22-14.12-.31S411.67 387 420 393zm-62-82.84v-15.38a6.13 6.13 0 00-4.83-6.33c-4.26-1.2-7.88 2.15-7.92 7.43-.07 9.62-.08 19.25 0 28.87a4.15 4.15 0 01-2.59 4.3 19 19 0 009.93 35.8 3.77 3.77 0 014 2.32c3.61 6.42 7.31 12.79 11 19.15 2.63 4.51 5.95 5.83 9.49 3.85s4.2-5.72 1.51-10.4c-3.66-6.39-7.46-12.71-11-19.18a5 5 0 010-4.2c6.06-10.44 3.14-21.91-7.39-27.53a3.81 3.81 0 01-2.32-4.08c.12-4.87.05-9.78.05-14.62zM441.48 160.19h17c3.33 0 6.36.6 7.75 4s-.19 5.93-2.6 8.32c-12 11.88-23.87 23.85-35.81 35.75-4.32 4.31-7.4 4.25-11.78-.14q-17.76-17.76-35.52-35.5c-2.34-2.33-4.22-4.71-2.82-8.23s4.55-4.23 8-4.2h16.7a64.8 64.8 0 00-16.79-38 67 67 0 00-20.64-15.29c-3.25-1.6-6.52-3.15-9.71-4.86-2.84-1.53-4.16-4-3.41-7.21s3-4.76 6.27-4.88C386 88.8 408.91 98.61 426 121a72.74 72.74 0 0114.29 34.56c.18 1.23.41 2.46.64 3.69a5 5 0 00.55.94zM159.81 390.68c3.13 23 14.1 39.93 33.59 51.17 4.32 2.49 8.88 4.55 13.33 6.82 3 1.54 4.56 4 3.82 7.34s-3.2 4.79-6.58 5c-38 2.4-71.63-22.12-80.67-59-.88-3.6-1.38-7.31-2.13-11.36-6.13 0-12.22.09-18.31 0-4.54-.08-7.41-2.61-7.07-6.43a8.64 8.64 0 012.22-4.9q18.54-18.82 37.32-37.43c3.37-3.35 6.77-3.34 10.16 0q18.63 18.51 37.13 37.11c2.08 2.08 3.24 4.44 2.09 7.43s-3.71 4.22-6.82 4.24c-5.84.04-11.68.01-18.08.01zM175.13 280.05c4.25-8.9 4.3-11.73.47-14s-6-1-12 7.32a81.54 81.54 0 01-21.31-21.25c1.66-1 3.22-1.94 4.74-2.92 3.56-2.32 4.61-5.76 2.78-9s-5.43-4.06-9.13-2.14c-1.55.81-3 1.71-4.81 2.72a78.24 78.24 0 01-7.87-29.02c5-.76 12.27 1.18 12.08-6.95-.17-7.67-7-5.69-12-6.32.51-10.35 3.34-19.77 7.63-29.09 5 2 10 7.24 14.28-.17 2.17-3.76.52-6-7.63-11.28a80.8 80.8 0 0121.24-21.36c3.17 4.1 4.72 11 12 7.3 3.86-1.93 3.66-4.8-.47-13.81a77.18 77.18 0 0128.94-7.81c.84 5.12-1.29 12.63 7.24 12.08 7.23-.47 5.46-7 6.1-12a76.46 76.46 0 0128.17 7.28c-.85 4-1.92 7.56-2.22 11.2-.09 1.05 1.79 2.65 3.11 3.37 3.8 2.07 6 .55 11.35-7.57a82.12 82.12 0 0121.35 21.24c-4.09 3.23-11.06 4.72-7.33 12.09 1.94 3.84 4.75 3.65 13.83-.47a76.58 76.58 0 017.83 29.24c-2.17 0-4.09-.1-6 0-3.75.24-6.22 2.67-6.34 6.09a6.35 6.35 0 005.92 6.54 57.45 57.45 0 006.34 0c-.51 10.5-3.34 19.91-7.65 29.27-4.84-2-9.87-7.16-14.2.1-2.11 3.55-.41 5.9 7.59 11.4a82.06 82.06 0 01-21.29 21.28c-3.13-4.16-4.7-10.74-11.85-7.39-3.95 1.84-3.8 4.76.14 13.67-5.61 3.89-19.86 7.8-28.79 7.81-.57-4.93 1.16-12.09-6.9-11.89-7.54.18-5.75 7-6.25 12.1a78.33 78.33 0 01-29.09-7.66zm42.11-110.28v-14.23c0-5.06-2.43-8-6.37-8.09s-6.4 2.89-6.42 8c0 9.49-.06 19 0 28.47a4.15 4.15 0 01-2.55 4.34c-7.76 4.1-11.39 11.76-10 20.36 1.27 7.81 7.56 13.92 15.85 15.38a18.63 18.63 0 0019.72-9.83 4.38 4.38 0 014.64-2.67c7.24.14 14.48.08 21.73 0 5.16 0 8-2.31 8-6.38s-2.72-6.38-7.87-6.41c-7.49 0-15 .09-22.47-.11-1.25 0-2.63-1.23-3.66-2.19-2.86-2.7-5.33-5.86-8.42-8.22-1.65-1.25-2.26-2.27-2.23-4.17.11-4.75.05-9.5.05-14.25z"/>
  <path d="M351.48 339.45a6.33 6.33 0 016.38 6.38 6.12 6.12 0 01-6 6.28 6.33 6.33 0 01-6.65-6.11 6.51 6.51 0 016.27-6.55zM217.17 205.1a6.52 6.52 0 01-6.53 6.32 6.33 6.33 0 01-6.14-6.62 6.09 6.09 0 016.25-6 6.33 6.33 0 016.42 6.3z"/>
</svg>
