<svg xmlns="http://www.w3.org/2000/svg" data-name="Layer 1" viewBox="0 0 521.86 542.55" fill="currentColor" aria-hidden="true">
  <path d="M443.21 300.2q-83 .09-166.07.05c-7.19 0-11.09 2.88-13.32 9.75q-18.91 58.17-37.75 116.39a16.52 16.52 0 00-.91 6.93c.9 6.63 5.81 10.19 13.46 10.2h164.2c9.28 0 12.51-2.32 15.34-11.06q13.6-42 27.22-84c3.62-11.12 7.42-22.18 11.13-33.27v-6c-2.67-5.61-6.69-9-13.3-8.99zM340.77 406.1a34.21 34.21 0 1134.11-34 34.17 34.17 0 01-34.11 34zM87 239.6c5.87-1.31 9.32-5.95 9.53-12.63.1-3.12.29-6.24.61-9.35 4.64-45.16 42.16-81.53 87.24-84.6 47.49-3.23 89.36 27.6 100 74 1.75 7.66 2.08 15.66 3.14 24.06h-24.07c-1.8 8.25-3.48 16-5.2 23.89 13.63 0 27.37.18 41.1-.09a11.28 11.28 0 0011.4-11.62c-.36-12.83-.08-25.88-2.38-38.42-9.67-52.84-56.85-93.6-109.79-95.84-56.7-2.43-106.6 33-121.44 86.45-2.14 7.71-3.14 15.8-4.63 23.73v12a7.66 7.66 0 01.82 1.14c3.09 5.96 7.95 8.55 13.67 7.28z"/>
  <path d="M211.54 231c15.49-.09 31 0 46.48 0h4.33c2.64-26.35-15.22-63-54.44-72.32a71.25 71.25 0 00-85 51C113 247.24 135 286 172.21 296.35c39.58 11 74.25-12.92 84.85-41.36h-4.45c-13.12 0-26.24.14-39.36-.11a18.41 18.41 0 01-8.77-2.45c-4.42-2.67-5.94-8.41-4.34-13.25a11.8 11.8 0 0111.4-8.18zM229.44 324.84a114.52 114.52 0 00-54.55-6c-55 6.81-97.77 54.44-98.72 110.07-.18 10.25 4.12 14.66 14.35 14.66H203a37.41 37.41 0 01.13-24.55c3.16-9.47 6.21-19 9.29-28.46 6.88-21.24 13.75-42.47 20.77-64.18-1.46-.64-2.59-1.12-3.75-1.54z"/>
</svg>
