<svg xmlns="http://www.w3.org/2000/svg" viewBox="0 0 24 24" fill="currentColor" aria-hidden="true">
  <path d="M6.779 4.783V2.467h2.772v7.088H2.463V6.792h2.332c-.079-.083-.12-.127-.162-.169C3.408 5.397 2.181 4.173.957 2.946.498 2.485.391 1.933.613 1.336.947.438 2.183.217 2.9.921c.795.781 1.578 1.575 2.366 2.363l1.362 1.361c.04.038.082.074.151.138zM4.779 17.23H2.453v-2.769h7.09v7.087H6.781v-2.369c-.087.081-.135.124-.181.17-1.234 1.233-2.466 2.468-3.701 3.7-.528.527-1.3.595-1.861.172-.656-.494-.723-1.492-.137-2.102.251-.261.511-.513.766-.768l2.945-2.946c.045-.045.088-.092.167-.175zM19.228 6.778h2.323V9.55h-7.093V2.458h2.77v2.281l.08.056c.03-.057.048-.125.091-.169 1.223-1.227 2.448-2.453 3.674-3.677.451-.45 1.093-.571 1.64-.314.829.39 1.044 1.481.425 2.172-.117.13-.244.251-.368.375-1.143 1.143-2.285 2.286-3.429 3.427-.044.044-.104.071-.156.105l.043.064zM14.464 21.546v-7.09h7.095v2.767h-2.322l-.037.065c.076.061.159.115.228.184 1.206 1.203 2.409 2.408 3.615 3.611.275.274.455.59.458.987.004.613-.296 1.044-.835 1.302-.504.241-1.084.13-1.5-.28-.756-.745-1.504-1.499-2.254-2.25l-1.51-1.51c-.04-.04-.084-.078-.155-.145v2.358l-2.783.001z"/>
</svg>
