<svg id="a83defab-ad9a-45dd-8161-0e972f7a622f" data-name="Layer 1" xmlns="http://www.w3.org/2000/svg" viewBox="0 0 521.86 542.55"><title>rap_legal_</title><path d="M308,442.8c0,8.66,0,16.74,0,24.81,0,4.36-.75,8.26-4.95,10.52s-7.86.64-11.43-1.85c-5.7-4-11.6-7.66-17.24-11.7-2.14-1.53-3.6-1.35-5.63.07-5.92,4.15-12,8.05-18,12.14-3.4,2.33-6.88,3.41-10.73,1.31s-4.91-5.59-4.89-9.69c0-8.35,0-16.7,0-25.61H158.91c-19.74,0-32.64-12.73-32.65-32.37q0-123.23-.07-246.44a14.31,14.31,0,0,1,4.59-10.9q34.89-34.64,69.53-69.52a13.37,13.37,0,0,1,10.22-4.17q87,.09,174.08,0c19.44,0,32.38,12.85,32.39,32.24q.08,149.4,0,298.79c0,19.46-12.91,32.29-32.27,32.32q-35.75,0-71.5,0ZM144.55,170.33V174q0,118.32,0,236.64c0,9.43,4.66,14,14.2,14.05q36.39.07,72.78,0c1.09,0,2.19-.18,3.68-.31,0-9.7.14-19.18-.11-28.66a9.59,9.59,0,0,0-2.45-5.81c-9.31-9.91-14.69-21.54-15.41-35.07a54.21,54.21,0,0,1,35.55-54.07c22-8,47-.46,61.63,18.57,14.86,19.38,15.92,44.47.92,63.87-6,7.75-8.11,15.15-7.41,24.32.43,5.57.08,11.21.08,17.18h4.42q35.76,0,71.5,0c10.31,0,14.76-4.47,14.76-14.79q0-148.76,0-297.51c0-10.38-4.31-14.65-14.77-14.65q-81.07,0-162.15,0c-1.49,0-3,.13-4.32.19a10.17,10.17,0,0,0-.29,1.33c0,13.47,0,27-.06,40.43-.13,15.36-10.29,27.52-25.43,30.08-4.56.77-9.32.5-14,.53C166.81,170.38,155.92,170.33,144.55,170.33Zm127,145.4a36.29,36.29,0,1,0,36.47,36A36.34,36.34,0,0,0,271.53,315.73Zm-17.66,87.68v49.45l10.63-7.19c5.9-4,8.38-4,14.3,0,3.43,2.29,6.84,4.63,10.62,7.19V403.43A55.07,55.07,0,0,1,253.87,403.41Zm-55-290.78-39.52,39.51c8.86,0,18.46.27,28-.1,6.5-.25,11.08-4.62,11.36-11C199.2,131.29,198.89,121.56,198.89,112.63Z"/><path d="M271.45,261.23H194c-1.28,0-2.56.06-3.83,0-5.54-.41-9.36-4.12-9.38-9.09s3.76-8.72,9.3-9.14c1.13-.09,2.27,0,3.41,0q78.06,0,156.13,0a27,27,0,0,1,5.9.47,8.89,8.89,0,0,1,.08,17.3,24.47,24.47,0,0,1-5.48.5Q310.8,261.26,271.45,261.23Z"/><path d="M271.46,224.83q-40,0-80,0c-7.39,0-11.88-4.87-10.32-11.11a8.37,8.37,0,0,1,7.69-6.83,40.41,40.41,0,0,1,4.67-.13H349.66c1.27,0,2.55,0,3.83.05,5.19.32,8.94,4.08,9,8.93a9,9,0,0,1-8.89,9c-5.8.2-11.62.06-17.44.06Z"/><path d="M308,152.24H266.32c-1.27,0-2.56,0-3.83-.06-5.4-.51-8.85-4-8.89-9s3.38-8.6,8.74-9.16c1.12-.11,2.27-.07,3.4-.07H350c8,0,12.35,3.2,12.41,9.07s-4.35,9.23-12.25,9.24Z"/><path d="M307.63,188.42c-14.76,0-29.52.05-44.28,0-6,0-9.71-3.54-9.75-8.9s3.86-9.12,10-9.14c15.47,0,30.93,0,46.4,0,14.19,0,28.38-.06,42.57,0,7.2,0,11.65,6.06,9.2,12.28-1.67,4.21-5,5.81-9.45,5.8C337.43,188.39,322.53,188.42,307.63,188.42Z"/></svg>