<svg id="Layer_1" data-name="Layer 1" xmlns="http://www.w3.org/2000/svg" viewBox="0 0 521.86 542.55"><title>ICONO REGLAS</title><path d="M491.76,358.71v16.8c-.23,1.14-.54,2.28-.67,3.44A110.25,110.25,0,0,1,470,433c-35.76,48.7-102.94,58.48-150.93,21.85a11.81,11.81,0,0,0-7.63-2.58q-89.38.11-178.75-.06a59.34,59.34,0,0,1-18-2.64c-20.12-6.61-32.47-24.8-32.48-46.87q0-130.17,0-260.33c0-9.19-.18-18.4.06-27.59.43-15.77,7.12-28.41,19.67-38,6.74-5.14,14.58-7.5,22.67-9.28H387c4.6,2.47,8.36,5.55,8.77,11.31.52,7.18-2,11.19-9.58,14.79-11.15,5.3-16.58,16.38-13.5,28,2,7.53,6.65,13.08,13.92,15.92,6.71,2.61,9.32,7.46,9.19,14.27,0,1.2,0,2.4,0,3.6V260.05l5.05,1c41.38,7.75,69.71,31.32,84.5,70.65C488.55,340.27,489.67,349.67,491.76,358.71ZM371.58,163.8H154.35V428.06H294c-14.27-22.33-20.11-46.29-17.48-72.59h-5.14q-39.6,0-79.2,0c-9.37,0-13.95-4.63-14-14q0-21.6,0-43.2c0-10.41,4.36-14.72,14.88-14.72q59,0,118,.06a14.65,14.65,0,0,0,8.78-2.8,178.58,178.58,0,0,1,18.11-10.87c10.5-5.39,21.87-8.16,33.66-9.74Zm96.17,203.65c-.07-46.18-37.82-83.92-84-83.93s-83.91,37.7-84,83.9c-.09,47.09,38,85.85,84.18,85.67S467.82,414.4,467.75,367.45Zm-113.66-276H132.89c-1.47,0-2.94,0-4.4.1a24,24,0,0,0-21.39,30.27c3.1,11.07,12.37,17.66,25.07,17.66H350.55c1,0,2-.1,3.48-.18C345.74,123.35,345.79,107.62,354.09,91.47ZM129.9,428.12V164.54l-23.74-6.38V161q0,120.59,0,241.16a36,36,0,0,0,.29,5.19C108.15,419.35,117.51,427.7,129.9,428.12Zm72.56-120.51v23.76h79c4-8.05,7.89-15.83,11.85-23.76Z"/><path d="M262.78,211.51c-23.86,0-47.73,0-71.59,0-9.46,0-15.51-8.26-12.09-16.42,2.12-5.07,6.18-7.52,11.65-7.54,8.13,0,16.26,0,24.4,0H331.93c1.34,0,2.67,0,4,0,6.82.35,11.9,5.6,11.8,12.15A11.91,11.91,0,0,1,336,211.44c-6.66.2-13.33.06-20,.07Z"/><path d="M263.36,235.51c23.87,0,47.73,0,71.6,0,9.22,0,15.13,8.17,11.92,16.25-1.83,4.63-5.4,7.14-10.33,7.65-1.32.13-2.67.06-4,.06H193.37c-1.07,0-2.14,0-3.2,0-6.87-.31-12-5.43-12-12a11.89,11.89,0,0,1,12-11.94c11.6-.15,23.2-.05,34.8-.05Z"/><path d="M371.76,385.5c0-9.59,0-19.19,0-28.79,0-7.79,5-13.17,12-13.17s12,5.38,12,13.17q.06,29.21,0,58.39c0,7.79-5,13.18-12,13.18s-11.94-5.39-12-13.18C371.72,405.23,371.76,395.37,371.76,385.5Z"/><path d="M395.73,319.62a12,12,0,1,1-11.85-12.08A12.09,12.09,0,0,1,395.73,319.62Z"/></svg>