<svg id="Layer_1" data-name="Layer 1" xmlns="http://www.w3.org/2000/svg" viewBox="0 0 521.86 542.55"><title>ICONO REGLAS</title><path d="M183.26,477c-3.23-2.12-4.27-5.13-4.13-8.92.21-5.35.06-10.71.06-16.63-6.23,0-12.17,0-18.1,0a32.39,32.39,0,0,1-17.51-4.63c-9.88-6.1-14.94-15.11-15.64-26.63,0-.75,0-1.5,0-2.25q0-145.83,0-291.67c0-15.72,9.32-28.28,23.74-32.07A38.44,38.44,0,0,1,161.28,93q117-.09,233.94,0c9.22,0,14.39,5.14,14.39,14.4q0,139.1,0,278.18c0,8.52-3.17,12.31-12.52,15v38.14c2.07,0,4.15-.1,6.22,0a6.37,6.37,0,0,1,6.25,6.22,6.51,6.51,0,0,1-5.72,6.4,28.25,28.25,0,0,1-4.12.11H243.2c0,5.71-.15,11.28.06,16.84.14,3.88-1.11,6.78-4.5,8.71H235c-7.32-3.7-14.62-7.45-22-11.08a4,4,0,0,0-3.05-.23c-7.45,3.68-14.82,7.52-22.21,11.31ZM396.5,387.4V105.75H161.86c-13.28,0-21.15,7.89-21.15,21.27q0,131.22,0,262.46c0,1.17.13,2.34.24,4.23,8.62-6.6,18.12-6.36,27.67-6.35q111.36.08,222.72,0Zm-12.69,12.82H163.39c-1.24,0-2.5,0-3.74,0-10.52.42-18.46,8.2-18.91,18.52a19,19,0,0,0,17.35,19.61c6.8.59,13.7.11,20.82.11V425.83c-4,0-7.88.08-11.73,0-4.42-.12-7.2-2.71-7.16-6.5s2.71-6.25,7.29-6.25q50.24,0,100.46,0c4.55,0,7.27,2.43,7.31,6.24s-2.8,6.47-7.51,6.52c-6.87.07-13.75,0-20.62,0h-3.52v12.54H383.81ZM230.16,460V426.12H192c0,10.74,0,21.21,0,31.69a19.87,19.87,0,0,0,.34,2.16c3.72-1.85,7.25-3.36,10.55-5.29,5.63-3.28,11-3.15,16.64.05C222.87,456.63,226.38,458.16,230.16,460Z"/><path d="M339.2,169.72c6.14,0,11.75,0,17.36,0,9.55.06,15,5.78,14.11,15.22-1.35,14.65-4.31,28.89-11.87,41.79-5.17,8.83-12.3,15.32-22.27,18.39a5.47,5.47,0,0,0-2.84,2.05c-7.35,11.4-17.69,17.66-31.26,18.5a8.54,8.54,0,0,0-1.32.35v38.22c2.09,0,4.17-.08,6.24,0,7.34.32,12.37,5.37,12.51,12.7.12,6.24.1,12.49,0,18.74-.06,4.31-2.42,6.86-6.72,6.88q-31.49.14-63,0c-4.5,0-6.89-2.57-6.94-7.06q-.12-9.19,0-18.37c.1-7.51,5.16-12.61,12.7-12.91,2-.07,3.94,0,6.16,0V266c-2.49-.35-4.84-.56-7.14-1-10.7-2.16-19-8-25-17-.71-1.07-1.69-2.38-2.8-2.7-14-4.06-21.75-14.42-27.1-27.06-4.66-11-6.83-22.68-7.69-34.56-.58-8,5-13.69,13.28-13.9,5.86-.15,11.73,0,18.27,0,0-2,0-3.78,0-5.58.18-8.32,5.37-13.49,13.72-13.5q43.86-.06,87.71,0c8.58,0,13.75,5.2,13.86,13.74C339.22,166,339.2,167.59,339.2,169.72ZM236.92,163.6c-.08,1.25-.21,2.34-.21,3.43,0,19.61-.06,39.21,0,58.81.05,16.28,10.73,27,27,27.06,11.73.06,23.47,0,35.21,0,16.95,0,27.49-10.65,27.5-27.66q0-28.85,0-57.69v-4Zm19.17,166h50.72V317.35H256.09Zm83.29-100.48c10.37-4.87,18.31-29.22,18.19-46.31H339.38Zm-115.78.82V182.75H205C207.21,199.94,209.26,216.81,223.6,229.93ZM288,284.78v-9.72c0-9.64,0-9.55-9.68-9.39-2.47,0-3.22.83-3.19,3.24.11,8.59.05,17.19.05,25.79,0,9.93,0,9.85,9.88,9.58,2.29-.07,3-.8,3-3C287.93,295.75,288,290.27,288,284.78Z"/><path d="M153.51,246.34q0-59,0-118.08a21.54,21.54,0,0,1,.36-4.83,6.25,6.25,0,0,1,12.23.4,24.51,24.51,0,0,1,.21,4.11q0,118.65,0,237.29a27.46,27.46,0,0,1-.15,3.74,6.28,6.28,0,0,1-12.41.3,24.74,24.74,0,0,1-.25-4.48Q153.51,305.57,153.51,246.34Z"/></svg>