<svg id="Layer_1" data-name="Layer 1" xmlns="http://www.w3.org/2000/svg" viewBox="0 0 521.86 542.55"><title>ICONO REGLAS</title><path d="M385,286.81c4.86,0,9.34-.19,13.79.08a13.32,13.32,0,0,1,6.3,1.76c15.51,10.17,32.12,17.66,50.41,21.16,3.71.71,5.26,2.83,5.25,6.53,0,22.62.15,45.25-.12,67.86-.17,13.95-4.84,26.76-12.13,38.49A126.63,126.63,0,0,1,383,476.05,20.61,20.61,0,0,1,376,477.2q-138.74.09-277.47.05c-7,0-8.3-1.3-8.3-8.27q0-147.74-.07-295.47a11.48,11.48,0,0,1,3.74-8.87q27.3-27.06,54.35-54.36a11.08,11.08,0,0,1,8.55-3.6q110.06.13,220.1.07c6.78,0,8.1,1.32,8.1,8.07q0,83.43,0,166.86ZM353.79,466.62l-3.67-2.37c-17.06-11-31.36-24.75-41.66-42.35-1.62-2.76-3.32-3.65-6.46-3.65q-82.3.17-164.61.07c-1.5,0-3,0-4.5-.12-3.1-.3-4.85-2.21-4.83-5.19s1.88-4.82,4.95-5.1c1.36-.13,2.74-.08,4.12-.08H301.72c-6-14.05-5.12-28.34-5.19-42.75H137.05a35.41,35.41,0,0,1-4.49-.17,4.77,4.77,0,0,1-4.5-5.09,4.82,4.82,0,0,1,4.53-5.09,29.81,29.81,0,0,1,4.12-.14H296.3V321.81h-160c-5.63,0-8.31-1.74-8.3-5.35s2.55-5.15,8.35-5.15q75.93,0,151.86-.07a79.54,79.54,0,0,0,14.32-1.63c18-3.33,34.16-10.83,49.41-20.69a14.94,14.94,0,0,1,7-2c5.07-.3,10.17-.09,15.42-.09V117.51h-215V167.6c0,6.81-1.33,8.17-8,8.17H101V466.62Zm96-112.71h.5c0-10.5,0-21,0-31.49,0-2-.29-3.07-2.6-3.6-16.58-3.85-31.83-10.84-46.14-20a10.34,10.34,0,0,0-5.21-1.47c-11.37-.13-22.74-.2-34.11,0a15.68,15.68,0,0,0-7.59,2.25c-13.79,8.53-28.33,15.28-44.17,18.94-2.85.65-3.44,1.88-3.43,4.53q.15,28.5,0,57a63,63,0,0,0,5.72,27.27c13.22,28.26,35.39,46.83,63.93,58.32a7.58,7.58,0,0,0,5-.38c18.48-7,34-18.35,47-33.13,10.89-12.41,19.45-26.31,20.9-43.09C450.56,377.45,449.75,365.64,449.75,353.91ZM148.6,126.61l-38.46,38.46H148.6Z"/><path d="M261.87,235.72c0-9.62,0-19.24,0-28.85.05-8.92,5-13.88,14-13.89q28.86,0,57.71,0c8.51,0,13.76,5.22,13.78,13.82q.09,28.86,0,57.71c0,8.72-5.32,13.93-14.09,13.95q-28.67.06-57.33,0c-8.9,0-14-5.07-14.05-13.88C261.84,255,261.87,245.34,261.87,235.72Zm75,.4c0-9.37-.09-18.74.05-28.11.05-3.37-1.06-4.62-4.55-4.6q-27.75.19-55.49,0c-3.42,0-4.59,1-4.57,4.48q.19,27.75,0,55.49c0,3.33.91,4.68,4.45,4.65q27.75-.19,55.49,0c3.75,0,4.72-1.48,4.66-4.92C336.77,254.12,336.87,245.12,336.87,236.12Z"/><path d="M213.42,235.74c0,9.62.05,19.24,0,28.86-.06,8.82-5.16,13.85-14.06,13.86q-28.68,0-57.34,0c-8.75,0-14-5.22-14.07-14q-.09-28.85,0-57.71c0-8.62,5.26-13.79,13.79-13.8q29,0,58.08,0c8.42,0,13.52,5.09,13.58,13.53C213.48,216.25,213.42,226,213.42,235.74Zm-42.48-32.27c-9.37,0-18.75.11-28.12-.05-3.24-.06-4.45,1.06-4.44,4.32q.13,27.93,0,55.86c0,3.18,1.08,4.44,4.38,4.42q27.93-.15,55.86,0c3.27,0,4.37-1.13,4.35-4.37q-.15-27.93,0-55.86c0-3.19-.94-4.44-4.29-4.38C189.44,203.59,180.19,203.47,170.94,203.47Z"/><path d="M359.67,386.53l48.55-39.43a19.63,19.63,0,0,1,2.37-1.82c2.63-1.52,5.11-1.24,7,1.18a4.7,4.7,0,0,1-.47,6.76c-1.95,1.91-4.16,3.58-6.29,5.31l-46.8,38c-5.38,4.37-7.59,4.05-11.42-1.65-5.85-8.7-11.72-17.38-17.5-26.12-1.95-2.95-1.51-5.91.88-7.65s5.57-1.16,7.76,1.78c.82,1.1,1.55,2.27,2.31,3.41Z"/><path d="M295.37,241,319,221.78c1.07-.86,2.12-1.75,3.21-2.58,3-2.27,6-2.2,8,.16s1.62,5.41-1.27,7.86c-3.24,2.74-6.58,5.37-9.88,8.05-6.78,5.51-13.55,11-20.36,16.53-4,3.26-6.75,2.87-9.66-1.38q-5-7.26-9.81-14.62c-2.27-3.44-2-6.39.68-8.23s5.64-1,7.94,2.28C290.35,233.44,292.74,237.08,295.37,241Z"/><path d="M170.63,228.62c3.91-4,7.18-7.42,10.55-10.75,2.9-2.87,5.88-3.11,8.18-.81s2,5.39-.81,8.22c-3.34,3.35-6.81,6.57-10.78,10.38,3.92,3.78,7.73,7,10.92,10.75a8.19,8.19,0,0,1,1.6,6.31c-.9,3.61-5.52,4.23-8.54,1.35-3.68-3.51-7.17-7.23-11.18-11.31-3.52,3.7-6.72,7.19-10,10.55-3.12,3.14-6.07,3.41-8.47,1s-2-5.31,1.17-8.47,6.57-6.46,10.48-10.3c-3.91-3.72-7.68-7.11-11.21-10.73-3.24-3.32-2.09-8.47,2.1-9a8,8,0,0,1,5.56,2.05C163.75,221.08,167,224.77,170.63,228.62Z"/></svg>