<svg id="63c78d43-e4cb-4ca7-ac79-70df0ab3f51e" data-name="Layer 1" xmlns="http://www.w3.org/2000/svg" viewBox="0 0 521.86 542.55"><title>rap_cookies_policy_</title><circle cx="338.44" cy="202.61" r="8.07" transform="translate(-37.5 83.18) rotate(-13.28)"/><path d="M376.88,219.46a5.36,5.36,0,1,0-5.36-5.36A5.35,5.35,0,0,0,376.88,219.46Z"/><circle cx="313.16" cy="292.97" r="12.02"/><circle cx="246.06" cy="243.28" r="13.01" transform="translate(-72.86 377.51) rotate(-67.5)"/><path d="M344.68,178.43a8.65,8.65,0,1,0-8.65-8.65A8.66,8.66,0,0,0,344.68,178.43Z"/><path d="M285.22,343.16v0a91.32,91.32,0,0,0,95.54-86.25,3.56,3.56,0,0,0,0-.57c.11-2.16.12-4.33.08-6.51s-.17-4.28-.36-6.38a4.33,4.33,0,0,0-6.59-3.62c-5.06,3.1-9.35,4-13,3s-7.14-4-10.27-8.66a4.33,4.33,0,0,0-4.95-1.79c-8,2.59-15.38,2.71-21.43.82A22.95,22.95,0,0,1,308.89,218c-2-6.26-2-14,.78-22.84h0a4.3,4.3,0,0,0-2.6-5.32,13.22,13.22,0,0,1-8.1-8.26c-1.47-4.19-1.35-9.48.4-15.18a4.08,4.08,0,0,0,.35-1.68,4.32,4.32,0,0,0-4.33-4.32A92.93,92.93,0,0,0,229.09,184a90.91,90.91,0,0,0-30.65,63,3.48,3.48,0,0,0,0,.57,91.34,91.34,0,0,0,86.25,95.53A3.55,3.55,0,0,0,285.22,343.16Zm-57-35.76A82.54,82.54,0,0,1,207,247.77l0-.19v-.08a82.34,82.34,0,0,1,27.8-57.05,84.55,84.55,0,0,1,55-21.58,30.87,30.87,0,0,0,.91,15.49,21.56,21.56,0,0,0,9.61,11.8c-2.26,9.16-2,17.45.27,24.43a32.29,32.29,0,0,0,8,13.1,31.79,31.79,0,0,0,13,7.75c6.89,2.14,14.94,2.3,23.6,0,3.89,5,8.32,8.34,13.39,9.7a21.7,21.7,0,0,0,13.58-.91c.05,1.9,0,3.84-.09,5.85v.27a82.67,82.67,0,0,1-86.72,78.13l-.2,0h-.07A82.38,82.38,0,0,1,228.26,307.4Z"/><circle cx="254.52" cy="286.89" r="9.15" transform="translate(-107.93 412.25) rotate(-67.5)"/><circle cx="287.03" cy="254.36" r="7.5" transform="translate(-95.79 277.46) rotate(-45)"/><circle cx="274.22" cy="214.94" r="7.17"/><path d="M479.23,407c-.17-4-2.88-5.85-7.7-5.87-10.6-.06-21.2,0-31.8,0h-4.82c0-3.24.09-6,0-8.74-1.22-30.22-1.74-60.49-3.93-90.64-1.89-26.09-4.92-52.16-8.8-78-4.68-31.24-11.43-62.17-16.1-93.41C401.27,98.22,373.75,80,346.58,80.49c-50.19,1-100.41.3-150.62.28-29.84,0-59.7.47-89.53-.28C78,79.78,59.57,103.43,62,127.66c1.22,12.22,5,24.21,8,36.22.43,1.75,2.88,4.24,4.43,4.27q25.07.49,50.14.13c3.31,0,5.09-3,4.77-6.29s-2.39-5.26-5.85-5.43c-1.11-.06-2.23,0-3.34,0-12,0-24-.09-36,.06-2.75,0-4-.86-4.58-3.48-1.52-6.65-3.34-13.23-4.88-19.87-3.19-13.68,1.83-27.89,12.39-35.34,12-8.47,26.67-5.8,34.51,6.59a54,54,0,0,1,5.79,12.45c2.43,7.68,4.31,15.54,6.26,23.37a729.84,729.84,0,0,1,17.81,98.14c2.29,21.33,4.28,42.77,4.68,64.19.56,30.23-.48,60.49-.81,90.74-.14,12-1.48,24.07,0,35.84,3.07,24.95,23.27,42.63,47.06,42.64q113.4.06,226.78,0c19.05,0,33.23-8.88,43-25.1C479.49,434.4,479.82,420.76,479.23,407Zm-278.62,52.5c-12.59-.41-21.89-6.7-28.19-17.42a46.58,46.58,0,0,1-6.16-27.3C169,374,170,333.18,168.08,292.32a803.39,803.39,0,0,0-23.74-159.21c-2.22-8.75-4.75-17.45-7.78-25.94-1.71-4.78-4.72-9.1-7.56-14.38h4.79q108.36,0,216.71,0c20.52,0,38.66,14.42,42.29,34.67,7.21,40.14,14.72,80.26,20.49,120.61a958.55,958.55,0,0,1,9.52,146.74c-.07,6.31-.07,6.32-6.33,6.32h-164c-14.46,0-14.19,0-14.59,14.3-.18,6.46-.72,13.2-2.74,19.26C230,450.14,215.89,460,200.61,459.52Zm235.56-.4a47.09,47.09,0,0,1-8.74.53q-94.73,0-189.45,0c-1.33,0-2.66-.13-4.91-.26,13.14-12.91,18-28.23,17.13-45.81H466.82C469.63,435.48,456.22,455.26,436.17,459.12Z"/></svg>