<svg id="aa1c73fc-5256-43d7-bd2d-925ee2575a37" data-name="Layer 1" xmlns="http://www.w3.org/2000/svg" viewBox="0 0 521.86 542.55"><title>rap_schedule_change_</title><path d="M140.26,293.49A127.78,127.78,0,0,0,148.35,330c19.1,49.84,65.32,83.31,118.6,84.09,40.2.58,73.38-15.95,99.61-46.25a122.35,122.35,0,0,0,25.79-49,9.66,9.66,0,0,1,7.46-7.49c8.28-2.16,16.63-1.7,24.93-.4,4.4.7,6.4,4.54,4.81,9.66-3.38,10.95-6.14,22.25-11,32.55-24.65,52.33-65.66,84.54-122.5,95-48.4,8.91-92-3.88-130.11-34.49-30.76-24.68-50.58-56.57-59-95.24-1.74-8-2.52-16.27-3.84-25-2.39,0-5.17.43-7.74-.13-2.2-.49-5.09-1.64-6-3.36s-.32-5.06.91-6.76c8.31-11.56,16.94-22.9,25.54-34.26,3.38-4.46,7.71-4.47,11.12,0,8.61,11.35,17.23,22.69,25.55,34.25,1.22,1.7,1.75,5.05.88,6.77s-3.77,2.76-6,3.34S143,293.49,140.26,293.49Zm-33.52-12.31c7.32.85,8.56,2.28,8.86,9.09.17,4,.4,8,.91,12,4.58,35.1,18.85,65.68,44,90.59,34,33.66,75.26,50.36,123.07,44.93,59.26-6.73,101.19-38.85,125.78-93.23,3.19-7.07,5.24-14.65,7.93-22.3-3.41,0-5.9.1-8.38,0-3.76-.18-5.41,1.43-6.61,5.17-20.33,63.8-83,105.06-148.86,98.16-68.92-7.24-122.87-65.16-125.3-134.54-.26-7.27.5-8.27,7.82-10l-14.55-19.39Z"/><path d="M396.78,247.6a112,112,0,0,0-6.17-30.37c-17.84-48.8-52.24-79-103.45-87.64-42.94-7.22-79.75,7.46-110.36,37.82a118.56,118.56,0,0,0-31.54,54.5c-2.17,8.2-6.77,12-14.42,12.64a72.17,72.17,0,0,1-16.75-.55c-6.06-1-8.1-4.94-6.84-11C121,156.83,174.44,104.62,241.34,93.92c60.5-9.68,111,10.49,151.58,55.56,22.77,25.29,35.34,55.61,39.73,89.32.33,2.59.51,5.21.81,8.24,2.74,0,5.33,0,7.91,0,2.84,0,5.67.72,6.38,3.52a9.34,9.34,0,0,1-1,6.86c-8.29,11.73-16.88,23.25-25.45,34.77-3.11,4.18-7.42,4.21-10.61.09-8.78-11.37-17.57-22.74-26.07-34.32a9.28,9.28,0,0,1-1.13-6.83c.66-2.8,3.45-3.63,6.32-3.54C392.05,247.65,394.27,247.6,396.78,247.6ZM119.6,222.94h7.22c3.85,0,6-1.37,7.21-5.59,21.25-71.18,92.5-111.06,158.42-99.61,63.94,11.09,113.8,66.92,116.45,131.77.31,7.8-.3,8.66-7.7,10.52l14.7,19.27,14.41-19.6c-7.08-1.29-8.51-2.57-8.75-7.46-1.87-37.59-14.94-70.79-40.65-98.26-35.53-38-79.63-55.92-131.51-49.13-52.85,6.92-91.81,35.52-117,82.57A135.77,135.77,0,0,0,119.6,222.94Z"/><path d="M268.63,157c8.77-.3,17.56-.41,25.81,3.2,15.47,6.76,24.75,18.42,27.61,35.18A7.9,7.9,0,0,0,325,200c31.18,21.86,46.67,51.84,45.39,89.81-1.68,49.46-41,90.79-90.31,95.94C224.33,391.6,175.13,354.3,167.74,299c-5.52-41.24,10-74.3,44-98.48a7.52,7.52,0,0,0,3.5-5.66c2.79-20.6,20.92-37,41.76-37.84C260.88,156.83,264.76,157,268.63,157Zm0,217.46a89.84,89.84,0,0,0,89.74-89.6c0-49.7-40.55-89.87-90.76-89.84-48.69,0-88.88,40.93-89,90.52C178.61,334.3,219.22,374.43,268.67,374.43ZM228.27,191a101.8,101.8,0,0,1,40.3-8.44c13.66,0,26.8,2.84,40.24,8.32-5-11.73-12.77-19.52-24.47-21a130.83,130.83,0,0,0-31.64,0C241,171.35,233.25,179.08,228.27,191Z"/><path d="M106.74,281.18l14.71-19.62L136,281c-7.32,1.76-8.08,2.76-7.82,10,2.43,69.38,56.38,127.3,125.3,134.54,65.82,6.9,128.53-34.36,148.86-98.16,1.2-3.74,2.85-5.35,6.61-5.17,2.48.12,5,0,8.38,0-2.69,7.65-4.74,15.23-7.93,22.3-24.59,54.38-66.52,86.5-125.78,93.23-47.81,5.43-89-11.27-123.07-44.93-25.19-24.91-39.46-55.49-44-90.59-.51-4-.74-8-.91-12C115.3,283.46,114.06,282,106.74,281.18Z"/><path d="M119.6,222.94a135.77,135.77,0,0,1,12.82-35.52c25.17-47,64.13-75.65,117-82.57,51.88-6.79,96,11.14,131.51,49.13,25.71,27.47,38.78,60.67,40.65,98.26.24,4.89,1.67,6.17,8.75,7.46L415.9,279.3,401.2,260c7.4-1.86,8-2.72,7.7-10.52-2.65-64.85-52.51-120.68-116.45-131.77C226.53,106.29,155.28,146.17,134,217.35c-1.26,4.22-3.36,5.6-7.21,5.59Z"/><path d="M228.27,191c5-11.88,12.76-19.61,24.43-21.07a130.83,130.83,0,0,1,31.64,0c11.7,1.44,19.45,9.23,24.47,21-13.44-5.48-26.58-8.34-40.24-8.32A101.8,101.8,0,0,0,228.27,191Z"/><path d="M268.83,362.43c-42.88,0-78.25-35.2-78.28-77.88,0-42.85,35-78.15,77.56-78.06a78.13,78.13,0,0,1,78.4,78.4C346.4,327.45,311.36,362.44,268.83,362.43ZM274.54,350c38.15-3.34,59.69-37.05,59.25-60.83-9-.86-11.45-2.12-11.15-6.19.54-7.21,6.43-5.81,11-6.16-1.7-27.43-27.82-60.13-68.63-58.22-31.85,1.49-64.8,32.94-61.36,58.1,8.51.77,11.1,2.11,10.77,6.18-.6,7.49-6.78,5.71-11.4,6.18,1.31,32.23,29.08,59.15,59.35,60.78.05-1.1.12-2.2.14-3.31s0-2.25,0-3.37c.22-3.78,2.71-6.28,6.12-6.2,3.25.08,5.64,2.51,5.82,6.11C274.63,345.26,274.54,347.49,274.54,350Z"/><path d="M274.55,276.9c6,0,11.35,0,16.72,0,4.47,0,7.15,2.23,7.25,5.83s-2.7,6.13-7.32,6.15q-10.67.06-21.35,0c-5.14,0-7.28-2.16-7.29-7.31q0-25.66,0-51.33c0-4.67,2.37-7.42,6.13-7.32s5.84,2.77,5.85,7.23q0,21.18,0,42.34Z"/></svg>