<?xml version="1.0" encoding="utf-8"?>
<!-- Generator: Adobe Illustrator 22.0.1, SVG Export Plug-In . SVG Version: 6.00 Build 0)  -->
<svg version="1.1" id="Layer_1" xmlns="http://www.w3.org/2000/svg" xmlns:xlink="http://www.w3.org/1999/xlink" x="0px" y="0px"
	 viewBox="0 0 522 542.7" style="enable-background:new 0 0 522 542.7;" xml:space="preserve">
<style type="text/css">
	.st0{fill:none;stroke:#000000;stroke-width:7.1964;stroke-miterlimit:10;}
	.st1{fill:none;stroke:#000000;stroke-width:5.8382;stroke-miterlimit:10;}
</style>
<g>
	<g id="phIbY7_1_">
		<g>
			<path class="st0" d="M106.5,387.8c21.9,0,43.4,0,64.9,0c33,0,65.9,0.4,98.9-0.2c9.7-0.2,15.4,1.9,16.2,12.2c0.2,2,1.1,4,1.9,6.9
				c-67.3,0-134.1,0-201.7,0c0-90.3,0-180.6,0-271.2c15.3,0,30.2,0,46.2,0c0,7.4-0.1,14.6,0,21.7c0.2,16.4,10.1,27.1,24.8,27
				c14.2-0.2,24-10.9,24.3-26.7c0.1-7.1,0-14.2,0-21.8c41,0,81.1,0,122.6,0c0,7,0,14.1,0,21.1c0.1,16.6,9.6,27.4,24.3,27.4
				c14.8,0,24.3-10.5,24.5-27.2c0.1-6.8,0-13.7,0-21.2c15.6,0,30.4,0,46.1,0c0,44.9,0,89.9,0,135.3c-6.1-0.5-12-1-18.8-1.5
				c0-17.6,0-35.2,0-53.3c-91.8,0-182.7,0-274.2,0C106.5,273.4,106.5,330.1,106.5,387.8z"/>
			<path class="st0" d="M381.5,450.3c-44.6-0.2-80.6-36.4-80.3-80.8c0.3-44.8,36.1-80.2,80.9-80.1c44.6,0.1,80.6,36.3,80.4,80.7
				C462.2,414.7,426.1,450.5,381.5,450.3z"/>
			<path class="st0" d="M314.2,135c0-7.5-0.2-15,0-22.5c0.3-9.6,6.3-15.8,14.8-15.9c8.5-0.1,14.7,6.1,14.9,15.7
				c0.3,15.6,0.3,31.2,0,46.8c-0.2,9.1-6.3,15.2-14.3,15.5c-8.4,0.3-14.9-6-15.4-15.3C313.9,151.2,314.2,143.1,314.2,135z"/>
			<path class="st0" d="M172,136c0,7.8,0.2,15.6,0,23.4c-0.3,9.1-6.1,15.1-14.3,15.2c-8.2,0.2-14.7-5.8-14.9-14.7
				c-0.3-16.2-0.3-32.4,0-48.5c0.2-9.2,6.3-14.8,14.8-14.7c8.4,0.1,14.1,5.8,14.4,15C172.2,119.8,172,127.9,172,136z"/>
			<path class="st0" d="M194.4,237.7c12,0,23.3,0,35.1,0c0,11.9,0,23.4,0,35.3c-11.8,0-23.1,0-35.1,0
				C194.4,261.6,194.4,250.1,194.4,237.7z"/>
			<path class="st0" d="M229.6,296.7c0,11.9,0,23.1,0,35.1c-11.9,0-23.3,0-35.3,0c0-11.7,0-23.1,0-35.1
				C206.1,296.7,217.3,296.7,229.6,296.7z"/>
			<path class="st0" d="M167.2,273.1c-11.8,0-23,0-35,0c0-11.6,0-23,0-35.1c11.5,0,23,0,35,0C167.2,249.7,167.2,261.2,167.2,273.1z"
				/>
			<path class="st0" d="M291.9,273.1c-11.8,0-23,0-35,0c0-11.5,0-23,0-35.1c11.5,0,23,0,35,0C291.9,249.7,291.9,261.1,291.9,273.1z"
				/>
			<path class="st0" d="M319.6,237.7c11.8,0,23,0,34.9,0c0,11.8,0,23.3,0,35.3c-11.6,0-22.9,0-34.9,0
				C319.6,261.6,319.6,250.2,319.6,237.7z"/>
			<path class="st0" d="M132,331.9c0-11.7,0-23,0-34.9c11.7,0,23.1,0,35.1,0c0,11.5,0,22.9,0,34.9
				C155.6,331.9,144.4,331.9,132,331.9z"/>
			<path class="st0" d="M256.7,332.5c0-12.6,0-23.8,0-35.6c11.9,0,23.3,0,35.6,0c0,9.2,0.4,18.1-0.1,26.9c-0.3,5.4-2.9,9.3-9.7,8.8
				C274.2,332,265.9,332.5,256.7,332.5z"/>
		</g>
	</g>
	<path d="M391.4,360.1c0-12.3-0.1-23.3,0-34.4c0.1-6.3-2.4-10.7-9-11.1c-7.2-0.4-10.2,4.3-10.3,10.8c-0.2,14.1-0.1,28.1-0.1,42.2
		c0,8,4,12.1,12.2,12c13.2-0.1,26.3-0.1,39.5,0c7.2,0.1,13-1.8,12.8-10.1c-0.2-7.7-5.8-9.5-12.5-9.4
		C413.5,360.2,403.1,360.1,391.4,360.1z"/>
</g>
</svg>
