<?xml version="1.0" encoding="utf-8"?>
<!-- Generator: Adobe Illustrator 23.0.1, SVG Export Plug-In . SVG Version: 6.00 Build 0)  -->
<svg version="1.1" id="Capa_1" xmlns="http://www.w3.org/2000/svg" xmlns:xlink="http://www.w3.org/1999/xlink" x="0px" y="0px"
	 width="24px" height="24px" viewBox="0 0 24 24" enable-background="new 0 0 24 24" xml:space="preserve">
<path d="M11.995,0.5C18.433,0.516,23.497,5.726,23.5,11.997c0.003,6.257-5.041,11.499-11.494,11.503
	C5.557,23.504,0.493,18.267,0.5,11.988C0.508,5.723,5.565,0.521,11.995,0.5z M12.626,9.067c-0.043,0.083-0.029,0.164-0.029,0.243
	c-0.001,1.624-0.001,3.248-0.001,4.872c0,0.047-0.004,0.094,0.002,0.14c0.005,0.037,0.02,0.073,0.034,0.118
	c0.093,0.003,0.179,0.008,0.264,0.008c1.391,0,2.782,0,4.173,0c0.053,0,0.107,0.003,0.16-0.002c0.045-0.004,0.088-0.016,0.14-0.026
	c0.162-0.605,0.249-1.217,0.3-1.832c0.082-1.013,0.032-2.021-0.153-3.021c-0.031-0.168-0.044-0.342-0.128-0.506
	c-0.053-0.005-0.105-0.013-0.158-0.015C16.173,9.021,12.839,9.035,12.626,9.067z M11.362,14.439c0.058-0.098,0.04-0.18,0.04-0.259
	c0.001-1.338,0.001-2.675,0.001-4.013c0-0.299,0.001-0.599-0.001-0.898c0-0.065,0.015-0.134-0.031-0.196
	c-0.064-0.04-0.139-0.026-0.211-0.026C9.763,9.046,8.366,9.046,6.968,9.046c-0.04,0-0.08,0-0.12,0.003
	c-0.084,0.006-0.106,0.024-0.127,0.1C6.71,9.194,6.7,9.24,6.691,9.285c-0.15,0.705-0.225,1.418-0.246,2.137
	c-0.014,0.473,0.019,0.944,0.064,1.414c0.044,0.464,0.122,0.922,0.219,1.378c0.049,0.233,0.052,0.233,0.285,0.233
	c1.384,0,2.768,0,4.153,0C11.23,14.448,11.296,14.442,11.362,14.439z M2.14,9.07c-0.282,0.837-0.494,2.073-0.416,3.613
	c0.028,0.559,0.185,1.528,0.3,1.754c0.071,0.003,0.149,0.01,0.228,0.01c0.678,0.001,1.357,0.001,2.035,0.001
	c0.339,0,0.678,0.001,1.018-0.001c0.071,0,0.147,0.016,0.22-0.037c0-0.021,0.004-0.047-0.001-0.072
	C5.484,14.11,5.438,13.882,5.4,13.653c-0.075-0.453-0.124-0.909-0.139-1.368c-0.012-0.359-0.012-0.718-0.004-1.077
	c0.007-0.292,0.024-0.585,0.054-0.876c0.041-0.39,0.095-0.778,0.177-1.162c0.006-0.03-0.002-0.063-0.004-0.103
	c-0.052-0.007-0.097-0.018-0.142-0.02C4.624,9.021,2.329,9.037,2.14,9.07z M18.659,9.071c0.024,0.266,0.091,0.51,0.12,0.76
	c0.03,0.257,0.062,0.515,0.083,0.773c0.021,0.252,0.034,0.504,0.04,0.757c0.006,0.259,0.005,0.519-0.004,0.778
	c-0.008,0.252-0.024,0.505-0.049,0.756c-0.026,0.258-0.063,0.514-0.102,0.771c-0.038,0.248-0.083,0.495-0.125,0.741
	c0.084,0.055,0.166,0.041,0.244,0.041c0.965,0.001,1.929,0.001,2.894,0c0.053,0,0.106-0.002,0.16-0.005
	c0.053-0.002,0.086-0.032,0.102-0.08c0.008-0.025,0.012-0.052,0.019-0.077c0.12-0.506,0.198-1.019,0.228-1.537
	c0.041-0.711,0.034-1.422-0.066-2.13c-0.066-0.468-0.156-0.93-0.283-1.385c-0.016-0.056-0.038-0.111-0.058-0.166
	c-0.035-0.007-0.06-0.017-0.086-0.017c-1.005-0.001-2.009-0.001-3.014,0C18.737,9.05,18.712,9.06,18.659,9.071z M5.854,15.653
	c-0.076,0-0.142,0-0.209,0c-0.253,0-0.506,0-0.759,0c-0.772,0-1.544,0-2.315,0.001c-0.057,0-0.118-0.018-0.169,0.023
	c-0.014,0.083,0.032,0.145,0.059,0.211c1.028,2.545,3.105,4.619,5.664,5.658c0.525,0.213,1.064,0.378,1.616,0.504
	c0.059,0.013,0.12,0.037,0.191,0.022c-0.3-0.322-0.598-0.626-0.877-0.946c-0.28-0.32-0.552-0.649-0.809-0.988
	c-0.253-0.333-0.494-0.677-0.72-1.03c-0.23-0.358-0.448-0.724-0.648-1.099c-0.2-0.375-0.382-0.76-0.551-1.15
	C6.158,16.471,6.016,16.07,5.854,15.653z M18.285,15.672c-0.02,0.049-0.045,0.102-0.064,0.158c-0.512,1.527-1.275,2.922-2.236,4.211
	c-0.478,0.641-1,1.244-1.562,1.814c-0.045,0.046-0.087,0.095-0.135,0.148c0.066,0.036,0.116,0.017,0.165,0.003
	c0.243-0.068,0.489-0.129,0.728-0.208c2.287-0.756,4.09-2.15,5.429-4.147c0.386-0.576,0.703-1.191,0.958-1.836
	c0.019-0.047,0.053-0.094,0.018-0.147C21.374,15.645,18.457,15.649,18.285,15.672z M12.634,15.667
	c-0.056,0.081-0.036,0.163-0.036,0.241c-0.001,1.916-0.001,3.833-0.001,5.749c0,0.04-0.001,0.08,0.001,0.12
	c0.001,0.031-0.007,0.068,0.045,0.086c0.046-0.038,0.099-0.078,0.148-0.122c1.33-1.18,2.447-2.534,3.315-4.089
	c0.321-0.576,0.6-1.172,0.829-1.79c0.023-0.061,0.059-0.119,0.043-0.188c-0.19-0.031-2.959-0.043-4.213-0.019
	C12.719,15.655,12.674,15.663,12.634,15.667z M12.597,2.059c0,0.089,0,0.155,0,0.221c0,1.763,0,3.526,0,5.29
	c0,0.053-0.002,0.107,0.002,0.16c0.003,0.031,0.017,0.062,0.026,0.089c0.182,0.029,3.572,0.043,4.297,0.019
	c0.031-0.001,0.063-0.009,0.094-0.014c-0.07-0.542-0.984-2.216-1.748-3.209C14.556,3.69,13.056,2.247,12.597,2.059z M11.376,21.723
	c0.046-0.066,0.026-0.142,0.026-0.211c0.001-1.87,0.001-3.739,0.001-5.609c0-0.047,0.003-0.093-0.002-0.14
	c-0.003-0.032-0.017-0.062-0.025-0.09c-0.085-0.033-0.165-0.02-0.244-0.02c-1.238-0.001-2.475-0.001-3.713-0.001
	c-0.053,0-0.107-0.002-0.16,0.002c-0.03,0.002-0.06,0.013-0.089,0.02c0.144,0.673,1.032,2.358,1.808,3.438
	C9.636,20.03,10.971,21.484,11.376,21.723z M11.364,7.83c0.015-0.028,0.032-0.045,0.032-0.063c0.003-1.836,0.005-3.672,0.006-5.508
	c0-0.024-0.009-0.049-0.013-0.072c-0.08-0.011-0.116,0.046-0.161,0.081C9.9,3.311,8.794,4.548,7.949,6.013
	c-0.3,0.519-0.558,1.058-0.769,1.62C7.158,7.692,7.115,7.75,7.139,7.819c0.146,0.023,2.278,0.032,4.052,0.019
	C11.251,7.838,11.309,7.833,11.364,7.83z M9.65,2.023C9.627,1.963,9.58,1.99,9.552,1.998C9.264,2.079,8.973,2.152,8.69,2.25
	C6.482,3.01,4.734,4.373,3.423,6.301C3.127,6.737,2.874,7.197,2.653,7.675c-0.021,0.044-0.065,0.09-0.026,0.147
	c0.175,0.024,3.027,0.023,3.211-0.005C6.076,7.087,6.38,6.373,6.752,5.689c0.376-0.691,0.811-1.344,1.301-1.96
	C8.539,3.118,9.072,2.552,9.65,2.023z M21.388,7.817c-0.142-0.533-0.967-1.836-1.666-2.625c-1.054-1.19-2.312-2.097-3.78-2.707
	c-0.607-0.252-1.228-0.444-1.401-0.432c0.129,0.125,0.254,0.243,0.377,0.364c1.514,1.497,2.663,3.227,3.347,5.253
	c0.019,0.055,0.046,0.108,0.066,0.154C18.589,7.849,21.229,7.843,21.388,7.817z"/>
</svg>
