<?xml version="1.0" encoding="utf-8"?>
<!-- Generator: Adobe Illustrator 23.0.1, SVG Export Plug-In . SVG Version: 6.00 Build 0)  -->
<svg version="1.1" id="Capa_1" xmlns="http://www.w3.org/2000/svg" xmlns:xlink="http://www.w3.org/1999/xlink" x="0px" y="0px"
	 width="24px" height="24px" viewBox="0 0 24 24" enable-background="new 0 0 24 24" xml:space="preserve">
<path d="M4.466,0.5c3.912,0,7.823,0,11.735,0c0.024,0.034,0.046,0.071,0.074,0.101c0.291,0.322,0.583,0.642,0.875,0.964
	c1.42,1.562,2.841,3.123,4.261,4.685c0,5.116,0,10.233,0,15.349c-0.008,0.03-0.018,0.06-0.022,0.09
	c-0.11,0.841-0.731,1.552-1.56,1.739c-0.282,0.063-0.581,0.069-0.872,0.069c-4.732,0.004-9.464,0.004-14.196-0.002
	c-0.246,0-0.502-0.035-0.737-0.109c-0.87-0.273-1.434-1.077-1.434-2.014c-0.001-6.249,0-12.498,0-18.748
	c0-0.023-0.001-0.047,0.001-0.07c0.05-0.891,0.475-1.529,1.293-1.89C4.066,0.584,4.271,0.554,4.466,0.5z M14.09,1.548
	c-0.056,0-0.098,0-0.14,0c-3.062,0-6.125,0-9.187,0.001c-0.097,0-0.197,0.002-0.292,0.022C3.957,1.679,3.639,2.094,3.639,2.653
	c0,6.23,0,12.461,0,18.691c0,0.086,0.001,0.173,0.017,0.257c0.103,0.525,0.52,0.851,1.091,0.851c4.834,0.001,9.668,0,14.502-0.001
	c0.093,0,0.188-0.005,0.28-0.022c0.423-0.079,0.835-0.475,0.834-1.096c-0.007-4.459-0.004-8.917-0.004-13.376
	c0-0.042,0-0.084,0-0.138c-0.059,0-0.104,0-0.15,0c-1.662,0-3.324,0.001-4.987-0.001c-0.112,0-0.228-0.008-0.337-0.034
	C14.4,7.665,14.09,7.253,14.09,6.73c-0.001-1.678,0-3.356,0-5.034C14.09,1.651,14.09,1.605,14.09,1.548z M20.349,6.766
	c-0.023-0.03-0.033-0.046-0.045-0.059c-1.529-1.7-3.059-3.399-4.589-5.098c-0.022-0.025-0.054-0.057-0.082-0.058
	c-0.162-0.006-0.325-0.003-0.487-0.003c0,1.75,0,3.483,0,5.219C16.879,6.766,18.603,6.766,20.349,6.766z"/>
</svg>
