<svg id="61d86a7c-2854-4c8e-9e6e-799dbcd13790" data-name="Layer 1" xmlns="http://www.w3.org/2000/svg" viewBox="0 0 521.86 542.55"><title>rap_cookies_policy_</title><path d="M397.72,232.84c7.09,10.52,14.83,17.33,23.27,19.61s18.05.2,29.51-6.82A9.77,9.77,0,0,1,464,248.85a9.94,9.94,0,0,1,1.45,5q.66,7.11.82,14.45c.1,4.95.07,9.87-.17,14.75h0a9,9,0,0,1-.1,1.29A207,207,0,0,1,249.5,479.77v0h0a7.75,7.75,0,0,1-1.29-.1A207,207,0,0,1,52.77,263.23h0a7.74,7.74,0,0,1,.11-1.29c3-56.78,29.54-107.21,69.43-142.76A210.67,210.67,0,0,1,272.5,65.59h0a9.79,9.79,0,0,1,9.8,9.8,9.36,9.36,0,0,1-.78,3.8c-4,12.92-4.24,24.9-.92,34.39A30,30,0,0,0,299,132.31a9.72,9.72,0,0,1,5.9,12h0c-6.21,20-6.34,37.58-1.77,51.76A52,52,0,0,0,338,230.64c13.7,4.27,30.32,4,48.54-1.87a9.82,9.82,0,0,1,11.22,4.07ZM253.6,261.6a17,17,0,1,1-17,17,17,17,0,0,1,17-17Zm-73.67,70a20.72,20.72,0,1,1-20.72,20.72,20.73,20.73,0,0,1,20.72-20.72ZM224.57,173a16.25,16.25,0,1,1-16.25,16.25A16.23,16.23,0,0,1,224.57,173Zm232.61,2.21A12.14,12.14,0,1,1,445,187.39a12.12,12.12,0,0,1,12.14-12.14Zm-87.1-32.19a18.28,18.28,0,1,1-18.28,18.28,18.26,18.26,0,0,1,18.28-18.28Zm14.14-75.71A19.61,19.61,0,1,1,364.62,87a19.62,19.62,0,0,1,19.6-19.61ZM312.79,338.84a27.24,27.24,0,1,1-27.24,27.23,27.23,27.23,0,0,1,27.24-27.23ZM160.77,224a29.48,29.48,0,1,1-29.48,29.48A29.47,29.47,0,0,1,160.77,224ZM415.9,271.37c-11.5-3.08-21.54-10.65-30.35-22-19.61,5.16-37.86,4.79-53.46-.07a72,72,0,0,1-29.54-17.56,73.19,73.19,0,0,1-18.05-29.68c-5.12-15.81-5.73-34.6-.61-55.36A48.74,48.74,0,0,1,262.12,120c-3.6-10.34-4.34-22.35-2.07-35.1A191.61,191.61,0,0,0,135.33,133.8c-36.19,32.26-60.2,77.91-63,129.26v.17h0l0,.44h0a187.26,187.26,0,0,0,177,196.49h.17l.44,0h0a187.26,187.26,0,0,0,196.49-177V283h0l0-.45h0c.24-4.54.31-8.95.21-13.26-10.92,4.11-21.17,4.68-30.77,2.07Zm30.6,11.19ZM250,460.23Z"/></svg>