<svg id="148bf6c2-ec6a-4816-b8a1-d85533afa82c" data-name="Layer 1" xmlns="http://www.w3.org/2000/svg" viewBox="0 0 521.86 542.55"><title>rap_help_</title><path d="M466.12,236.43C454.67,175.1,422,128.23,369,95.71,341.6,79,311.63,69.79,279.6,67.53a24,24,0,0,1-3.09-.66h-24c-7.76,1-15.57,1.82-23.28,3.18-46.49,8.23-85.56,30.08-117.1,65.08C82.42,168.09,65.59,207,60.69,251q-.48,4.32-1,8.64v24c1,7.75,1.76,15.57,3.19,23.24C74.37,368.27,107,415.23,160.15,447.65c34.57,21.09,72.56,30.51,113,28.55,57.93-2.82,106.47-26.15,145-69.47,29.06-32.62,45.34-71.07,50.18-114.42q.48-4.32,1-8.64v-24C468.27,251.92,467.56,244.11,466.12,236.43Zm-201.76,223c-103.54-.27-187.9-84.77-187.62-187.92C77,168,161.51,83.62,264.66,83.89c103.54.28,187.9,84.78,187.63,187.93C452,375.36,367.52,459.72,264.36,459.44Z"/><path d="M245.62,137.36c-31,7.63-51.68,26.92-62.26,57-3.86,11-4.52,22.43-4.18,33.93.16,5.41,3,8.9,7.75,9,11.86.26,23.73.24,35.59,0,4.46-.08,7.26-3.22,7.65-7.72.22-2.52.15-5.06.15-7.6,0-22.86,18.76-37.54,38.34-35.24,13.72,1.62,26.3,12.71,29.27,26.82,2.91,13.84-3.92,29.07-15.81,36.09-6.57,3.88-13.73,4.74-21.06,5.3-15.39,1.18-29.17,14.53-30.14,29.79-.52,8.22-.09,16.5-.09,24.76h-.51c0,6.53,0,13.06,0,19.6.06,7.61,3.14,10.76,10.61,10.8q15,.08,30,0c7.63,0,10.53-3,10.57-10.73,0-7.06.16-14.14-.06-21.2-.09-2.93.86-4.1,3.73-4.84,43.6-11.29,70-51.42,63.45-96.12C341.54,158.93,292.71,125.77,245.62,137.36Z"/><path d="M255.8,357.12a25.67,25.67,0,0,0-25.41,25.46c0,14,11.9,25.81,25.77,25.61a25.54,25.54,0,0,0-.36-51.07Z"/></svg>