<?xml version="1.0" encoding="utf-8"?>
<!-- Generator: Adobe Illustrator 22.0.1, SVG Export Plug-In . SVG Version: 6.00 Build 0)  -->
<svg version="1.1" id="Layer_1" xmlns="http://www.w3.org/2000/svg" xmlns:xlink="http://www.w3.org/1999/xlink" x="0px" y="0px"
	 viewBox="0 0 522 542.7" style="enable-background:new 0 0 522 542.7;" xml:space="preserve">
<style type="text/css">
	.st0{fill:none;stroke:#000000;stroke-width:7.1964;stroke-miterlimit:10;}
	.st1{fill:none;stroke:#000000;stroke-width:5.8382;stroke-miterlimit:10;}
</style>
<g>
	<g>
		<path class="st0" d="M320.9,448.8H220.4c-5.3,0-9.6,4.3-9.6,9.6v8.7h119.7v-8.7C330.5,453.1,326.2,448.8,320.9,448.8z"/>
		<rect x="220.4" y="403.6" class="st0" width="100.6" height="39.8"/>
		<path class="st0" d="M320.9,378.9H220.4c-5.3,0-9.6,4.3-9.6,9.6c0,5.3,4.3,9.6,9.6,9.6h100.6c5.3,0,9.6-4.3,9.6-9.6
			C330.5,383.2,326.2,378.9,320.9,378.9z"/>
		<path class="st0" d="M374.6,160.8h-26.1c0.1-3.8,0.2-7.6,0.2-11.4h-156c0,3.8,0.1,7.6,0.2,11.4h-26.1v4.8
			c0,58.1,23.9,103.6,54.4,103.8c5.2,8.6,11.1,15.7,17.3,21.3l0.1,2.7c0.3,7.3,5.5,13.5,12.6,15.1h0.6v31.6l-0.6,0.1
			c-7.1,1.6-12.2,7.8-12.6,15.1l-0.1,1.7c-5.7,3.3-9.6,9.4-9.6,16.5h83.6c0-7.1-3.9-13.2-9.6-16.5l-0.1-1.7
			c-0.3-7.3-5.5-13.5-12.6-15.1h-0.6v-31.6h0.3l0.3-0.1c7.1-1.6,12.2-7.8,12.6-15.1l0.1-2.7c6.2-5.6,12.1-12.8,17.3-21.3
			c30.5-0.1,54.4-45.7,54.4-103.8V160.8z M176.4,170.4h17c2.3,34.3,10.3,65.1,22,88.5C194.4,252.8,177.5,215.2,176.4,170.4z
			 M296.7,352.6h-52.1c1.1-3.4,3.9-6.1,7.5-7h37.2C292.8,346.5,295.6,349.2,296.7,352.6z M289.2,303.1h-37.2c-3.6-0.9-6.3-3.6-7.5-7
			h52.1C295.6,299.5,292.8,302.2,289.2,303.1z M326,258.9c11.7-23.4,19.6-54.2,22-88.5h17C363.8,215.2,346.9,252.8,326,258.9z"/>
	</g>
	<g>
		<polygon points="270.7,75.6 280.3,95.1 301.9,98.3 286.3,113.5 289.9,135 270.7,124.8 251.4,135 255,113.5 239.4,98.3 261,95.1 		
			"/>
		<g>
			<polygon points="201.8,87.3 209.6,103 226.9,105.5 214.3,117.7 217.3,135 201.8,126.8 186.3,135 189.3,117.7 176.8,105.5 
				194.1,103 			"/>
			<polygon points="339.5,87.3 347.2,103 364.5,105.5 352,117.7 355,135 339.5,126.8 324,135 327,117.7 314.4,105.5 331.8,103 			
				"/>
		</g>
	</g>
</g>
</svg>
