<svg id="69200253-ad3d-490f-9c31-7a5b6d18ac4b" data-name="Layer 1" xmlns="http://www.w3.org/2000/svg" viewBox="0 0 521.86 542.55"><title>rap_schedule_change_</title><path d="M297.52,234.14c37.17-3.21,68.61,8.19,93.44,35.77,19.53,21.69,28.33,47.64,27.16,76.77-2.3,57.71-50.93,103.51-109.44,102.66-31.74-.47-58.54-12.91-79.51-36.82S200.06,360.67,203,328.81c-2.47.2-4.77.43-7.08.57A108,108,0,0,1,84.93,247.62C71.12,192.13,103.3,135,157.69,118.69a9.48,9.48,0,0,1,7,.65c4.2,2.72,2.55,8.26-2.51,10.44-7.77,3.34-15.9,6.2-23,10.62a95.81,95.81,0,0,0,35.26,175.79c54.73,9.24,105.89-30,111.28-85.38,5.41-55.64-37.67-104.15-93.5-105.23-3-.06-5.76-.42-7.26-3.5-2-4.21.94-8.52,6.07-8.52a104.21,104.21,0,0,1,40.17,7.88c42.65,17.58,68.94,58.72,67,104.79C298,228.81,297.73,231.38,297.52,234.14Zm-74.37,90.24a18.25,18.25,0,0,1-3.33.84c-3.76.37-5,2.52-4.92,6,.08,7-.66,14,0,20.93,5.63,55.93,59,95.2,114,83.39,38-8.15,63.48-31.32,73.71-68.78,10.26-37.61,0-70.63-28.8-96.92-21.27-19.4-47-26.66-75.59-23.45-1.2.14-2.93.79-3.34,1.7-1,2.19-1.4,4.67-2.12,7.31,5.23-.52,10-1.26,14.84-1.46,39.11-1.59,75.81,24.89,86.44,62.79,2.2,7.85,2.8,16.19,3.68,24.35a5.76,5.76,0,0,1-5.91,6.37c-3.27,0-5.65-2.35-5.94-6-.2-2.49-.3-5-.54-7.48-4.41-46.48-50.23-77.9-95.15-65.34A7.83,7.83,0,0,0,285,272.9c-10.23,18.84-24.9,33.26-43.6,43.71a8.54,8.54,0,0,0-3.72,4.58A67,67,0,0,0,235.43,352c5.5,31.9,23.5,53.7,54.78,62.33,31.09,8.57,57.65-.68,78.74-25.11a69.46,69.46,0,0,0,12.81-23.13c.88-2.56,2.59-4.7,5.39-4.35,2,.24,4.73,1.4,5.41,2.93.88,1.95.63,4.9-.15,7.05a87.52,87.52,0,0,1-98.51,56c-37.88-7.06-67.62-39.4-70.65-77.33C222.57,341.81,223.15,333.21,223.15,324.38Z"/><path d="M190,309.19c-47.94-.08-87.39-39.57-87.36-87.47a87.93,87.93,0,0,1,88.13-87.84c48,.17,87.2,39.64,87.16,87.66A87.87,87.87,0,0,1,190,309.19Zm.72-163.3c-40.9-.58-75.46,33.25-76.06,74.45-.61,41.63,33,76.27,74.45,76.81,41.7.55,76.17-32.87,76.78-74.44A75.78,75.78,0,0,0,190.68,145.89Z"/><path d="M386.55,192.91a45.56,45.56,0,0,1,3.88-4.63c2.71-2.51,6-2.44,8.4-.09a5.82,5.82,0,0,1,0,8.42c-5,5.23-10.12,10.37-15.36,15.36-2.74,2.6-5.88,2.41-8.67-.31q-8.05-7.83-15.9-15.89c-2.76-2.84-2.76-6.19-.29-8.67s5.93-2.32,8.7.26c1.79,1.67,3.41,3.53,5.78,6a50.48,50.48,0,0,0-3.21-21.06,56.48,56.48,0,0,0-50.82-37c-2.09-.1-4.77-.66-6-2.05s-1.58-4.16-1.16-6.07c.63-2.87,3.28-3.89,6.15-3.83,11.3.26,22.07,2.77,31.86,8.45,22.23,12.89,34.1,32.24,35.35,58,0,.75.1,1.49.17,2.23C385.44,192.14,385.61,192.2,386.55,192.91Z"/><path d="M106.57,362.93a35.93,35.93,0,0,1-3.74,4.62,5.94,5.94,0,1,1-8.34-8.45q7.4-7.71,15.11-15.1c2.73-2.61,6-2.55,8.72.11q8.22,7.93,16.16,16.17a5.85,5.85,0,0,1,.15,8.42c-2.42,2.48-5.88,2.54-8.66-.18a61,61,0,0,1-4.72-5.74l-1.66.91c.62,4.57.87,9.24,1.92,13.71a56,56,0,0,0,52.67,42.92c.63,0,1.26,0,1.88.06,3.58.4,5.95,2.85,5.91,6.08,0,3.41-2.59,5.88-6.42,5.85a66,66,0,0,1-46.14-18.48c-13.56-12.74-20.51-28.63-21.5-47.17,0-1-.11-2-.17-2.94Z"/><path d="M294.23,340.51a14.72,14.72,0,0,1,7.4-12.44c2.19-1.29,2.7-2.75,2.67-5.07-.12-9-.07-18,0-27,0-4.55,2.12-7.1,5.82-7.19s6.14,2.54,6.16,7.22c0,9.23-.07,18.47.1,27.7a5.35,5.35,0,0,0,2,3.73c6.41,4.34,9,10.49,7.58,18.12a5.46,5.46,0,0,0,1.11,4.09c3.81,4.12,7.89,8,11.85,12,3.53,3.55,4,7.1,1.41,9.79s-6.29,2.31-9.79-1.17c-4-3.95-8-7.89-11.88-11.94a4.15,4.15,0,0,0-4.54-1.26C303.38,359.45,293.94,351.77,294.23,340.51Zm20.65,1.67c0-.59,0-1.18-.07-1.77-1.58-1-3.1-2.53-4.77-2.73-2.44-.3-3.87,1.56-3.76,4.05s1.74,4.18,4.12,3.66C312.05,345,313.4,343.3,314.88,342.18Z"/><path d="M196.25,189.85c0,4.75-.13,9.5.09,14.23a5,5,0,0,0,2,3.41c6.49,4.38,9.3,10.52,7.48,18-.51,2.11.11,3.19,1.43,4.48q6.15,6,12.18,12.18c3.09,3.14,3.42,6.68,1,9.25s-6.25,2.38-9.52-.84c-4.09-4-8.17-8.07-12.16-12.2a4.11,4.11,0,0,0-4.52-1.31,16,16,0,0,1-18.77-9.3c-3.13-7.44-.36-15.52,6.69-20.25a5.35,5.35,0,0,0,2.08-3.71c.17-9.48.1-19,.09-28.46,0-3.08,1.25-5.4,4.28-6.27,2.78-.8,5.32,0,6.75,2.6a9.93,9.93,0,0,1,.93,4.3C196.32,180.61,196.25,185.23,196.25,189.85Zm-1.42,32.68,0-1.78c-1.51-1.07-2.91-2.76-4.56-3.07-2.4-.46-4,1.25-4,3.77s1.42,4.3,3.85,3.94C191.8,225.14,193.27,223.53,194.83,222.53Z"/><path d="M314.88,342.18c-1.48,1.12-2.83,2.84-4.48,3.21-2.38.52-4-1.15-4.12-3.66s1.32-4.35,3.76-4.05c1.67.2,3.19,1.77,4.77,2.73C314.84,341,314.86,341.59,314.88,342.18Z"/><path d="M194.83,222.53c-1.56,1-3,2.61-4.7,2.86-2.43.36-3.91-1.43-3.85-3.94s1.63-4.23,4-3.77c1.65.31,3.05,2,4.56,3.07Z"/></svg>