<svg id="929acbf0-2329-4604-ac7e-cb3d567e7add" data-name="Layer 1" xmlns="http://www.w3.org/2000/svg" viewBox="0 0 521.86 542.55"><title>rap_logout_</title><path d="M318.47,463.27c-4.66-1.64-9.6-2.75-13.92-5-16-8.46-24.79-22-24.95-40.13-.33-38-.12-76-.1-114,0-25.52,18-45.3,43.54-46.7a349.34,349.34,0,0,1,41.18.5c11.28.73,20.62,6.45,28.06,14.94a12.81,12.81,0,0,1-.91,17.91,12.56,12.56,0,0,1-17.89-.32c-5.15-5.33-11.15-7.5-18.46-7.3-9.74.26-19.5,0-29.24.07-11.74.05-20.2,8.19-20.23,19.95q-.17,57.17,0,114.34c0,11.17,7.63,19.3,18.82,19.73,11.47.43,23,.14,34.48.05,5.84-.05,10.45-2.82,14.41-7A12.21,12.21,0,0,1,386.33,427c5.11,1.54,8.1,5.23,9,10.49a12.33,12.33,0,0,1-3.39,10.67,45.28,45.28,0,0,1-25.25,14.35c-.84.17-1.64.51-2.46.76Z"/><path d="M155.45,169.41a90.13,90.13,0,1,1,90.05,90.11A90,90,0,0,1,155.45,169.41Zm154.07-.06a64.05,64.05,0,0,0-128.1.09,64.05,64.05,0,1,0,128.1-.09Z"/><path d="M166.6,452.73q-28.86,0-57.73,0c-19.36,0-32-12.53-32-31.8,0-20,0-40,0-60,0-12.64,5.63-21.58,16.77-27.41a326,326,0,0,1,108.2-34.3c7.91-1.07,15.89-1.64,23.85-2.28,8.64-.69,14.61,4,15.22,11.79s-5,13.56-13.45,14.38c-11.29,1.1-22.62,2-33.8,3.85a289.89,289.89,0,0,0-87.86,29.61,5,5,0,0,0-3,5c0,19.62,0,39.23,0,58.85,0,4.92,1.16,6,6.33,6q57.72,0,115.45,0a28.11,28.11,0,0,1,5.94.51,12.74,12.74,0,0,1,10.28,14,12.5,12.5,0,0,1-12.75,11.71C207.58,452.79,187.09,452.73,166.6,452.73Z"/><path d="M399.55,373.25q-30.9,0-61.81,0a12.46,12.46,0,0,1-12.12-7.85c-2.21-4.91-1.25-9.54,2.17-13.61,3.06-3.65,7.27-4.53,11.81-4.53q27.91,0,55.82,0h4l.78-1.16c-3.88-3.62-7.9-7.09-11.6-10.88-4.95-5.05-5.35-11.73-1.34-17,4.84-6.36,13.7-7,19.69-1.11,8.74,8.55,17.33,17.28,26,25.92,2.57,2.56,5.2,5.05,7.76,7.6,5.77,5.75,5.82,13.48.06,19.25Q424.21,386.46,407.59,403c-6,6-13.86,6.28-19.27.75s-5-13.08.9-19c3.58-3.59,7.24-7.1,10.86-10.65Z"/></svg>