<svg id="7c1bc35f-6ee1-4fd6-9f7c-115c371d8136" data-name="Layer 1" xmlns="http://www.w3.org/2000/svg" viewBox="0 0 521.86 542.55"><title>rap_scorecard_</title><path d="M440.36,360.64q-6.11-53-47.53-86.64a7.09,7.09,0,0,1-3-6.23q.14-73.87.06-147.74c0-24.37-16.36-40.75-40.64-40.75q-125.79,0-251.6,0C73.33,79.28,57,95.62,57,120q0,74.41,0,148.85c0,24.63,16.18,40.77,40.89,40.78h99.74c1.3,0,2.61.11,4.27.19-.75,1.51-1.25,2.62-1.83,3.69A127.44,127.44,0,0,0,216.1,457c2.21,2.54,5.42,4.19,8.17,6.26h6c3.21-2.49,6.7-4.69,9.58-7.51C251.89,444,263.76,432,275.67,420c6.39-6.41,6.81-12.24,1.41-19.63-8-10.9-10.31-23-7.76-36.66A107,107,0,0,1,279.88,368c.88.45,1.28,2.63,1.23,4-.51,14.1,7,26.25,19.7,31.57a32.16,32.16,0,1,0-12.41-50c-1.81,2.27-3.27,2.88-5.85,1.62s-5.3-2.15-8.45-3.39c.92-1.52,1.65-2.9,2.55-4.16a44.77,44.77,0,0,1,73.49,51.16c-.7,1-1.48,2-2.19,3-4,5.82-3.7,12.07,1.23,17q20.06,20.22,40.34,40.22c1.8,1.77,4.31,2.81,6.5,4.19h6c6.91-3,10.71-9.14,14.82-14.83a125.31,125.31,0,0,0,23.55-62.16,15.9,15.9,0,0,1,.63-2.51V363.53A24.14,24.14,0,0,1,440.36,360.64Zm-146.09,12.7c5.05,2,10,3.89,15,5.78,4.69,1.76,8.19.56,9.67-3.25s-.39-6.85-5.23-8.75-9.72-3.78-15-5.83c6.49-7.41,16.39-8.84,24.39-3.86a19.13,19.13,0,0,1-14.83,34.79C299.45,389.89,293.42,381.93,294.27,373.34Zm-67.53-76,40.78,40.81c-1.74,2.67-3.69,5.68-5.76,8.88l-26.55-10.2c-1-.4-2.08-.83-3.15-1.15-3.71-1.09-7,.47-8.23,3.81a6.25,6.25,0,0,0,3.63,8c4.58,2,9.28,3.65,13.93,5.45l15.83,6.1-1.53,8H198.18A115.52,115.52,0,0,1,226.74,297.38Zm-.07,152.05c-12.94-9.44-29.4-48.71-28.25-69.16h57.36a59.09,59.09,0,0,0,12.07,29.08Zm79.81-133c-10.72,1.54-20.62,5.34-29,12l-40.84-41c19.86-17.4,43-27,69.83-28.65Zm-93.56-22.3a6.59,6.59,0,0,1-5.6,2.78c-36.75-.09-73.5,0-110.24-.07-16.53,0-27.27-10.71-27.28-27.18q0-75.18,0-150.36c0-16.42,10.83-27.23,27.28-27.23q126.36,0,252.73,0c16.24,0,27.22,10.74,27.24,26.91q.12,70.11,0,140.23c0,1-.1,1.92-.13,2.42-10.67-4-20.76-9-31.45-11.52C292.49,237.73,248.16,252.56,212.92,294.12Zm135.59,34.24a57.37,57.37,0,0,0-28.88-12V259.3c18.27-2.23,56.88,13.77,69.43,28.55Zm50.29-30.73c14.06,10.57,30.13,49.09,28.7,69.42H370.3a58.07,58.07,0,0,0-11.87-28.87Zm.56,152.24-40.66-41a58.6,58.6,0,0,0,11.45-28.51H427.8A114.25,114.25,0,0,1,399.36,449.87Z"/><path d="M102.28,175.26q18.75.12,37.5,0c11-.07,19.06-7.59,19.52-18.6.37-8.86.36-17.75,0-26.61-.42-11.11-8.29-18.5-19.38-18.68-6.25-.11-12.5,0-18.75,0s-12.75-.09-19.13,0c-11.27.19-19.31,8.22-19.45,19.47-.11,8.24-.09,16.49,0,24.74C82.72,167,90.91,175.19,102.28,175.26Z"/><path d="M351.24,214.79a103.08,103.08,0,0,0-.05-15.32A12.15,12.15,0,0,0,339,188.12q-16.29-.26-32.57,0c-7.18.11-12.29,5.49-12.47,12.75-.1,4.24-.09,8.48,0,12.72.16,7.51,5.27,12.65,12.75,12.8,5.24.11,10.48,0,15.72,0H338.1l.75,0C345.66,226.11,350.75,221.6,351.24,214.79Z"/><path d="M127.53,188.1q-16.09-.22-32.2,0a12.65,12.65,0,0,0-12.71,12.6c-.16,4.37-.15,8.74,0,13.1A12.56,12.56,0,0,0,95.3,226.37c5.36.12,10.73,0,16.1,0s10.73.09,16.1,0a12.55,12.55,0,0,0,12.7-12.53c.15-4.36.14-8.74,0-13.1A12.64,12.64,0,0,0,127.53,188.1Z"/><path d="M198.34,188.13q-16.47-.3-32.94,0a12.55,12.55,0,0,0-12.35,12.54c-.12,4.24-.09,8.48,0,12.73.14,7.62,5.35,12.85,13,13,5.24.09,10.48,0,15.72,0s10.74.09,16.1,0c7.08-.16,12.33-5.08,12.73-12.14a127.79,127.79,0,0,0,0-13.84C210.24,193.51,205.11,188.26,198.34,188.13Z"/><path d="M268.75,188.13q-16.47-.31-32.94,0a12.5,12.5,0,0,0-12.32,12.54c-.1,4.24-.08,8.49,0,12.73.12,7.68,5.26,12.85,13,13,5.24.09,10.48,0,15.72,0s10.48.07,15.72,0c7.54-.12,12.74-5,13.13-12.52a118.69,118.69,0,0,0,0-13.47C280.55,193.4,275.53,188.26,268.75,188.13Z"/></svg>