<svg id="0e994969-d001-47ec-8365-f79451949524" data-name="Layer 1" xmlns="http://www.w3.org/2000/svg" viewBox="0 0 521.86 542.55"><title>rap_help_</title><path d="M397.08,315.35c0-13.49.89-27.05-.16-40.46-3.19-40.72-21.73-73.45-54.6-97.41-55-40.12-132.42-32.67-177,17.55C99.22,269.46,132,385.9,228.76,413.82c3.48,1,5.58.55,8.23-2.33,11.52-12.57,30.31-15.34,45.36-7.2a38,38,0,0,1,18.87,42.29c-4.22,17.07-18.62,28.86-35.91,29.15-15.54.26-27.08-6.72-34.68-20.15a6.65,6.65,0,0,0-4.69-3.62q-79.31-19.59-116.21-92.49a8.42,8.42,0,0,0-3.54-3.5c-36.88-18.17-43.73-66.06-13.44-93.85a9.27,9.27,0,0,0,2.54-4.71c13.86-69.46,54.37-115.76,121.9-136.67,75.93-23.51,160.4,12.89,197.81,83.52a173.47,173.47,0,0,1,18.18,53.27,9.15,9.15,0,0,0,2.63,4.66c16.53,16.09,22.95,35.35,16.59,57.68-6.28,22.06-21.41,35.5-43.81,40.56-6.94,1.57-10.94-1.67-11-8.7,0-12.13,0-24.25,0-36.37Z"/><path d="M262.52,361.55c-23.84-.48-46.1-9.14-64.63-26.91-8.27-7.95-8.8-19.61-1.39-27.46s19.21-8,27.77,0c23.31,21.75,56.57,21.78,79.83.07,8.61-8,20.2-8.09,27.77-.13s6.85,19.6-1.54,27.75C313,351.75,288.73,361.54,262.52,361.55Z"/><path d="M302.39,228.09a19,19,0,0,1,38,.26,19,19,0,0,1-38-.26Z"/><path d="M207.26,209.27a19,19,0,0,1-.21,37.94,19,19,0,1,1,.21-37.94Z"/></svg>