<?xml version="1.0" encoding="utf-8"?>
<!-- Generator: Adobe Illustrator 23.0.1, SVG Export Plug-In . SVG Version: 6.00 Build 0)  -->
<svg version="1.1" id="Capa_1" xmlns="http://www.w3.org/2000/svg" xmlns:xlink="http://www.w3.org/1999/xlink" x="0px" y="0px"
	 width="24px" height="24px" viewBox="0 0 24 24" enable-background="new 0 0 24 24" xml:space="preserve">
<g>
	<path d="M11.675,0.5c0.211,0,0.422,0,0.634,0c0.042,0.006,0.084,0.017,0.126,0.018c1.125,0.038,2.22,0.244,3.28,0.618
		c1.848,0.653,3.489,1.646,4.787,3.126c2.42,2.76,3.409,5.966,2.834,9.611c-0.322,2.043-1.167,3.872-2.492,5.456
		c-2.006,2.398-4.598,3.737-7.695,4.098c-1.345,0.157-2.683,0.064-3.987-0.296c-3.364-0.929-5.889-2.907-7.463-6.05
		c-0.61-1.217-0.99-2.502-1.126-3.857c-0.024-0.236-0.044-0.473-0.067-0.709c0-0.352,0-0.704,0-1.056
		c0.007-0.042,0.015-0.083,0.02-0.125c0.063-0.511,0.089-1.03,0.193-1.533c0.606-2.932,2.078-5.328,4.517-7.088
		c1.756-1.267,3.721-2.007,5.891-2.172C11.309,0.527,11.492,0.514,11.675,0.5z M11.984,22.108
		c5.494,0.019,10.131-4.469,10.124-10.118C22.1,6.42,17.561,1.889,11.979,1.884C6.514,1.879,1.875,6.355,1.901,11.989
		C1.928,17.696,6.464,22.074,11.984,22.108z"/>
	<path d="M8.708,18.437c-0.221,0.012-0.373-0.095-0.509-0.242c-0.619-0.669-1.24-1.337-1.861-2.005
		c-0.996-1.073-1.991-2.146-2.989-3.217c-0.125-0.134-0.231-0.282-0.332-0.434c-0.178-0.268-0.142-0.568,0.088-0.801
		c0.287-0.29,0.576-0.578,0.866-0.865c0.31-0.307,0.668-0.306,0.97,0.014c0.485,0.512,0.964,1.03,1.445,1.546
		c0.697,0.747,1.394,1.496,2.092,2.242c0.17,0.182,0.343,0.174,0.53-0.02c1.686-1.748,3.371-3.496,5.057-5.244
		c1.142-1.185,2.279-2.376,3.43-3.552c0.195-0.199,0.442-0.355,0.757-0.278c0.14,0.035,0.25,0.115,0.35,0.216
		c0.27,0.273,0.541,0.545,0.813,0.816c0.312,0.311,0.317,0.66,0.013,0.975c-0.916,0.95-1.832,1.9-2.748,2.85
		c-2.471,2.564-4.941,5.129-7.411,7.694C9.112,18.298,8.955,18.46,8.708,18.437z"/>
</g>
</svg>
