<?xml version="1.0" encoding="utf-8"?>
<!-- Generator: Adobe Illustrator 23.0.1, SVG Export Plug-In . SVG Version: 6.00 Build 0)  -->
<svg version="1.1" id="Capa_1" xmlns="http://www.w3.org/2000/svg" xmlns:xlink="http://www.w3.org/1999/xlink" x="0px" y="0px"
	 width="24px" height="24px" viewBox="0 0 24 24" enable-background="new 0 0 24 24" xml:space="preserve">
<g>
	<path d="M11.675,0.5c0.211,0,0.422,0,0.634,0c0.042,0.006,0.084,0.017,0.126,0.018c1.125,0.038,2.22,0.244,3.28,0.618
		c1.848,0.653,3.489,1.646,4.787,3.126c2.42,2.76,3.409,5.966,2.834,9.611c-0.322,2.043-1.167,3.872-2.492,5.456
		c-2.006,2.398-4.598,3.737-7.695,4.098c-1.345,0.157-2.683,0.064-3.987-0.296c-3.364-0.929-5.889-2.907-7.463-6.05
		c-0.61-1.217-0.99-2.502-1.126-3.857c-0.024-0.236-0.044-0.473-0.067-0.709c0-0.352,0-0.704,0-1.056
		c0.007-0.042,0.015-0.083,0.02-0.125c0.063-0.511,0.089-1.03,0.193-1.533c0.606-2.932,2.078-5.328,4.517-7.088
		c1.756-1.267,3.721-2.007,5.891-2.172C11.309,0.527,11.492,0.514,11.675,0.5z M11.984,22.108
		c5.494,0.019,10.131-4.469,10.124-10.118C22.1,6.42,17.561,1.889,11.979,1.884C6.514,1.879,1.875,6.355,1.901,11.989
		C1.928,17.696,6.464,22.074,11.984,22.108z"/>
	<path d="M12.712,8.566c0,1.068,0.001,2.135-0.002,3.203c0,0.081,0.024,0.138,0.08,0.195c1.134,1.139,2.266,2.28,3.399,3.419
		c0.192,0.193,0.298,0.413,0.233,0.687c-0.125,0.523-0.771,0.71-1.161,0.334c-0.312-0.301-0.615-0.612-0.922-0.919
		c-0.923-0.924-1.845-1.849-2.772-2.769c-0.171-0.17-0.254-0.357-0.254-0.603c-0.002-2.236-0.013-4.472-0.019-6.707
		c-0.001-0.378,0.257-0.688,0.597-0.728c0.371-0.044,0.713,0.182,0.8,0.537c0.019,0.078,0.02,0.163,0.02,0.244
		C12.712,6.494,12.712,7.53,12.712,8.566z"/>
</g>
</svg>
