<svg id="2113c3cf-5e29-4700-b808-1af62d9155f5" data-name="Layer 1" xmlns="http://www.w3.org/2000/svg" viewBox="0 0 521.86 542.55"><defs><style>.\31 eb49a5b-a79f-41d0-b910-c91ead6543ab{fill:none;stroke:#000;stroke-linecap:round;stroke-linejoin:round;stroke-width:9px;}</style></defs><title>rap_logout_</title><g id="b0ba3532-a3c1-4bb4-bfea-1bdb7e7e83fb" data-name="CCdbzV"><path class="1eb49a5b-a79f-41d0-b910-c91ead6543ab" d="M263.87,93.38c.29.22-.34-.07,0,0,6.62,1.36,10,8.63,8.8,14.33-1.23,5.92-6.16,9.66-12.91,9.66H131.18c-16.51,0-26.3,9.81-26.3,26.34q0,129.7,0,259.4c0,16.45,9.86,26.25,26.4,26.26q64.29,0,128.57,0c9.4,0,15.42,8.16,12.19,16.38a12,12,0,0,1-11.44,7.59c-10,.06-20,0-30,0-33,0-66-.43-99,.13C103,454,83.34,432.06,80.87,411.38c0-.34.18.32,0,0,0-92,.65-185.7.65-277.7.22-.57-.1.58,0,0,2.65-14.92,8.31-24.53,20.16-33.9,5.54-4.39,13.5-6.4,21.19-6.4Z"/><path class="1eb49a5b-a79f-41d0-b910-c91ead6543ab" d="M344.87,309.38H331.13c-7.38,0-14.75.07-22.12,0-6.69-.1-12-4.91-12.06-11.38q-.26-24.56,0-49.11c.06-6.66,5.39-11.41,12.35-11.46,10.37-.07,20.74,0,31.11,0h4.46v-4.3c0-10.5,0-21,0-31.49a11.48,11.48,0,0,1,7.33-11.21A11.24,11.24,0,0,1,365.36,193q36,35.85,71.85,71.84c5.24,5.26,5,12.17-.45,17.65-10.2,10.3-20.49,20.52-30.74,30.77-13.17,13.16-26.38,26.29-39.49,39.51-4.08,4.1-8.68,6-14.21,3.68s-7.54-6.83-7.48-12.65c.12-10.13,0-20.25,0-30.37Z"/><path class="1eb49a5b-a79f-41d0-b910-c91ead6543ab" d="M200.76,369.38q-29.06,0-58.11,0c-9.1,0-13.62-4.71-13.81-13.88-.27-13.2.41-26.2,5.89-38.53a75.69,75.69,0,0,1,18-25.09c4.67-4.32,9.65-5.19,15.44-2.41q32.85,15.74,65.68-.13c5.46-2.64,10.38-1.89,14.84,2.21,15.64,14.34,23.75,32.1,24.19,53.33.08,3.87,0,7.74,0,11.62-.07,8-4.93,12.86-12.88,12.88Q230.38,369.42,200.76,369.38Z"/><path class="1eb49a5b-a79f-41d0-b910-c91ead6543ab" d="M248.87,225.59a48,48,0,1,1-47.68-48.21A48.07,48.07,0,0,1,248.87,225.59Z"/></g></svg>