<?xml version="1.0" encoding="utf-8"?>
<!-- Generator: Adobe Illustrator 23.0.1, SVG Export Plug-In . SVG Version: 6.00 Build 0)  -->
<svg version="1.1" id="Capa_1" xmlns="http://www.w3.org/2000/svg" xmlns:xlink="http://www.w3.org/1999/xlink" x="0px" y="0px"
	 width="24px" height="24px" viewBox="0 0 24 24" enable-background="new 0 0 24 24" xml:space="preserve">
<g>
	<path d="M11.981,23.494C5.588,23.488,0.538,18.377,0.5,11.964C0.464,5.787,5.814,0.459,12.073,0.506
		c6.175,0.046,11.513,5.283,11.425,11.558C23.411,18.42,18.357,23.5,11.981,23.494z M11.764,1.069
		C8.307,0.934,4.11,3.255,2.651,6.58C1.936,8.21,1.334,9.887,2.783,11.497c0.273,0.303,0.325,0.728,0.172,1.124
		c-0.294,0.761-0.153,1.387,0.888,1.921c0.801,0.411,1.074,1.014,1.008,1.854c-0.071,0.896,0.127,1.176,1.006,1.409
		c0.549,0.145,0.985,0.402,1.239,0.946c0.454,0.972,0.706,1.113,1.755,0.856c0.847-0.208,1.545-0.01,2.209,0.513
		c0.863,0.68,1.033,0.67,1.905-0.008c0.436-0.339,0.909-0.61,1.47-0.606c0.361,0.002,0.719,0.121,1.082,0.159
		c0.795,0.083,1.019-0.034,1.33-0.766c0.243-0.572,0.645-0.914,1.235-1.081c0.994-0.281,1.106-0.424,1.066-1.445
		c-0.033-0.84,0.205-1.496,1.045-1.832c0.146-0.058,0.279-0.163,0.399-0.268c0.39-0.339,0.754-0.74,0.544-1.286
		c-0.307-0.796-0.027-1.399,0.423-2.031c0.236-0.331,0.437-0.762,0.458-1.159c0.076-1.397-0.129-2.771-0.959-3.935
		C18.849,2.764,15.862,1.09,11.764,1.069z M19.857,16.359c0.113,0.203,0.149,0.365,0.236,0.399c0.088,0.035,0.288-0.023,0.33-0.1
		c0.188-0.344,0.349-0.705,0.489-1.071c0.028-0.074-0.054-0.248-0.13-0.286c-0.072-0.036-0.251,0.011-0.3,0.081
		C20.255,15.701,20.056,16.041,19.857,16.359z M4.113,16.343c-0.202-0.314-0.38-0.68-0.642-0.969c-0.204-0.224-0.47-0.093-0.403,0.2
		c0.087,0.38,0.293,0.737,0.481,1.085c0.041,0.076,0.248,0.13,0.336,0.093C3.972,16.715,4.004,16.55,4.113,16.343z M9.98,21.168
		c0.196-0.121,0.354-0.217,0.512-0.314c-0.115-0.136-0.205-0.348-0.349-0.394c-0.322-0.103-0.668-0.138-1.008-0.166
		c-0.081-0.007-0.21,0.108-0.247,0.196c-0.024,0.059,0.053,0.213,0.123,0.249C9.315,20.892,9.632,21.017,9.98,21.168z M6.595,19.526
		c-0.02-0.486-0.732-1.142-1.08-1.076c-0.094,0.018-0.23,0.219-0.217,0.319c0.042,0.335,0.612,0.855,0.95,0.878
		C6.372,19.656,6.504,19.56,6.595,19.526z M18.7,18.599c-0.071-0.04-0.18-0.152-0.289-0.153c-0.352-0.004-0.987,0.571-1.008,0.916
		c-0.006,0.096,0.113,0.273,0.198,0.289C17.968,19.72,18.708,19.047,18.7,18.599z M14.547,20.175
		c-0.323,0.142-0.628,0.258-0.913,0.411c-0.076,0.041-0.148,0.205-0.125,0.284c0.024,0.082,0.17,0.188,0.255,0.182
		c0.325-0.026,0.661-0.054,0.965-0.161c0.151-0.053,0.241-0.279,0.359-0.427C14.922,20.375,14.756,20.286,14.547,20.175z
		 M1.72,12.006C1.7,12.014,1.681,12.022,1.662,12.03c0.092,0.252,0.154,0.522,0.287,0.75c0.114,0.197,0.361,0.175,0.373-0.051
		c0.02-0.372-0.059-0.751-0.122-1.122c-0.01-0.06-0.175-0.154-0.233-0.133c-0.089,0.031-0.169,0.139-0.211,0.233
		C1.715,11.794,1.729,11.906,1.72,12.006z M22.339,12.083c-0.121-0.231-0.222-0.423-0.323-0.615
		c-0.136,0.181-0.353,0.347-0.389,0.546c-0.048,0.265,0.041,0.556,0.088,0.833c0.003,0.02,0.203,0.047,0.221,0.017
		C22.076,12.622,22.196,12.367,22.339,12.083z M17.616,20.836c-0.655,0-1.314,0.378-1.473,0.814
		C16.73,21.581,17.18,21.328,17.616,20.836z M2.149,15.524c0.002-0.663-0.161-1.15-0.515-1.605
		C1.428,14.322,1.649,15.073,2.149,15.524z M4.026,19.143c0.045-0.03,0.091-0.059,0.136-0.089c-0.035-0.528-0.51-1.141-1.04-1.138
		C3.423,18.325,3.725,18.734,4.026,19.143z M21.982,15.471c0.359-0.429,0.593-0.892,0.454-1.461
		C22.035,14.421,21.904,14.915,21.982,15.471z M19.862,19.226c0.501-0.418,0.888-0.781,0.997-1.4
		C20.34,18.034,19.935,18.578,19.862,19.226z M7.811,21.686c0.031-0.042,0.063-0.083,0.094-0.125
		c-0.221-0.438-0.924-0.808-1.443-0.62C6.912,21.189,7.362,21.437,7.811,21.686z"/>
	<path d="M16.606,15.919c-0.456,0.343-0.885,0.665-1.326,0.996c-0.258-0.26-0.257-0.859,0.071-1.145
		C15.735,15.434,16.292,15.513,16.606,15.919z"/>
	<path d="M7.47,15.904c0.38-0.386,0.841-0.454,1.226-0.17c0.345,0.255,0.385,0.761,0.128,1.208
		C8.384,16.605,7.938,16.263,7.47,15.904z"/>
	<path d="M14.352,17.557c-0.55,0.138-1.073,0.269-1.621,0.406c-0.143-0.274,0.068-0.839,0.463-1.009
		C13.672,16.748,14.175,17.022,14.352,17.557z"/>
	<path d="M11.31,17.98c-0.553-0.145-1.086-0.284-1.623-0.424c0.077-0.426,0.453-0.706,0.936-0.641
		C11.098,16.979,11.34,17.374,11.31,17.98z"/>
	<path d="M4.392,13.994c-0.109-0.309-0.177-0.593-0.308-0.845c-0.125-0.24-0.315-0.445-0.478-0.667
		c0.4-0.173,0.807-0.038,1.042,0.338C4.906,13.233,4.833,13.616,4.392,13.994z"/>
	<path d="M11.149,19.557c0.101-0.518,0.396-0.771,0.847-0.777c0.426-0.006,0.734,0.266,0.859,0.772
		c-0.29-0.038-0.573-0.104-0.856-0.104C11.73,19.447,11.46,19.514,11.149,19.557z"/>
	<path d="M16.47,18.184c-0.516,0.255-1.014,0.502-1.509,0.747c-0.15-0.373-0.032-0.711,0.359-0.962
		C15.731,17.707,16.125,17.788,16.47,18.184z"/>
	<path d="M5.481,15.831c0.346-0.183,0.746-0.12,1.008,0.187c0.313,0.366,0.305,0.775-0.026,1.18
		C6.142,16.751,5.82,16.303,5.481,15.831z"/>
	<path d="M20.229,12.48c-0.258,0.515-0.506,1.009-0.752,1.499c-0.347-0.231-0.467-0.629-0.293-1.021
		C19.367,12.545,19.74,12.382,20.229,12.48z"/>
	<path d="M7.598,18.166c0.226-0.363,0.641-0.482,1.081-0.264c0.415,0.206,0.569,0.617,0.41,1.002
		C8.592,18.658,8.093,18.41,7.598,18.166z"/>
	<path d="M17.51,17.255c-0.349-0.387-0.379-0.758-0.121-1.128c0.257-0.368,0.643-0.458,1.131-0.248
		c-0.199,0.21-0.414,0.4-0.58,0.626C17.773,16.732,17.656,16.995,17.51,17.255z"/>
	<path d="M21.284,9.656c-0.032,0.141-0.046,0.321-0.117,0.475c-0.053,0.115-0.178,0.197-0.272,0.294
		c-0.072-0.101-0.203-0.201-0.204-0.303c-0.005-0.315,0.02-0.634,0.075-0.945c0.017-0.096,0.166-0.169,0.254-0.253
		c0.066,0.088,0.159,0.167,0.193,0.267C21.259,9.325,21.26,9.476,21.284,9.656z"/>
	<path d="M3.013,8.878c0.328,0.32,0.451,1.028,0.257,1.376C3.171,10.431,3.06,10.494,2.911,10.3
		C2.651,9.962,2.692,9.224,3.013,8.878z"/>
</g>
</svg>
