<?xml version="1.0" encoding="utf-8"?>
<!-- Generator: Adobe Illustrator 23.0.1, SVG Export Plug-In . SVG Version: 6.00 Build 0)  -->
<svg version="1.1" id="Capa_1" xmlns="http://www.w3.org/2000/svg" xmlns:xlink="http://www.w3.org/1999/xlink" x="0px" y="0px"
	 width="24px" height="24px" viewBox="0 0 24 24" enable-background="new 0 0 24 24" xml:space="preserve">
<g>
	<path d="M11.675,0.5c0.211,0,0.422,0,0.634,0c0.042,0.006,0.084,0.017,0.126,0.018c1.125,0.038,2.22,0.244,3.28,0.618
		c1.848,0.653,3.489,1.646,4.787,3.126c2.42,2.76,3.409,5.966,2.834,9.611c-0.322,2.043-1.167,3.872-2.492,5.456
		c-2.006,2.398-4.598,3.737-7.695,4.098c-1.345,0.157-2.683,0.064-3.987-0.296c-3.364-0.929-5.889-2.907-7.463-6.05
		c-0.61-1.217-0.99-2.502-1.126-3.857c-0.024-0.236-0.044-0.473-0.067-0.709c0-0.352,0-0.704,0-1.056
		c0.007-0.042,0.015-0.083,0.02-0.125c0.063-0.511,0.089-1.03,0.193-1.533c0.606-2.932,2.078-5.328,4.517-7.088
		c1.756-1.267,3.721-2.007,5.891-2.172C11.309,0.527,11.492,0.514,11.675,0.5z M11.984,22.108
		c5.494,0.019,10.131-4.469,10.124-10.118C22.1,6.42,17.561,1.889,11.979,1.884C6.514,1.879,1.875,6.355,1.901,11.989
		C1.928,17.696,6.464,22.074,11.984,22.108z"/>
	<g>
		<path d="M10.847,14.512c0-0.73,0.091-1.314,0.272-1.747c0.181-0.435,0.539-0.911,1.075-1.43c0.535-0.52,0.874-0.889,1.017-1.109
			c0.22-0.335,0.329-0.696,0.329-1.086c0-0.515-0.128-0.909-0.383-1.179c-0.255-0.272-0.63-0.408-1.124-0.408
			c-0.472,0-0.852,0.133-1.141,0.398C10.604,8.216,10.46,8.575,10.46,9.03H8.459C8.47,8.058,8.8,7.288,9.451,6.722
			c0.651-0.567,1.511-0.85,2.582-0.85c1.104,0,1.964,0.28,2.582,0.841c0.618,0.56,0.927,1.344,0.927,2.349
			c0,0.896-0.417,1.778-1.252,2.646l-1.013,0.998c-0.362,0.412-0.549,1.013-0.56,1.805H10.847z M10.707,17.069
			c0-0.323,0.102-0.583,0.305-0.784c0.203-0.199,0.478-0.299,0.824-0.299c0.351,0,0.629,0.103,0.832,0.307
			c0.203,0.206,0.305,0.464,0.305,0.776c0,0.301-0.099,0.552-0.296,0.755c-0.198,0.202-0.478,0.303-0.84,0.303
			s-0.641-0.102-0.836-0.303C10.804,17.621,10.707,17.37,10.707,17.069z"/>
	</g>
</g>
</svg>
