<?xml version="1.0" encoding="utf-8"?>
<!-- Generator: Adobe Illustrator 23.0.1, SVG Export Plug-In . SVG Version: 6.00 Build 0)  -->
<svg version="1.1" id="Capa_1" xmlns="http://www.w3.org/2000/svg" xmlns:xlink="http://www.w3.org/1999/xlink" x="0px" y="0px"
	 width="24px" height="24px" viewBox="0 0 24 24" enable-background="new 0 0 24 24" xml:space="preserve">
<g>
	<path d="M12.461,0.521c-0.536,0.816-0.63,1.66-0.186,2.516c0.445,0.858,1.192,1.263,2.165,1.302
		c-0.515,0.915-0.658,1.874-0.398,2.88c0.199,0.767,0.607,1.413,1.208,1.932c1.127,0.974,2.921,1.329,4.566,0.325
		c0.295,0.702,0.784,1.209,1.516,1.445c0.727,0.234,1.417,0.119,2.065-0.283c0.542,3.82-1.106,8.661-5.609,11.293
		c-4.343,2.539-9.767,1.93-13.438-1.35c-3.861-3.451-4.86-8.882-2.814-13.353C3.693,2.52,8.368,0.293,12.461,0.521z M10.133,2.603
		c-0.055,0.008-0.093,0.011-0.129,0.019c-2.361,0.525-4.28,1.75-5.709,3.697c-1.588,2.163-2.166,4.592-1.738,7.244
		c0.349,2.162,1.351,3.988,2.957,5.47c1.61,1.486,3.518,2.323,5.705,2.508c1.291,0.109,2.555-0.037,3.784-0.446
		c1.631-0.543,3.024-1.456,4.163-2.745c1.343-1.52,2.133-3.291,2.361-5.309c0.011-0.095-0.012-0.121-0.106-0.136
		c-0.809-0.129-1.528-0.457-2.148-0.994c-0.082-0.071-0.153-0.089-0.257-0.064c-0.659,0.161-1.33,0.201-1.998,0.1
		c-2.042-0.309-3.535-1.392-4.456-3.241c-0.468-0.939-0.628-1.945-0.531-2.989c0.012-0.13-0.016-0.193-0.12-0.266
		c-0.562-0.395-1.004-0.9-1.326-1.508C10.361,3.528,10.216,3.084,10.133,2.603z"/>
	<path d="M19.196,0.501c0.795,0.002,1.429,0.64,1.428,1.438c-0.001,0.789-0.649,1.436-1.437,1.436c-0.786,0-1.439-0.652-1.439-1.438
		C17.747,1.141,18.394,0.499,19.196,0.501z"/>
	<path d="M22.547,8.161c-0.529,0.002-0.966-0.43-0.967-0.955c-0.001-0.526,0.435-0.959,0.963-0.958
		c0.523,0.001,0.954,0.427,0.957,0.947C23.503,7.726,23.075,8.16,22.547,8.161z"/>
	<path d="M16.795,6.235c-0.002-0.508,0.432-0.946,0.941-0.95c0.535-0.004,0.966,0.424,0.972,0.965
		c0.005,0.512-0.438,0.959-0.95,0.957C17.22,7.206,16.797,6.779,16.795,6.235z"/>
	<path d="M9.126,11.034c0.002,1.059-0.859,1.923-1.916,1.921c-1.057-0.002-1.919-0.865-1.917-1.922
		c0.001-1.055,0.87-1.919,1.926-1.914C8.271,9.124,9.124,9.979,9.126,11.034z"/>
	<path d="M8.647,17.741c-0.797,0-1.433-0.635-1.433-1.431c0-0.802,0.644-1.447,1.441-1.443c0.782,0.003,1.436,0.661,1.434,1.444
		C10.087,17.1,9.442,17.741,8.647,17.741z"/>
	<path d="M15.352,18.7c-0.811-0.004-1.437-0.643-1.433-1.463c0.004-0.774,0.662-1.416,1.445-1.408
		c0.792,0.008,1.432,0.654,1.43,1.443C16.794,18.059,16.142,18.704,15.352,18.7z"/>
	<path d="M11.043,7.198c0.002,0.528-0.43,0.963-0.956,0.963c-0.53,0-0.963-0.432-0.961-0.958c0.001-0.529,0.434-0.958,0.964-0.955
		C10.613,6.251,11.041,6.678,11.043,7.198z"/>
	<path d="M11.043,11.986c-0.001-0.508,0.435-0.948,0.942-0.95c0.538-0.002,0.971,0.424,0.978,0.96
		c0.006,0.507-0.441,0.958-0.952,0.959C11.478,12.958,11.045,12.523,11.043,11.986z"/>
</g>
</svg>
