<?xml version="1.0" encoding="utf-8"?>
<!-- Generator: Adobe Illustrator 22.0.1, SVG Export Plug-In . SVG Version: 6.00 Build 0)  -->
<svg version="1.1" id="Layer_1" xmlns="http://www.w3.org/2000/svg" xmlns:xlink="http://www.w3.org/1999/xlink" x="0px" y="0px"
	 viewBox="0 0 522 542.7" style="enable-background:new 0 0 522 542.7;" xml:space="preserve">
<style type="text/css">
	.st0{fill:none;stroke:#000000;stroke-width:7.1964;stroke-miterlimit:10;}
	.st1{fill:none;stroke:#000000;stroke-width:5.8382;stroke-miterlimit:10;}
</style>
<g>
	<path class="st0" d="M148,397.3c-1.7-1.8-3.1-3.2-4.1-4.3c-1-1.1-1.4-1.8-1.4-1.8c4.7-3.8,17.4-17.1,19.8-32.9
		c1-9.2-0.2-18.8-2.7-25.5c-0.6-1.7-1.2-3.2-1.9-4.6c-0.5-1.4-0.9-2.7-1.3-3.8c-0.8-2.1-1.4-3.3-1.4-3.3s-5.6,2.2-12,6.7
		c-3.2,2.3-6.6,5.1-9.6,8.8c-3.1,3.7-5.5,8-6.5,12.9c-1.6,8.1-0.3,17.3,2.7,24.7c0,0-1.4-1.5-2.9-4.2c-1.6-2.7-3.6-6.2-5.7-9.7
		c-2.1-3.5-4.2-7.1-5.7-9.7c-1.4-2.7-2.1-4.7-2.1-4.7c5.1-2.5,18.9-11.2,24.2-24.5c2.8-8,3.6-16.9,2.8-23.6
		c-0.3-3.4-1.2-6.2-1.5-8.3c-0.3-2.1-0.6-3.4-0.6-3.4s-5.3,0.8-11.9,3.6c-3.3,1.4-6.9,3.3-10.3,5.9c-3.2,2.6-6,5.9-8,10.1
		c-3,6.6-3.8,14.5-3,21.5c-0.3,0.1-2.6-8.1-5.1-16.2c-1.2-4.1-2.5-8.1-3.4-11.2c-0.6-3.1-0.9-5.2-0.9-5.2
		c5.1-1.1,18.7-5.7,25.9-16.3c2.4-3.3,3.4-6.8,4.7-10.4c1.3-3.5,2-7,2.4-10.1c0.8-6.2,0.2-10.9,0.2-10.9s-4.8-0.3-11,1
		c-6.1,1.2-13.6,4-18.8,10.7c-3.7,4.9-6.2,11.3-6.8,17.3c0,0-0.5-2.1-0.6-5.5c-0.2-3.3-0.5-7.7-0.7-12.1c-0.2-4.4-0.5-8.8-0.7-12.1
		c0.2-3.3,0.2-5.5,0.2-5.5c4.8,0,17.1-1.2,25.3-8.9c2.6-2.4,4.5-5.3,6.1-8.2c1.8-2.9,3.1-5.8,4-8.4c1.9-5.3,2.2-9.5,2.2-9.5
		s-4.1-1.1-9.7-1.2c-5.5,0-12.5,1-18.3,5.8c-3.9,3.4-7.1,8-8.8,12.8c0,0,0-1,0.2-2.5c0.2-1.5,0.5-3.4,0.9-5.4
		c0.6-3.9,1.2-7.8,1.2-7.8c2.2-2,5.3-5.2,8.2-9.3c3.4-4,6.4-8.7,7.9-14.4c1.6-7.7,2-15.1,0.7-21.3c-1-6.1-2.7-10.6-2.7-10.6
		s-4.1,1.8-9.1,5.9c-4.7,4.1-11.3,10.2-13.3,18.8c-1.7,6.3-1.6,12.6-0.7,17.8c1.2,5.3,3.3,9.6,4.7,12.2c0,0-1.4,7.7-2.3,15.5
		c-0.4,7.8-0.8,15.6-0.8,15.6c-1.1-5-2.9-10.3-6.1-14.9c-4.6-6.5-10.4-10.3-15.7-12.3c-5.2-2.1-9.5-2.4-9.5-2.4s-0.2,1.4-0.6,3.8
		c-0.3,2.4-0.7,5.7-0.3,9.5c0.6,7.6,2.3,16.8,7,23.4c8.2,10.3,20.6,10.8,25.4,10.8c0,0,0.5,8.9,1.1,17.9c1.5,8.8,3.1,17.6,3.1,17.6
		c-2.5-5.6-6.1-11.4-11.1-16c-6.1-6.2-13.8-9-20.2-10c-6.3-1.1-11.1-0.4-11.1-0.4c0,0,0,6.8,2,15.2c2.6,8.4,7,18.4,13.9,24.6
		c11.6,9.7,26,6.7,30.9,5.4c0,0,2.5,8.3,5.1,16.5c3.4,7.9,6.9,15.9,6.9,15.9c-4.1-5.8-10.3-11.4-16.5-15.7
		c-8.2-5.4-17.5-6.6-24.7-6.3c-7.2,0.3-12.3,2.2-12.3,2.2s1.9,7.5,6.1,16.5c4.5,8.9,12.4,18.8,21.5,23.8c15.5,7.8,30.4,0.3,35.3-2.3
		c0,0,4.2,7.3,8.6,14.3c5.1,6.7,10.1,13.3,10.1,13.3c-6-5.4-14.5-10.2-22.5-13.5c-10.3-3.8-20.7-2.9-28.4-0.8
		c-7.8,2-12.8,5.2-12.8,5.2s4.1,7.7,11,16.6C89.5,405,101,413.8,112,417c19.4,4.4,33.2-8,37.6-12c0,0,1.7,1.7,4.2,4.3
		c1.2,1.3,2.7,2.8,4.2,4.4c1.7,1.4,3.6,2.9,5.4,4.5c7.4,6,14.8,12,14.8,12l2.5-3.4c0,0-10.1-8.3-20.2-16.6
		C155.9,405.5,151.3,400.8,148,397.3z"/>
	<path class="st0" d="M421.7,323.8c0.9-3.1,2.2-7.2,3.5-11.4c1.2-4.1,2.6-8.2,3.4-11.4c0.6-3.2,1-5.3,1-5.3c5.2,0.9,19.2,3,30.2-7.5
		c3.3-3.3,6.5-7.4,8.3-11.9c1.8-4.5,3-9.2,3.8-13.5c1.7-8.6,1.7-15.3,1.7-15.3s-4.8-0.4-11.1,1.1c-6.3,1.5-14.1,4.7-20.1,11.3
		c-4.6,4.9-7,11-9.4,16.7c0,0,0.5-2.2,0.6-5.5c0.2-3.3,0.5-7.8,0.7-12.3c0.3-4.5,0.5-8.9,0.7-12.3c-0.1-3.4-0.2-5.6-0.2-5.6
		c4.8-0.3,16.9-1.6,24.2-12.4c2.2-3.4,4-7.5,4.8-11.7c0.7-4.1,0.8-8.4,0.8-12.1c-0.2-7.6-1.4-13.3-1.4-13.3s-4.2,0.6-9.4,3
		c-5.2,2.4-11.3,6.6-15.2,13.4c-2.8,4.8-3.8,10.1-4.8,15.2c0,0,0-1-0.2-2.5c-0.2-1.5-0.5-3.5-0.9-5.5c-0.6-4-1.3-7.9-1.3-7.9
		c1.4-2.6,3.5-6.9,4.7-12.2c0.9-5.2,1-11.5-0.7-17.8c-1.9-8.6-8.5-14.8-13.3-18.8c-4.9-4.1-9-5.9-9-5.9s-1.7,4.5-2.7,10.6
		c-1.3,6.2-1,13.6,0.7,21.3c1.5,5.6,4.6,10.4,7.9,14.4c3,4,6.1,7.3,8.3,9.3c0,0,1.3,7.6,2.3,15.2c0.4,7.7,0.8,15.3,0.8,15.3
		c-1.6-4.8-4-9.7-7.6-13.3c-5.2-5.2-12.7-6.6-18.2-7c-5.6-0.3-9.8,0.6-9.8,0.6s0.1,1.1,0.5,2.8c0.4,1.7,1,4.1,1.5,6.8
		c1.2,5.4,3.8,12.1,9.1,17.3c7.4,8.2,19.4,10.2,24.3,10.5c0,0-0.5,8.8-1.1,17.5c-1.5,8.7-3.1,17.3-3.1,17.3c-0.4-6-1.7-12.5-5-17.6
		c-5.2-7-12.6-10.3-18.8-12c-6.1-1.6-11-1.7-11-1.7s-0.4,4.7,0.1,10.9c0,6.1,1.2,13.9,5.7,20.9c6.7,11,19.3,16.4,24.5,17.9
		c0,0-2.5,8.1-4.9,16.2c-3.4,7.8-6.8,15.6-6.8,15.6c1.1-7,2.1-14.6-1.1-21.5c-3.9-8.9-11.2-14.2-17.5-17.4
		c-6.3-3.2-11.6-4.4-11.6-4.4s-1.8,4.8-2.5,11.6c-1.1,6.7-2.1,15,1.2,23.7c4.5,13.7,17.1,23,22.2,25.9c0,0-4.1,7.1-8.4,14.1
		c-5,6.5-9.9,13.1-9.9,13.1c3.2-7.5,6.5-15.6,4.5-24.4c-1.9-10.4-8.5-17.8-14.6-22.7c-6-4.9-11.5-7.4-11.5-7.4s-3.1,4.5-5.4,11.4
		c-1,3.6-2.8,7.2-3.6,11.4c-0.9,4.2-1.3,8.9-0.7,13.9c1.1,15.6,12.7,29.6,17.1,33.8c0,0-1.6,1.7-4,4.2c-1.2,1.3-2.6,2.7-4.1,4.3
		c-1.7,1.4-3.5,2.9-5.3,4.4c-7.2,5.9-14.5,11.8-14.5,11.8l2.5,3.4c0,0,10.4-8.3,20.6-16.9c4.6-4.8,9.2-9.6,12.7-13.2
		c1.8-1.8,3.2-3.3,4.2-4.3c1-1.1,1.4-1.8,1.4-1.8c4.7,3.8,19.1,14.9,37.9,9c11.9-3.3,21.2-13.7,28.1-22.6c1.7-2.2,3.2-4.4,4.6-6.4
		c1.2-2.1,2.1-4,2.9-5.6c1.6-3.2,2.3-5.2,2.3-5.2s-5.2-2.9-13-4.3c-3.9-0.7-8.4-1.2-13.1-0.8c-4.6,0.4-9.7,1.5-15.1,3.5
		c-8.7,3.4-15.4,9.5-21.4,15.1c0,0,1.4-1.6,2.9-4.3c1.6-2.7,3.7-6.3,5.8-9.9c2.1-3.6,4.2-7.2,5.8-9.9c1.4-2.8,2.2-4.7,2.2-4.7
		c5.2,2.3,20.1,8.6,35.1-0.2c9.7-5.3,15.6-16.1,19.8-25.2c2-4.6,3.7-8.7,4.4-11.8c0.7-3.1,1-5,1-5s-5.2-1.5-12.3-1.3
		c-3.6,0.1-7.6,0.6-11.7,1.8c-4.3,1.2-8.7,3.1-12.9,5.9c-6.6,4.5-11.2,10.9-15.1,16.9c0,0,0.2-0.5,0.6-1.3
		C420.8,326.7,421.2,325.4,421.7,323.8z"/>
	<path class="st0" d="M311.3,411.9H210.7c-5.3,0-9.6,4.3-9.6,9.6v8.7h119.7v-8.7C320.9,416.2,316.6,411.9,311.3,411.9z"/>
	<rect x="210.7" y="366.7" class="st0" width="100.6" height="39.8"/>
	<path class="st0" d="M311.3,342H210.7c-5.3,0-9.6,4.3-9.6,9.6c0,5.3,4.3,9.6,9.6,9.6h100.6c5.3,0,9.6-4.3,9.6-9.6
		C320.9,346.3,316.6,342,311.3,342z"/>
	<path class="st0" d="M364.9,123.9h-26.1c0.1-3.8,0.2-7.6,0.2-11.4H183c0,3.8,0.1,7.6,0.2,11.4h-26.1v4.8
		c0,58.1,23.9,103.6,54.4,103.8c5.2,8.6,11.1,15.7,17.3,21.3l0.1,2.7c0.3,7.3,5.5,13.5,12.6,15.1h0.6v31.6l-0.6,0.1
		c-7.1,1.6-12.2,7.8-12.6,15.1l-0.1,1.7c-5.7,3.3-9.6,9.4-9.6,16.5h83.6c0-7.1-3.9-13.2-9.6-16.5l-0.1-1.7
		c-0.3-7.3-5.5-13.5-12.6-15.1h-0.6v-31.6h0.3l0.3-0.1c7.1-1.6,12.2-7.8,12.6-15.1l0.1-2.7c6.2-5.6,12.1-12.8,17.3-21.3
		c30.5-0.1,54.4-45.7,54.4-103.8V123.9z M166.7,133.5h17c2.3,34.3,10.3,65.1,22,88.5C184.8,215.9,167.9,178.3,166.7,133.5z
		 M287.1,315.7h-52.1c1.1-3.4,3.9-6.1,7.5-7h37.2C283.1,309.6,285.9,312.3,287.1,315.7z M279.6,266.2h-37.2c-3.6-0.9-6.3-3.6-7.5-7
		h52.1C285.9,262.6,283.1,265.3,279.6,266.2z M316.3,222c11.7-23.4,19.6-54.2,22-88.5h17C354.1,178.3,337.2,215.9,316.3,222z"/>
</g>
</svg>
