<?xml version="1.0" encoding="utf-8"?>
<!-- Generator: Adobe Illustrator 22.0.1, SVG Export Plug-In . SVG Version: 6.00 Build 0)  -->
<svg version="1.1" id="Layer_1" xmlns="http://www.w3.org/2000/svg" xmlns:xlink="http://www.w3.org/1999/xlink" x="0px" y="0px"
	 viewBox="0 0 522 542.7" style="enable-background:new 0 0 522 542.7;" xml:space="preserve">
<style type="text/css">
	.st0{fill:none;stroke:#000000;stroke-width:7.1964;stroke-miterlimit:10;}
	.st1{fill:none;stroke:#000000;stroke-width:5.8382;stroke-miterlimit:10;}
</style>
<g>
	<g id="_x39_gkX1a_2_">
		<g>
			<path class="st0" d="M187,286.8c36.9,0,73.3,0,110,0c0-4.9,0-9.5,0-14.5c-36.6,0-73.2,0-110,0c0-9.1,0-17.9,0-26.9
				c45.7,0,91.2,0,137.1,0c0,78.1,0,156.2,0,234.5c-45.6,0-91.2,0-137.1,0C187,415.7,187,351.6,187,286.8z"/>
			<path class="st0" d="M345.6,346.2c36.7,0,73.1,0,109.9,0c0-4.8,0-9.4,0-14.4c-36.5,0-73.1,0-110,0c0-9.3,0-18.1,0-27.1
				c45.8,0,91.4,0,137.3,0c0,58.4,0,116.6,0,175c-45.6,0-91.3,0-137.2,0C345.6,435.5,345.6,391.2,345.6,346.2z"/>
			<path class="st0" d="M165.7,342.6c0,45.9,0,91.5,0,137.3c-45.8,0-91.5,0-137.4,0c0-31.9,0-63.7,0-95.8c36.7,0,73.2,0,110.1,0
				c0-5.1,0-9.7,0-14.8c-36.6,0-73.2,0-110,0c0-9.1,0-17.7,0-26.7C74,342.6,119.6,342.6,165.7,342.6z"/>
			<path class="st1" d="M238.7,203.5c0-7.9,0-15.6,0-23c-6.7-2.3-13.3-3.9-19.3-6.7c-19.1-9-28.9-25.3-33.9-45
				c-1.3-5.1-2.1-10.4-2.7-15.7c-0.8-6.9,1.8-9.5,8.7-9.6c3.4-0.1,6.8,0,10,0c-1.8-13.6-3.6-26.9-5.5-40.7c39.9,0,78.7,0,118.1,0
				c0.2,13.6-1.9,27-5.3,40.7c4.4,0,8.4-0.1,12.3,0c5,0.2,7.7,2.7,7.3,7.5c-2,23.6-8.9,45.1-29.9,58.8c-6.4,4.2-14.2,6.1-21.4,9
				c-1.3,0.5-2.9,0.7-4.7,1.1c0,7.8,0,15.6,0,23.6C261.1,203.5,250.2,203.5,238.7,203.5z M314.7,116.3c-1.6,0-3,0.2-4.3,0
				c-4.3-0.7-6.5,0.9-8.4,5.2c-6,13.7-14.5,25.7-27.8,33.5c-0.8,0.5-1.7,1.7-1.7,2.6c-0.2,2.9-0.1,5.9-0.1,8.8
				C293.6,165.9,315.5,139.8,314.7,116.3z M196.3,116.7c1.1,22.8,17.4,47.2,42.3,49.7c0-3,0.1-5.9-0.1-8.8c-0.1-0.9-0.9-2.2-1.7-2.6
				c-12-7.1-20.3-17.5-26-29.9C207.9,118.5,204.7,113.9,196.3,116.7z M208.3,73.2c0.6,4.6,1,9.1,1.7,13.6
				c2.2,14.1,6.7,27.3,15.9,38.5c5.1,6.2,11.3,10.9,20.8,11.7c-7.5-4.7-12.7-10.3-16.8-17c-7.8-12.8-11.4-26.9-13.2-41.6
				c-0.7-6-0.9-5.9-7.1-5.6C209.4,72.8,209.2,73,208.3,73.2z"/>
			<path class="st0" d="M198.8,228.6c7.6-6.7,14.3-12.6,21.2-18.4c1.1-0.9,3-1.2,4.5-1.2c20.7-0.1,41.4-0.1,62.2,0
				c1.4,0,3.1,0.2,4.1,1.1c7,5.8,13.9,11.9,21.7,18.6c-19.7,0-38.3,0-56.8,0C237.1,228.6,218.6,228.6,198.8,228.6z"/>
		</g>
	</g>
	<path d="M234.2,126.2c-9.7-15.8-15.3-32-17.5-50.2c-0.2-1.3-0.3-2.4-0.5-3.3c-3.2-0.2-6.3-0.1-9.4,0.6c0.5,4.4,2,8.6,2.7,12.9
		c2.7,17.4,8.3,29,19.7,42.8c6.3,7.6,10.8,8.6,22.4,9.7C242.5,132.9,239.3,134.4,234.2,126.2z"/>
</g>
</svg>
