<svg id="d05c660b-445b-49ba-963b-a384371314b7" data-name="Layer 1" xmlns="http://www.w3.org/2000/svg" viewBox="0 0 521.86 542.55"><title>rap_scorecard_</title><path d="M254.18,67.5c2.26.62,4.57,1.12,6.79,1.87C274,73.81,282.73,82.63,287.13,95.7c.36,1.06.66,2.14,1,3.21a5.87,5.87,0,0,0,.4.65h28.24c10.27,0,12.15,1.88,12.24,12.27,0,1.1.11,2.19.19,3.68,8.13,0,16.1-.09,24.06,0a39.48,39.48,0,0,1,37.55,27.58,44.56,44.56,0,0,1,2,13.23q.18,127.11.07,254.22c0,23.55-17.45,40.9-41.06,40.92q-102.93.07-205.85,0c-23.59,0-41-17.4-41-40.93q-.08-127.11,0-254.22c0-23.34,17.45-40.68,40.78-40.82,7.59-.05,15.19,0,23.14,0,0-2.49,0-4.58,0-6.67.13-6.27,3-9.21,9.21-9.25,9.13-.06,18.25,0,27.38,0h4.16c2.61-10.78,7.94-19.62,17.26-25.18,5.13-3.07,11.16-4.64,16.79-6.88ZM329,131.66c0,2.43,0,4.54,0,6.65-.2,15-10.34,25.16-25.31,25.18q-54.75,0-109.5,0c-15,0-25.13-10.18-25.31-25.18,0-2.19,0-4.38,0-6.87-7.7,0-14.81,0-21.91,0-16,.05-26.08,10.05-26.08,25.95q0,126.18,0,252.36c0,15.67,10.16,25.79,25.86,25.8q102.18,0,204.36,0a31.84,31.84,0,0,0,8.15-1C370.5,431.55,377,422.11,377,409q0-125.43,0-250.86c0-1.13,0-2.25-.06-3.37-.83-12.52-9.2-21.93-21.55-23C346.84,131.07,338.19,131.66,329,131.66ZM185,115.5v21.2c0,8.4,2.5,10.86,11,10.86H302.06a27,27,0,0,0,3.37-.11c4.51-.58,7.26-3.41,7.37-8,.12-5.12,0-10.24-.06-15.36,0-2.81,0-5.62,0-8.3a7.11,7.11,0,0,0-1.17-.29l-28.11,0c-7.63,0-10-2.2-10.59-9.82a24,24,0,0,0-47.88-.17c-.67,7.94-2.87,10-10.81,10Z"/><path d="M248.55,403.5H147.31c-7.73,0-10.31-2.59-10.31-10.38q0-44.24,0-88.48V206.43c0-8.6,2.28-10.87,10.89-10.87H350c8.6,0,10.88,2.28,10.88,10.87q0,24.93,0,49.86.08,45.54.17,91.09c0,15.37-.1,30.75-.18,46.12,0,7.29-2.71,10-9.94,10ZM344.8,211.74H217.16V243.3H344.8ZM217.05,291.27H344.66V259.76H217.05Zm127.59,48.1V307.79H217.21v31.58ZM217.18,355.62v31.65H344.66V355.62ZM200.67,243.38v-31.6H153.2v31.6ZM153,291.28h47.65V259.75H153Zm.12,16.36V339.3h47.55V307.64Zm47.66,48.11H153.18v31.53h47.64Z"/></svg>