<svg xmlns="http://www.w3.org/2000/svg" viewBox="0 0 24 24" stroke-width="1.5" stroke="currentColor" aria-hidden="true">
  <path d="M12.461.521c-.536.816-.63 1.66-.186 2.516.445.858 1.192 1.263 2.165 1.302-.515.915-.658 1.874-.398 2.88a3.753 3.753 0 001.208 1.932c1.127.974 2.921 1.329 4.566.325.295.702.784 1.209 1.516 1.445.727.234 1.417.119 2.065-.283.542 3.82-1.106 8.661-5.609 11.293a11.479 11.479 0 01-13.438-1.35A11.484 11.484 0 011.536 7.228C3.693 2.52 8.368.293 12.461.521zm-2.328 2.082c-.055.008-.093.011-.129.019-2.361.525-4.28 1.75-5.709 3.697-1.588 2.163-2.166 4.592-1.738 7.244.349 2.162 1.351 3.988 2.957 5.47 1.61 1.486 3.518 2.323 5.705 2.508a9.374 9.374 0 003.784-.446 9.443 9.443 0 004.163-2.745 9.444 9.444 0 002.361-5.309c.011-.095-.012-.121-.106-.136a4.237 4.237 0 01-2.148-.994.256.256 0 00-.257-.064 5.138 5.138 0 01-1.998.1c-2.042-.309-3.535-1.392-4.456-3.241-.468-.939-.628-1.945-.531-2.989.012-.13-.016-.193-.12-.266a4.249 4.249 0 01-1.326-1.508 4.338 4.338 0 01-.452-1.34zM19.196.501c.795.002 1.429.64 1.428 1.438a1.443 1.443 0 01-1.437 1.436 1.45 1.45 0 01-1.439-1.438A1.437 1.437 0 0119.196.501zM22.547 8.161a.965.965 0 01-.967-.955.96.96 0 011.92-.011.959.959 0 01-.953.966z"/>
  <path d="M16.795 6.235a.965.965 0 01.941-.95.966.966 0 01.972.965.968.968 0 01-.95.957.961.961 0 01-.963-.972zM9.126 11.034a1.918 1.918 0 01-1.916 1.921 1.923 1.923 0 01-1.917-1.922 1.924 1.924 0 011.926-1.914 1.918 1.918 0 011.907 1.915zM8.647 17.741a1.425 1.425 0 01-1.433-1.431c0-.802.644-1.447 1.441-1.443a1.456 1.456 0 011.434 1.444 1.439 1.439 0 01-1.442 1.43zM15.352 18.7c-.811-.004-1.437-.643-1.433-1.463.004-.774.662-1.416 1.445-1.408a1.444 1.444 0 011.43 1.443c0 .787-.652 1.432-1.442 1.428zM11.043 7.198a.962.962 0 01-.956.963.96.96 0 01-.961-.958.959.959 0 011.917-.005zM11.043 11.986a.967.967 0 01.942-.95.97.97 0 01.978.96c.006.507-.441.958-.952.959a.968.968 0 01-.968-.969z"/>
</svg>
