<svg xmlns="http://www.w3.org/2000/svg" data-name="Layer 1" viewBox="0 0 521.86 542.55" stroke-width="1.5" stroke="currentColor" aria-hidden="true">
  <circle cx="338.44" cy="202.61" r="8.07" transform="rotate(-13.28 338.517 202.657)"/>
  <path d="M376.88 219.46a5.36 5.36 0 10-5.36-5.36 5.35 5.35 0 005.36 5.36z"/>
  <circle cx="313.16" cy="292.97" r="12.02"/>
  <circle cx="246.06" cy="243.28" r="13.01" transform="rotate(-67.5 246.062 243.276)"/>
  <path d="M344.68 178.43a8.65 8.65 0 10-8.65-8.65 8.66 8.66 0 008.65 8.65zM285.22 343.16a91.32 91.32 0 0095.54-86.25 3.56 3.56 0 000-.57c.11-2.16.12-4.33.08-6.51s-.17-4.28-.36-6.38a4.33 4.33 0 00-6.59-3.62c-5.06 3.1-9.35 4-13 3s-7.14-4-10.27-8.66a4.33 4.33 0 00-4.95-1.79c-8 2.59-15.38 2.71-21.43.82a22.95 22.95 0 01-15.35-15.2c-2-6.26-2-14 .78-22.84a4.3 4.3 0 00-2.6-5.32 13.22 13.22 0 01-8.1-8.26c-1.47-4.19-1.35-9.48.4-15.18a4.08 4.08 0 00.35-1.68 4.32 4.32 0 00-4.33-4.32 92.93 92.93 0 00-66.3 23.6 90.91 90.91 0 00-30.65 63 3.48 3.48 0 000 .57 91.34 91.34 0 0086.25 95.53 3.55 3.55 0 00.53.06zm-57-35.76A82.54 82.54 0 01207 247.77v-.27a82.34 82.34 0 0127.8-57.05 84.55 84.55 0 0155-21.58 30.87 30.87 0 00.91 15.49 21.56 21.56 0 009.61 11.8c-2.26 9.16-2 17.45.27 24.43a32.29 32.29 0 008 13.1 31.79 31.79 0 0013 7.75c6.89 2.14 14.94 2.3 23.6 0 3.89 5 8.32 8.34 13.39 9.7a21.7 21.7 0 0013.58-.91c.05 1.9 0 3.84-.09 5.85v.27a82.67 82.67 0 01-86.72 78.13h-.27a82.38 82.38 0 01-56.82-27.08z"/>
  <circle cx="254.52" cy="286.89" r="9.15" transform="rotate(-67.5 254.523 286.89)"/>
  <circle cx="287.03" cy="254.36" r="7.5" transform="rotate(-45 287.029 254.359)"/>
  <circle cx="274.22" cy="214.94" r="7.17"/>
  <path d="M479.23 407c-.17-4-2.88-5.85-7.7-5.87-10.6-.06-21.2 0-31.8 0h-4.82c0-3.24.09-6 0-8.74-1.22-30.22-1.74-60.49-3.93-90.64-1.89-26.09-4.92-52.16-8.8-78-4.68-31.24-11.43-62.17-16.1-93.41-4.81-32.12-32.33-50.34-59.5-49.85-50.19 1-100.41.3-150.62.28-29.84 0-59.7.47-89.53-.28C78 79.78 59.57 103.43 62 127.66c1.22 12.22 5 24.21 8 36.22.43 1.75 2.88 4.24 4.43 4.27q25.07.49 50.14.13c3.31 0 5.09-3 4.77-6.29s-2.39-5.26-5.85-5.43c-1.11-.06-2.23 0-3.34 0-12 0-24-.09-36 .06-2.75 0-4-.86-4.58-3.48-1.52-6.65-3.34-13.23-4.88-19.87-3.19-13.68 1.83-27.89 12.39-35.34 12-8.47 26.67-5.8 34.51 6.59a54 54 0 015.79 12.45c2.43 7.68 4.31 15.54 6.26 23.37a729.84 729.84 0 0117.81 98.14c2.29 21.33 4.28 42.77 4.68 64.19.56 30.23-.48 60.49-.81 90.74-.14 12-1.48 24.07 0 35.84 3.07 24.95 23.27 42.63 47.06 42.64q113.4.06 226.78 0c19.05 0 33.23-8.88 43-25.1 7.33-12.39 7.66-26.03 7.07-39.79zm-278.62 52.5c-12.59-.41-21.89-6.7-28.19-17.42a46.58 46.58 0 01-6.16-27.3c2.74-40.78 3.74-81.6 1.82-122.46a803.39 803.39 0 00-23.74-159.21c-2.22-8.75-4.75-17.45-7.78-25.94-1.71-4.78-4.72-9.1-7.56-14.38h221.5c20.52 0 38.66 14.42 42.29 34.67 7.21 40.14 14.72 80.26 20.49 120.61a958.55 958.55 0 019.52 146.74c-.07 6.31-.07 6.32-6.33 6.32h-164c-14.46 0-14.19 0-14.59 14.3-.18 6.46-.72 13.2-2.74 19.26-5.14 15.45-19.25 25.31-34.53 24.83zm235.56-.4a47.09 47.09 0 01-8.74.53H237.98c-1.33 0-2.66-.13-4.91-.26 13.14-12.91 18-28.23 17.13-45.81h216.62c2.81 21.92-10.6 41.7-30.65 45.56z"/>
</svg>
