<svg xmlns="http://www.w3.org/2000/svg" id="Layer_1" x="0" y="0" version="1.1" viewBox="0 0 522 542.7" xml:space="preserve" stroke-width="1.5" stroke="currentColor" aria-hidden="true">
  <style>
    .st0{fill:none;stroke:#000;stroke-width:7.1964;stroke-miterlimit:10}
  </style>
  <g id="phIbY7_1_">
    <path d="M106.5 387.8h64.9c33 0 65.9.4 98.9-.2 9.7-.2 15.4 1.9 16.2 12.2.2 2 1.1 4 1.9 6.9H86.7V135.5h46.2c0 7.4-.1 14.6 0 21.7.2 16.4 10.1 27.1 24.8 27 14.2-.2 24-10.9 24.3-26.7.1-7.1 0-14.2 0-21.8h122.6v21.1c.1 16.6 9.6 27.4 24.3 27.4 14.8 0 24.3-10.5 24.5-27.2.1-6.8 0-13.7 0-21.2h46.1v135.3c-6.1-.5-12-1-18.8-1.5v-53.3H106.5v171.5z" class="st0"/>
    <path d="M381.5 450.3c-44.6-.2-80.6-36.4-80.3-80.8.3-44.8 36.1-80.2 80.9-80.1 44.6.1 80.6 36.3 80.4 80.7-.3 44.6-36.4 80.4-81 80.2zM314.2 135c0-7.5-.2-15 0-22.5.3-9.6 6.3-15.8 14.8-15.9 8.5-.1 14.7 6.1 14.9 15.7.3 15.6.3 31.2 0 46.8-.2 9.1-6.3 15.2-14.3 15.5-8.4.3-14.9-6-15.4-15.3-.3-8.1 0-16.2 0-24.3zM172 136c0 7.8.2 15.6 0 23.4-.3 9.1-6.1 15.1-14.3 15.2-8.2.2-14.7-5.8-14.9-14.7-.3-16.2-.3-32.4 0-48.5.2-9.2 6.3-14.8 14.8-14.7 8.4.1 14.1 5.8 14.4 15 .2 8.1 0 16.2 0 24.3zM194.4 237.7h35.1V273h-35.1v-35.3zM229.6 296.7v35.1h-35.3v-35.1h35.3zM167.2 273.1h-35V238h35v35.1zM291.9 273.1h-35V238h35v35.1zM319.6 237.7h34.9V273h-34.9v-35.3zM132 331.9V297h35.1v34.9H132zM256.7 332.5v-35.6h35.6c0 9.2.4 18.1-.1 26.9-.3 5.4-2.9 9.3-9.7 8.8-8.3-.6-16.6-.1-25.8-.1z" class="st0"/>
  </g>
  <path d="M391.4 360.1c0-12.3-.1-23.3 0-34.4.1-6.3-2.4-10.7-9-11.1-7.2-.4-10.2 4.3-10.3 10.8-.2 14.1-.1 28.1-.1 42.2 0 8 4 12.1 12.2 12 13.2-.1 26.3-.1 39.5 0 7.2.1 13-1.8 12.8-10.1-.2-7.7-5.8-9.5-12.5-9.4-10.5.1-20.9 0-32.6 0z"/>
</svg>
