<svg xmlns="http://www.w3.org/2000/svg" data-name="Layer 1" viewBox="0 0 521.86 542.55" stroke-width="1.5" stroke="currentColor" aria-hidden="true">
  <path d="M307.94 233.63c39.21-5.42 73.09 4.78 100.81 32.62 22.21 22.3 32.93 49.7 32.79 81.16-.27 61.77-51.69 112.91-113.38 112.65-35.23-.16-64.78-13.57-87.55-40.45s-30.62-58-25.44-93c-43.55 5.78-80.31-6.79-108.69-40.44-19.06-22.6-27.52-49.28-26-78.85A114.27 114.27 0 01199.26 99c34.41 1.35 63 15.66 84.71 42.47s29.14 57.68 23.97 92.16zm13.44 34.91a70.18 70.18 0 00-27.17 7.33c3.9 8.11 4 10.82.53 12.86-1.12.64-2.87 1.28-3.85.85-2.22-1-4.14-2.67-6.19-4.07l1.24.55-18.6 18.34c-.53-.42-.15-.14.23.13 3.74 2.64 4.67 5.76 2.62 8.85s-5.09 3.41-8.91 1.36c-1.27-.69-2.54-1.35-4-2.11a72.24 72.24 0 00-7.23 27.37c4.77.39 11-1.14 11.31 5.72.32 7.72-6.5 6.1-11.38 6.53a72.11 72.11 0 007.38 27.33c4.32-1.93 8.85-6.59 12.65-.7 4.27 6.64-2.68 8.44-6.58 11.49a78.75 78.75 0 0019.84 19.84c5.85-7.81 7.84-9.13 11.2-6.88 6.28 4.22 1.49 8.68-.29 13.13a73 73 0 0027.34 7.23c.28-4.89-1.2-11.27 6-11.35 7.46-.07 5.79 6.58 6.23 11.38a72.47 72.47 0 0027.25-7.37c-2-4.38-6.68-9.07-.46-12.83 6.51-3.94 8.18 2.92 11.27 6.72a78.5 78.5 0 0019.87-19.91c-3.82-3-10.44-4.6-6.86-11 3.71-6.63 8.55-1.69 13 .17a72.63 72.63 0 007.27-27.19c-4.73-.6-11.24 1.14-11.36-6.06-.12-7.51 6.55-5.79 12.31-6.46l-7.38-27.5c-5.33 2.3-10.17 7.15-13.87.54-3.57-6.38 3.09-8 6.83-11A76.5 76.5 0 00371.8 282c-5.13 7.66-7.41 9.13-11 7-1.19-.71-2.82-2.25-2.73-3.26a80.83 80.83 0 012.12-10c-6.05-3.76-20.35-7.44-26.45-6.6-.67 8.53-2 11.18-6 11-7.49-.52-5.8-6.71-6.36-11.6zM93.59 213.81C93.51 270.06 139 316 195 316.11a102.18 102.18 0 00102.58-101.92c.14-56.06-45.6-102-101.62-102.08-56.47-.11-102.29 45.45-102.37 101.7zm148.17 104.65c-3.89 1.43-7.48 2.54-10.86 4.1a6 6 0 00-3.05 3.46 94.26 94.26 0 00-1.69 30.53c6 60.74 65.38 103.48 124.54 88.76 40.38-10 66.67-35.92 76-76.46 9.25-40.1-2.9-74.6-34.27-101.21-24.47-20.75-53.28-27.43-84.89-21.39-1.1.21-2.67.78-3 1.6-1.7 4-3.06 8.22-4.63 12.61 46.1-14.13 87.62 8.7 105.91 41.12 19.57 34.68 14.26 78.23-13.28 106.8-28.09 29.13-71.15 36-107.15 17.23-32.51-16.93-58.08-58.67-43.63-107.15zM147.81 388.11c2.86 21.45 13.08 37.4 31.44 48 4.21 2.42 8.66 4.42 13 6.69a5.61 5.61 0 013.19 6.55c-.68 3-2.79 4.55-5.92 4.79A72.69 72.69 0 01113.36 398c-.72-3.15-1.13-6.36-1.74-9.88-5.54 0-11-.06-16.47 0-3.12.05-5.73-.65-7.05-3.78s.18-5.47 2.36-7.63q16.86-16.79 33.66-33.62c4.06-4.04 6.88-4.09 10.88-.09q16.86 16.8 33.67 33.64c2.15 2.15 3.76 4.42 2.46 7.61s-4.14 3.93-7.37 3.87c-5.12-.12-10.22-.01-15.95-.01zm10.95 48.71c-.16-.83-.15-1-.22-1.07-.86-.9-1.76-1.77-2.61-2.68a72.79 72.79 0 01-20.31-49.78c-.1-4.89 2.15-7.09 7-7.17h7.26l-20.33-20.42-20.49 20.42c2.67 0 5.36-.08 8 0 4 .13 6.16 2.26 6.47 6.25.23 2.86.28 5.76.75 8.58 3.54 20.99 15.1 35.98 34.48 45.87zM411.58 172.11h16.84c3 0 5.42.85 6.66 3.79s0 5.29-2.12 7.37q-17.1 17.08-34.19 34.17c-3.7 3.68-6.65 3.68-10.33 0q-17.15-17-34.21-34.15c-2.08-2.08-3.41-4.36-2.16-7.36s3.88-3.89 7-3.83c5.23.08 10.45 0 16 0a58.75 58.75 0 00-10.79-29.65A62.39 62.39 0 00339.94 122c-3-1.49-6.05-3-9-4.54a5.57 5.57 0 01-3.15-6.56c.69-3 2.8-4.53 5.93-4.75A72.41 72.41 0 01411 169.27c.08.85.33 1.73.58 2.84zm-46.71-48.45l-.82 1a32.88 32.88 0 013.46 2.84 72.63 72.63 0 0120 49.47c.11 4.86-2.18 7.08-7 7.16h-7.21L393.16 204l19.91-19.91h-6.22c-5-.07-7-2.09-7.32-7a80.89 80.89 0 00-1.45-11.86c-4.41-19.16-15.74-32.86-33.21-41.57z"/>
  <path d="M158.76 436.82c-19.38-9.89-30.94-24.88-34.43-45.86-.47-2.82-.52-5.72-.75-8.58-.31-4-2.44-6.12-6.47-6.25-2.69-.09-5.38 0-8 0l20.49-20.42 20.36 20.41h-7.26c-4.88.08-7.13 2.28-7 7.17a72.79 72.79 0 0020.31 49.78c.85.91 1.75 1.78 2.61 2.68-.01.08-.02.25.14 1.07zM364.87 123.66c17.47 8.71 28.8 22.41 33.21 41.61a80.89 80.89 0 011.45 11.86c.37 4.88 2.34 6.9 7.32 7h6.22L393.16 204l-19.86-19.89h7.21c4.86-.08 7.15-2.3 7-7.16a72.63 72.63 0 00-20-49.47 32.88 32.88 0 00-3.46-2.84zM333.59 312.85c0 4.63-.14 9.26.09 13.87a4.69 4.69 0 002 3.31c9.91 5.72 12.65 16 6.93 26a4.64 4.64 0 000 3.86c3.34 6.14 6.93 12.13 10.4 18.2 2.4 4.22 1.89 7.54-1.38 9.47s-6.59.66-9-3.38c-3.46-5.92-6.95-11.84-10.27-17.84a3.89 3.89 0 00-4.09-2.31c-8.88.17-15.89-5.12-18-13.36s1.41-16 9.17-20.58a5 5 0 002.09-3.63c.18-9 .07-18 .11-27 0-4.65 2.37-7.42 6.12-7.33s5.82 2.76 5.86 7.22-.03 9.01-.03 13.5zm0 33.4a6 6 0 10-6 5.83 6 6 0 005.97-5.83zM195.77 124.11a90.14 90.14 0 0189.81 90.77c-.25 49.41-40.94 89.49-90.58 89.23s-89.64-40.83-89.41-90.76c.22-49.23 40.86-89.44 90.18-89.24zM118 208c4.87.39 11.28-1.14 11.33 6 0 7.42-6.6 5.77-11.36 6.17a72.46 72.46 0 007.25 27.25c8.59-3.77 11.26-3.94 13-.39 3.4 6.79-3 8.26-6.85 11.29a78.5 78.5 0 0019.93 19.89c3-3.87 4.62-10.45 11-6.86 6.59 3.71 1.65 8.56-.2 13a73.22 73.22 0 0027.21 7.24c.58-4.73-1.16-11.24 6-11.35 7.51-.12 5.8 6.54 6.47 12.3l27.6-7.41c-2.5-5.29-7.23-10.14-.65-13.83 6.37-3.58 8 3.06 11 6.89a77.89 77.89 0 0019.87-20c-7.66-5.18-9-7.31-7-11s4.41-3.68 13.26.09a71 71 0 007.15-27.07c-9-.8-11.29-2-11.47-6s1.9-5.31 11.54-6.66a71.48 71.48 0 00-7.31-27c-8.13 3.89-10.63 4.18-12.63.88-4.27-7.07 2.77-8.62 6.46-11.8A77.47 77.47 0 00239.83 150c-5.36 7.69-7.45 9.14-10.89 7-6.7-4.12-1.66-8.77 0-13.25a71.68 71.68 0 00-27.23-7.18c-.37 4.84 1.08 11-5.78 11.31-7.76.31-5.92-6.62-6.57-11.36a71.54 71.54 0 00-27.23 7.34c2 4.37 6.56 8.91.65 12.69-6.65 4.25-8.37-2.84-11.5-6.57a78.54 78.54 0 00-19.87 19.92c3.92 2.92 10.25 4.51 7 10.74-3.64 7-8.65 1.84-13.17.06A72.26 72.26 0 00118 208z"/>
  <path d="M333.56 346.25a6 6 0 11-5.74-6.11 6 6 0 015.74 6.11zM201.59 181c0 2.25.11 4.5 0 6.75-.32 5.38-.69 10.64 5.81 13.08a5.13 5.13 0 012.71 3c1.46 4.7 5 4.59 8.86 4.48 5.62-.17 11.25-.07 16.87 0 4.93 0 7.82 2.36 7.75 6.16s-2.77 5.81-7.59 5.83c-6.87 0-13.74.07-20.61 0a3.89 3.89 0 00-4.06 2.37c-3.9 7.11-11.48 10.74-18.82 9.31a18.18 18.18 0 01-14.72-15.08 17.76 17.76 0 019.47-18.4 3.81 3.81 0 002.4-4c-.1-9-.07-18 0-27 0-4.47 2.22-7.15 5.83-7.24s6.11 2.68 6.15 7.32c-.03 4.42-.05 8.87-.05 13.42zm-6.12 39.13a6 6 0 10-5.86-6 6.06 6.06 0 005.86 5.95z"/>
  <path d="M195.47 220.08a6 6 0 116.09-5.78 6 6 0 01-6.09 5.78z"/>
</svg>
