<svg xmlns="http://www.w3.org/2000/svg" id="Layer_1" x="0" y="0" version="1.1" viewBox="0 0 522 542.7" xml:space="preserve" stroke-width="1.5" stroke="currentColor" aria-hidden="true">
  <style>
    .st0{fill:none;stroke:#000;stroke-width:7.1964;stroke-miterlimit:10}
  </style>
  <path d="M204.5 506.6c-.8-.1-4.1.2-6.9-1-7.8-3.2-13.6-3.5-18.3 5.4-1.2 2.3-9.1 3.7-12.1 2.1-20.8-11.2-41.2-23.1-61.6-35.2-7-4.2-7.1-10.7-2.9-17 3-4.5 2.2-7.3-1.2-11.3-16.5-19-18.4-39.3-6-60.9 9.1-15.9 18.4-31.8 27.5-47.7 4.9-8.6 11.6-14.7 21.7-15.9 9.5-1.2 15.7-6.1 19.7-14.9 3.2-7 8.2-13.3 11.4-20.4 1.6-3.7.7-8.5 1.4-12.6.5-2.9 1.1-6.6 3-8.4 3.8-3.6 8.2-6.8 12.9-9.2 17.9-9.1 23.8-25 25.6-43.5.3-2.7 1.1-5.6 2.5-7.9 3.7-6 29.6-12.3 35.9-8.7 25.1 14.3 50.2 28.7 75.2 43.4 7.8 4.6 8.8 9.5 3.9 18.2-10 17.6-20.5 34.9-30.1 52.7-2.1 3.8-2.8 9.6-1.6 13.7 4.8 17.1 3.4 33.1-5.6 48.6-22.1 37.9-43.9 76-65.8 114-6 10.2-13.9 17-28.6 16.5zm8.4-216.1c-.3-1.7-3-3.1-3.2-3-2.2 1.5-4.7 3.1-6 5.2-21.4 36.8-42.7 73.7-63.8 110.7-1.3 2.2-3.3 6.8-.9 8.2 2.6 1.5 5.8-2.9 7.2-5.3 21.4-36.5 42.5-73.1 63.6-109.8 1.1-1.7 3.6-3.5 3.1-6zm80.3-42.6c1.4-2.6-1.6-4.2-2.5-4.7-11.5-6.6-23.1-13.2-34.8-19.5-1-.5-4 0-4.7 1.5-.7 1.6.9 3.9 2 4.6 10.9 6.5 21.9 12.7 33.1 18.7 1.5.8 5.5 2 6.9-.6z" class="st0"/>
  <path d="M312.3 27c15.9.1 25.6 9.6 33 22.3 7.4 12.7 9 25.7 1.1 38.9-16.4 27.4-32.9 54.9-49.2 82.4-3.7 6.1-6.8 12.6-10.9 18.5-1.9 2.7-6.5 6.5-8.1 5.8-6.2-2.8-1.1-6.8.6-9.7 15.1-26.5 30.2-53 45.8-79.1 4.1-6.9 3.7-10.8-1.5-17.6-9.7-12.7-18.3-26.6-25.1-41-7.1-15.1-2.4-20.5 14.3-20.5z"/>
  <path d="M328.7 303c8.9 14.7 17.1 28.1 25.2 41.6 30.7 51.3 61.4 102.5 92.1 153.8.6 1.1 1.2 2.2 1.9 3.2 2.9 4.6 4.9 9.6-1 12.9-5.8 3.3-9-1.2-11.7-5.8-37.1-62-74.1-124-111.4-185.7-5.3-8.6.9-12.7 4.9-20z" class="st0"/>
  <path d="M296.1 204.4c-7.3-1.4-7.7-4.3-4.7-9.4 14.7-24.9 29-50.1 43.8-75 1.8-3.1 5.8-6.7 9-7 12.9-.9 26-1.1 38.9-.6 7 .3 13.6 4.8 13.4 12-.2 7-3.5 14.1-6.5 20.6-.6 1.4-6.3 1.4-9.2.5-10.4-3.1-20.8-6.4-30.9-10.6-8.2-3.5-13-1.8-17.3 6.1-11.7 21.3-24.2 42.1-36.5 63.4zM269.8 189.3c-6.7-1.4-7.9-4-4.7-9.3 6.5-10.6 12.4-21.6 18.7-32.3 3.1-5.1 2.6-9-2.2-12.9-9.1-7.5-17.8-15.6-27-23-5.8-4.7-6.2-9.2-1.8-15.1 11-14.6 21.9-14.8 32.9-.1.9 1.2 1.7 2.6 2.7 3.8 12.7 17.5 17.6 34.6 2 53.8-8.4 10.6-13.8 23.5-20.6 35.1z"/>
  <path d="M360.4 152.9c7.3 1.1 15.3.9 21.8 3.8 4.5 2 9.7 8.4 9.7 12.8-.1 6.5-4.1 13.2-7.5 19.2-.7 1.3-6.4.4-9.5-.5-11-3.5-21.9-7.2-32.6-11.4-5.9-2.3-9.5-.8-12.4 4.3-4.9 8.7-9.7 17.4-15.1 25.8-1.6 2.4-5.2 3.4-7.8 5.1.2-3.2-.6-7 .8-9.5 6.3-11.8 13.9-22.9 19.8-35 4.6-9.5 11.6-13.1 21.5-13.2 3.7 0 7.5-.4 11.2-.5 0-.4 0-.6.1-.9z"/>
  <path d="M314.4 377.7c10.6 27.8 20.2 53.3 29.9 78.8 5.8 15.4 11.9 30.7 17.1 46.3 1.1 3.4-.1 10.1-2.6 11.6-5.6 3.4-8.8-1.3-10.7-6.5-13.5-36.1-26.9-72.2-40.8-108.1-3.5-8.9 2.8-13.5 7.1-22.1z" class="st0"/>
  <path d="M340 230.5c-12.2-4.5-.5-10.3-2.8-16.5-1.3-.5-4.1-.9-6.1-2.5-2.7-2.1-6.6-5-6.6-7.6 0-2.8 3.3-6.7 6.1-8.2 11.7-6 53.9 8.8 59.6 20.8 1.2 2.4 1.5 6.7.2 8.5-1.3 1.8-5.6 2.6-8.2 2-7.8-1.8-15.7-3.9-23.2-6.9-7.8-3.1-13-2-16 6.2-.5 1.3-1.7 2.4-3 4.2z"/>
</svg>
