<svg xmlns="http://www.w3.org/2000/svg" viewBox="0 0 24 24" stroke-width="1.5" stroke="currentColor" aria-hidden="true">
  <path d="M11.995.5A11.51 11.51 0 0123.5 11.997c.003 6.257-5.041 11.499-11.494 11.503C5.557 23.504.493 18.267.5 11.988A11.509 11.509 0 0111.995.5zm.631 8.567c-.043.083-.029.164-.029.243l-.001 4.872c0 .047-.004.094.002.14.005.037.02.073.034.118.093.003.179.008.264.008h4.173c.053 0 .107.003.16-.002.045-.004.088-.016.14-.026.162-.605.249-1.217.3-1.832a11.46 11.46 0 00-.153-3.021c-.031-.168-.044-.342-.128-.506-.053-.005-.105-.013-.158-.015-1.057-.025-4.391-.011-4.604.021zm-1.264 5.372c.058-.098.04-.18.04-.259l.001-4.013c0-.299.001-.599-.001-.898 0-.065.015-.134-.031-.196-.064-.04-.139-.026-.211-.026l-4.192-.001c-.04 0-.08 0-.12.003-.084.006-.106.024-.127.1a11.912 11.912 0 00-.276 2.273c-.014.473.019.944.064 1.414.044.464.122.922.219 1.378.049.233.052.233.285.233h4.153c.064.001.13-.005.196-.008zM2.14 9.07c-.282.837-.494 2.073-.416 3.613.028.559.185 1.528.3 1.754.071.003.149.01.228.01l2.035.001c.339 0 .678.001 1.018-.001.071 0 .147.016.22-.037 0-.021.004-.047-.001-.072-.04-.228-.086-.456-.124-.685a10.463 10.463 0 01-.139-1.368 19.336 19.336 0 01-.004-1.077 11.122 11.122 0 01.231-2.038c.006-.03-.002-.063-.004-.103-.052-.007-.097-.018-.142-.02-.718-.026-3.013-.01-3.202.023zm16.519.001c.024.266.091.51.12.76.03.257.062.515.083.773a12.746 12.746 0 01.036 1.535 11.238 11.238 0 01-.151 1.527c-.038.248-.083.495-.125.741.084.055.166.041.244.041h2.894c.053 0 .106-.002.16-.005.053-.002.086-.032.102-.08.008-.025.012-.052.019-.077.12-.506.198-1.019.228-1.537a10.76 10.76 0 00-.066-2.13c-.066-.468-.156-.93-.283-1.385-.016-.056-.038-.111-.058-.166-.035-.007-.06-.017-.086-.017h-3.014c-.025-.001-.05.009-.103.02zM5.854 15.653h-.968l-2.315.001c-.057 0-.118-.018-.169.023-.014.083.032.145.059.211 1.028 2.545 3.105 4.619 5.664 5.658.525.213 1.064.378 1.616.504.059.013.12.037.191.022-.3-.322-.598-.626-.877-.946-.28-.32-.552-.649-.809-.988a15.68 15.68 0 01-.72-1.03c-.23-.358-.448-.724-.648-1.099s-.382-.76-.551-1.15c-.169-.388-.311-.789-.473-1.206zm12.431.019c-.02.049-.045.102-.064.158-.512 1.527-1.275 2.922-2.236 4.211-.478.641-1 1.244-1.562 1.814-.045.046-.087.095-.135.148.066.036.116.017.165.003.243-.068.489-.129.728-.208 2.287-.756 4.09-2.15 5.429-4.147a9.683 9.683 0 00.958-1.836c.019-.047.053-.094.018-.147-.212-.023-3.129-.019-3.301.004zm-5.651-.005c-.056.081-.036.163-.036.241l-.001 5.749c0 .04-.001.08.001.12.001.031-.007.068.045.086.046-.038.099-.078.148-.122a15.634 15.634 0 003.315-4.089c.321-.576.6-1.172.829-1.79.023-.061.059-.119.043-.188-.19-.031-2.959-.043-4.213-.019-.046 0-.091.008-.131.012zm-.037-13.608V7.57c0 .053-.002.107.002.16.003.031.017.062.026.089.182.029 3.572.043 4.297.019.031-.001.063-.009.094-.014-.07-.542-.984-2.216-1.748-3.209-.712-.925-2.212-2.368-2.671-2.556zm-1.221 19.664c.046-.066.026-.142.026-.211l.001-5.609c0-.047.003-.093-.002-.14-.003-.032-.017-.062-.025-.09-.085-.033-.165-.02-.244-.02l-3.713-.001c-.053 0-.107-.002-.16.002-.03.002-.06.013-.089.02.144.673 1.032 2.358 1.808 3.438.658.918 1.993 2.372 2.398 2.611zM11.364 7.83c.015-.028.032-.045.032-.063l.006-5.508c0-.024-.009-.049-.013-.072-.08-.011-.116.046-.161.081C9.9 3.311 8.794 4.548 7.949 6.013c-.3.519-.558 1.058-.769 1.62-.022.059-.065.117-.041.186.146.023 2.278.032 4.052.019.06 0 .118-.005.173-.008zM9.65 2.023c-.023-.06-.07-.033-.098-.025-.288.081-.579.154-.862.252-2.208.76-3.956 2.123-5.267 4.051a9.636 9.636 0 00-.77 1.374c-.021.044-.065.09-.026.147.175.024 3.027.023 3.211-.005.238-.73.542-1.444.914-2.128.376-.691.811-1.344 1.301-1.96A14.798 14.798 0 019.65 2.023zm11.738 5.794c-.142-.533-.967-1.836-1.666-2.625a10.245 10.245 0 00-3.78-2.707c-.607-.252-1.228-.444-1.401-.432.129.125.254.243.377.364 1.514 1.497 2.663 3.227 3.347 5.253.019.055.046.108.066.154.258.025 2.898.019 3.057-.007z"/>
</svg>
