<svg xmlns="http://www.w3.org/2000/svg" data-name="Layer 1" viewBox="0 0 521.86 542.55" stroke-width="1.5" stroke="currentColor" aria-hidden="true">
  <path d="M491.76 358.71v16.8c-.23 1.14-.54 2.28-.67 3.44A110.25 110.25 0 01470 433c-35.76 48.7-102.94 58.48-150.93 21.85a11.81 11.81 0 00-7.63-2.58q-89.38.11-178.75-.06a59.34 59.34 0 01-18-2.64c-20.12-6.61-32.47-24.8-32.48-46.87V142.37c0-9.19-.18-18.4.06-27.59.43-15.77 7.12-28.41 19.67-38 6.74-5.14 14.58-7.5 22.67-9.28H387c4.6 2.47 8.36 5.55 8.77 11.31.52 7.18-2 11.19-9.58 14.79-11.15 5.3-16.58 16.38-13.5 28 2 7.53 6.65 13.08 13.92 15.92 6.71 2.61 9.32 7.46 9.19 14.27V260.05l5.05 1c41.38 7.75 69.71 31.32 84.5 70.65 3.2 8.57 4.32 17.97 6.41 27.01zM371.58 163.8H154.35v264.26H294c-14.27-22.33-20.11-46.29-17.48-72.59h-84.34c-9.37 0-13.95-4.63-14-14v-43.2c0-10.41 4.36-14.72 14.88-14.72q59 0 118 .06a14.65 14.65 0 008.78-2.8 178.58 178.58 0 0118.11-10.87c10.5-5.39 21.87-8.16 33.66-9.74zm96.17 203.65c-.07-46.18-37.82-83.92-84-83.93s-83.91 37.7-84 83.9c-.09 47.09 38 85.85 84.18 85.67s83.89-38.69 83.82-85.64zm-113.66-276h-221.2c-1.47 0-2.94 0-4.4.1a24 24 0 00-21.39 30.27c3.1 11.07 12.37 17.66 25.07 17.66h218.38c1 0 2-.1 3.48-.18-8.29-15.95-8.24-31.68.06-47.83zM129.9 428.12V164.54l-23.74-6.38v244a36 36 0 00.29 5.19c1.7 12 11.06 20.35 23.45 20.77zm72.56-120.51v23.76h79c4-8.05 7.89-15.83 11.85-23.76z"/>
  <path d="M262.78 211.51h-71.59c-9.46 0-15.51-8.26-12.09-16.42 2.12-5.07 6.18-7.52 11.65-7.54h145.18c6.82.35 11.9 5.6 11.8 12.15A11.91 11.91 0 01336 211.44c-6.66.2-13.33.06-20 .07zM263.36 235.51h71.6c9.22 0 15.13 8.17 11.92 16.25-1.83 4.63-5.4 7.14-10.33 7.65-1.32.13-2.67.06-4 .06H190.17c-6.87-.31-12-5.43-12-12a11.89 11.89 0 0112-11.94c11.6-.15 23.2-.05 34.8-.05zM371.76 385.5v-28.79c0-7.79 5-13.17 12-13.17s12 5.38 12 13.17q.06 29.21 0 58.39c0 7.79-5 13.18-12 13.18s-11.94-5.39-12-13.18c-.04-9.87 0-19.73 0-29.6zM395.73 319.62a12 12 0 11-11.85-12.08 12.09 12.09 0 0111.85 12.08z"/>
</svg>
