<svg xmlns="http://www.w3.org/2000/svg" id="Layer_1" x="0" y="0" version="1.1" viewBox="0 0 522 542.7" xml:space="preserve" stroke-width="1.5" stroke="currentColor" aria-hidden="true">
  <style>
    .st0{fill:none;stroke:#000;stroke-width:7.1964;stroke-miterlimit:10}
  </style>
  <path d="M320.9 448.8H220.4c-5.3 0-9.6 4.3-9.6 9.6v8.7h119.7v-8.7c0-5.3-4.3-9.6-9.6-9.6zM220.4 403.6H321v39.8H220.4zM320.9 378.9H220.4c-5.3 0-9.6 4.3-9.6 9.6s4.3 9.6 9.6 9.6H321c5.3 0 9.6-4.3 9.6-9.6-.1-5.3-4.4-9.6-9.7-9.6zM374.6 160.8h-26.1c.1-3.8.2-7.6.2-11.4h-156c0 3.8.1 7.6.2 11.4h-26.1v4.8c0 58.1 23.9 103.6 54.4 103.8 5.2 8.6 11.1 15.7 17.3 21.3l.1 2.7c.3 7.3 5.5 13.5 12.6 15.1h.6v31.6l-.6.1c-7.1 1.6-12.2 7.8-12.6 15.1l-.1 1.7c-5.7 3.3-9.6 9.4-9.6 16.5h83.6c0-7.1-3.9-13.2-9.6-16.5l-.1-1.7c-.3-7.3-5.5-13.5-12.6-15.1h-.6v-31.6h.3l.3-.1c7.1-1.6 12.2-7.8 12.6-15.1l.1-2.7c6.2-5.6 12.1-12.8 17.3-21.3 30.5-.1 54.4-45.7 54.4-103.8v-4.8zm-198.2 9.6h17c2.3 34.3 10.3 65.1 22 88.5-21-6.1-37.9-43.7-39-88.5zm120.3 182.2h-52.1c1.1-3.4 3.9-6.1 7.5-7h37.2c3.5.9 6.3 3.6 7.4 7zm-7.5-49.5H252c-3.6-.9-6.3-3.6-7.5-7h52.1c-1 3.4-3.8 6.1-7.4 7zm36.8-44.2c11.7-23.4 19.6-54.2 22-88.5h17c-1.2 44.8-18.1 82.4-39 88.5z" class="st0"/>
  <g>
    <path d="M270.7 75.6l9.6 19.5 21.6 3.2-15.6 15.2 3.6 21.5-19.2-10.2-19.3 10.2 3.6-21.5-15.6-15.2 21.6-3.2zM201.8 87.3l7.8 15.7 17.3 2.5-12.6 12.2 3 17.3-15.5-8.2-15.5 8.2 3-17.3-12.5-12.2 17.3-2.5zM339.5 87.3l7.7 15.7 17.3 2.5-12.5 12.2 3 17.3-15.5-8.2L324 135l3-17.3-12.6-12.2 17.4-2.5z"/>
  </g>
</svg>
