<svg xmlns="http://www.w3.org/2000/svg" viewBox="0 0 24 24" stroke-width="1.5" stroke="currentColor" aria-hidden="true">
  <path d="M11.675.5h.634c.042.006.084.017.126.018 1.125.038 2.22.244 3.28.618 1.848.653 3.489 1.646 4.787 3.126 2.42 2.76 3.409 5.966 2.834 9.611a11.08 11.08 0 01-2.492 5.456c-2.006 2.398-4.598 3.737-7.695 4.098a10.37 10.37 0 01-3.987-.296c-3.364-.929-5.889-2.907-7.463-6.05a10.993 10.993 0 01-1.126-3.857c-.024-.236-.044-.473-.067-.709v-1.056c.007-.042.015-.083.02-.125.063-.511.089-1.03.193-1.533.606-2.932 2.078-5.328 4.517-7.088C6.992 1.446 8.957.706 11.127.541L11.675.5zm.309 21.608c5.494.019 10.131-4.469 10.124-10.118C22.1 6.42 17.561 1.889 11.979 1.884 6.514 1.879 1.875 6.355 1.901 11.989c.027 5.707 4.563 10.085 10.083 10.119z"/>
  <path d="M12.712 8.566c0 1.068.001 2.135-.002 3.203 0 .081.024.138.08.195 1.134 1.139 2.266 2.28 3.399 3.419.192.193.298.413.233.687a.695.695 0 01-1.161.334c-.312-.301-.615-.612-.922-.919-.923-.924-1.845-1.849-2.772-2.769a.798.798 0 01-.254-.603c-.002-2.236-.013-4.472-.019-6.707-.001-.378.257-.688.597-.728a.724.724 0 01.8.537c.019.078.02.163.02.244l.001 3.107z"/>
</svg>
