<svg xmlns="http://www.w3.org/2000/svg" data-name="Layer 1" viewBox="0 0 521.86 542.55" stroke-width="1.5" stroke="currentColor" aria-hidden="true">
  <path d="M397.72 232.84c7.09 10.52 14.83 17.33 23.27 19.61s18.05.2 29.51-6.82a9.77 9.77 0 0113.5 3.22 9.94 9.94 0 011.45 5q.66 7.11.82 14.45c.1 4.95.07 9.87-.17 14.75a9 9 0 01-.1 1.29 207 207 0 01-216.5 195.43 7.75 7.75 0 01-1.29-.1A207 207 0 0152.77 263.23a7.74 7.74 0 01.11-1.29c3-56.78 29.54-107.21 69.43-142.76A210.67 210.67 0 01272.5 65.59a9.79 9.79 0 019.8 9.8 9.36 9.36 0 01-.78 3.8c-4 12.92-4.24 24.9-.92 34.39a30 30 0 0018.4 18.73 9.72 9.72 0 015.9 12c-6.21 20-6.34 37.58-1.77 51.76A52 52 0 00338 230.64c13.7 4.27 30.32 4 48.54-1.87a9.82 9.82 0 0111.22 4.07zM253.6 261.6a17 17 0 11-17 17 17 17 0 0117-17zm-73.67 70a20.72 20.72 0 11-20.72 20.72 20.73 20.73 0 0120.72-20.72zM224.57 173a16.25 16.25 0 11-16.25 16.25A16.23 16.23 0 01224.57 173zm232.61 2.21A12.14 12.14 0 11445 187.39a12.12 12.12 0 0112.14-12.14zm-87.1-32.19a18.28 18.28 0 11-18.28 18.28 18.26 18.26 0 0118.28-18.28zm14.14-75.71A19.61 19.61 0 11364.62 87a19.62 19.62 0 0119.6-19.61zm-71.43 271.53a27.24 27.24 0 11-27.24 27.23 27.23 27.23 0 0127.24-27.23zM160.77 224a29.48 29.48 0 11-29.48 29.48A29.47 29.47 0 01160.77 224zm255.13 47.37c-11.5-3.08-21.54-10.65-30.35-22-19.61 5.16-37.86 4.79-53.46-.07a72 72 0 01-29.54-17.56 73.19 73.19 0 01-18.05-29.68c-5.12-15.81-5.73-34.6-.61-55.36a48.74 48.74 0 01-21.77-26.7c-3.6-10.34-4.34-22.35-2.07-35.1a191.61 191.61 0 00-124.72 48.9c-36.19 32.26-60.2 77.91-63 129.26v.61a187.26 187.26 0 00177 196.49h.61a187.26 187.26 0 00196.49-177v-.61c.24-4.54.31-8.95.21-13.26-10.92 4.11-21.17 4.68-30.77 2.07zm30.6 11.19zM250 460.23z"/>
</svg>
