<svg xmlns="http://www.w3.org/2000/svg" data-name="Layer 1" viewBox="0 0 521.86 542.55" stroke-width="1.5" stroke="currentColor" aria-hidden="true">
  <path d="M318.47 463.27c-4.66-1.64-9.6-2.75-13.92-5-16-8.46-24.79-22-24.95-40.13-.33-38-.12-76-.1-114 0-25.52 18-45.3 43.54-46.7a349.34 349.34 0 0141.18.5c11.28.73 20.62 6.45 28.06 14.94a12.81 12.81 0 01-.91 17.91 12.56 12.56 0 01-17.89-.32c-5.15-5.33-11.15-7.5-18.46-7.3-9.74.26-19.5 0-29.24.07-11.74.05-20.2 8.19-20.23 19.95q-.17 57.17 0 114.34c0 11.17 7.63 19.3 18.82 19.73 11.47.43 23 .14 34.48.05 5.84-.05 10.45-2.82 14.41-7a12.21 12.21 0 0113.07-3.31c5.11 1.54 8.1 5.23 9 10.49a12.33 12.33 0 01-3.39 10.67 45.28 45.28 0 01-25.25 14.35c-.84.17-1.64.51-2.46.76zM155.45 169.41a90.13 90.13 0 1190.05 90.11 90 90 0 01-90.05-90.11zm154.07-.06a64.05 64.05 0 00-128.1.09 64.05 64.05 0 10128.1-.09zM166.6 452.73h-57.73c-19.36 0-32-12.53-32-31.8v-60c0-12.64 5.63-21.58 16.77-27.41a326 326 0 01108.2-34.3c7.91-1.07 15.89-1.64 23.85-2.28 8.64-.69 14.61 4 15.22 11.79s-5 13.56-13.45 14.38c-11.29 1.1-22.62 2-33.8 3.85a289.89 289.89 0 00-87.86 29.61 5 5 0 00-3 5v58.85c0 4.92 1.16 6 6.33 6h115.45a28.11 28.11 0 015.94.51 12.74 12.74 0 0110.28 14 12.5 12.5 0 01-12.75 11.71c-20.47.15-40.96.09-61.45.09z"/>
  <path d="M399.55 373.25h-61.81a12.46 12.46 0 01-12.12-7.85c-2.21-4.91-1.25-9.54 2.17-13.61 3.06-3.65 7.27-4.53 11.81-4.53h59.82l.78-1.16c-3.88-3.62-7.9-7.09-11.6-10.88-4.95-5.05-5.35-11.73-1.34-17 4.84-6.36 13.7-7 19.69-1.11 8.74 8.55 17.33 17.28 26 25.92 2.57 2.56 5.2 5.05 7.76 7.6 5.77 5.75 5.82 13.48.06 19.25q-16.56 16.58-33.18 33.12c-6 6-13.86 6.28-19.27.75s-5-13.08.9-19c3.58-3.59 7.24-7.1 10.86-10.65z"/>
</svg>
