<svg xmlns="http://www.w3.org/2000/svg" data-name="Layer 1" viewBox="0 0 521.86 542.55" stroke-width="1.5" stroke="currentColor" aria-hidden="true">
  <path d="M107.32 234.54c5.69-1.09 9.18-6 9.52-12.63a142.52 142.52 0 011.57-16.38c8.47-50.06 59.11-85.53 109.08-76.53 42 7.55 72.82 39.29 78.91 81.36.73 5.1.74 10.3 1.09 15.48h-24c-.38-4.72-.49-9.1-1.13-13.4-5.88-39.36-42.36-65.66-82.36-59.56-37.82 5.78-64.51 43.24-58.19 81.69 5 30.65 29.62 54.46 60.83 58.94 30 4.31 60.42-12.18 73.51-40.1 1.27-2.7 2.67-3.61 5.6-3.57 12.12.16 24.24.14 36.36 0 7.62-.06 13.06-4.57 12.88-11.68-.34-12.95 0-26.18-2.51-38.77-12.3-61-67.82-101.18-129.65-94.7-49.83 5.24-92.05 42.9-102.83 91.95-1.34 6.06-2.08 12.26-3.1 18.39v10.5a5.57 5.57 0 01.64.89c2.83 6.58 7.55 9.33 13.78 8.12zm144.13-8.69c-6.12 0-12.25-.08-18.37 0-7.9.15-13.41 5.25-13.34 12.18s5.68 12 13.5 12.09c5.13.07 10.25 0 15.37.08a7.27 7.27 0 011.36.43c-8.21 10.78-18.62 17.12-31.55 18.9a47.16 47.16 0 01-53.47-48c.58-23.85 20.61-44.59 43.93-45.5 25.79-1 47.16 16.82 49.8 41.51.88 8.31.88 8.3-7.23 8.31zM476.31 304.69c-1.25-6.17-6-9.27-13.5-9.27H303.12c-14.86 0-16 .82-20.63 15.14-2.42 7.44-4.89 14.88-7.33 22.29a5.77 5.77 0 01-1.07-.29c-.64-.38-1.27-.8-1.9-1.2-24.45-15.77-51.12-21.37-79.81-17.12-54.32 8-95.77 56.36-95.84 111.47 0 7.93 4.79 12.81 12.83 12.81h315.65c6.6 0 10.66-2.83 12.67-9q19.17-58.89 38.17-117.84a14.26 14.26 0 00.45-6.99zM266 361c-5.6 16.69-11 33.44-16.36 50.2-.75 2.32-1.63 3.39-4.33 3.39q-60.18-.15-120.37-.08c-1.1 0-2.19-.13-3.53-.21a85.72 85.72 0 019.13-29c25.41-49 89.34-63.6 133.32-30.45 2.3 1.73 3.14 3.15 2.14 6.15zm166.63 6.94c-4.75 14.6-9.53 29.18-14.21 43.8-.66 2.06-1.54 2.94-3.88 2.94q-69-.1-138-.06c-.74 0-1.47-.1-2.54-.18.4-1.5.69-2.81 1.1-4.07q14.21-43.8 28.43-87.59c.69-2.13 1.28-3.6 4.18-3.59q69 .17 138 .08c.74 0 1.49.1 2.7.18z"/>
  <path d="M360.75 332.8a34.17 34.17 0 1034.46 34.06 34.13 34.13 0 00-34.46-34.06z"/>
</svg>
