<svg xmlns="http://www.w3.org/2000/svg" data-name="Layer 1" viewBox="0 0 521.86 542.55" stroke-width="1.5" stroke="currentColor" aria-hidden="true">
  <path d="M440.36 360.64q-6.11-53-47.53-86.64a7.09 7.09 0 01-3-6.23q.14-73.87.06-147.74c0-24.37-16.36-40.75-40.64-40.75H97.65C73.33 79.28 57 95.62 57 120v148.85c0 24.63 16.18 40.77 40.89 40.78h99.74c1.3 0 2.61.11 4.27.19-.75 1.51-1.25 2.62-1.83 3.69A127.44 127.44 0 00216.1 457c2.21 2.54 5.42 4.19 8.17 6.26h6c3.21-2.49 6.7-4.69 9.58-7.51C251.89 444 263.76 432 275.67 420c6.39-6.41 6.81-12.24 1.41-19.63-8-10.9-10.31-23-7.76-36.66a107 107 0 0110.56 4.29c.88.45 1.28 2.63 1.23 4-.51 14.1 7 26.25 19.7 31.57a32.16 32.16 0 10-12.41-50c-1.81 2.27-3.27 2.88-5.85 1.62s-5.3-2.15-8.45-3.39c.92-1.52 1.65-2.9 2.55-4.16a44.77 44.77 0 0173.49 51.16c-.7 1-1.48 2-2.19 3-4 5.82-3.7 12.07 1.23 17q20.06 20.22 40.34 40.22c1.8 1.77 4.31 2.81 6.5 4.19h6c6.91-3 10.71-9.14 14.82-14.83a125.31 125.31 0 0023.55-62.16 15.9 15.9 0 01.63-2.51v-20.18a24.14 24.14 0 01-.66-2.89zm-146.09 12.7c5.05 2 10 3.89 15 5.78 4.69 1.76 8.19.56 9.67-3.25s-.39-6.85-5.23-8.75-9.72-3.78-15-5.83c6.49-7.41 16.39-8.84 24.39-3.86a19.13 19.13 0 01-14.83 34.79c-8.82-2.33-14.85-10.29-14-18.88zm-67.53-76l40.78 40.81a3223 3223 0 00-5.76 8.88l-26.55-10.2c-1-.4-2.08-.83-3.15-1.15-3.71-1.09-7 .47-8.23 3.81a6.25 6.25 0 003.63 8c4.58 2 9.28 3.65 13.93 5.45l15.83 6.1-1.53 8h-57.51a115.52 115.52 0 0128.56-69.66zm-.07 152.05c-12.94-9.44-29.4-48.71-28.25-69.16h57.36a59.09 59.09 0 0012.07 29.08zm79.81-133c-10.72 1.54-20.62 5.34-29 12l-40.84-41c19.86-17.4 43-27 69.83-28.65zm-93.56-22.3a6.59 6.59 0 01-5.6 2.78c-36.75-.09-73.5 0-110.24-.07-16.53 0-27.27-10.71-27.28-27.18V119.26c0-16.42 10.83-27.23 27.28-27.23h252.73c16.24 0 27.22 10.74 27.24 26.91q.12 70.11 0 140.23c0 1-.1 1.92-.13 2.42-10.67-4-20.76-9-31.45-11.52-52.98-12.34-97.31 2.49-132.55 44.05zm135.59 34.24a57.37 57.37 0 00-28.88-12V259.3c18.27-2.23 56.88 13.77 69.43 28.55zm50.29-30.73c14.06 10.57 30.13 49.09 28.7 69.42h-57.2a58.07 58.07 0 00-11.87-28.87zm.56 152.24l-40.66-41a58.6 58.6 0 0011.45-28.51h57.65a114.25 114.25 0 01-28.44 69.54z"/>
  <path d="M102.28 175.26q18.75.12 37.5 0c11-.07 19.06-7.59 19.52-18.6.37-8.86.36-17.75 0-26.61-.42-11.11-8.29-18.5-19.38-18.68-6.25-.11-12.5 0-18.75 0s-12.75-.09-19.13 0c-11.27.19-19.31 8.22-19.45 19.47-.11 8.24-.09 16.49 0 24.74.13 11.42 8.32 19.61 19.69 19.68zM351.24 214.79a103.08 103.08 0 00-.05-15.32A12.15 12.15 0 00339 188.12q-16.29-.26-32.57 0c-7.18.11-12.29 5.49-12.47 12.75-.1 4.24-.09 8.48 0 12.72.16 7.51 5.27 12.65 12.75 12.8 5.24.11 10.48 0 15.72 0h16.42c6.81-.28 11.9-4.79 12.39-11.6zM127.53 188.1q-16.09-.22-32.2 0a12.65 12.65 0 00-12.71 12.6c-.16 4.37-.15 8.74 0 13.1a12.56 12.56 0 0012.68 12.57c5.36.12 10.73 0 16.1 0s10.73.09 16.1 0a12.55 12.55 0 0012.7-12.53c.15-4.36.14-8.74 0-13.1a12.64 12.64 0 00-12.67-12.64zM198.34 188.13q-16.47-.3-32.94 0a12.55 12.55 0 00-12.35 12.54c-.12 4.24-.09 8.48 0 12.73.14 7.62 5.35 12.85 13 13 5.24.09 10.48 0 15.72 0s10.74.09 16.1 0c7.08-.16 12.33-5.08 12.73-12.14a127.79 127.79 0 000-13.84c-.36-6.91-5.49-12.16-12.26-12.29zM268.75 188.13q-16.47-.31-32.94 0a12.5 12.5 0 00-12.32 12.54c-.1 4.24-.08 8.49 0 12.73.12 7.68 5.26 12.85 13 13 5.24.09 10.48 0 15.72 0s10.48.07 15.72 0c7.54-.12 12.74-5 13.13-12.52a118.69 118.69 0 000-13.47c-.51-7.01-5.53-12.15-12.31-12.28z"/>
</svg>
