<svg xmlns="http://www.w3.org/2000/svg" data-name="Layer 1" viewBox="0 0 521.86 542.55" stroke-width="1.5" stroke="currentColor" aria-hidden="true">
  <path d="M254.18 67.5c2.26.62 4.57 1.12 6.79 1.87 13.03 4.44 21.76 13.26 26.16 26.33.36 1.06.66 2.14 1 3.21a5.87 5.87 0 00.4.65h28.24c10.27 0 12.15 1.88 12.24 12.27 0 1.1.11 2.19.19 3.68 8.13 0 16.1-.09 24.06 0a39.48 39.48 0 0137.55 27.58 44.56 44.56 0 012 13.23q.18 127.11.07 254.22c0 23.55-17.45 40.9-41.06 40.92q-102.93.07-205.85 0c-23.59 0-41-17.4-41-40.93q-.08-127.11 0-254.22c0-23.34 17.45-40.68 40.78-40.82 7.59-.05 15.19 0 23.14 0v-6.67c.13-6.27 3-9.21 9.21-9.25 9.13-.06 18.25 0 27.38 0h4.16c2.61-10.78 7.94-19.62 17.26-25.18 5.13-3.07 11.16-4.64 16.79-6.88zM329 131.66v6.65c-.2 15-10.34 25.16-25.31 25.18h-109.5c-15 0-25.13-10.18-25.31-25.18v-6.87h-21.91c-16 .05-26.08 10.05-26.08 25.95v252.36c0 15.67 10.16 25.79 25.86 25.8h204.36a31.84 31.84 0 008.15-1c11.24-3 17.74-12.44 17.74-25.55V158.14c0-1.13 0-2.25-.06-3.37-.83-12.52-9.2-21.93-21.55-23-8.55-.7-17.2-.11-26.39-.11zM185 115.5v21.2c0 8.4 2.5 10.86 11 10.86h106.06a27 27 0 003.37-.11c4.51-.58 7.26-3.41 7.37-8 .12-5.12 0-10.24-.06-15.36v-8.3a7.11 7.11 0 00-1.17-.29h-28.11c-7.63 0-10-2.2-10.59-9.82a24 24 0 00-47.88-.17c-.67 7.94-2.87 10-10.81 10z"/>
  <path d="M248.55 403.5H147.31c-7.73 0-10.31-2.59-10.31-10.38V206.43c0-8.6 2.28-10.87 10.89-10.87H350c8.6 0 10.88 2.28 10.88 10.87v49.86q.08 45.54.17 91.09c0 15.37-.1 30.75-.18 46.12 0 7.29-2.71 10-9.94 10zm96.25-191.76H217.16v31.56H344.8zm-127.75 79.53h127.61v-31.51H217.05zm127.59 48.1v-31.58H217.21v31.58zm-127.46 16.25v31.65h127.48v-31.65zm-16.51-112.24v-31.6H153.2v31.6zM153 291.28h47.65v-31.53H153zm.12 16.36v31.66h47.55v-31.66zm47.66 48.11h-47.6v31.53h47.64z"/>
</svg>
