<svg xmlns="http://www.w3.org/2000/svg" data-name="Layer 1" viewBox="0 0 521.86 542.55" stroke-width="1.5" stroke="currentColor" aria-hidden="true">
  <path d="M473.26 245.91c-11.46-61.34-44.12-108.21-97.17-140.73-27.35-16.76-57.32-25.91-89.35-28.18a21 21 0 01-3.09-.66h-24c-7.76 1-15.57 1.82-23.28 3.19-46.49 8.23-85.56 30.08-117.1 65.07-29.71 33-46.54 71.84-51.44 115.91-.32 2.88-.65 5.75-1 8.63v24c1 7.75 1.75 15.57 3.19 23.25 11.47 61.36 44.1 108.31 97.25 140.74 34.57 21.09 72.55 30.5 113 28.54 57.93-2.81 106.47-26.15 145.05-69.46 29-32.62 45.34-71.07 50.18-114.43q.48-4.32 1-8.64v-24c-1.1-7.75-1.81-15.56-3.24-23.23zm-201.76 223C168 468.64 83.6 384.15 83.87 281c.28-103.54 84.78-187.9 187.93-187.62 103.54.28 187.9 84.77 187.62 187.92-.27 103.53-84.77 187.89-187.92 187.62z"/>
  <path d="M275 359.73c2.15-11.62 5.34-23.06 8.22-34.54 4-16 10.28-31.52 10.87-48.34.42-11.79-3.07-21.64-13.27-28.28-9.83-6.4-20.86-7.07-32.07-5.76-12.53 1.46-24.05 6.47-35.67 11a4.45 4.45 0 00-2.3 2.57c-1.09 3.63-1.87 7.35-2.93 11.67 1.57-.45 2.43-.65 3.25-.95 7.55-2.71 15.2-4.31 23.24-2.53 5.18 1.15 8.3 3.62 8.55 8.87.3 6.16.24 12.57-1.13 18.53-3.07 13.4-7 26.61-10.7 39.84-3.39 12-6.82 24-7.16 36.66-.36 13.26 6.57 24.18 18.73 29.27a51 51 0 0031.91 2.53c10.71-2.58 21-6.88 31.47-10.48a2.73 2.73 0 001.66-1.37c1.11-4.1 2.05-8.23 3-12.22-5.94 1.26-11.34 2.86-16.85 3.49-14.89 1.71-21.54-5.13-18.82-19.96zM284.14 160.53c-3.48.7-7.05 1.08-10.41 2.15-17.47 5.6-25.14 25.91-15.09 40.78 7.34 10.86 18.16 14.57 31 12.93 15.06-1.94 26.16-16.36 24.11-31.36-1.89-13.75-14.59-24.14-29.61-24.5z"/>
</svg>
