<svg xmlns="http://www.w3.org/2000/svg" viewBox="0 0 24 24" stroke-width="1.5" stroke="currentColor" aria-hidden="true">
  <path d="M11.675.5h.634c.042.006.084.017.126.018 1.125.038 2.22.244 3.28.618 1.848.653 3.489 1.646 4.787 3.126 2.42 2.76 3.409 5.966 2.834 9.611a11.08 11.08 0 01-2.492 5.456c-2.006 2.398-4.598 3.737-7.695 4.098a10.37 10.37 0 01-3.987-.296c-3.364-.929-5.889-2.907-7.463-6.05a10.993 10.993 0 01-1.126-3.857c-.024-.236-.044-.473-.067-.709v-1.056c.007-.042.015-.083.02-.125.063-.511.089-1.03.193-1.533.606-2.932 2.078-5.328 4.517-7.088C6.992 1.446 8.957.706 11.127.541L11.675.5zm.309 21.608c5.494.019 10.131-4.469 10.124-10.118C22.1 6.42 17.561 1.889 11.979 1.884 6.514 1.879 1.875 6.355 1.901 11.989c.027 5.707 4.563 10.085 10.083 10.119z"/>
  <path d="M10.847 14.512c0-.73.091-1.314.272-1.747.181-.435.539-.911 1.075-1.43.535-.52.874-.889 1.017-1.109.22-.335.329-.696.329-1.086 0-.515-.128-.909-.383-1.179-.255-.272-.63-.408-1.124-.408-.472 0-.852.133-1.141.398-.288.265-.432.624-.432 1.079H8.459c.011-.972.341-1.742.992-2.308.651-.567 1.511-.85 2.582-.85 1.104 0 1.964.28 2.582.841.618.56.927 1.344.927 2.349 0 .896-.417 1.778-1.252 2.646l-1.013.998c-.362.412-.549 1.013-.56 1.805h-1.87zm-.14 2.557c0-.323.102-.583.305-.784.203-.199.478-.299.824-.299.351 0 .629.103.832.307.203.206.305.464.305.776 0 .301-.099.552-.296.755-.198.202-.478.303-.84.303s-.641-.102-.836-.303a1.04 1.04 0 01-.294-.755z"/>
</svg>
