<svg xmlns="http://www.w3.org/2000/svg" data-name="Layer 1" viewBox="0 0 521.86 542.55" stroke-width="1.5" stroke="currentColor" aria-hidden="true">
  <path d="M347.25 74c6.56 1.29 13.24 2.17 19.67 4a106.51 106.51 0 01-11.41 207.91c-28.93 4.67-55.36-1.9-79.3-18.72-1-.74-2.11-1.45-3.39-2.33-24.44 35.53-31.69 75-28.6 117.32h23.23v10.62c.06 8.19 4.83 13.05 13 13.07h46v72.47H90v-72.47h45.54c8.67 0 13.36-4.75 13.4-13.45v-10.09h22.81c.43-.48.75-.67.76-.87.53-22.27.5-44.48-5.55-66.21a170.07 170.07 0 00-28-57c-.76-1-1.78-2.24-1.79-3.38-.05-11.82-.77-23.67 2.66-35.27 11-37.49 50.24-58.85 88.42-48.07l3.67 1c.75-4.56 1.36-8.95 2.22-13.28a106.61 106.61 0 0192.67-84.54 27.36 27.36 0 003.05-.69zm74.27 106.63a83 83 0 10-82.83 83 83.08 83.08 0 0082.83-82.97zM220.48 382c-3.43-48.88 6.52-94.13 35.25-134.18a105.15 105.15 0 01-21.31-44.49 7.29 7.29 0 00-4.5-5.83c-17-7.63-33.64-7.07-49.13 3.57-16 11-21.18 27.12-19.94 45.81a6.08 6.08 0 001.2 2.81c24.26 35 35.32 73.94 34.31 116.42-.12 5.23 0 10.47 0 15.89zm82.34 47.6c-7.9 0-15.51.13-23.12 0-15.07-.31-26-7.3-32.65-20.84-1.12-2.31-2.33-2.89-4.71-2.88q-34.15.12-68.3 0c-2.72 0-3.76 1-4.85 3.29-4.78 10.09-12.68 16.83-23.55 19.31-5.18 1.18-10.7 1-16.07 1.14s-10.67 0-16 0v25.09h189.25z"/>
  <path d="M326.66 220.34l-31.1-31.07q7.92-7.89 16.36-16.33l14.18 14.73 38.81-38.91 16.63 16.71z"/>
</svg>
