<svg xmlns="http://www.w3.org/2000/svg" data-name="Layer 1" viewBox="0 0 521.86 542.55" stroke-width="1.5" stroke="currentColor" aria-hidden="true">
  <path d="M453 381.32v61.5c-.3.94-.62 1.87-.91 2.81A23.91 23.91 0 01428.92 463c-28 .08-56 .14-84 0-10.17-.06-17.61-5.09-21.83-14.37-1.31-2.89-1.78-6.16-2.67-9.38-.77.25-1.73.51-2.66.84a181.33 181.33 0 01-41.45 9.68q-58.37 6.63-110-21.29c-69.69-37.92-107.38-114.9-95-193.32C83.54 158.21 145 95.71 221.93 82.07c7-1.24 14-2 21.06-3h24a20.75 20.75 0 002.87.63 183.62 183.62 0 0185.95 29.18C436.22 160.45 464.27 265.6 420 350.32c-2 3.86-2.3 7 0 10.76 3.06 0 6.18-.11 9.3 0 9.54.39 16.64 4.81 21.07 13.26a55.28 55.28 0 012.63 6.98zm-98.65-20.24c2.79-10.44 9.39-16.91 18.48-17.79 2.7-.26 3.91-1.44 5.12-3.47 18.31-30.71 24.93-63.7 18.89-99-14.7-85.78-101.28-138.92-184.39-113.32-69 21.25-111.49 90.61-99.29 162C128.87 381.53 227 434.26 312.86 397c5.94-2.58 8.67-5.34 8.39-12.4-.52-12.89 10.34-23.19 23.26-23.5 3.23-.1 6.49-.02 9.83-.02zm55.1-16.37c.09-.17.62-1 1.05-1.88 20.63-42.23 24.56-86 10.11-130.69-26-80.43-103-129.45-187-119.62-34 4-64.48 17-90.3 39.45-47 40.85-67.8 92.64-60.74 154.7 4.94 43.51 24.81 79.78 57.49 108.77 29.17 25.87 63.46 40.13 102.37 43.11a171.39 171.39 0 0076.36-11.69c.87-.34 2.08-1.35 2.1-2.08.17-5.93.1-11.86.1-18.25-37.69 16.67-75.77 19.47-114.44 6.71s-67.94-37.32-88-72.72c-35-61.77-22.33-140.16 30.72-190 51.87-48.74 131.43-55.26 191.8-15.39 30.12 19.89 51.09 47.22 62.15 81.59 14 43.65 9.22 85.71-12.65 125.74zm-22.84 106.36c14 0 28 .05 42 0 6.89 0 12.26-4.88 12.32-11.51q.22-27.56 0-55.1a11.72 11.72 0 00-11.35-11.33c-2.87-.14-5.75 0-8.62 0-8.23-.09-11.46 2-13.44-10.39-.78-4.9-4.38-7.54-9.27-7.59q-11.25-.1-22.49 0c-4.77.05-8 2.65-9.23 7.23-.45 1.68-.74 3.41-1.14 5.11-1 4.15-2.77 5.58-7.09 5.63h-12c-8.38 0-13.27 4.89-13.28 13.24v51.36c0 8.66 4.78 13.38 13.5 13.39 13.35-.02 26.72-.04 40.09-.04z"/>
  <path d="M220.55 258.77c-13.94-12.45-20.9-27.89-19.32-46.59 1.23-14.44 7.64-26.5 18.59-36 21.38-18.62 53.64-17.12 73.72 3.14 19.36 19.52 23 55.42-4.16 79.74 2.63.51 5 .93 7.36 1.45a53.8 53.8 0 0142.21 52c0 6.11.26 12.32-.71 18.3A29 29 0 01309.85 355q-54.92.25-109.85 0a29.27 29.27 0 01-28.76-26.91c-.73-9.92-1.26-20 1.87-29.76q10.47-32.64 44.3-38.59c.74-.13 1.48-.25 2.21-.42a4.81 4.81 0 00.93-.55zm34.38 84.3h53.24c11.18 0 18.73-7.67 18.81-18.9 0-4.12.07-8.25 0-12.37-.63-22.05-18.57-40.26-40.6-40.61-20.86-.33-41.73-.26-62.6 0-16.88.2-31.88 11.25-38 27-3.23 8.31-2.76 16.91-2.75 25.51 0 11.92 7.49 19.37 19.45 19.38q26.21.02 52.45-.01zm.08-84a42 42 0 10-42-42A42.13 42.13 0 00255 259.06zM411 409.05a24 24 0 11-24.1-24 24.07 24.07 0 0124.1 24zm-24.16 12A12 12 0 10375 409a12.11 12.11 0 0011.82 12.06z"/>
</svg>
