<svg xmlns="http://www.w3.org/2000/svg" data-name="Layer 1" viewBox="0 0 521.86 542.55" stroke-width="1.5" stroke="currentColor" aria-hidden="true">
  <path d="M267.73 62.47c5.33 1.07 10.69 2 16 3.22C320 74.2 351 108.82 355.86 145.85c3.2 24.37-.32 47.43-14.1 68-18.3 27.38-43.6 43.33-77.07 45.59-43.94 3-80.09-22.88-96.5-58-15.41-33-9.18-76.86 15-104.18C198 80.57 215.87 69 238 64.51c3.77-.77 7.56-1.36 11.34-2zm65.35 99.18c.81-40.49-32.2-74.31-73.34-75.14-41.42-.85-74.88 31.63-76 73.29-1.11 40.61 32.72 75.8 74.16 76.1 40.39.3 75.37-33.09 75.18-74.25z"/>
  <path d="M261.08 472.07H163.5c-16.47 0-32-3.26-45.72-13-15.68-11.12-25-26.45-26.64-45.41-3-34 1-67.38 13.82-99.2 7.6-18.88 19-35.11 37.66-45.06a75.07 75.07 0 0137.27-8.91c4.12.08 8.46 2.2 12.23 4.24 6 3.23 11.49 7.24 17.26 10.82q51.75 32.18 103.44-.14c4.52-2.82 9.17-5.49 13.41-8.69 8.4-6.36 17.66-7.1 27.68-5.58 26.58 4 45.19 18.78 57.74 42 11.15 20.65 16.18 43 18.42 66.09a334 334 0 011.56 35.92c-.44 35.81-25.32 62.57-61 66.12-4.63.46-9.3.72-13.95.73q-47.81.13-95.6.07zm0-24V448c33.86 0 67.72.3 101.58-.1 27.94-.33 45.2-18.2 45-46.08a305.79 305.79 0 00-1.7-32.32c-2.13-19-6.09-37.58-15.32-54.64-9.58-17.71-23.46-29.09-44.29-30.22a9.68 9.68 0 00-5.21 1.23c-6.05 3.64-11.91 7.58-17.88 11.36a118 118 0 01-46.09 17.11c-29.08 4.31-55.74-2.79-80.39-18.31-5.41-3.4-10.75-6.92-16.18-10.29a7.06 7.06 0 00-3.6-1.24c-13 .66-24.54 4.73-33.82 14.12-7.7 7.8-13.08 17.13-17 27.28-10 25.92-12.45 53.06-11.77 80.51.37 14.83 6.79 27 19.92 34.87 9 5.37 18.93 6.8 29.2 6.8q48.78-.03 97.56-.01z"/>
</svg>
