<svg xmlns="http://www.w3.org/2000/svg" viewBox="0 0 24 24" stroke-width="1.5" stroke="currentColor" aria-hidden="true">
  <path d="M11.675.5h.634c.042.006.084.017.126.018 1.125.038 2.22.244 3.28.618 1.848.653 3.489 1.646 4.787 3.126 2.42 2.76 3.409 5.966 2.834 9.611a11.08 11.08 0 01-2.492 5.456c-2.006 2.398-4.598 3.737-7.695 4.098a10.37 10.37 0 01-3.987-.296c-3.364-.929-5.889-2.907-7.463-6.05a10.993 10.993 0 01-1.126-3.857c-.024-.236-.044-.473-.067-.709v-1.056c.007-.042.015-.083.02-.125.063-.511.089-1.03.193-1.533.606-2.932 2.078-5.328 4.517-7.088C6.992 1.446 8.957.706 11.127.541L11.675.5zm.309 21.608c5.494.019 10.131-4.469 10.124-10.118C22.1 6.42 17.561 1.889 11.979 1.884 6.514 1.879 1.875 6.355 1.901 11.989c.027 5.707 4.563 10.085 10.083 10.119z"/>
  <path d="M8.708 18.437c-.221.012-.373-.095-.509-.242-.619-.669-1.24-1.337-1.861-2.005-.996-1.073-1.991-2.146-2.989-3.217a3.323 3.323 0 01-.332-.434c-.178-.268-.142-.568.088-.801.287-.29.576-.578.866-.865.31-.307.668-.306.97.014.485.512.964 1.03 1.445 1.546.697.747 1.394 1.496 2.092 2.242.17.182.343.174.53-.02l5.057-5.244c1.142-1.185 2.279-2.376 3.43-3.552.195-.199.442-.355.757-.278.14.035.25.115.35.216.27.273.541.545.813.816.312.311.317.66.013.975l-2.748 2.85-7.411 7.694c-.157.166-.314.328-.561.305z"/>
</svg>
