<svg xmlns="http://www.w3.org/2000/svg" data-name="Layer 1" viewBox="0 0 521.86 542.55" stroke-width="1.5" stroke="currentColor" aria-hidden="true">
  <path d="M183.26 477c-3.23-2.12-4.27-5.13-4.13-8.92.21-5.35.06-10.71.06-16.63h-18.1a32.39 32.39 0 01-17.51-4.63c-9.88-6.1-14.94-15.11-15.64-26.63v-2.25-291.67c0-15.72 9.32-28.28 23.74-32.07a38.44 38.44 0 019.6-1.2q117-.09 233.94 0c9.22 0 14.39 5.14 14.39 14.4v278.18c0 8.52-3.17 12.31-12.52 15v38.14c2.07 0 4.15-.1 6.22 0a6.37 6.37 0 016.25 6.22 6.51 6.51 0 01-5.72 6.4 28.25 28.25 0 01-4.12.11H243.2c0 5.71-.15 11.28.06 16.84.14 3.88-1.11 6.78-4.5 8.71H235c-7.32-3.7-14.62-7.45-22-11.08a4 4 0 00-3.05-.23c-7.45 3.68-14.82 7.52-22.21 11.31zm213.24-89.6V105.75H161.86c-13.28 0-21.15 7.89-21.15 21.27v262.46c0 1.17.13 2.34.24 4.23 8.62-6.6 18.12-6.36 27.67-6.35q111.36.08 222.72 0zm-12.69 12.82H159.65c-10.52.42-18.46 8.2-18.91 18.52a19 19 0 0017.35 19.61c6.8.59 13.7.11 20.82.11v-12.63c-4 0-7.88.08-11.73 0-4.42-.12-7.2-2.71-7.16-6.5s2.71-6.25 7.29-6.25h100.46c4.55 0 7.27 2.43 7.31 6.24s-2.8 6.47-7.51 6.52c-6.87.07-13.75 0-20.62 0h-3.52v12.54h140.38zM230.16 460v-33.88H192v31.69a19.87 19.87 0 00.34 2.16c3.72-1.85 7.25-3.36 10.55-5.29 5.63-3.28 11-3.15 16.64.05 3.34 1.9 6.85 3.43 10.63 5.27z"/>
  <path d="M339.2 169.72h17.36c9.55.06 15 5.78 14.11 15.22-1.35 14.65-4.31 28.89-11.87 41.79-5.17 8.83-12.3 15.32-22.27 18.39a5.47 5.47 0 00-2.84 2.05c-7.35 11.4-17.69 17.66-31.26 18.5a8.54 8.54 0 00-1.32.35v38.22c2.09 0 4.17-.08 6.24 0 7.34.32 12.37 5.37 12.51 12.7.12 6.24.1 12.49 0 18.74-.06 4.31-2.42 6.86-6.72 6.88q-31.49.14-63 0c-4.5 0-6.89-2.57-6.94-7.06q-.12-9.19 0-18.37c.1-7.51 5.16-12.61 12.7-12.91 2-.07 3.94 0 6.16 0V266c-2.49-.35-4.84-.56-7.14-1-10.7-2.16-19-8-25-17-.71-1.07-1.69-2.38-2.8-2.7-14-4.06-21.75-14.42-27.1-27.06-4.66-11-6.83-22.68-7.69-34.56-.58-8 5-13.69 13.28-13.9 5.86-.15 11.73 0 18.27 0v-5.58c.18-8.32 5.37-13.49 13.72-13.5q43.86-.06 87.71 0c8.58 0 13.75 5.2 13.86 13.74.05 1.56.03 3.15.03 5.28zm-102.28-6.12c-.08 1.25-.21 2.34-.21 3.43 0 19.61-.06 39.21 0 58.81.05 16.28 10.73 27 27 27.06 11.73.06 23.47 0 35.21 0 16.95 0 27.49-10.65 27.5-27.66v-61.69zm19.17 166h50.72v-12.25h-50.72zm83.29-100.48c10.37-4.87 18.31-29.22 18.19-46.31h-18.19zm-115.78.82v-47.19H205c2.21 17.19 4.26 34.06 18.6 47.18zm64.4 54.84v-9.72c0-9.64 0-9.55-9.68-9.39-2.47 0-3.22.83-3.19 3.24.11 8.59.05 17.19.05 25.79 0 9.93 0 9.85 9.88 9.58 2.29-.07 3-.8 3-3-.13-5.53-.06-11.01-.06-16.5zM153.51 246.34V128.26a21.54 21.54 0 01.36-4.83 6.25 6.25 0 0112.23.4 24.51 24.51 0 01.21 4.11v237.29a27.46 27.46 0 01-.15 3.74 6.28 6.28 0 01-12.41.3 24.74 24.74 0 01-.25-4.48q.01-59.22.01-118.45z"/>
</svg>
