<svg xmlns="http://www.w3.org/2000/svg" id="Layer_1" x="0" y="0" version="1.1" viewBox="0 0 522 542.7" xml:space="preserve" stroke-width="1.5" stroke="currentColor" aria-hidden="true">
  <style>
    .st0{fill:none;stroke:#000;stroke-width:7.1964;stroke-miterlimit:10}
  </style>
  <g id="_x39_gkX1a_2_">
    <path d="M187 286.8h110v-14.5H187v-26.9h137.1v234.5H187V286.8zM345.6 346.2h109.9v-14.4h-110v-27.1h137.3v175H345.6V346.2zM165.7 342.6v137.3H28.3v-95.8h110.1v-14.8h-110v-26.7h137.3z" class="st0"/>
    <path fill="none" stroke-miterlimit="10" d="M238.7 203.5v-23c-6.7-2.3-13.3-3.9-19.3-6.7-19.1-9-28.9-25.3-33.9-45-1.3-5.1-2.1-10.4-2.7-15.7-.8-6.9 1.8-9.5 8.7-9.6 3.4-.1 6.8 0 10 0-1.8-13.6-3.6-26.9-5.5-40.7h118.1c.2 13.6-1.9 27-5.3 40.7 4.4 0 8.4-.1 12.3 0 5 .2 7.7 2.7 7.3 7.5-2 23.6-8.9 45.1-29.9 58.8-6.4 4.2-14.2 6.1-21.4 9-1.3.5-2.9.7-4.7 1.1v23.6h-33.7zm76-87.2c-1.6 0-3 .2-4.3 0-4.3-.7-6.5.9-8.4 5.2-6 13.7-14.5 25.7-27.8 33.5-.8.5-1.7 1.7-1.7 2.6-.2 2.9-.1 5.9-.1 8.8 21.2-.5 43.1-26.6 42.3-50.1zm-118.4.4c1.1 22.8 17.4 47.2 42.3 49.7 0-3 .1-5.9-.1-8.8-.1-.9-.9-2.2-1.7-2.6-12-7.1-20.3-17.5-26-29.9-2.9-6.6-6.1-11.2-14.5-8.4zm12-43.5c.6 4.6 1 9.1 1.7 13.6 2.2 14.1 6.7 27.3 15.9 38.5 5.1 6.2 11.3 10.9 20.8 11.7-7.5-4.7-12.7-10.3-16.8-17-7.8-12.8-11.4-26.9-13.2-41.6-.7-6-.9-5.9-7.1-5.6-.2 0-.4.2-1.3.4z"/>
    <path d="M198.8 228.6c7.6-6.7 14.3-12.6 21.2-18.4 1.1-.9 3-1.2 4.5-1.2 20.7-.1 41.4-.1 62.2 0 1.4 0 3.1.2 4.1 1.1 7 5.8 13.9 11.9 21.7 18.6h-56.8c-18.6-.1-37.1-.1-56.9-.1z" class="st0"/>
  </g>
  <path d="M234.2 126.2c-9.7-15.8-15.3-32-17.5-50.2-.2-1.3-.3-2.4-.5-3.3-3.2-.2-6.3-.1-9.4.6.5 4.4 2 8.6 2.7 12.9 2.7 17.4 8.3 29 19.7 42.8 6.3 7.6 10.8 8.6 22.4 9.7-9.1-5.8-12.3-4.3-17.4-12.5z"/>
</svg>
