<svg xmlns="http://www.w3.org/2000/svg" viewBox="0 0 24 24" stroke-width="1.5" stroke="currentColor" aria-hidden="true">
  <path d="M11.981 23.494C5.588 23.488.538 18.377.5 11.964.464 5.787 5.814.459 12.073.506c6.175.046 11.513 5.283 11.425 11.558-.087 6.356-5.141 11.436-11.517 11.43zm-.217-22.425C8.307.934 4.11 3.255 2.651 6.58c-.715 1.63-1.317 3.307.132 4.917.273.303.325.728.172 1.124-.294.761-.153 1.387.888 1.921.801.411 1.074 1.014 1.008 1.854-.071.896.127 1.176 1.006 1.409.549.145.985.402 1.239.946.454.972.706 1.113 1.755.856.847-.208 1.545-.01 2.209.513.863.68 1.033.67 1.905-.008.436-.339.909-.61 1.47-.606.361.002.719.121 1.082.159.795.083 1.019-.034 1.33-.766.243-.572.645-.914 1.235-1.081.994-.281 1.106-.424 1.066-1.445-.033-.84.205-1.496 1.045-1.832.146-.058.279-.163.399-.268.39-.339.754-.74.544-1.286-.307-.796-.027-1.399.423-2.031.236-.331.437-.762.458-1.159.076-1.397-.129-2.771-.959-3.935-2.209-3.098-5.196-4.772-9.294-4.793zm8.093 15.29c.113.203.149.365.236.399.088.035.288-.023.33-.1a8.76 8.76 0 00.489-1.071c.028-.074-.054-.248-.13-.286-.072-.036-.251.011-.3.081-.227.319-.426.659-.625.977zm-15.744-.016c-.202-.314-.38-.68-.642-.969-.204-.224-.47-.093-.403.2.087.38.293.737.481 1.085.041.076.248.13.336.093.087-.037.119-.202.228-.409zm5.867 4.825l.512-.314c-.115-.136-.205-.348-.349-.394-.322-.103-.668-.138-1.008-.166-.081-.007-.21.108-.247.196-.024.059.053.213.123.249.304.153.621.278.969.429zm-3.385-1.642c-.02-.486-.732-1.142-1.08-1.076-.094.018-.23.219-.217.319.042.335.612.855.95.878.124.009.256-.087.347-.121zm12.105-.927c-.071-.04-.18-.152-.289-.153-.352-.004-.987.571-1.008.916-.006.096.113.273.198.289.367.069 1.107-.604 1.099-1.052zm-4.153 1.576c-.323.142-.628.258-.913.411-.076.041-.148.205-.125.284.024.082.17.188.255.182.325-.026.661-.054.965-.161.151-.053.241-.279.359-.427l-.541-.289zM1.72 12.006l-.058.024c.092.252.154.522.287.75.114.197.361.175.373-.051.02-.372-.059-.751-.122-1.122-.01-.06-.175-.154-.233-.133-.089.031-.169.139-.211.233-.041.087-.027.199-.036.299zm20.619.077l-.323-.615c-.136.181-.353.347-.389.546-.048.265.041.556.088.833.003.02.203.047.221.017.14-.242.26-.497.403-.781zm-4.723 8.753c-.655 0-1.314.378-1.473.814.587-.069 1.037-.322 1.473-.814zM2.149 15.524c.002-.663-.161-1.15-.515-1.605-.206.403.015 1.154.515 1.605zm1.877 3.619l.136-.089c-.035-.528-.51-1.141-1.04-1.138l.904 1.227zm17.956-3.672c.359-.429.593-.892.454-1.461-.401.411-.532.905-.454 1.461zm-2.12 3.755c.501-.418.888-.781.997-1.4-.519.208-.924.752-.997 1.4zm-12.051 2.46l.094-.125c-.221-.438-.924-.808-1.443-.62l1.349.745z"/>
  <path d="M16.606 15.919l-1.326.996c-.258-.26-.257-.859.071-1.145.384-.336.941-.257 1.255.149zM7.47 15.904c.38-.386.841-.454 1.226-.17.345.255.385.761.128 1.208L7.47 15.904zM14.352 17.557l-1.621.406c-.143-.274.068-.839.463-1.009.478-.206.981.068 1.158.603zM11.31 17.98l-1.623-.424c.077-.426.453-.706.936-.641.475.064.717.459.687 1.065zM4.392 13.994c-.109-.309-.177-.593-.308-.845-.125-.24-.315-.445-.478-.667.4-.173.807-.038 1.042.338.258.413.185.796-.256 1.174zM11.149 19.557c.101-.518.396-.771.847-.777.426-.006.734.266.859.772-.29-.038-.573-.104-.856-.104-.269-.001-.539.066-.85.109zM16.47 18.184l-1.509.747c-.15-.373-.032-.711.359-.962.411-.262.805-.181 1.15.215zM5.481 15.831a.798.798 0 011.008.187c.313.366.305.775-.026 1.18l-.982-1.367zM20.229 12.48l-.752 1.499a.792.792 0 01-.293-1.021c.183-.413.556-.576 1.045-.478zM7.598 18.166c.226-.363.641-.482 1.081-.264.415.206.569.617.41 1.002l-1.491-.738zM17.51 17.255c-.349-.387-.379-.758-.121-1.128.257-.368.643-.458 1.131-.248-.199.21-.414.4-.58.626-.167.227-.284.49-.43.75zM21.284 9.656c-.032.141-.046.321-.117.475-.053.115-.178.197-.272.294-.072-.101-.203-.201-.204-.303-.005-.315.02-.634.075-.945.017-.096.166-.169.254-.253.066.088.159.167.193.267.046.134.047.285.071.465zM3.013 8.878c.328.32.451 1.028.257 1.376-.099.177-.21.24-.359.046-.26-.338-.219-1.076.102-1.422z"/>
</svg>
