<svg xmlns="http://www.w3.org/2000/svg" viewBox="0 0 24 24" stroke-width="1.5" stroke="currentColor" aria-hidden="true">
  <path d="M4.466.5h11.735c.024.034.046.071.074.101l.875.964 4.261 4.685v15.349c-.008.03-.018.06-.022.09-.11.841-.731 1.552-1.56 1.739-.282.063-.581.069-.872.069-4.732.004-9.464.004-14.196-.002-.246 0-.502-.035-.737-.109-.87-.273-1.434-1.077-1.434-2.014V2.624c0-.023-.001-.047.001-.07.05-.891.475-1.529 1.293-1.89.182-.08.387-.11.582-.164zm9.624 1.048h-.14l-9.187.001c-.097 0-.197.002-.292.022-.514.108-.832.523-.832 1.082v18.691c0 .086.001.173.017.257.103.525.52.851 1.091.851 4.834.001 9.668 0 14.502-.001.093 0 .188-.005.28-.022.423-.079.835-.475.834-1.096-.007-4.459-.004-8.917-.004-13.376v-.138h-.15c-1.662 0-3.324.001-4.987-.001-.112 0-.228-.008-.337-.034-.485-.119-.795-.531-.795-1.054V1.696v-.148zm6.259 5.218c-.023-.03-.033-.046-.045-.059l-4.589-5.098c-.022-.025-.054-.057-.082-.058-.162-.006-.325-.003-.487-.003v5.219l5.203-.001z"/>
</svg>
