<?xml version="1.0" encoding="utf-8"?>
<!-- Generator: Adobe Illustrator 23.0.1, SVG Export Plug-In . SVG Version: 6.00 Build 0)  -->
<svg version="1.1" id="Capa_1" xmlns="http://www.w3.org/2000/svg" xmlns:xlink="http://www.w3.org/1999/xlink" x="0px" y="0px"
	 width="24px" height="24px" viewBox="0 0 24 24" enable-background="new 0 0 24 24" xml:space="preserve">
<g>
	<path d="M19.211,4.767c-0.006,0.532-0.372,1.022-0.843,1.172c-0.494,0.157-1.061-0.016-1.389-0.418
		c-0.156-0.193-0.236-0.409-0.236-0.657v-1.35h-0.008c0-0.438-0.01-0.876,0.002-1.313c0.022-0.745,0.547-1.259,1.262-1.251
		c0.699,0.008,1.209,0.554,1.211,1.304C19.213,3.092,19.22,3.929,19.211,4.767z"/>
	<path d="M13.261,4.66c-0.014,0.788-0.521,1.316-1.238,1.325c-0.762,0.01-1.248-0.477-1.283-1.309c-0.017-0.399-0.003-0.8-0.003-1.2
		h-0.004c0-0.4-0.011-0.801,0.002-1.201c0.023-0.749,0.572-1.319,1.262-1.325c0.698-0.005,1.246,0.549,1.261,1.309
		C13.273,3.059,13.275,3.86,13.261,4.66z"/>
	<path d="M7.259,4.781C7.243,5.473,6.718,5.983,6.032,5.984C5.328,5.987,4.807,5.504,4.793,4.798
		c-0.017-0.864-0.021-1.73-0.005-2.594c0.014-0.739,0.561-1.259,1.276-1.252c0.686,0.007,1.188,0.54,1.193,1.272
		c0.003,0.414,0.001,0.827,0.001,1.241h0.005C7.262,3.903,7.27,4.342,7.259,4.781z"/>
	<path d="M23.494,17.482c0-3.766,0.007-7.524,0-11.283c0-1.07-0.443-1.907-1.408-2.428c-0.542-0.289-1.119-0.246-1.696-0.275
		c-0.373-0.014-0.507,0.106-0.493,0.493c0.021,0.514,0.063,1.021-0.148,1.513c-0.324,0.767-1.175,1.288-1.999,1.182
		c-0.859-0.113-1.612-0.795-1.682-1.577c-0.042-0.422-0.042-0.852-0.035-1.274c0-0.225-0.063-0.331-0.289-0.331
		c-0.486,0-0.978,0.014-1.471,0c-0.246-0.007-0.324,0.127-0.317,0.345c0,0.282,0.007,0.556,0,0.831
		c-0.042,1.154-0.88,2.013-1.964,2.013C10.909,6.7,10.086,5.841,10.05,4.68c-0.014-0.267-0.021-0.528-0.014-0.795
		c0.021-0.274-0.084-0.394-0.359-0.38c-0.289,0.014-0.577,0-0.873,0C7.883,3.497,7.911,3.497,7.981,4.44
		c0.049,0.781-0.197,1.478-0.88,1.921C6.405,6.805,5.665,6.805,4.969,6.369c-0.711-0.45-0.887-1.147-0.887-1.95
		c0.007-1.021,0.197-0.922-0.908-0.915C1.555,3.532,0.527,4.553,0.506,6.186c-0.014,1.035,0,2.076,0,3.111
		c0,3.702-0.014,7.397,0,11.1c0,1.57,1.07,2.646,2.646,2.646c2.942,0.007,5.891,0.007,8.833,0.007h8.608c0.282,0,0.556,0,0.83-0.042
		c1.246-0.239,2.041-1.239,2.069-2.632C23.508,19.418,23.494,18.447,23.494,17.482z M21.847,20.023c0,0.127,0.007,0.253,0,0.38
		c-0.035,0.669-0.38,0.999-1.049,0.999c-1.921,0.014-3.836,0.014-5.757,0.014c-3.885,0-7.763-0.014-11.649,0
		c-0.908,0-1.239-0.317-1.239-1.218c-0.014-3.716-0.014-7.44-0.014-11.163c0-0.443,0.056-0.493,0.507-0.493h18.602
		c0.598,0,0.598,0.007,0.598,0.612V20.023z"/>
	<path d="M7.256,17.968c0.014,0.275,0.007,0.549,0,0.824c-0.021,0.521-0.275,0.802-0.802,0.852
		c-0.303,0.028-0.605,0.007-0.901,0.007v0.007c-0.26,0-0.528,0.014-0.788-0.007c-0.486-0.021-0.788-0.331-0.816-0.809
		c-0.014-0.274-0.007-0.549,0-0.823c0.014-0.528,0.303-0.852,0.83-0.88c0.556-0.028,1.126-0.021,1.689,0
		C6.939,17.159,7.242,17.489,7.256,17.968z"/>
	<path d="M7.249,14.484c0.021,0.324,0.021,0.648,0.007,0.971c-0.028,0.436-0.31,0.732-0.739,0.753
		c-0.626,0.021-1.253,0.014-1.879-0.007c-0.373-0.007-0.655-0.296-0.683-0.669c-0.021-0.366-0.014-0.725,0.007-1.091
		c0.028-0.415,0.317-0.669,0.746-0.697c0.021,0,0.049-0.007,0.07-0.007h0.823c0.289,0.007,0.577-0.007,0.866,0.007
		C6.932,13.759,7.214,14.02,7.249,14.484z"/>
	<path d="M8.185,15.448c-0.028-0.31-0.028-0.633,0.007-0.943c0.042-0.472,0.352-0.753,0.824-0.76c0.549-0.014,1.098-0.021,1.647,0
		c0.577,0.014,0.852,0.296,0.873,0.866c0.007,0.274,0.014,0.549,0,0.823c-0.021,0.443-0.324,0.753-0.767,0.774
		c-0.296,0.014-0.598,0.007-0.901,0.007H9.002C8.551,16.194,8.22,15.899,8.185,15.448z"/>
	<path d="M8.192,12.063c-0.028-0.31-0.028-0.626-0.007-0.943c0.035-0.472,0.359-0.76,0.845-0.774c0.274-0.007,0.549,0,0.823,0
		c0.204,0,0.401-0.007,0.605-0.007c0.098,0,0.197,0,0.296,0.007c0.458,0.028,0.767,0.345,0.781,0.802
		c0.014,0.289,0.014,0.577,0,0.866c-0.028,0.472-0.317,0.781-0.781,0.795c-0.584,0.021-1.175,0.021-1.767,0
		C8.53,12.795,8.241,12.513,8.192,12.063z"/>
	<path d="M11.543,18.024c0.007,0.239,0.007,0.479,0,0.718c-0.021,0.556-0.331,0.88-0.894,0.915c-0.275,0.014-0.549,0-0.824,0
		c-0.176,0-0.352,0.007-0.528,0.007c-0.084,0-0.176,0-0.26-0.007c-0.493-0.035-0.831-0.352-0.852-0.838
		c-0.063-1.323,0.049-1.753,1.513-1.696c0.31,0.014,0.626,0,0.936,0.007C11.212,17.152,11.521,17.461,11.543,18.024z"/>
	<path d="M15.618,14.034c0.303,0.366,0.296,1.534-0.007,1.9c-0.148,0.183-0.345,0.282-0.584,0.282h-0.901v-0.007
		c-0.303,0-0.605,0.021-0.901,0c-0.479-0.035-0.753-0.324-0.767-0.802c-0.007-0.303-0.014-0.598,0.007-0.901
		c0.021-0.436,0.331-0.753,0.767-0.76c0.591-0.021,1.175-0.014,1.767-0.007C15.245,13.745,15.463,13.844,15.618,14.034z"/>
	<path d="M15.794,17.891c0.056,0.338,0.049,0.676,0.014,1.014c-0.056,0.415-0.387,0.732-0.816,0.746
		c-0.563,0.021-1.126,0.028-1.689,0c-0.535-0.021-0.831-0.359-0.845-0.901c-0.007-0.253-0.007-0.5,0.007-0.753
		c0.014-0.507,0.296-0.816,0.802-0.859c0.289-0.021,0.577,0,0.866,0c0.183,0,0.366-0.007,0.549-0.007c0.091,0,0.183,0,0.274,0.007
		C15.442,17.166,15.716,17.412,15.794,17.891z"/>
	<path d="M12.465,11.985c-0.014-0.282-0.021-0.577-0.007-0.859c0.021-0.436,0.331-0.746,0.767-0.781c0.148-0.007,0.303,0,0.45-0.007
		h0.45c0,0.007,0,0.007,0,0.007c0.274,0,0.549-0.007,0.823,0c0.479,0.007,0.781,0.26,0.852,0.732
		c0.049,0.345,0.049,0.697-0.007,1.049c-0.07,0.429-0.366,0.683-0.809,0.69c-0.563,0.007-1.126,0.014-1.689-0.007
		C12.767,12.795,12.493,12.513,12.465,11.985z"/>
	<path d="M20.038,14.477c0.021,0.345,0.021,0.697,0,1.049c-0.021,0.401-0.296,0.655-0.711,0.683c-0.162,0.014-0.324,0-0.486,0h-0.45
		v-0.007c-0.331,0-0.655,0.021-0.978,0c-0.394-0.028-0.647-0.289-0.669-0.683c-0.014-0.338-0.021-0.683,0-1.014
		c0.021-0.465,0.303-0.746,0.767-0.76c0.591-0.021,1.175-0.021,1.767,0C19.707,13.752,20.017,14.055,20.038,14.477z"/>
	<path d="M20.038,11.056c0.021,0.331,0.021,0.655,0,0.978c-0.021,0.458-0.296,0.739-0.76,0.774c-0.31,0.021-0.626,0-0.936,0v0.014
		c-0.267,0-0.528,0.007-0.795-0.007c-0.479-0.014-0.774-0.282-0.802-0.76c-0.021-0.31-0.021-0.626,0-0.936
		c0.028-0.472,0.296-0.753,0.767-0.767c0.612-0.021,1.225-0.021,1.837,0C19.742,10.367,20.017,10.655,20.038,11.056z"/>
	<path d="M20.038,14.477c0.021,0.345,0.021,0.697,0,1.049c-0.021,0.401-0.296,0.655-0.711,0.683c-0.162,0.014-0.324,0-0.486,0h-0.45
		v-0.007c-0.331,0-0.655,0.021-0.978,0c-0.394-0.028-0.647-0.289-0.669-0.683c-0.014-0.338-0.021-0.683,0-1.014
		c0.021-0.465,0.303-0.746,0.767-0.76c0.591-0.021,1.175-0.021,1.767,0C19.707,13.752,20.017,14.055,20.038,14.477z"/>
	<path d="M15.611,15.934c-0.148,0.183-0.345,0.282-0.584,0.282h-0.901v-0.007c-0.303,0-0.605,0.021-0.901,0
		c-0.479-0.035-0.753-0.324-0.767-0.802c-0.007-0.303-0.014-0.598,0.007-0.901c0.021-0.436,0.331-0.753,0.767-0.76
		c0.591-0.021,1.175-0.014,1.767-0.007c0.246,0.007,0.464,0.106,0.619,0.296C15.92,14.4,15.913,15.568,15.611,15.934z"/>
	<path d="M15.808,18.904c-0.056,0.415-0.387,0.732-0.816,0.746c-0.563,0.021-1.126,0.028-1.689,0
		c-0.535-0.021-0.831-0.359-0.845-0.901c-0.007-0.253-0.007-0.5,0.007-0.753c0.014-0.507,0.296-0.816,0.802-0.859
		c0.289-0.021,0.577,0,0.866,0c0.183,0,0.366-0.007,0.549-0.007c0.091,0,0.183,0,0.274,0.007c0.486,0.028,0.76,0.275,0.838,0.753
		C15.85,18.228,15.843,18.566,15.808,18.904z"/>
	<path d="M11.543,18.024c0.007,0.239,0.007,0.479,0,0.718c-0.021,0.556-0.331,0.88-0.894,0.915c-0.275,0.014-0.549,0-0.824,0
		c-0.176,0-0.352,0.007-0.528,0.007c-0.084,0-0.176,0-0.26-0.007c-0.493-0.035-0.831-0.352-0.852-0.838
		c-0.063-1.323,0.049-1.753,1.513-1.696c0.31,0.014,0.626,0,0.936,0.007C11.212,17.152,11.521,17.461,11.543,18.024z"/>
	<path d="M7.256,17.968c0.014,0.275,0.007,0.549,0,0.824c-0.021,0.521-0.275,0.802-0.802,0.852
		c-0.303,0.028-0.605,0.007-0.901,0.007v0.007c-0.26,0-0.528,0.014-0.788-0.007c-0.486-0.021-0.788-0.331-0.816-0.809
		c-0.014-0.274-0.007-0.549,0-0.823c0.014-0.528,0.303-0.852,0.83-0.88c0.556-0.028,1.126-0.021,1.689,0
		C6.939,17.159,7.242,17.489,7.256,17.968z"/>
	<path d="M7.256,15.455c-0.028,0.436-0.31,0.732-0.739,0.753c-0.626,0.021-1.253,0.014-1.879-0.007
		c-0.373-0.007-0.655-0.296-0.683-0.669c-0.021-0.366-0.014-0.725,0.007-1.091c0.028-0.415,0.317-0.669,0.746-0.697
		c0.021,0,0.049-0.007,0.07-0.007h0.823c0.289,0.007,0.577-0.007,0.866,0.007c0.465,0.014,0.746,0.275,0.781,0.739
		C7.27,14.808,7.27,15.132,7.256,15.455z"/>
	<path d="M11.535,14.611c0.007,0.274,0.014,0.549,0,0.823c-0.021,0.443-0.324,0.753-0.767,0.774
		c-0.296,0.014-0.598,0.007-0.901,0.007H9.002c-0.45-0.021-0.781-0.317-0.816-0.767c-0.028-0.31-0.028-0.633,0.007-0.943
		c0.042-0.472,0.352-0.753,0.824-0.76c0.549-0.014,1.098-0.021,1.647,0C11.24,13.759,11.514,14.041,11.535,14.611z"/>
	<path d="M11.535,11.148c0.014,0.289,0.014,0.577,0,0.866c-0.028,0.472-0.317,0.781-0.781,0.795c-0.584,0.021-1.175,0.021-1.767,0
		c-0.457-0.014-0.746-0.296-0.795-0.746c-0.028-0.31-0.028-0.626-0.007-0.943c0.035-0.472,0.359-0.76,0.845-0.774
		c0.274-0.007,0.549,0,0.823,0c0.204,0,0.401-0.007,0.605-0.007c0.098,0,0.197,0,0.296,0.007
		C11.212,10.374,11.521,10.69,11.535,11.148z"/>
	<path d="M15.794,12.126c-0.07,0.429-0.366,0.683-0.809,0.69c-0.563,0.007-1.126,0.014-1.689-0.007
		c-0.528-0.014-0.802-0.296-0.831-0.824c-0.014-0.282-0.021-0.577-0.007-0.859c0.021-0.436,0.331-0.746,0.767-0.781
		c0.148-0.007,0.303,0,0.45-0.007h0.45c0,0.007,0,0.007,0,0.007c0.274,0,0.549-0.007,0.823,0c0.479,0.007,0.781,0.26,0.852,0.732
		C15.85,11.422,15.85,11.774,15.794,12.126z"/>
	<path d="M20.038,11.056c0.021,0.331,0.021,0.655,0,0.978c-0.021,0.458-0.296,0.739-0.76,0.774c-0.31,0.021-0.626,0-0.936,0v0.014
		c-0.267,0-0.528,0.007-0.795-0.007c-0.479-0.014-0.774-0.282-0.802-0.76c-0.021-0.31-0.021-0.626,0-0.936
		c0.028-0.472,0.296-0.753,0.767-0.767c0.612-0.021,1.225-0.021,1.837,0C19.742,10.367,20.017,10.655,20.038,11.056z"/>
</g>
</svg>
