<?xml version="1.0" encoding="utf-8"?>
<!-- Generator: Adobe Illustrator 23.0.1, SVG Export Plug-In . SVG Version: 6.00 Build 0)  -->
<svg version="1.1" id="Capa_1" xmlns="http://www.w3.org/2000/svg" xmlns:xlink="http://www.w3.org/1999/xlink" x="0px" y="0px"
	 width="24px" height="24px" viewBox="0 0 24 24" enable-background="new 0 0 24 24" xml:space="preserve">
<g>
	<path d="M1.709,11.999c0-3.615,0-7.23,0-10.845c0-0.161,0.01-0.32,0.116-0.454C1.939,0.558,2.087,0.5,2.268,0.5
		c1.65,0.002,3.3,0.001,4.951,0.001c0.119,0,0.237-0.001,0.356,0c0.348,0.001,0.551,0.195,0.569,0.544
		c0.004,0.082,0.001,0.164,0.001,0.246c0,6.227,0,12.454,0,18.681c0,0.966,0,1.933,0,2.899c0,0.133-0.006,0.265-0.079,0.383
		c-0.096,0.154-0.232,0.244-0.416,0.244c-1.814,0.001-3.629,0.002-5.443,0c-0.291,0-0.494-0.237-0.495-0.573
		c-0.003-0.588-0.001-1.176-0.001-1.764c0-2.188,0-4.376,0-6.564C1.709,13.731,1.709,12.865,1.709,11.999z M3.107,20.416
		c0.004,1.023,0.83,1.852,1.851,1.826c1.108-0.029,1.806-0.945,1.792-1.833c-0.016-1.02-0.813-1.817-1.833-1.812
		C3.905,18.601,3.103,19.408,3.107,20.416z"/>
	<path d="M9.141,22.267c-0.038-0.045-0.024-0.083-0.024-0.118c0-6.647,0-13.294,0-19.941c0-0.322,0.109-0.403,0.426-0.301
		c0.602,0.195,1.203,0.395,1.804,0.594c1.077,0.355,2.154,0.711,3.231,1.067c0.363,0.12,0.491,0.372,0.374,0.734
		c-0.765,2.371-1.53,4.743-2.296,7.113c-0.77,2.384-1.543,4.767-2.314,7.151c-0.394,1.218-0.786,2.436-1.179,3.654
		C9.159,22.232,9.152,22.243,9.141,22.267z"/>
	<path d="M10.808,20.889c-0.038-0.063-0.003-0.103,0.009-0.144c0.775-2.534,1.552-5.069,2.328-7.603
		c0.755-2.464,1.511-4.928,2.267-7.393c0.06-0.197,0.062-0.199,0.223-0.073c1.093,0.865,2.186,1.73,3.279,2.596
		c0.293,0.232,0.588,0.461,0.879,0.695c0.248,0.199,0.278,0.52,0.08,0.763c-0.888,1.092-1.775,2.186-2.663,3.278
		c-1.212,1.492-2.426,2.984-3.638,4.476c-0.804,0.99-1.607,1.981-2.411,2.972C11.046,20.6,10.929,20.742,10.808,20.889z"/>
	<path d="M19.944,10.986c0.183,0.315,0.348,0.597,0.512,0.881c0.576,0.998,1.151,1.998,1.728,2.996
		c0.201,0.347,0.121,0.639-0.236,0.814c-1.69,0.828-3.381,1.654-5.071,2.48c-1.412,0.69-2.825,1.38-4.238,2.069
		c-0.039,0.019-0.076,0.05-0.137,0.042c0.036-0.099,0.114-0.163,0.175-0.237c0.813-0.989,1.628-1.976,2.444-2.963
		c0.932-1.127,1.866-2.252,2.798-3.379c0.569-0.688,1.137-1.377,1.704-2.067C19.769,11.444,19.853,11.231,19.944,10.986z"/>
</g>
</svg>
