<?xml version="1.0" encoding="utf-8"?>
<!-- Generator: Adobe Illustrator 22.0.1, SVG Export Plug-In . SVG Version: 6.00 Build 0)  -->
<svg version="1.1" id="Layer_1" xmlns="http://www.w3.org/2000/svg" xmlns:xlink="http://www.w3.org/1999/xlink" x="0px" y="0px"
	 viewBox="0 0 522 542.7" style="enable-background:new 0 0 522 542.7;" xml:space="preserve">
<style type="text/css">
	.st0{fill:none;stroke:#000000;stroke-width:7.1964;stroke-miterlimit:10;}
	.st1{fill:none;stroke:#000000;stroke-width:5.8382;stroke-miterlimit:10;}
</style>
<g>
	<g>
		<path d="M314.5,428.3H213.9c-5.3,0-9.6,4.3-9.6,9.6v8.7h119.7v-8.7C324.1,432.5,319.8,428.3,314.5,428.3z"/>
		<rect x="213.9" y="383" width="100.6" height="39.8"/>
		<path d="M314.5,358.3H213.9c-5.3,0-9.6,4.3-9.6,9.6c0,5.3,4.3,9.6,9.6,9.6h100.6c5.3,0,9.6-4.3,9.6-9.6
			C324.1,362.6,319.8,358.3,314.5,358.3z"/>
		<path d="M368.1,140.2H342c0.1-3.8,0.2-7.6,0.2-11.4h-156c0,3.8,0.1,7.6,0.2,11.4h-26.1v4.8c0,58.1,23.9,103.6,54.4,103.8
			c5.2,8.6,11.1,15.7,17.3,21.3l0.1,2.7c0.3,7.3,5.5,13.5,12.6,15.1h0.6v31.6l-0.6,0.1c-7.1,1.6-12.2,7.8-12.6,15.1l-0.1,1.7
			c-5.7,3.3-9.6,9.4-9.6,16.5H306c0-7.1-3.9-13.2-9.6-16.5l-0.1-1.7c-0.3-7.3-5.5-13.5-12.6-15.1h-0.6V288h0.3l0.3-0.1
			c7.1-1.6,12.2-7.8,12.6-15.1l0.1-2.7c6.2-5.6,12.1-12.8,17.3-21.3c30.5-0.1,54.4-45.7,54.4-103.8V140.2z M170,149.8h17
			c2.3,34.3,10.3,65.1,22,88.5C188,232.2,171.1,194.6,170,149.8z M290.3,332h-52.1c1.1-3.4,3.9-6.1,7.5-7h37.2
			C286.4,325.9,289.2,328.6,290.3,332z M282.8,282.5h-37.2c-3.6-0.9-6.3-3.6-7.5-7h52.1C289.2,278.9,286.4,281.6,282.8,282.5z
			 M319.6,238.3c11.7-23.4,19.6-54.2,22-88.5h17C357.4,194.6,340.5,232.2,319.6,238.3z"/>
	</g>
	<g>
		<polygon points="264.2,55 273.9,74.6 295.4,77.7 279.8,92.9 283.5,114.4 264.2,104.2 244.9,114.4 248.6,92.9 233,77.7 254.6,74.6 
					"/>
		<g>
			<polygon points="195.4,66.8 203.1,82.4 220.4,85 207.9,97.2 210.9,114.4 195.4,106.3 179.9,114.4 182.9,97.2 170.3,85 
				187.7,82.4 			"/>
			<polygon points="333.1,66.8 340.8,82.4 358.1,85 345.6,97.2 348.5,114.4 333.1,106.3 317.6,114.4 320.5,97.2 308,85 325.3,82.4 
							"/>
		</g>
	</g>
</g>
</svg>
