<svg id="d1712141-99ca-4ee3-9692-5bb46af9dba0" data-name="Layer 1" xmlns="http://www.w3.org/2000/svg" viewBox="0 0 521.86 542.55"><title>rap_cookies_policy_</title><path d="M452.67,269.16c-27.17,16.69-48.1,9.13-64.63-15.54-65,21-113.54-24.68-91.81-94.47-24-8.91-32-35.09-22.53-64.57C167.47,89.22,73.86,171.93,68.54,278.2S145,474.89,251.24,480.27,448,403.81,453.31,297.55A192.68,192.68,0,0,0,452.67,269.16Zm-317-.48a28.81,28.81,0,1,1,28.81,28.81A28.83,28.83,0,0,1,135.71,268.68Zm47.53,116.8a20.25,20.25,0,1,1,20.25-20.25A20.25,20.25,0,0,1,183.24,385.48Zm43.64-163.75a15.86,15.86,0,1,1,15.86-15.86A15.85,15.85,0,0,1,226.88,221.73Zm28.39,88.06a16.6,16.6,0,1,1,16.6-16.6A16.6,16.6,0,0,1,255.27,309.79Zm57.81,95.47a26.6,26.6,0,1,1,26.6-26.6A26.59,26.59,0,0,1,313.08,405.26Z"/><path d="M441.42,199.15a12.14,12.14,0,1,1-12.14,12.14,12.13,12.13,0,0,1,12.14-12.14Z"/><path d="M354.32,167A18.28,18.28,0,1,1,336,185.24,18.27,18.27,0,0,1,354.32,167Z"/><path d="M368.46,91.25a19.61,19.61,0,1,1-19.6,19.61,19.62,19.62,0,0,1,19.6-19.61Z"/></svg>