<svg id="858bd508-aa68-42b7-9f0a-f31473af7066" data-name="Layer 1" xmlns="http://www.w3.org/2000/svg" viewBox="0 0 521.86 542.55"><title>rap_schedule_change_</title><path d="M321.84,265.79a75.79,75.79,0,0,1,74.67,77.66c-.84,37.86-30.58,69.72-68.23,73.12-40.5,3.66-75.88-23.83-82.07-64-.86-5.61-.33-11.44-.54-17.16-.08-2.26,1.12-3.17,3-4,27.19-12.1,47.6-31.42,60.18-58.39,2.76-5.92,6.17-7.61,11.84-7.17C321.09,265.82,321.47,265.79,321.84,265.79Zm5.08,44.12c0-4.5,0-9,0-13.49,0-5-2.18-7.72-6.1-7.66s-5.88,2.67-5.89,7.5c0,9.11.07,18.23-.1,27.34a5.25,5.25,0,0,1-2,3.76c-7.24,4.81-10,12.53-7,20.1s10.7,11.37,19.32,9.66a5.3,5.3,0,0,1,4,1.22c4.3,4,8.34,8.26,12.53,12.37,3.24,3.18,6.6,3.51,9.25,1s2.47-6.18-.81-9.52c-4-4.1-8.06-8.18-12.19-12.17a4.34,4.34,0,0,1-1.49-4.82c1.43-5.85.44-11.9-4.59-15.2s-5.33-7.32-5-12.24C327.06,315.16,326.92,312.53,326.92,309.91Z"/><path d="M201.11,113.44c59.34,0,107.84,48.52,107.81,107.8a108.19,108.19,0,0,1-108.6,108.2c-59.24-.14-107.46-48.73-107.4-108.21S141.43,113.42,201.11,113.44Zm87.46,108c.17-47.87-39.19-87.47-87.15-87.68a87.87,87.87,0,0,0-88.15,87.42c-.14,48,39,87.58,86.94,87.89A88,88,0,0,0,288.57,221.46Z"/><path d="M213.28,341.07l19.95-3.85c-.41,28.94,9.81,53.26,32.18,71.86A83.83,83.83,0,0,0,324,428.92c46-1.9,81.77-37.08,84.31-83.37,1.41-25.62-7.43-47.92-25.59-66.1s-40.52-26.23-66.05-25.71c1.31-6.77,2.56-13.25,3.91-20.24a103.32,103.32,0,0,1,42.25,8.42,106.25,106.25,0,0,1,50.85,44.24A108,108,0,0,1,275.59,439.43C228.7,417.6,211.83,371.77,213.28,341.07Z"/><path d="M397.11,192.94a47.06,47.06,0,0,1,4-4.76c2.7-2.5,6-2.43,8.4-.07a5.82,5.82,0,0,1,0,8.41q-7.5,7.86-15.37,15.36c-2.73,2.6-5.87,2.41-8.67-.31q-8-7.84-15.89-15.9c-2.76-2.84-2.75-6.19-.29-8.67s5.94-2.31,8.71.28c1.79,1.67,3.41,3.52,5.78,6a50.71,50.71,0,0,0-3.22-21.08c-7.83-21.5-27.75-35.87-50.83-37-2.09-.1-4.76-.66-6-2s-1.58-4.17-1.16-6.08c.64-2.87,3.29-3.89,6.16-3.82,11.3.26,22.08,2.77,31.87,8.45,22.22,12.9,34.08,32.25,35.33,58,0,.82.1,1.63.14,2.45Z"/><path d="M130.57,363.71c.06,13.34,4,25.4,12.58,35.76C154,412.61,168,419.58,185.1,420.23c6,.22,9.2,4.43,6.8,8.87-1.45,2.68-3.86,3.17-6.67,3.16-29.89-.12-57.47-22-64.52-51.51-1.33-5.56-1.82-11.31-2.78-17.5-1.24,1.21-2.47,2.45-3.75,3.65-3.05,2.83-6.47,3.05-9,.61s-2.45-6,.39-9q7.07-7.26,14.32-14.31c3.07-3,6.24-3,9.27-.06q8.09,7.83,15.9,15.92c2.63,2.72,2.53,6.33.06,8.67s-5.71,2.32-8.4-.25a73.68,73.68,0,0,1-4.88-5.66Z"/><path d="M322,336.85c1,1.59,2.57,3.1,2.78,4.78.31,2.44-1.54,3.88-4,3.79s-4.2-1.75-3.7-4.13c.34-1.65,2.08-3,3.2-4.51Z"/><path d="M200.93,145.79c41.16-.22,75.56,34,75.63,75.27.08,41.57-33.63,75.77-74.9,76a75.81,75.81,0,0,1-76.37-75.63C125.05,180.06,159.09,146,200.93,145.79Zm-6,43.78c0,4.75.15,9.5-.1,14.24a5.41,5.41,0,0,1-2.13,3.68c-6.9,4.64-9.68,12.58-6.72,19.95s10.64,11.28,19,9.7a5.42,5.42,0,0,1,4.1,1.09c4.31,4,8.35,8.26,12.53,12.38,3.18,3.13,6.68,3.49,9.28,1.06s2.42-6.28-.79-9.54c-4.12-4.19-8.39-8.23-12.38-12.54a5.4,5.4,0,0,1-1.09-4.09c1.4-7.63-1.18-13.73-7.63-18.12a5.33,5.33,0,0,1-2-3.76c-.17-9-.08-18-.09-27,0-5.16-2-7.82-5.91-7.87s-6.07,2.63-6.08,7.69C194.91,180.82,194.92,185.19,194.92,189.57Z"/><path d="M201.83,216.82c1,1.54,2.69,3,3,4.66.4,2.42-1.38,4-3.89,3.94s-4.27-1.57-3.85-4c.29-1.67,2-3.1,3-4.64Z"/></svg>