<?xml version="1.0" encoding="utf-8"?>
<!-- Generator: Adobe Illustrator 23.0.1, SVG Export Plug-In . SVG Version: 6.00 Build 0)  -->
<svg version="1.1" id="Capa_1" xmlns="http://www.w3.org/2000/svg" xmlns:xlink="http://www.w3.org/1999/xlink" x="0px" y="0px"
	 width="24px" height="24px" viewBox="0 0 24 24" enable-background="new 0 0 24 24" xml:space="preserve">
<g>
	<path d="M16.33,4.421c-0.134-2.242-2.018-4.004-4.321-3.918c-2.29,0.093-4.125,2.038-3.973,4.435
		c0.134,2.155,2.004,4.07,4.524,3.856c1.102-0.09,2.025-0.575,2.751-1.412C16.044,6.539,16.395,5.537,16.33,4.421z M8.452,5.382
		C8.379,5.348,8.355,5.289,8.348,5.224c0-0.028,0.01-0.055,0.014-0.083C8.383,5.162,8.414,5.175,8.427,5.2
		C8.465,5.251,8.465,5.313,8.452,5.382z M8.699,5.775C8.596,5.761,8.524,5.644,8.514,5.558C8.51,5.523,8.52,5.499,8.558,5.516
		C8.644,5.554,8.744,5.651,8.699,5.775z M8.717,5.998c0.141,0.021,0.272,0.138,0.275,0.279C8.889,6.298,8.744,6.15,8.717,5.998z
		 M8.889,6.532c0.076,0.021,0.176,0.114,0.176,0.169C8.996,6.704,8.896,6.604,8.889,6.532z M9.271,6.47
		c0.086-0.031,0.275,0.086,0.32,0.196C9.509,6.694,9.295,6.56,9.271,6.47z M9.46,7C9.557,6.98,9.801,7.145,9.839,7.262
		C9.719,7.296,9.467,7.117,9.46,7z M9.908,6.794c0.134-0.014,0.255,0.031,0.358,0.114c0.034,0.028,0.052,0.079,0.079,0.127
		C10.187,7.066,9.96,6.973,9.88,6.852C9.856,6.814,9.863,6.797,9.908,6.794z M10.118,7.438c0.09-0.065,0.461,0.096,0.479,0.21
		C10.414,7.63,10.27,7.531,10.118,7.438z M10.786,7.269c-0.083-0.031-0.158-0.079-0.234-0.124c-0.017-0.01-0.021-0.038-0.031-0.059
		c0.017-0.01,0.038-0.021,0.055-0.028c0.014-0.007,0.028-0.003,0.041-0.003c0.158-0.01,0.289,0.048,0.403,0.152
		c0.01,0.01,0.021,0.024,0.027,0.038c0.028,0.041,0.014,0.076-0.038,0.069C10.934,7.307,10.855,7.293,10.786,7.269z M11.041,7.751
		c0.09-0.059,0.527,0.041,0.592,0.131C11.42,7.899,11.23,7.844,11.041,7.751z M11.829,7.451c-0.12,0-0.227-0.028-0.334-0.076
		c-0.007-0.003-0.017-0.007-0.021-0.014c-0.024-0.024-0.045-0.052-0.069-0.079c0.031-0.017,0.059-0.038,0.086-0.045
		c0.158-0.038,0.3,0.01,0.437,0.072c0.017,0.007,0.031,0.024,0.041,0.038c0.027,0.028,0.024,0.059-0.014,0.069
		C11.915,7.434,11.871,7.441,11.829,7.451z M11.971,7.896c0.076-0.048,0.392-0.021,0.475,0.038
		C12.377,8.013,12.046,7.985,11.971,7.896z M12.676,7.482c-0.148,0.034-0.296,0.014-0.444-0.014
		c-0.021-0.003-0.038-0.034-0.055-0.052c0.014-0.01,0.028-0.031,0.048-0.038c0.062-0.014,0.127-0.024,0.2-0.038
		c0.079,0.01,0.169,0.017,0.255,0.034c0.028,0.003,0.052,0.034,0.076,0.052C12.728,7.444,12.704,7.475,12.676,7.482z M12.859,6.804
		c-0.003-0.024,0.031-0.065,0.059-0.083c0.134-0.065,0.272-0.072,0.41-0.003c0.069,0.034,0.076,0.103,0.007,0.141
		c-0.062,0.034-0.134,0.048-0.193,0.072c-0.079-0.017-0.148-0.024-0.21-0.045C12.9,6.873,12.866,6.835,12.859,6.804z M12.924,7.909
		c0.083-0.059,0.279-0.065,0.337-0.017C13.196,7.957,12.99,7.968,12.924,7.909z M13.485,7.417c-0.093,0.024-0.189,0.045-0.282,0.065
		C13.2,7.479,13.2,7.475,13.2,7.472c-0.052,0-0.103-0.003-0.155-0.003c-0.014-0.003-0.028-0.003-0.041-0.01
		c-0.017-0.014-0.034-0.031-0.052-0.045c0.017-0.014,0.031-0.038,0.052-0.045c0.151-0.045,0.306-0.062,0.465-0.048
		c0.003,0,0.01,0,0.01,0.003c0.021,0.014,0.041,0.031,0.059,0.045C13.52,7.386,13.506,7.41,13.485,7.417z M13.668,6.794
		c-0.01-0.028,0.007-0.072,0.028-0.096c0.079-0.093,0.193-0.127,0.32-0.145c0.024,0.003,0.055,0.003,0.083,0.01
		c0.048,0.01,0.069,0.045,0.048,0.09c-0.014,0.031-0.031,0.062-0.059,0.083c-0.1,0.076-0.21,0.124-0.337,0.11
		C13.72,6.842,13.678,6.818,13.668,6.794z M14.308,7.203c-0.055,0.038-0.11,0.079-0.172,0.107c-0.062,0.028-0.127,0.041-0.193,0.055
		c-0.017,0.003-0.038-0.007-0.059-0.014c0.01-0.017,0.014-0.038,0.028-0.052c0.076-0.072,0.251-0.148,0.344-0.152
		c0.01,0,0.021-0.003,0.031,0c0.014,0.003,0.034,0.007,0.034,0.014C14.326,7.176,14.319,7.197,14.308,7.203z M14.794,6.666
		c-0.072,0.103-0.176,0.155-0.31,0.169c-0.028-0.003-0.062-0.003-0.093-0.017c-0.055-0.017-0.069-0.059-0.034-0.107
		c0.072-0.103,0.179-0.152,0.3-0.172c0.024-0.003,0.055-0.003,0.083,0C14.818,6.546,14.842,6.601,14.794,6.666z M14.753,6.06
		c0.062-0.114,0.165-0.162,0.282-0.186c0.024,0.003,0.045,0.003,0.065,0.007c0.045,0.01,0.062,0.041,0.052,0.086
		c-0.034,0.165-0.196,0.244-0.324,0.255C14.746,6.226,14.718,6.129,14.753,6.06z M15.066,6.749
		c-0.052,0.003-0.069-0.017-0.045-0.062c0.062-0.114,0.152-0.193,0.275-0.234c0.048-0.014,0.083,0.024,0.065,0.079
		C15.328,6.628,15.173,6.746,15.066,6.749z M15.434,6.174c-0.062,0.041-0.09,0.024-0.093-0.052c0-0.127,0.107-0.269,0.213-0.324
		c0.048-0.021,0.079,0.007,0.076,0.062C15.617,5.998,15.541,6.095,15.434,6.174z M15.792,5.496c-0.031,0.014-0.076,0.014-0.11,0.007
		c-0.021-0.003-0.045-0.034-0.052-0.055c-0.024-0.127,0.072-0.296,0.193-0.337c0.069-0.028,0.148,0.021,0.148,0.086
		C15.975,5.32,15.892,5.461,15.792,5.496z M16.113,4.642c-0.045,0.059-0.086,0.117-0.124,0.182
		c-0.017,0.031-0.038,0.041-0.069,0.031c-0.21-0.069-0.368,0.083-0.399,0.293c-0.007,0.045-0.007,0.096-0.003,0.145
		c0.003,0.048,0.017,0.093,0.028,0.145c-0.024,0.01-0.048,0.017-0.069,0.031c-0.055,0.038-0.114,0.079-0.165,0.124
		c-0.059,0.055-0.055,0.059-0.107,0.003c-0.086-0.09-0.207-0.114-0.317-0.065c-0.138,0.065-0.227,0.172-0.255,0.324
		c-0.01,0.065-0.014,0.131-0.01,0.193c0.003,0.055-0.01,0.096-0.048,0.134c-0.134,0.127-0.269,0.176-0.451,0.09
		c-0.214-0.1-0.348-0.076-0.51,0.1c-0.024,0.024-0.048,0.048-0.072,0.072c-0.045-0.045-0.079-0.09-0.121-0.121
		c-0.152-0.11-0.382-0.093-0.51,0.045c-0.059,0.062-0.103,0.145-0.155,0.217c-0.01,0.014-0.021,0.031-0.034,0.059
		c-0.017-0.052-0.028-0.09-0.041-0.131c-0.086-0.262-0.413-0.351-0.63-0.176c-0.117,0.093-0.169,0.213-0.176,0.358
		c-0.003,0.065,0.021,0.079,0.079,0.055c0.117-0.052,0.234-0.09,0.365-0.083c0.096,0.007,0.169,0.059,0.227,0.131
		c0.007,0.01-0.003,0.048-0.017,0.062c-0.072,0.072-0.162,0.114-0.269,0.124c-0.12,0.01-0.238-0.007-0.341-0.079
		c-0.169-0.117-0.337-0.096-0.506,0.01c-0.076,0.048-0.055,0.045-0.11-0.024c-0.152-0.193-0.351-0.269-0.596-0.227
		c-0.048,0.01-0.096,0.014-0.138,0.028c-0.045,0.01-0.065-0.003-0.083-0.038c-0.065-0.117-0.155-0.2-0.293-0.22
		c-0.11-0.017-0.213,0.003-0.31,0.052c-0.031,0.014-0.059,0.031-0.09,0.048c-0.107-0.32-0.341-0.386-0.64-0.306
		C9.133,6.005,8.999,5.892,8.813,5.83c0.003-0.055,0.014-0.107,0.014-0.155C8.83,5.54,8.758,5.454,8.637,5.41
		c-0.055-0.021-0.069-0.048-0.069-0.1c0-0.083-0.017-0.162-0.079-0.224C8.476,5.072,8.462,5.058,8.445,5.048
		C8.331,5,8.317,4.897,8.317,4.793c0-0.134,0.01-0.265,0.003-0.396C8.317,4.335,8.286,4.273,8.262,4.211
		C8.245,4.177,8.248,4.16,8.276,4.132C8.324,4.08,8.369,4.025,8.407,3.967c0.052-0.086,0.034-0.182,0.024-0.275
		C8.424,3.647,8.414,3.598,8.403,3.554C8.39,3.512,8.4,3.485,8.441,3.461c0.11-0.069,0.176-0.169,0.186-0.296
		c0.007-0.055-0.003-0.11-0.021-0.162C8.582,2.917,8.586,2.91,8.662,2.868c0.186-0.103,0.275-0.265,0.286-0.475
		c0-0.014,0.003-0.031,0.003-0.045c-0.007-0.034,0.01-0.045,0.041-0.052c0.279-0.069,0.417-0.262,0.461-0.534
		c0.003-0.041,0.017-0.059,0.069-0.062c0.172-0.003,0.334-0.045,0.451-0.176c0.059-0.062,0.086-0.148,0.127-0.224
		c0.01-0.017,0.031-0.038,0.045-0.038c0.224,0.003,0.389-0.107,0.534-0.258c0.021-0.024,0.038-0.031,0.069-0.024
		c0.048,0.014,0.096,0.024,0.145,0.024c0.134,0.007,0.234-0.062,0.31-0.165c0.034-0.045,0.065-0.055,0.121-0.038
		c0.155,0.055,0.3,0.021,0.441-0.055c0.041-0.024,0.076-0.034,0.127-0.014c0.145,0.052,0.286,0.034,0.427-0.021
		c0.024-0.01,0.055-0.007,0.076,0.003c0.151,0.072,0.303,0.086,0.458,0.014c0.052-0.021,0.083-0.017,0.124,0.028
		c0.103,0.11,0.238,0.148,0.379,0.096c0.124-0.048,0.196-0.017,0.272,0.079c0.086,0.107,0.203,0.176,0.341,0.2
		c0.034,0.003,0.072,0.003,0.107-0.003c0.038-0.007,0.052,0.01,0.062,0.038c0.079,0.172,0.2,0.296,0.393,0.334
		c0.034,0.007,0.076,0.01,0.11,0.007c0.052-0.007,0.072,0.01,0.089,0.055c0.052,0.148,0.134,0.275,0.265,0.365
		c0.069,0.052,0.155,0.086,0.234,0.117c0.045,0.017,0.065,0.034,0.069,0.083c0.014,0.155,0.072,0.289,0.189,0.393
		c0.045,0.041,0.103,0.065,0.158,0.096c0.024,0.01,0.034,0.021,0.028,0.052c-0.069,0.224,0.014,0.393,0.186,0.534
		c0.059,0.048,0.059,0.045,0.024,0.114c-0.055,0.117-0.103,0.234-0.093,0.368c0.007,0.096,0.062,0.176,0.141,0.207
		c-0.01-0.055-0.028-0.107-0.031-0.162c-0.007-0.045-0.003-0.096,0.007-0.141c0.003-0.017,0.031-0.045,0.048-0.041
		c0.017,0,0.041,0.024,0.045,0.045c0.014,0.038,0.017,0.079,0.017,0.121c0.003,0.103,0.034,0.193,0.096,0.275
		c0.007,0.014,0.014,0.038,0.007,0.052c-0.083,0.176-0.045,0.351,0.007,0.527C16.137,4.6,16.133,4.618,16.113,4.642z"/>
	<path d="M11.623,6.729c-0.063-0.042-0.12-0.088-0.185-0.118c-0.05-0.023-0.109-0.032-0.165-0.035
		c-0.071-0.004-0.142,0.004-0.213,0.007c-0.088,0.004-0.128-0.032-0.136-0.121c-0.009-0.105,0.067-0.244,0.168-0.29
		c0.287-0.131,0.616,0.032,0.617,0.395C11.71,6.637,11.675,6.692,11.623,6.729z"/>
	<path d="M12.457,6.021c-0.072-0.204,0.005-0.35,0.199-0.434c0.193-0.084,0.384-0.002,0.498,0.166
		c0.072,0.105,0.029,0.323-0.07,0.392C12.97,5.953,12.722,5.856,12.457,6.021z"/>
	<path d="M11.525,6.026c-0.103-0.062-0.124-0.327,0.056-0.418c0.309-0.155,0.663,0.07,0.652,0.415
		c-0.001,0.016-0.01,0.031-0.016,0.047c-0.012-0.009-0.027-0.017-0.036-0.028c-0.093-0.114-0.214-0.158-0.358-0.141
		c-0.048,0.006-0.1,0.005-0.142,0.024C11.627,5.948,11.581,5.989,11.525,6.026z"/>
	<path d="M9.946,6.3C9.825,6.117,9.688,5.976,9.463,5.973c-0.048-0.147,0.086-0.306,0.248-0.3c0.148,0.005,0.242,0.086,0.305,0.213
		c0.055,0.11,0.057,0.22-0.001,0.328C9.998,6.244,9.972,6.268,9.946,6.3z"/>
	<path d="M10.773,6.524c-0.033-0.041-0.055-0.075-0.083-0.103c-0.096-0.098-0.21-0.146-0.35-0.135
		c-0.096,0.008-0.11-0.01-0.105-0.108c0.008-0.158,0.171-0.276,0.352-0.228c0.165,0.044,0.255,0.184,0.257,0.325
		c0.001,0.059-0.012,0.119-0.025,0.177C10.815,6.475,10.793,6.494,10.773,6.524z"/>
	<path d="M11.156,5.972c-0.04-0.125-0.089-0.241-0.231-0.277c-0.124-0.032-0.245-0.04-0.355,0.04
		c-0.038-0.09-0.006-0.176,0.087-0.244c0.171-0.126,0.445-0.077,0.553,0.106c0.059,0.099,0.074,0.207,0.017,0.316
		c-0.013,0.024-0.028,0.047-0.043,0.07C11.175,5.978,11.166,5.975,11.156,5.972z"/>
	<path d="M10.337,5.768c-0.043-0.108-0.078-0.211-0.169-0.277c-0.093-0.068-0.201-0.068-0.319-0.054
		C9.852,5.41,9.851,5.39,9.858,5.373c0.047-0.118,0.135-0.179,0.261-0.201c0.092-0.016,0.167,0.001,0.233,0.064
		c0.062,0.06,0.094,0.135,0.1,0.221c0.006,0.093-0.002,0.183-0.061,0.261C10.378,5.735,10.36,5.747,10.337,5.768z"/>
	<path d="M11.08,5.283c-0.056-0.046-0.067-0.147-0.034-0.229c0.082-0.201,0.366-0.234,0.491-0.146
		c0.159,0.112,0.219,0.261,0.154,0.429c-0.008,0.02-0.021,0.039-0.031,0.058c-0.041-0.063-0.077-0.126-0.12-0.182
		c-0.077-0.099-0.274-0.156-0.385-0.034C11.126,5.211,11.105,5.248,11.08,5.283z"/>
	<path d="M14.442,5.43c-0.081-0.091-0.086-0.195-0.076-0.298c0.024-0.231,0.209-0.35,0.432-0.283
		c0.126,0.038,0.199,0.185,0.153,0.315c-0.006-0.003-0.013-0.004-0.016-0.009c-0.077-0.103-0.183-0.099-0.285-0.031
		c-0.092,0.061-0.148,0.148-0.186,0.25C14.458,5.39,14.451,5.407,14.442,5.43z"/>
	<path d="M14.057,6.083c-0.081-0.217,0.006-0.465,0.262-0.518c0.141-0.03,0.229,0.036,0.247,0.181
		c0.008,0.066,0.011,0.131-0.024,0.19c-0.042-0.012-0.082-0.025-0.123-0.034c-0.1-0.021-0.183,0.013-0.255,0.081
		C14.129,6.014,14.096,6.046,14.057,6.083z"/>
	<path d="M13.925,5.985c-0.082-0.103-0.179-0.153-0.31-0.131c-0.126,0.021-0.208,0.102-0.282,0.2
		c-0.047-0.145,0.037-0.316,0.177-0.4c0.112-0.067,0.295-0.043,0.367,0.036C13.938,5.757,13.982,5.868,13.925,5.985z"/>
	<path d="M12.624,5.403c-0.062-0.122-0.165-0.193-0.284-0.235c-0.128-0.045-0.245-0.007-0.338,0.099
		c-0.026-0.077,0.044-0.193,0.145-0.257c0.155-0.099,0.294-0.063,0.413,0.031C12.661,5.121,12.698,5.318,12.624,5.403z"/>
	<path d="M14.172,5.462c0.024-0.14-0.019-0.25-0.148-0.311c-0.135-0.064-0.233,0.014-0.321,0.111
		c-0.005-0.003-0.01-0.007-0.015-0.01c0.001-0.029,0-0.058,0.004-0.086c0.02-0.172,0.182-0.272,0.349-0.226
		c0.185,0.051,0.295,0.285,0.192,0.459c-0.014,0.023-0.031,0.044-0.047,0.066C14.181,5.464,14.177,5.463,14.172,5.462z"/>
	<path d="M12.98,5.344c-0.049-0.117,0.001-0.264,0.11-0.34c0.113-0.079,0.284-0.097,0.393-0.006c0.089,0.074,0.15,0.265,0.106,0.353
		c-0.045-0.147-0.142-0.205-0.289-0.198C13.16,5.159,13.057,5.221,12.98,5.344z"/>
	<path d="M11.399,4.375c-0.021-0.151-0.073-0.277-0.223-0.335c-0.154-0.061-0.267,0.008-0.364,0.124
		c-0.023-0.097,0.07-0.231,0.197-0.284c0.143-0.06,0.324-0.001,0.399,0.11C11.484,4.101,11.471,4.314,11.399,4.375z"/>
	<path d="M10.83,5.071c0.016-0.145-0.031-0.265-0.14-0.359c-0.125-0.108-0.246-0.066-0.366,0.013
		c-0.02-0.089,0.038-0.174,0.136-0.207c0.187-0.064,0.394,0.047,0.456,0.244c0.03,0.095,0.039,0.187-0.029,0.271
		c-0.012,0.015-0.027,0.028-0.041,0.043C10.84,5.074,10.835,5.073,10.83,5.071z"/>
	<path d="M15.457,5.116c-0.088-0.017-0.178-0.065-0.251,0.006c-0.058,0.057-0.101,0.131-0.153,0.2
		c-0.004-0.013-0.013-0.03-0.015-0.047c-0.017-0.115-0.008-0.228,0.038-0.336c0.036-0.085,0.122-0.14,0.205-0.129
		c0.087,0.011,0.158,0.083,0.17,0.177C15.455,5.025,15.454,5.065,15.457,5.116z"/>
	<path d="M11.539,4.6c-0.034-0.112,0.051-0.277,0.135-0.316c0.117-0.054,0.314-0.075,0.431,0.062
		c0.072,0.085,0.126,0.235,0.05,0.367c-0.038-0.15-0.094-0.288-0.258-0.313C11.741,4.376,11.632,4.473,11.539,4.6z"/>
	<path d="M12.492,4.686c-0.036-0.139,0.038-0.276,0.164-0.333c0.135-0.061,0.314-0.018,0.4,0.095c0.082,0.108,0.1,0.247,0.038,0.322
		c-0.005-0.016-0.009-0.027-0.011-0.039c-0.025-0.134-0.134-0.228-0.269-0.227c-0.053,0-0.106,0.008-0.158,0.019
		c-0.057,0.012-0.099,0.047-0.123,0.102C12.522,4.646,12.505,4.665,12.492,4.686z"/>
	<path d="M14.505,4.457c-0.08-0.101-0.176-0.139-0.298-0.107c-0.121,0.032-0.155,0.14-0.203,0.24
		c-0.081-0.097-0.06-0.23,0.045-0.363c0.082-0.103,0.214-0.102,0.327-0.052C14.461,4.211,14.532,4.368,14.505,4.457z"/>
	<path d="M13.303,4.021c-0.038-0.056-0.065-0.104-0.1-0.146c-0.074-0.087-0.171-0.112-0.28-0.087
		c-0.057,0.013-0.093,0.052-0.109,0.108c-0.007,0.023-0.013,0.046-0.019,0.069c-0.073-0.081-0.04-0.248,0.06-0.309
		c0.167-0.102,0.399-0.022,0.461,0.164C13.337,3.882,13.346,3.95,13.303,4.021z"/>
	<path d="M13.73,4.553c-0.007-0.032-0.014-0.065-0.02-0.097c-0.014-0.074-0.053-0.13-0.123-0.163
		c-0.075-0.035-0.157-0.017-0.22,0.053c-0.021,0.023-0.039,0.049-0.054,0.076c-0.015,0.026-0.024,0.056-0.036,0.084
		c-0.005-0.001-0.01-0.001-0.015-0.002c0.001-0.036-0.004-0.074,0.004-0.109c0.015-0.069,0.029-0.14,0.058-0.203
		c0.05-0.109,0.164-0.137,0.268-0.077c0.125,0.072,0.194,0.176,0.185,0.323c-0.003,0.039-0.018,0.077-0.027,0.116
		C13.743,4.554,13.736,4.554,13.73,4.553z"/>
	<path d="M12.631,4.107c-0.08-0.119-0.184-0.184-0.324-0.194c-0.157-0.011-0.222,0.109-0.301,0.215
		c-0.033-0.087,0.005-0.234,0.084-0.29c0.153-0.107,0.221-0.124,0.393-0.035C12.586,3.856,12.649,3.983,12.631,4.107z"/>
	<path d="M10.726,3.962c-0.029-0.049-0.05-0.09-0.076-0.127c-0.089-0.128-0.187-0.163-0.337-0.124
		c-0.04,0.01-0.079,0.024-0.119,0.034c-0.014,0.003-0.029,0-0.043,0c0.001-0.015-0.001-0.031,0.004-0.045
		c0.021-0.059,0.07-0.093,0.122-0.122c0.196-0.111,0.436,0.011,0.474,0.23C10.759,3.858,10.763,3.906,10.726,3.962z"/>
	<path d="M9.042,3.423c0.122-0.122,0.374-0.08,0.406,0.107C9.469,3.659,9.432,3.833,9.29,3.889c0.006-0.047,0.011-0.09,0.017-0.133
		c0.023-0.165-0.069-0.268-0.202-0.313C9.086,3.437,9.066,3.431,9.042,3.423z"/>
	<path d="M9.241,5.043c0.037-0.078,0.152-0.12,0.241-0.095c0.112,0.031,0.225,0.185,0.235,0.287
		c0.006,0.063,0.016,0.123-0.015,0.181C9.693,5.434,9.678,5.45,9.657,5.468C9.659,5.184,9.481,5.082,9.241,5.043z"/>
	<path d="M14.154,3.839c-0.037-0.083-0.054-0.166-0.013-0.245c0.025-0.047,0.064-0.091,0.106-0.125
		c0.098-0.08,0.211-0.073,0.297,0.019c0.025,0.027,0.031,0.071,0.04,0.112c-0.099-0.022-0.19-0.029-0.278,0.018
		C14.218,3.665,14.193,3.754,14.154,3.839z"/>
	<path d="M15.626,4.269c-0.004,0-0.006,0.001-0.008,0c-0.044-0.011-0.09-0.041-0.133-0.005c-0.054,0.045-0.088,0.105-0.089,0.175
		c-0.001,0.058,0.015,0.115,0.022,0.173c0.002,0.013,0.001,0.026,0.002,0.038c-0.014-0.002-0.036,0.001-0.041-0.008
		c-0.027-0.039-0.063-0.079-0.072-0.123c-0.019-0.101-0.012-0.204,0.027-0.302c0.023-0.058,0.056-0.11,0.123-0.123
		C15.56,4.074,15.631,4.147,15.626,4.269z"/>
	<path d="M15.845,4.674c-0.016-0.014-0.035-0.026-0.048-0.042c-0.08-0.093-0.096-0.319-0.031-0.424
		c0.028-0.046,0.062-0.088,0.122-0.081c0.064,0.007,0.095,0.059,0.118,0.112c0.003,0.008-0.01,0.034-0.019,0.035
		c-0.09,0.017-0.119,0.086-0.13,0.162c-0.008,0.062,0.001,0.127,0.002,0.19c0,0.013,0,0.026-0.001,0.04
		C15.854,4.668,15.849,4.671,15.845,4.674z"/>
	<path d="M10.084,4.77c-0.019-0.102-0.031-0.2-0.056-0.294c-0.03-0.115-0.11-0.18-0.229-0.196C9.771,4.276,9.743,4.268,9.703,4.259
		C9.78,4.19,9.862,4.199,9.939,4.216c0.111,0.025,0.189,0.097,0.211,0.212C10.174,4.55,10.175,4.671,10.084,4.77z"/>
	<path d="M9.951,3.826C9.93,3.721,9.939,3.617,9.865,3.534C9.79,3.451,9.689,3.44,9.582,3.414c0.061-0.071,0.134-0.084,0.213-0.082
		c0.077,0.002,0.201,0.103,0.229,0.184C10.057,3.613,10.027,3.756,9.951,3.826z"/>
	<path d="M14.894,3.894c-0.129-0.151-0.057-0.397,0.112-0.439c0.088-0.022,0.235,0.048,0.24,0.155
		C15.05,3.595,14.901,3.65,14.894,3.894z"/>
	<path d="M13.389,1.429c-0.06,0.104-0.221,0.168-0.32,0.128c-0.135-0.055-0.214-0.162-0.252-0.304
		C12.986,1.374,13.177,1.424,13.389,1.429z"/>
	<path d="M9.294,6.093C9.286,6.059,9.279,6.038,9.276,6.017C9.253,5.85,9.152,5.754,8.999,5.702
		c-0.02-0.007-0.037-0.025-0.055-0.037c0.019-0.012,0.036-0.03,0.057-0.036c0.119-0.033,0.225,0.007,0.3,0.091
		c0.082,0.091,0.088,0.207,0.032,0.32C9.326,6.055,9.312,6.068,9.294,6.093z"/>
	<path d="M14.699,4.645c-0.054-0.031-0.078-0.109-0.06-0.178c0.033-0.127,0.165-0.226,0.297-0.222
		c0.057,0.002,0.118,0.046,0.134,0.098c0.012,0.036-0.007,0.063-0.043,0.052c-0.074-0.022-0.15-0.028-0.204,0.03
		c-0.046,0.05-0.073,0.118-0.108,0.179C14.709,4.616,14.705,4.629,14.699,4.645z"/>
	<path d="M14.112,1.361c-0.018,0.069-0.063,0.096-0.115,0.109c-0.138,0.036-0.236-0.035-0.32-0.132
		c-0.046-0.053-0.052-0.147-0.016-0.21C13.774,1.273,13.92,1.357,14.112,1.361z"/>
	<path d="M9.163,4.174c0.164-0.062,0.276-0.013,0.356,0.137c0.056,0.105,0.056,0.33-0.06,0.381C9.471,4.46,9.415,4.265,9.163,4.174z
		"/>
	<path d="M11.999,1.147c-0.009,0.087-0.04,0.165-0.115,0.218c-0.094,0.065-0.196,0.089-0.3,0.026
		c-0.062-0.038-0.111-0.091-0.115-0.183c0.03,0.01,0.052,0.015,0.073,0.024c0.102,0.044,0.207,0.06,0.311,0.017
		C11.904,1.227,11.947,1.184,11.999,1.147z"/>
	<path d="M9.079,5.369C9.041,5.189,8.975,5.028,8.786,4.96c0.033-0.071,0.135-0.092,0.207-0.043c0.104,0.07,0.192,0.247,0.147,0.377
		C9.131,5.323,9.113,5.347,9.098,5.373C9.092,5.372,9.085,5.37,9.079,5.369z"/>
	<path d="M13.941,3.684c-0.269-0.064-0.303-0.056-0.482,0.116c-0.015-0.069,0-0.128,0.038-0.178c0.07-0.094,0.225-0.161,0.351-0.101
		C13.91,3.552,13.944,3.609,13.941,3.684z"/>
	<path d="M14.287,1.517c0.075,0.204,0.227,0.29,0.424,0.313c-0.055,0.089-0.211,0.114-0.329,0.037
		C14.286,1.804,14.226,1.626,14.287,1.517z"/>
	<path d="M15.587,3.116c-0.079,0.009-0.128-0.039-0.178-0.081c-0.101-0.085-0.094-0.202-0.082-0.316
		c0.005-0.052,0.046-0.09,0.111-0.103C15.432,2.801,15.473,2.968,15.587,3.116z"/>
	<path d="M15.096,3.172c-0.098,0.007-0.213-0.096-0.247-0.227c-0.033-0.122,0.022-0.214,0.143-0.24
		c0.008-0.002,0.016-0.001,0.03-0.001c-0.051,0.08-0.051,0.164-0.025,0.244C15.021,3.024,15.061,3.096,15.096,3.172z"/>
	<path d="M9.289,2.247c0.013,0.033,0.032,0.066,0.038,0.1c0.027,0.149-0.12,0.324-0.271,0.324c-0.022,0-0.044-0.014-0.066-0.022
		c0.012-0.019,0.02-0.044,0.037-0.056c0.107-0.08,0.193-0.174,0.228-0.307c0.003-0.013,0.012-0.024,0.018-0.035
		C9.279,2.249,9.284,2.248,9.289,2.247z"/>
	<path d="M10.625,1.537c0.188,0.01,0.376,0.02,0.519-0.138c0.029,0.104-0.047,0.224-0.161,0.248c-0.118,0.024-0.23,0-0.331-0.068
		c-0.011-0.007-0.019-0.019-0.029-0.029C10.624,1.545,10.624,1.541,10.625,1.537z"/>
	<path d="M10.092,1.56c0.19-0.034,0.333-0.133,0.434-0.293c0.058,0.074,0.02,0.195-0.08,0.281
		C10.344,1.635,10.172,1.646,10.092,1.56z"/>
	<path d="M8.838,2.83c0.11,0.017,0.157,0.127,0.139,0.232C8.956,3.184,8.841,3.276,8.711,3.269C8.81,3.138,8.881,3.001,8.838,2.83z"
		/>
	<path d="M14.716,2.395c-0.129,0.069-0.253,0.051-0.341-0.04C14.298,2.277,14.271,2.108,14.33,2
		C14.38,2.21,14.486,2.357,14.716,2.395z"/>
	<path d="M13.578,1.046c-0.028,0.078-0.136,0.133-0.221,0.12c-0.12-0.019-0.252-0.142-0.255-0.24
		c0.077,0.034,0.151,0.078,0.23,0.098C13.409,1.044,13.494,1.04,13.578,1.046z"/>
	<path d="M12.959,0.895c-0.003,0.096-0.091,0.173-0.253,0.161c-0.121-0.009-0.257-0.124-0.253-0.204
		c0.08,0.03,0.16,0.079,0.244,0.086C12.783,0.946,12.872,0.912,12.959,0.895z"/>
	<path d="M15.202,2.55c-0.073,0.023-0.133-0.006-0.181-0.046c-0.104-0.085-0.193-0.184-0.162-0.336
		c0.006-0.03,0.021-0.058,0.035-0.085c0.005-0.01,0.024-0.019,0.034-0.017c0.008,0.002,0.016,0.02,0.018,0.032
		c0.004,0.017,0.002,0.035,0.003,0.052c0.013,0.164,0.076,0.297,0.23,0.375c0.006,0.003,0.012,0.007,0.017,0.012
		C15.197,2.538,15.198,2.542,15.202,2.55z"/>
	<path d="M9.754,1.712c0.077,0.041,0.075,0.176,0.019,0.247C9.668,2.093,9.528,2.145,9.445,2.058
		C9.589,1.98,9.725,1.894,9.754,1.712z"/>
	<path d="M8.596,5.123C8.578,4.974,8.514,4.863,8.414,4.771C8.402,4.76,8.398,4.739,8.39,4.723C8.407,4.716,8.423,4.705,8.44,4.704
		c0.084-0.009,0.154,0.031,0.187,0.108c0.041,0.095,0.041,0.191-0.005,0.285C8.619,5.103,8.612,5.107,8.596,5.123z"/>
	<path d="M11.812,0.828c0.079,0.02,0.154,0.05,0.231,0.055c0.076,0.006,0.154-0.013,0.23-0.021c-0.03,0.121-0.136,0.165-0.256,0.149
		C11.903,0.996,11.802,0.896,11.812,0.828z"/>
	<path d="M11.411,0.945c0.036,0.102-0.044,0.216-0.175,0.259c-0.097,0.032-0.255-0.013-0.295-0.094
		C11.126,1.14,11.285,1.098,11.411,0.945z"/>
	<path d="M8.447,4.5c0.006-0.019,0.01-0.038,0.017-0.056C8.5,4.35,8.512,4.256,8.475,4.16c-0.004-0.01-0.008-0.02-0.009-0.03
		C8.464,4.106,8.463,4.082,8.461,4.057c0.027,0.009,0.062,0.01,0.078,0.028C8.57,4.121,8.601,4.163,8.611,4.207
		C8.633,4.306,8.603,4.396,8.534,4.47C8.516,4.49,8.485,4.499,8.46,4.513C8.456,4.508,8.452,4.504,8.447,4.5z"/>
	<path d="M8.719,4.201c0.09-0.043,0.191,0.002,0.216,0.066c0.05,0.127,0.052,0.252-0.016,0.374C8.912,4.653,8.901,4.663,8.886,4.68
		C8.882,4.583,8.885,4.495,8.873,4.409C8.86,4.32,8.796,4.258,8.719,4.201z"/>
	<path d="M15.527,3.762c-0.067-0.043-0.092-0.105-0.101-0.165c-0.01-0.067-0.004-0.138,0.009-0.204
		c0.013-0.066,0.09-0.099,0.153-0.078c0.031,0.011,0.047,0.033,0.022,0.057c-0.109,0.104-0.097,0.232-0.081,0.363
		C15.528,3.74,15.527,3.745,15.527,3.762z"/>
	<path d="M9.903,2.28c0.06,0.068,0.05,0.174-0.014,0.247C9.814,2.612,9.684,2.637,9.59,2.576C9.737,2.521,9.858,2.443,9.903,2.28z"
		/>
	<path d="M9.165,3.207c0.075-0.117,0.13-0.235,0.109-0.374c0.071,0.012,0.119,0.084,0.112,0.16C9.374,3.124,9.289,3.21,9.165,3.207z
		"/>
	<path d="M14.573,3.208c-0.024-0.008-0.052-0.012-0.072-0.026c-0.092-0.065-0.127-0.215-0.069-0.311
		c0.015-0.025,0.051-0.037,0.079-0.052c0.003-0.001,0.026,0.021,0.024,0.028c-0.032,0.122-0.014,0.236,0.048,0.345
		C14.579,3.197,14.576,3.203,14.573,3.208z"/>
	<path d="M11.919,3.613c-0.098-0.086-0.218-0.079-0.336-0.074c-0.001-0.011-0.003-0.016-0.002-0.018
		c0.042-0.061,0.194-0.118,0.264-0.099C11.917,3.443,11.964,3.553,11.919,3.613z"/>
	<path d="M8.597,3.43c0.099,0.037,0.13,0.12,0.104,0.239C8.685,3.738,8.609,3.823,8.515,3.805C8.591,3.693,8.63,3.572,8.597,3.43z"
		/>
	<path d="M10.589,3.089c-0.079-0.069-0.159-0.114-0.263-0.084c-0.01,0.003-0.024-0.006-0.036-0.009
		c0.003-0.011,0.003-0.024,0.01-0.032c0.068-0.089,0.221-0.089,0.284,0.002C10.61,3.002,10.619,3.043,10.589,3.089z"/>
	<path d="M8.845,3.931c0.041-0.126,0.06-0.248,0.002-0.375C8.928,3.575,8.973,3.65,8.976,3.743C8.978,3.81,8.928,3.921,8.845,3.931z
		"/>
	<path d="M9.813,2.788c0.075,0.035,0.113,0.126,0.099,0.214C9.898,3.078,9.829,3.137,9.74,3.143C9.817,3.036,9.841,2.92,9.813,2.788
		z"/>
	<path d="M18.63,22.126c-0.265,0.003-0.296-0.034-0.296-0.31c0-0.461,0.003-0.923,0-1.384c-0.003-0.282-0.052-0.331-0.334-0.331
		h-2.61c-0.393,0-0.406-0.014-0.413-0.41c-0.003-0.282-0.055-0.341-0.351-0.341c-0.141,0-0.227-0.052-0.279-0.179
		c-0.11-0.275-0.241-0.541-0.337-0.816c-0.303-0.909-0.654-1.821-0.551-2.803c0.069-0.689,0.172-1.381,0.344-2.049
		c0.53-2.052,1.419-3.963,2.383-5.84c0.041-0.076,0.076-0.155,0.117-0.231c-0.757,1.005-1.728,1.677-2.94,2.011
		c-0.09,0.024-0.2,0.155-0.213,0.248c-0.134,0.912-0.3,1.825-0.358,2.741c-0.117,1.797-0.176,3.595-0.248,5.395
		c-0.017,0.413-0.003,0.83,0.003,1.246c0.003,0.193-0.083,0.282-0.275,0.272c-0.065-0.003-0.134-0.007-0.203,0
		c-0.213,0.017-0.293-0.083-0.296-0.296c-0.041-1.877-0.055-3.753-0.148-5.626c-0.062-1.219-0.244-2.434-0.365-3.653
		c-0.021-0.224-0.127-0.324-0.341-0.375c-0.668-0.169-1.277-0.468-1.808-0.912c-0.324-0.272-0.62-0.582-0.916-0.868
		c0-0.007-0.01,0.01-0.003,0.017C8.3,7.858,8.41,8.081,8.52,8.305c0.937,1.908,1.787,3.849,2.231,5.939
		c0.169,0.813,0.282,1.639,0.093,2.452c-0.172,0.74-0.451,1.453-0.671,2.183c-0.11,0.358-0.306,0.527-0.706,0.475
		c-0.327-0.041-0.372,0.034-0.375,0.372c0,0.327-0.048,0.375-0.386,0.375H5.983c-0.265,0-0.317,0.055-0.32,0.324
		c-0.003,0.362,0.003,0.727,0,1.088c-0.007,0.534,0.107,0.654-0.568,0.616c-0.186-0.01-0.275,0.09-0.269,0.279
		c0.003,0.227,0,0.455,0,0.682c0,0.375,0.034,0.41,0.417,0.41h13.576c0.293,0,0.351-0.059,0.351-0.341v-0.475
		C19.174,22.205,19.246,22.109,18.63,22.126z M13.52,18.036c0.3,1.023,0.43,1.274,0.43,1.274H13.41c0,0-0.134-0.999-0.176-1.374
		c-0.041-0.375-0.107-1.357-0.107-1.357S13.399,17.619,13.52,18.036z M13.186,11.983c0.09-0.623,0.289-2.052,0.368-2.149
		c0.076-0.093,0.379-0.169,0.609-0.272c0.234-0.107,0.53-0.272,0.53-0.272s-0.358,0.727-0.754,1.697
		c-0.393,0.971-0.968,3.464-0.968,3.464S13.1,12.602,13.186,11.983z M10.4,10.988C10.004,10.017,9.646,9.29,9.646,9.29
		s0.296,0.165,0.53,0.272c0.231,0.103,0.534,0.179,0.613,0.272c0.076,0.096,0.279,1.525,0.365,2.149
		c0.086,0.62,0.214,2.469,0.214,2.469S10.793,11.958,10.4,10.988z M10.834,18.036c0.121-0.417,0.392-1.456,0.392-1.456
		s-0.065,0.981-0.107,1.357c-0.041,0.375-0.176,1.374-0.176,1.374h-0.541C10.404,19.31,10.535,19.058,10.834,18.036z M9.281,19.981
		h5.526v0.11H9.281V19.981z M14.209,20.56v0.968H9.75V20.56H14.209z M18.041,22.085H5.955v-0.11h12.086V22.085z"/>
</g>
</svg>
