<svg id="bc9f8353-f3c2-4ae7-ae83-c9aa446a8c17" data-name="Layer 1" xmlns="http://www.w3.org/2000/svg" viewBox="0 0 521.86 542.55"><title>rap_legal_</title><path d="M351.36,58.5c8.32,1.82,16.85,3,24.93,5.57,47,15.12,77.6,62.31,72.47,111.39-5.18,49.59-42.1,88.14-91.33,95.37-59.2,8.68-114.9-34.93-120.79-94.59-5.67-57.54,34-108.33,91.14-116.75,2.07-.3,4.13-.66,6.2-1Zm18,74.73-39.2,39.47c-5.06-5.43-9.83-10.57-14.29-15.35l-16.15,16.08c10.38,10.36,20.95,20.92,31,30.91l55-54.94Z"/><path d="M212.62,153.36c-2.71,48.17,15,86.66,52.5,116.59a169.34,169.34,0,0,0-17.32,72.7H177.23c-.86-8.49-1.41-17-2.64-25.42-4-27.65-15-52.44-31.65-74.77a6.61,6.61,0,0,1-1.66-3.41c-.15-13-.65-26,3.83-38.65,9.51-26.75,35-46,62.94-47C209.47,153.32,210.9,153.36,212.62,153.36Z"/><path d="M271.56,366.92c0,3.56,0,6.84,0,10.12.05,8.47,4.76,13.27,13.16,13.29,13.83,0,27.65,0,41.48,0h4.42v25H94v-25h14.64c10.4,0,20.81,0,31.21,0,8.4,0,13.11-4.81,13.16-13.29,0-3.28,0-6.56,0-10.12Z"/><path d="M330.64,439.6v23.21H94V439.6Z"/></svg>