<svg id="da1d2483-bf1f-4d6f-b205-e92223b954ec" data-name="Layer 1" xmlns="http://www.w3.org/2000/svg" viewBox="0 0 521.86 542.55"><title>rap_schedule_change_</title><path d="M132.67,303.8c1.12,14.78,4.11,28.57,10.11,41.44,22.86,49.05,61.26,76.76,115.49,79,40.6,1.67,74.16-15.46,100.69-46.05a122.22,122.22,0,0,0,25.8-48.95,9.8,9.8,0,0,1,7.78-7.6c8.16-2.07,16.38-1.59,24.55-.35,4.31.66,6.35,4.39,5,9.25-2.57,9.11-4.74,18.46-8.47,27.1-24,55.44-65.62,89.85-125,100.83-51.29,9.49-96.76-5.15-135.8-39.15-30.16-26.27-48.52-59.53-55.07-99.11-.87-5.28-1.23-10.65-1.87-16.41-2.78,0-5.6.45-8.18-.14-2.19-.49-4.94-1.73-5.89-3.48-.86-1.57-.33-4.82.83-6.43,8.48-11.74,17.23-23.29,26-34.83,3-4,7.4-4,10.4-.1,8.87,11.61,17.68,23.27,26.22,35.13a7.39,7.39,0,0,1,.61,6.47c-.87,1.66-3.58,2.74-5.69,3.26S135.5,303.8,132.67,303.8Z"/><path d="M426,257.35c2.76,0,5.45-.43,7.93.13,2.22.5,5.12,1.6,6,3.32s.47,5.08-.73,6.77c-8.35,11.84-17,23.46-25.67,35.08-3,4-7.33,4-10.36.06-8.86-11.47-17.62-23-26.42-34.53-1.65-2.15-2.65-4.79-.86-6.87a12.53,12.53,0,0,1,6.15-3.29c2.09-.54,4.43-.11,7.6-.11-1.49-7.78-2.54-15.14-4.33-22.32-12.52-50.29-56.84-89.12-108.18-96.37-47.4-6.69-103.45,17.75-129.74,68.6-4.32,8.36-7.45,17.42-10.34,26.41-1.74,5.43-4.72,9.13-10.05,9.76a89.52,89.52,0,0,1-20,.38c-6.57-.72-8.69-4.83-7.35-11.27C113.41,167.21,167.44,115.54,233.55,104c69.47-12.14,145,25,177.29,95.11a162.65,162.65,0,0,1,14.53,54C425.49,254.39,425.78,255.72,426,257.35Z"/><path d="M363,295.58a101.88,101.88,0,0,1-92.12,101.29c-55.58,5.64-106-35.25-111.14-90.9-3.7-40.22,11.86-72,44.67-95.49a8.34,8.34,0,0,0,3.1-5c3.24-21.48,21.34-37.9,43-38.18,10.07-.13,20.39-.42,30.18,1.48,18.11,3.52,31,18.54,33.79,36.76a8.11,8.11,0,0,0,3.15,4.94A102.3,102.3,0,0,1,363,295.58ZM261.09,205c-48.85-.11-89.91,40.72-90.12,89.61-.21,49.38,40.2,90,89.7,90.09s90.12-39.89,90.27-89.07A89.9,89.9,0,0,0,261.09,205Z"/><path d="M255,372.24c-37.39-1.54-69.89-34.62-71.62-73,5.19,0,10.37,0,15.56,0a12.29,12.29,0,0,0,4.38-.6,5.34,5.34,0,0,0,3.53-6.31c-.57-3.22-2.75-5-6.06-5-5.6-.07-11.21,0-16.81,0,.31-26.58,25.09-68.15,74-70.15,46.52-1.89,77.92,35.16,80.28,70.14-5.21,0-10.41,0-15.61,0-4.94,0-7.78,2.32-7.65,6.17s2.84,5.8,7.65,5.82c5.23,0,10.46,0,15.69,0-.41,34.22-29.77,70.33-71.38,73,0-6.11.06-12.2,0-18.29-.05-4-2.25-6.49-5.61-6.71-3.63-.24-6.3,2.48-6.35,6.71C254.91,359.94,255,365.93,255,372.24Zm12-85v-4.42q0-21.17,0-42.34c0-4.45-2.25-7.13-5.86-7.21s-6.1,2.62-6.11,7q0,26,0,52.08c0,4.66,2.25,6.87,6.92,6.91q11.05.09,22.1,0c4.31,0,7-2.53,6.92-6.16s-2.71-5.76-6.89-5.8C278.55,287.17,273.06,287.21,267,287.21Z"/></svg>