<?xml version="1.0" encoding="utf-8"?>
<!-- Generator: Adobe Illustrator 23.0.1, SVG Export Plug-In . SVG Version: 6.00 Build 0)  -->
<svg version="1.1" id="Capa_1" xmlns="http://www.w3.org/2000/svg" xmlns:xlink="http://www.w3.org/1999/xlink" x="0px" y="0px"
	 width="24px" height="24px" viewBox="0 0 24 24" enable-background="new 0 0 24 24" xml:space="preserve">
<g>
	<path d="M11.997,9.345c2.079,0,4.159-0.004,6.238,0.002c0.645,0.002,1.212,0.231,1.699,0.655c0.414,0.361,0.687,0.809,0.826,1.34
		c0.058,0.222,0.085,0.448,0.085,0.676c0,2.936,0.008,5.871-0.004,8.807c-0.005,1.088-0.52,1.891-1.483,2.399
		c-0.298,0.157-0.621,0.243-0.96,0.261c-0.107,0.006-0.213,0.013-0.32,0.013c-4.081,0.001-8.162,0.001-12.243,0
		c-0.579,0-1.11-0.161-1.578-0.504c-0.588-0.431-0.95-1.008-1.066-1.73c-0.025-0.153-0.036-0.309-0.036-0.464
		c-0.002-2.921-0.001-5.842-0.002-8.763c0-0.65,0.196-1.231,0.613-1.73C4.178,9.812,4.702,9.499,5.34,9.39
		c0.167-0.028,0.338-0.043,0.507-0.043C7.896,9.344,9.947,9.345,11.997,9.345C11.997,9.345,11.997,9.345,11.997,9.345z
		 M11.999,19.958c0.043-0.004,0.087-0.005,0.13-0.011c0.43-0.062,0.763-0.452,0.754-0.919c-0.012-0.634-0.003-1.269-0.004-1.904
		c0-0.049,0.016-0.076,0.057-0.104c0.101-0.07,0.205-0.141,0.292-0.227c0.394-0.388,0.575-0.859,0.529-1.414
		c-0.033-0.401-0.185-0.752-0.461-1.042c-0.457-0.479-1.018-0.66-1.668-0.527c-0.856,0.175-1.48,0.967-1.387,1.902
		c0.056,0.562,0.34,0.996,0.813,1.303c0.044,0.028,0.06,0.057,0.06,0.109c-0.002,0.647-0.002,1.294-0.001,1.94
		C11.113,19.56,11.509,19.956,11.999,19.958z"/>
	<path d="M18.186,8.46c-0.884,0-1.764,0-2.651,0c0-0.03,0-0.056,0-0.082c0-0.348,0.006-0.696-0.002-1.043
		c-0.015-0.712-0.111-1.41-0.361-2.081c-0.221-0.591-0.552-1.104-1.055-1.495c-0.325-0.253-0.694-0.411-1.094-0.5
		c-0.444-0.099-0.893-0.12-1.346-0.093c-0.377,0.022-0.744,0.086-1.099,0.221c-0.467,0.178-0.85,0.47-1.166,0.854
		C9.008,4.733,8.776,5.306,8.631,5.918c-0.124,0.525-0.168,1.058-0.17,1.596c-0.001,0.287,0,0.574,0,0.861c0,0.026,0,0.053,0,0.089
		c-0.034,0-0.059,0-0.085,0c-0.829,0-1.659-0.001-2.488,0.001c-0.067,0-0.086-0.017-0.085-0.085C5.81,7.924,5.8,7.467,5.819,7.01
		c0.048-1.18,0.283-2.316,0.828-3.374c0.307-0.596,0.699-1.13,1.192-1.587c0.54-0.5,1.159-0.873,1.846-1.135
		c0.413-0.158,0.838-0.269,1.275-0.335c0.484-0.073,0.97-0.093,1.46-0.064c0.683,0.04,1.343,0.177,1.979,0.427
		c0.729,0.288,1.375,0.705,1.923,1.267c0.488,0.5,0.863,1.076,1.154,1.71c0.28,0.611,0.472,1.249,0.576,1.911
		c0.061,0.387,0.1,0.78,0.119,1.171c0.023,0.473,0.014,0.948,0.018,1.422C18.19,8.433,18.188,8.442,18.186,8.46z"/>
</g>
</svg>
