<svg id="Layer_1" data-name="Layer 1" xmlns="http://www.w3.org/2000/svg" viewBox="0 0 521.86 542.55"><title>ICONO REGLAS</title><path d="M121.42,408.22c10.06-8,21.17-7.07,32.13-7.07q118.29,0,236.58,0c8.59,0,10.45-1.83,10.45-10.23q0-143.4,0-286.82c0-8.33-1.84-10.2-10.05-10.2-81.85,0-163.71.15-245.57-.15-13.42-.05-23.75,9.21-23.7,23.78.31,95.23.16,190.47.16,285.7Zm71-244.52c6.47-.06,12.93,0,19.79,0,0-2.35,0-4.31,0-6.28.11-8.76,5.77-14.56,14.56-14.66,10.87-.11,21.75,0,32.62,0h61.49c11.82,0,16.83,5,16.91,16.87,0,1.22.1,2.45.17,4.1H356c11.48,0,17.08,6,16.09,17.37-1.23,14-4.14,27.65-10.43,40.37-5.82,11.75-14.11,20.84-27.2,24.61a4.27,4.27,0,0,0-2.31,1.61c-8.18,13.28-20.22,20-35.95,21v41.83c2.48,0,4.7-.08,6.92,0,7.69.3,13.26,5.51,13.58,13.2.3,7.11.23,14.25.06,21.36-.12,5-2.82,7.19-8.5,7.22-13,.06-26,0-39,0-9.12,0-18.24,0-27.37,0-6.47,0-8.73-2.36-8.75-8.85,0-6.13-.06-12.25,0-18.38.09-8.9,5.62-14.41,14.54-14.57,2,0,3.94,0,6.14,0V268.85c-3.5-.6-7-.91-10.34-1.8A41.71,41.71,0,0,1,218.62,249c-.76-1.15-1.87-2.51-3.09-2.87-12.91-3.81-21.29-12.67-27.08-24.27-6.74-13.5-9.8-28-10.73-43C177.16,169.86,183.21,163.8,192.39,163.7ZM135.3,117.6a20.74,20.74,0,0,1,.29-4.1,6.54,6.54,0,0,1,6.95-5.5,6.76,6.76,0,0,1,6.63,6,31.45,31.45,0,0,1,.1,4.12v259a33.35,33.35,0,0,1-.07,3.74,6.94,6.94,0,0,1-6.75,6.31,6.81,6.81,0,0,1-6.89-5.68,22.43,22.43,0,0,1-.26-4.1Q135.28,247.47,135.3,117.6Z"/><path d="M396.62,415.87a16.14,16.14,0,0,0-5.86-.83q-123-.06-245.94,0c-1,0-2,0-3,0-11,.58-19.73,8.86-20.34,19.31-.64,11.11,6.79,20.94,17.93,22.19,7.73.87,15.65.17,23.61.17V442.93c-4.77,0-9.25.15-13.72,0s-7.05-3.13-6.88-7.22c.16-3.83,3-6.53,7.2-6.54q55.5-.06,111,0c4.41,0,7.25,2.83,7.27,6.85s-2.67,6.84-7.2,6.94c-7.75.15-15.5.06-23.25.07H233.3v13.95H391.92c6.26,0,8.64-2.35,8.66-8.56,0-8.5,0-17,0-25.49C400.62,419.71,399.59,417.08,396.62,415.87Z"/><path d="M255.17,254.46c12.87.06,25.73,0,38.6,0,18.53,0,30.11-11.65,30.12-30.23q0-31.67,0-63.33V157H226.24c-.07,1-.17,1.78-.17,2.51,0,22.11-.17,44.22.05,66.32C226.29,242.87,238.17,254.37,255.17,254.46Z"/><path d="M247.28,338.12h55.45V324.54H247.28Z"/><path d="M357.87,178H338.2a5.51,5.51,0,0,0-.39,1.27c0,16.36,0,32.72,0,49.44C350.49,222.31,358.2,193.74,357.87,178Z"/><path d="M211.93,228.43V178H192C191.09,197.4,201.89,224.45,211.93,228.43Z"/><path d="M268.17,268.77v41.37h13.59V268.77Z"/><path d="M175.19,481.7a15.19,15.19,0,0,0,.16,2.71c4.38-2.24,8.8-4.17,12.69-6.51,10.05-6.1,7.56-8,19.64.06,3.9,2.31,8,4.18,12.5,6.45V443.07h-45C175.18,456.18,175.17,468.94,175.19,481.7Z"/></svg>