<svg id="15289bfd-c993-48f2-8163-ad158e1bcdad" data-name="Layer 1" xmlns="http://www.w3.org/2000/svg" viewBox="0 0 521.86 542.55"><title>rap_logout_</title><g id="c72e31a4-1e71-4085-a7d5-09635089a935" data-name="CCdbzV"><path d="M263.87,97.38a5.32,5.32,0,0,0,.87.65c6.13,2.84,9.11,8,7.93,13.68-1.23,5.92-6.16,9.66-12.91,9.66H131.18c-16.51,0-26.3,9.81-26.3,26.34q0,129.7,0,259.4c0,16.45,9.86,26.25,26.4,26.26q64.29,0,128.57,0c9.4,0,15.42,8.16,12.19,16.38a12,12,0,0,1-11.44,7.59c-10,.06-20,0-30,0-33,0-66-.43-99,.13C103,458,83.86,437,81.4,416.34c0-.34-.35-.64-.53-1v-276a9.57,9.57,0,0,0,.65-1.7c2.65-14.92,10.39-26.48,23.62-33.77,5.45-3,11.8-4.4,17.73-6.53Z"/><path d="M344.87,313.38H331.13c-7.38,0-14.75.07-22.12,0-6.69-.1-12-4.91-12.06-11.38q-.26-24.56,0-49.11c.06-6.66,5.39-11.41,12.35-11.46,10.37-.07,20.74,0,31.11,0h4.46v-4.3c0-10.5,0-21,0-31.49a11.48,11.48,0,0,1,7.33-11.21A11.24,11.24,0,0,1,365.36,197q36,35.85,71.85,71.84c5.24,5.26,5,12.17-.45,17.65-10.2,10.3-20.49,20.52-30.74,30.77-13.17,13.16-26.38,26.29-39.49,39.51-4.08,4.1-8.68,6-14.21,3.68s-7.54-6.83-7.48-12.65c.12-10.13,0-20.25,0-30.37Z"/><path d="M200.76,373.38q-29.06,0-58.11,0c-9.1,0-13.62-4.71-13.81-13.88-.27-13.2.41-26.2,5.89-38.53a75.69,75.69,0,0,1,18-25.09c4.67-4.32,9.65-5.19,15.44-2.41q32.85,15.74,65.68-.13c5.46-2.64,10.38-1.89,14.84,2.21,15.64,14.34,23.75,32.1,24.19,53.33.08,3.87,0,7.74,0,11.62-.07,8-4.93,12.86-12.88,12.88Q230.38,373.42,200.76,373.38Z"/><path d="M248.87,229.59a48,48,0,1,1-47.68-48.21A48.07,48.07,0,0,1,248.87,229.59Z"/></g></svg>