<?xml version="1.0" encoding="utf-8"?>
<!-- Generator: Adobe Illustrator 22.0.1, SVG Export Plug-In . SVG Version: 6.00 Build 0)  -->
<svg version="1.1" id="Layer_1" xmlns="http://www.w3.org/2000/svg" xmlns:xlink="http://www.w3.org/1999/xlink" x="0px" y="0px"
	 viewBox="0 0 522 542.7" style="enable-background:new 0 0 522 542.7;" xml:space="preserve">
<style type="text/css">
	.st0{fill:none;stroke:#000000;stroke-width:7.1964;stroke-miterlimit:10;}
	.st1{fill:none;stroke:#000000;stroke-width:5.8382;stroke-miterlimit:10;}
</style>
<g id="ykETkn_2_">
	<g>
		<path d="M150.8,356.9c9.7,0,18,0,26.9,0c0,30,0,59.7,0,90c-8.4,0-16.9,0-26.9,0c0-9.4-0.3-18.7,0.1-28.1c0.4-7.2-3.4-10.5-14-10.3
			c-15.7,0.3-31.4,0.2-47.1,0c-8.6-0.1-12.6,2.6-12.6,8.8c0.1,20.3,0.1,40.6,0,60.9c0,5.8,4,8.4,12,8.3c16.5-0.1,32.9-0.1,49.4,0
			c8.9,0.1,12.4-3.1,12.1-9.1c-0.2-5.3,0-10.7,0-16.9c11.3,0,21.5-0.2,31.7,0.1c10.2,0.3,14.6-2.7,14.4-10.1
			c-0.4-13.7-0.1-27.5-0.1-41.6c9.4,0,17.7,0,27.6,0c0,7.4,0.4,14.6-0.1,21.8c-0.6,7.8,4.3,10.7,15,10.4c14.9-0.3,29.8-0.2,44.8,0
			c9.6,0.1,14.3-2.5,13.9-9.6c-0.4-7.3-0.1-14.5-0.1-23c10.9,0,21.1-0.3,31.2,0.1c11,0.4,14.9-2.9,14.9-10.5
			c-0.4-29.2-0.1-58.5-0.2-87.7c0-3.7,0-7.5,0-11.8c9.4,0,17.9,0,27.6,0c0,11.9,0.3,23.5-0.1,35c-0.3,7.4,4.1,10.2,14.4,10
			c15.3-0.3,30.6-0.2,45.9,0c9.1,0.1,13.4-2.4,13.4-9c-0.2-28.7-0.1-57.4,0-86.1c0-6.1-3.6-9-12.4-8.9c-16.1,0.1-32.1,0.1-48.2-0.1
			c-9.3-0.1-13.2,2.8-13,9.3c0.3,11.6,0.1,23.3,0.1,35.6c-9,0-17.5,0-26.9,0c-0.2-2.2-0.6-4.5-0.6-6.9c-0.1-28.4,0-56.9-0.1-85.3
			c0-10-1.7-11.1-16-11.1c-8.8,0-17.6-0.1-26.4-0.2c-0.7,0-1.4-0.3-3.5-0.9c0-7.1-0.2-14.6,0.1-22.1c0.3-6.5-3.6-9.4-13-9.3
			c-16.1,0.2-32.1,0.1-48.2,0c-8.7-0.1-12.6,2.8-12.4,8.9c0.2,7.5,0,15.1,0,23.1c-9.3,0-17.5,0-27.6,0c0-12.7,0-25.6,0-38.4
			c0-12.4-0.8-13-17.9-13c-8,0-16.1,0-24.1-0.1c-0.7,0-1.5-0.2-3.9-0.7c0-7.1-0.3-14.6,0.1-22.1c0.4-6.9-3.8-9.9-13.6-9.7
			c-15.7,0.2-31.4,0.2-47.1,0c-9.3-0.1-13,2.9-13,9.4c0.2,19.8,0.2,39.5,0,59.3c-0.1,6.4,3.5,9.5,12.9,9.4c16.1-0.2,32.1-0.1,48.2,0
			c8.6,0.1,12.7-2.6,12.6-8.8c-0.2-7.5,0-15.1,0-23.2c9.3,0,17.8,0,26.9,0c0,29.9,0,59.6,0,89.8c-8.7,0-17.2,0-26.9,0
			c0-7.7-0.2-15.2,0.1-22.7c0.2-6.6-4-9.3-13.2-9.2c-16.1,0.2-32.1,0.1-48.2,0c-8.8-0.1-12.3,2.9-12.2,9c0.2,20,0.2,40.1,0,60.1
			c0,6.1,3.5,9,12.3,8.9c16.5-0.1,32.9-0.1,49.4,0c8.1,0,11.9-2.6,11.9-8.4c-0.1-7.8,0-15.6,0-24.1c11.8,0,22.4-0.2,33,0.1
			c9.3,0.2,13.1-2.8,13-9.3c-0.3-13.8-0.1-27.6-0.1-42.1c9.1,0,17.6,0,27.5,0c0,7.1,0.3,14.4-0.1,21.6c-0.4,7.1,3.5,10.5,14,10.3
			c15.3-0.3,30.6-0.2,45.9,0c9.6,0.1,14.2-2.6,13.8-9.6c-0.4-7.3-0.1-14.5-0.1-22.4c9.2,0,17.7,0,26.9,0c0,66.8,0,133.3,0,200.3
			c-8.6,0-17.1,0-26.9,0c0-7.7-0.2-15.2,0.1-22.7c0.2-6.5-3.7-9.4-13-9.3c-16.1,0.2-32.1,0.1-48.2,0c-8.8-0.1-12.5,2.9-12.3,9
			c0.2,7.5,0,15.1,0,23.1c-9.2,0-17.4,0-27.6,0c0-12.1,0-24.4,0-36.7c0-14.7,0-14.7-21.3-14.7c-7.6,0-15.2,0-24.7,0
			c0-10-0.3-19.6,0.1-29.2c0.3-6.8-3.5-10-13.5-9.8c-15.7,0.2-31.4,0.2-47.1,0c-9.3-0.1-13.1,2.8-13.1,9.3c0.2,20,0.1,40.1,0,60.1
			c0,6.2,4.1,8.8,12.7,8.7c16.1-0.1,32.1-0.1,48.2,0c9.4,0.1,13.1-3.1,12.7-9.5C150.6,368,150.8,362.9,150.8,356.9z"/>
	</g>
</g>
</svg>
