<svg id="d912a823-0130-4e81-9d87-2532b78cbda3" data-name="Layer 1" xmlns="http://www.w3.org/2000/svg" viewBox="0 0 521.86 542.55"><title>rap_scorecard_</title><path d="M409.79,264c-1.34-.62-2.33-1-3.27-1.52a127.24,127.24,0,0,0-160.68,33.1,6.38,6.38,0,0,1-5.61,2.76q-55.12-.12-110.25-.06c-16.52,0-27.26-10.73-27.27-27.19q0-75.18,0-150.37c0-16.42,10.84-27.21,27.3-27.21H382.75c16.08,0,27.17,10.67,27.2,26.56.11,47,0,94,0,141C410,261.94,409.88,262.77,409.79,264ZM154,112.84c-6.38,0-12.76-.1-19.13,0-11.24.2-19.26,8.27-19.39,19.53q-.15,12.36,0,24.74c.13,11.38,8.35,19.55,19.75,19.62q18.56.1,37.12,0c11.25-.05,19.38-7.49,19.84-18.66.36-8.86.35-17.76,0-26.61-.44-11.1-8.33-18.45-19.45-18.63C166.53,112.76,160.27,112.84,154,112.84ZM355.32,227.9h16.09c7.23-.22,12.34-4.82,12.8-12a109.14,109.14,0,0,0,0-14.58,12.26,12.26,0,0,0-12.33-11.7q-16.27-.24-32.56,0c-7.18.12-12.28,5.51-12.45,12.77q-.13,6.36,0,12.73c.16,7.49,5.28,12.62,12.78,12.77C344.84,228,350.08,227.9,355.32,227.9Zm-211,0c5.24,0,10.48.07,15.72,0,7.84-.13,13-5.38,13.15-13.26.06-4,.08-8,0-12-.17-7.6-5.45-13-13-13.06q-15.72-.17-31.44,0c-7.61.07-12.94,5.38-13.15,13-.11,4.11-.1,8.24,0,12.35.18,7.64,5.4,12.86,13,13C133.79,228,139,227.89,144.27,227.9Zm70.52,0c5.24,0,10.48.08,15.72,0,7.47-.14,12.73-5.21,13-12.63.17-4.36.18-8.74,0-13.1-.32-7.22-5.59-12.47-12.77-12.56q-16.09-.21-32.19,0A12.6,12.6,0,0,0,186,202.27c-.11,4.24-.1,8.49,0,12.73.14,7.43,5.33,12.7,12.74,12.86C204.05,228,209.42,227.89,214.79,227.89Zm70.35,0h15.72c7.52-.2,12.69-5.07,13.07-12.61.21-4.35.21-8.74,0-13.1-.37-7.18-5.41-12.45-12.33-12.57q-16.47-.3-32.95,0c-6.95.13-12.08,5.61-12.24,12.6-.1,4.24-.08,8.49,0,12.73.13,7.64,5.31,12.8,13,12.93C274.66,228,279.9,227.89,285.14,227.9Z"/><path d="M269.43,289.67c12.33-14.9,49.48-30.31,70-29,.05,1.17.15,2.38.15,3.6,0,16.61-.09,33.23.09,49.84,0,3.23-.94,4.12-4.07,4.61-9.4,1.48-17.81,5.49-25.92,11.73Z"/><path d="M431.9,299.08c15.48,14.37,29.69,48.73,28.52,69.69H403.25a58.53,58.53,0,0,0-11.93-29.12Z"/><path d="M391.44,411.45c2.64-4.94,5.53-9.49,7.56-14.4s3.07-9.94,4.65-15.26h57a107.18,107.18,0,0,1-6.65,33,112.89,112.89,0,0,1-16.85,30.7c-3.23,4.21-7.13,4.62-10.83,1-11.46-11.32-22.82-22.73-34.2-34.12A4.46,4.46,0,0,1,391.44,411.45Z"/><path d="M301.15,411.3c-5.27,5.17-10.46,10.18-15.58,15.28-6.64,6.6-13.17,13.32-19.85,19.89-3.57,3.51-7.23,3.33-10.37-.23-13-14.76-24-43.8-24.17-64.39h57.46A60.36,60.36,0,0,0,301.15,411.3Z"/><path d="M381.21,329.56a57.18,57.18,0,0,0-28.65-11.64V260.3c26.73,1.45,49.7,11.38,69.51,28.58Z"/><path d="M371.45,375.66a25.54,25.54,0,0,1-51.07-.36c0-2.83-.81-4.11-3.41-5.14q-21.72-8.67-43.26-17.75c-1.9-.8-4.19-2.47-4.72-4.22s.17-4.69,1.33-6.43c1.58-2.37,4.39-2.57,7.11-1.46l24.6,10c6.81,2.77,13.66,5.47,20.41,8.39,2.15.93,3.36.7,5-1.1a25.46,25.46,0,0,1,44,18.06Z"/><path d="M277.81,368.6H231.06c1.8-26.6,11.32-49.72,28.23-69.31l33.38,33.27c-3.24-1.26-7.29-3-11.45-4.46A19.06,19.06,0,0,0,255.77,347c.42,7.74,4.32,13.42,11.46,16.65,3.49,1.59,7.09,3,10.64,4.44Z"/></svg>