<svg id="a93ae128-e384-48fd-a33c-7d2e13a003e9" data-name="Layer 1" xmlns="http://www.w3.org/2000/svg" viewBox="0 0 521.86 542.55"><title>rap_help_</title><path d="M252.51,66.48h24a21,21,0,0,0,3.09.66c32,2.27,62,11.42,89.35,28.19,53.05,32.51,85.72,79.38,97.17,140.72,1.44,7.67,2.15,15.49,3.19,23.23v24q-.49,4.32-1,8.64c-4.84,43.36-21.12,81.81-50.18,114.43C379.57,449.66,331,473,273.1,475.81c-40.39,2-78.38-7.45-113-28.54C107,414.84,74.37,367.89,62.9,306.53c-1.43-7.68-2.14-15.49-3.19-23.25v-24q.49-4.3,1-8.63c4.9-44.07,21.73-83,51.44-115.91,31.54-35,70.61-56.84,117.1-65.07C236.94,68.31,244.75,67.53,252.51,66.48ZM230.82,308.81h-.49c0,6.93-.12,13.87,0,20.8.14,6.65,3.32,9.8,9.91,9.85q15.79.14,31.59,0c6.45-.07,9.51-3.18,9.63-9.63.1-5.33,0-10.67.05-16,0-3.3-.71-7.19.78-9.7,1.09-1.84,5.25-1.81,8-2.72,40.86-13.49,64.48-52,58.28-94.94-6.84-47.37-55.37-80.68-101.94-69.72-31.38,7.38-52.42,26.6-63.22,56.93-3.94,11.09-4.61,22.68-4.26,34.31.17,5.38,3.09,8.81,7.87,8.9,11.86.23,23.72.2,35.58,0,4.28-.08,7.08-3.16,7.49-7.44.26-2.64.18-5.32.18-8,.07-22.9,18.89-37.32,38.07-35.12a34.71,34.71,0,0,1,29.49,26.56c3.16,13.7-3.82,29.38-15.86,36.42-6.46,3.78-13.48,4.68-20.68,5.21-15.64,1.16-29.4,14.43-30.41,29.94C230.39,292.54,230.82,300.69,230.82,308.81ZM256,356.73A25.65,25.65,0,0,0,230.39,382c-.24,13.86,11.58,25.77,25.58,25.8a25.54,25.54,0,0,0,0-51.08Z"/></svg>