<svg id="7e2c2872-d0cb-4b65-8b3e-f0c78f83d0f2" data-name="Layer 1" xmlns="http://www.w3.org/2000/svg" viewBox="0 0 521.86 542.55"><title>rap_legal_</title><path d="M272.4,477.19h-23a19.28,19.28,0,0,0-3-.63C219,474.7,193,467.45,168.89,454.14,113.7,423.63,79.88,377.31,68,315.27c-1.44-7.47-2.08-15.09-3.1-22.64v-23a25.84,25.84,0,0,0,.66-3.31C67.44,239,74.53,213,88,189.12c36.12-64.2,91.17-99.23,164.76-103.68a181.62,181.62,0,0,1,108.47,27.43c59.28,36.73,91.4,90.33,95.48,160a182.73,182.73,0,0,1-22.72,100.17q-45.62,82.93-138.87,101C287.59,475.53,280,476.17,272.4,477.19ZM202,267.75c1.56-.45,2.42-.66,3.25-.95,7.54-2.71,15.19-4.31,23.24-2.53,5.17,1.14,8.29,3.62,8.54,8.87.3,6.16.24,12.57-1.12,18.53-3.08,13.39-7,26.61-10.7,39.84-3.4,12-6.83,24-7.17,36.66-.36,13.26,6.57,24.18,18.74,29.27a51,51,0,0,0,31.9,2.53c10.71-2.58,21-6.88,31.47-10.48a2.79,2.79,0,0,0,1.67-1.38c1.1-4.09,2.05-8.22,3-12.21-5.93,1.25-11.34,2.86-16.85,3.48-14.93,1.7-21.58-5.14-18.84-20,2.16-11.63,5.35-23.06,8.23-34.54,4-16,10.27-31.52,10.87-48.34.41-11.79-3.08-21.64-13.28-28.28-9.83-6.4-20.86-7.08-32.07-5.76-12.53,1.46-24.05,6.47-35.67,11a4.52,4.52,0,0,0-2.3,2.57C203.85,259.71,203.06,263.43,202,267.75Zm76.26-107.54c-3.47.71-7,1.08-10.4,2.16-17.48,5.6-25.15,25.9-15.1,40.78,7.34,10.86,18.17,14.57,31,12.92,15.06-1.93,26.17-16.35,24.11-31.35C306,171,293.29,160.58,278.27,160.21Z"/></svg>