<?xml version="1.0" encoding="utf-8"?>
<!-- Generator: Adobe Illustrator 23.0.1, SVG Export Plug-In . SVG Version: 6.00 Build 0)  -->
<svg version="1.1" id="Capa_1" xmlns="http://www.w3.org/2000/svg" xmlns:xlink="http://www.w3.org/1999/xlink" x="0px" y="0px"
	 width="24px" height="24px" viewBox="0 0 24 24" enable-background="new 0 0 24 24" xml:space="preserve">
<g>
	<path d="M6.779,4.783c0-0.793,0-1.548,0-2.316c0.93,0,1.844,0,2.772,0c0,2.356,0,4.715,0,7.088c-2.357,0-4.716,0-7.088,0
		c0-0.913,0-1.827,0-2.763c0.758,0,1.518,0,2.332,0C4.716,6.709,4.675,6.665,4.633,6.623c-1.225-1.226-2.452-2.45-3.676-3.677
		c-0.459-0.461-0.566-1.013-0.344-1.61c0.334-0.898,1.57-1.119,2.287-0.415c0.795,0.781,1.578,1.575,2.366,2.363
		c0.454,0.454,0.908,0.908,1.362,1.361C6.668,4.683,6.71,4.719,6.779,4.783z"/>
	<path d="M4.779,17.23c-0.804,0-1.559,0-2.326,0c0-0.929,0-1.842,0-2.769c2.358,0,4.717,0,7.09,0c0,2.357,0,4.716,0,7.087
		c-0.913,0-1.826,0-2.762,0c0-0.77,0-1.541,0-2.369c-0.087,0.081-0.135,0.124-0.181,0.17c-1.234,1.233-2.466,2.468-3.701,3.7
		c-0.528,0.527-1.3,0.595-1.861,0.172c-0.656-0.494-0.723-1.492-0.137-2.102c0.251-0.261,0.511-0.513,0.766-0.768
		c0.982-0.982,1.964-1.964,2.945-2.946C4.657,17.36,4.7,17.313,4.779,17.23z"/>
	<path d="M19.228,6.778c0.771,0,1.542,0,2.323,0c0,0.935,0,1.848,0,2.772c-2.364,0-4.723,0-7.093,0c0-2.364,0-4.723,0-7.092
		c0.92,0,1.833,0,2.77,0c0,0.763,0,1.522,0,2.281c0.027,0.019,0.053,0.037,0.08,0.056c0.03-0.057,0.048-0.125,0.091-0.169
		c1.223-1.227,2.448-2.453,3.674-3.677c0.451-0.45,1.093-0.571,1.64-0.314c0.829,0.39,1.044,1.481,0.425,2.172
		c-0.117,0.13-0.244,0.251-0.368,0.375c-1.143,1.143-2.285,2.286-3.429,3.427c-0.044,0.044-0.104,0.071-0.156,0.105
		C19.2,6.736,19.214,6.757,19.228,6.778z"/>
	<path d="M14.464,21.546c0-2.368,0-4.723,0-7.09c2.365,0,4.724,0,7.095,0c0,0.913,0,1.826,0,2.767c-0.772,0-1.547,0-2.322,0
		c-0.012,0.022-0.025,0.043-0.037,0.065c0.076,0.061,0.159,0.115,0.228,0.184c1.206,1.203,2.409,2.408,3.615,3.611
		c0.275,0.274,0.455,0.59,0.458,0.987c0.004,0.613-0.296,1.044-0.835,1.302c-0.504,0.241-1.084,0.13-1.5-0.28
		c-0.756-0.745-1.504-1.499-2.254-2.25c-0.503-0.503-1.006-1.007-1.51-1.51c-0.04-0.04-0.084-0.078-0.155-0.145
		c0,0.805,0,1.576,0,2.358C16.31,21.546,15.397,21.546,14.464,21.546z"/>
</g>
</svg>
