<?xml version="1.0" encoding="utf-8"?>
<!-- Generator: Adobe Illustrator 23.0.1, SVG Export Plug-In . SVG Version: 6.00 Build 0)  -->
<svg version="1.1" id="Capa_1" xmlns="http://www.w3.org/2000/svg" xmlns:xlink="http://www.w3.org/1999/xlink" x="0px" y="0px"
	 width="24px" height="24px" viewBox="0 0 24 24" enable-background="new 0 0 24 24" xml:space="preserve">
<g>
	<g>
		<path fill="#006838" d="M13.822,18.817h-0.01c0.021,0.031,0.031,0.063,0.042,0.094C13.853,18.879,13.832,18.848,13.822,18.817z"/>
	</g>
	<path d="M18.105,9.549c0.052-3.33-2.786-6.116-6.063-6.147c-3.33-0.021-6.168,2.817-6.147,6.095c0.01,2.964,2.053,5.414,4.828,5.99
		h-0.063l0.021,0.094c0.031,0.084,0.01,0.147-0.063,0.188c-0.073,0.063-0.157,0.126-0.22,0.189c0.073,0.168,0.157,0.314,0.209,0.471
		c0.115,0.377,0.126,0.765,0.084,1.152c-0.031,0.293-0.094,0.565-0.262,0.817c-0.063,0.084-0.136,0.168-0.22,0.209
		c-0.115,0.052-0.199,0.115-0.241,0.209H9.947c-0.021,0.031-0.021,0.052-0.031,0.084c-0.209,0.534-0.597,0.963-1.037,1.33
		c-0.084,0.073-0.126,0.136-0.115,0.251c0.01,0.178,0,0.346,0,0.524c0,0.073-0.021,0.094-0.094,0.105
		c-0.084,0.01-0.168,0.031-0.251,0.052c-0.084,0.01-0.115,0.063-0.105,0.147v0.534c0,0.073-0.031,0.094-0.094,0.105
		c-0.094,0.021-0.199,0.042-0.283,0.073c-0.042,0.021-0.084,0.084-0.084,0.126c-0.01,0.304-0.01,0.607,0,0.922
		c0,0.042,0.042,0.105,0.084,0.136c0.073,0.031,0.157,0.052,0.241,0.073c0.23,0.031,0.471,0.073,0.702,0.094
		c1.162,0.115,2.325,0.136,3.487,0.126c0.953-0.01,1.906-0.031,2.859-0.147c0.188-0.031,0.377-0.073,0.565-0.105
		c0.094-0.031,0.147-0.084,0.136-0.199c0-0.293,0.01-0.586,0-0.88c0-0.042-0.052-0.105-0.084-0.126
		c-0.073-0.031-0.147-0.063-0.23-0.073c-0.126,0-0.157-0.063-0.147-0.178c0.01-0.073,0-0.147,0-0.22
		c-0.01-0.398,0.105-0.367-0.367-0.45c-0.073-0.01-0.094-0.042-0.084-0.105c0-0.168-0.01-0.346,0-0.513
		c0.01-0.115-0.031-0.199-0.126-0.272c-0.44-0.367-0.817-0.775-1.037-1.32c-0.01-0.031-0.021-0.063-0.042-0.094
		c-0.042-0.084-0.105-0.147-0.199-0.199c-0.094-0.042-0.188-0.094-0.23-0.178c-0.094-0.136-0.178-0.283-0.22-0.44
		c-0.168-0.702-0.168-1.382,0.22-2.032c-0.052-0.052-0.105-0.105-0.168-0.147c-0.136-0.073-0.147-0.168-0.105-0.304
		C15.948,15.005,18.063,12.544,18.105,9.549z M14.199,14.638c0.084-0.23,0.44-0.429,0.785-0.429
		C14.754,14.471,14.513,14.607,14.199,14.638z M14.974,13.581c-0.042-0.01-0.105-0.105-0.105-0.157
		c0.01-0.188,0.346-0.492,0.534-0.482c0.063,0,0.115,0.052,0.157,0.073C15.56,13.256,15.173,13.612,14.974,13.581z M16.178,13.35
		c0.031-0.346,0.251-0.639,0.524-0.743C16.649,12.942,16.44,13.13,16.178,13.35z M16.471,11.989
		c-0.021,0.042-0.126,0.073-0.178,0.052c-0.042-0.021-0.063-0.105-0.115-0.209c0.105-0.168,0.209-0.356,0.325-0.524
		c0.031-0.031,0.126-0.063,0.168-0.042c0.031,0.021,0.084,0.115,0.063,0.157C16.66,11.612,16.576,11.8,16.471,11.989z M17.299,11.35
		c-0.042-0.293,0.031-0.555,0.241-0.764C17.623,10.879,17.498,11.13,17.299,11.35z M17.278,9.968c-0.01,0.021-0.115,0-0.115,0
		c-0.031-0.157-0.073-0.304-0.052-0.45c0.021-0.105,0.136-0.188,0.209-0.293c0.052,0.105,0.105,0.209,0.178,0.335
		C17.414,9.706,17.351,9.842,17.278,9.968z M6.491,10.533c0.188,0.241,0.283,0.503,0.283,0.848
		C6.502,11.151,6.387,10.743,6.491,10.533z M6.69,9.957c-0.01-0.01-0.021-0.01-0.031-0.031C6.596,9.81,6.554,9.664,6.512,9.528
		c0.01,0,0.021-0.01,0.031-0.01c0-0.052,0-0.115,0.021-0.157c0.021-0.052,0.063-0.105,0.105-0.126
		c0.031-0.01,0.126,0.042,0.126,0.063c0.031,0.209,0.073,0.408,0.063,0.597C6.847,9.999,6.753,10.03,6.69,9.957z M7.769,13.308
		c-0.168-0.22-0.325-0.44-0.482-0.649c0.283,0,0.534,0.325,0.555,0.597C7.811,13.277,7.79,13.287,7.769,13.308z M7.256,11.413
		c-0.031-0.157,0.105-0.23,0.209-0.105c0.147,0.147,0.241,0.346,0.346,0.513c-0.063,0.105-0.073,0.199-0.115,0.22
		c-0.031,0.01-0.084,0-0.126-0.01c-0.031-0.01-0.052-0.031-0.052-0.042C7.413,11.8,7.298,11.612,7.256,11.413z M8.952,13.57
		c0,0.01,0,0.01-0.01,0.01c-0.021,0-0.042-0.01-0.073-0.021c-0.042-0.021-0.105-0.052-0.157-0.094
		c-0.105-0.073-0.209-0.189-0.251-0.293c-0.01-0.021-0.021-0.042-0.021-0.063c0-0.052,0.063-0.168,0.115-0.168
		C8.743,12.9,9.12,13.256,9.13,13.507c-0.021,0.01-0.031,0.021-0.052,0.031c-0.021,0.01-0.052,0.021-0.073,0.021
		C8.984,13.57,8.973,13.57,8.952,13.57z M9.769,14.659c-0.23-0.136-0.471-0.262-0.712-0.398c0.283-0.105,0.649,0.094,0.764,0.325
		C9.811,14.607,9.79,14.638,9.769,14.659z M10.932,14.376c-0.188-0.073-0.356-0.147-0.513-0.22
		c-0.042-0.021-0.084-0.105-0.073-0.136c0.021-0.042,0.094-0.105,0.136-0.105c0.178,0.021,0.366,0.031,0.534,0.094
		c0.073,0.021,0.126,0.136,0.188,0.209C11.12,14.272,11.026,14.324,10.932,14.376z M11.497,13.821
		c-0.346-0.272-0.723-0.377-1.173-0.262c-0.555,0.126-0.691,0.052-0.932-0.461c-0.136-0.283-0.367-0.429-0.66-0.503
		c-0.461-0.126-0.566-0.272-0.524-0.754c0.031-0.44-0.115-0.764-0.545-0.974c-0.555-0.283-0.628-0.618-0.471-1.026
		c0.084-0.209,0.052-0.44-0.084-0.597c-0.775-0.859-0.45-1.749-0.073-2.608c0.775-1.77,3.006-3.006,4.838-2.932
		c2.178,0.01,3.77,0.901,4.932,2.545c0.45,0.618,0.555,1.351,0.513,2.094c-0.01,0.209-0.115,0.44-0.241,0.618
		c-0.241,0.335-0.387,0.649-0.23,1.079c0.115,0.283-0.073,0.503-0.283,0.681c-0.063,0.052-0.136,0.115-0.209,0.147
		c-0.45,0.178-0.576,0.524-0.555,0.974c0.021,0.534-0.042,0.618-0.566,0.765c-0.314,0.084-0.534,0.262-0.66,0.565
		c-0.168,0.398-0.283,0.461-0.712,0.419c-0.188-0.031-0.377-0.084-0.576-0.094c-0.293,0-0.545,0.147-0.775,0.325
		C12.052,14.177,11.958,14.188,11.497,13.821z M12.932,14.324c-0.042,0-0.115-0.052-0.136-0.094
		c-0.01-0.052,0.031-0.136,0.073-0.157c0.147-0.084,0.314-0.147,0.482-0.22c0.115,0.063,0.199,0.105,0.293,0.157
		c-0.063,0.073-0.115,0.199-0.199,0.22C13.288,14.293,13.11,14.303,12.932,14.324z"/>
	<path fill="none" d="M16.869,8.522c0.042-0.084,0.042-0.178,0.063-0.251C16.911,8.344,16.901,8.439,16.869,8.522z M14.775,11.968
		c0,0.105,0.042,0.209,0.147,0.325C14.827,12.188,14.775,12.073,14.775,11.968z"/>
	<path d="M14.44,11.591c-0.23,0.188-0.461,0.356-0.691,0.534h-0.01c-0.031-0.031-0.052-0.073-0.073-0.126
		c-0.031-0.094-0.031-0.23,0.01-0.335c0.021-0.063,0.052-0.105,0.105-0.147c0.147-0.126,0.335-0.147,0.492-0.063
		c0.042,0.01,0.073,0.031,0.094,0.063C14.398,11.528,14.419,11.559,14.44,11.591z"/>
	<path d="M10.397,11.832c0,0.094-0.021,0.209-0.084,0.304c-0.115-0.094-0.23-0.178-0.356-0.272
		c-0.115-0.084-0.241-0.178-0.367-0.272l0.01-0.01c0.031-0.031,0.052-0.052,0.084-0.073c0.063-0.042,0.126-0.073,0.188-0.094
		c0.126-0.021,0.251,0,0.367,0.084c0.052,0.042,0.094,0.084,0.115,0.147C10.387,11.696,10.397,11.769,10.397,11.832z"/>
	<path d="M13.246,12.46c-0.293,0.073-0.566,0.147-0.859,0.22c-0.073-0.147,0.042-0.45,0.251-0.534
		c0.157-0.073,0.314-0.042,0.44,0.052C13.152,12.261,13.204,12.355,13.246,12.46z"/>
	<path d="M11.633,12.69c-0.293-0.073-0.576-0.157-0.859-0.23c0.042-0.22,0.241-0.366,0.492-0.335
		C11.518,12.156,11.654,12.366,11.633,12.69z"/>
	<path d="M7.957,10.575c-0.052-0.168-0.094-0.314-0.157-0.45C7.727,9.999,7.633,9.884,7.539,9.769
		c0.22-0.094,0.429-0.021,0.555,0.178C8.23,10.167,8.198,10.376,7.957,10.575z"/>
	<path d="M12.45,13.528c-0.147-0.021-0.304-0.063-0.45-0.063s-0.283,0.042-0.45,0.063c0.052-0.272,0.209-0.408,0.45-0.419
		C12.22,13.109,12.387,13.256,12.45,13.528z"/>
	<path d="M14.377,12.795c-0.272,0.136-0.545,0.272-0.806,0.398c-0.063-0.157-0.031-0.304,0.094-0.429
		c0.021-0.031,0.052-0.052,0.094-0.084c0.042-0.031,0.084-0.042,0.126-0.052c0.084-0.031,0.157-0.031,0.23-0.01
		C14.209,12.638,14.293,12.701,14.377,12.795z"/>
	<path d="M9.057,12.271c-0.094-0.126-0.188-0.262-0.283-0.398c-0.073-0.105-0.157-0.209-0.23-0.325
		c0.188-0.094,0.387-0.063,0.534,0.094C9.235,11.842,9.235,12.062,9.057,12.271z"/>
	<path d="M16.367,9.769c-0.136,0.272-0.262,0.534-0.398,0.796c-0.178-0.126-0.241-0.335-0.157-0.545
		C15.916,9.8,16.115,9.716,16.367,9.769z"/>
	<path d="M10.45,13.183c-0.262-0.136-0.524-0.262-0.785-0.398c0.115-0.188,0.335-0.251,0.576-0.136
		c0.115,0.052,0.199,0.147,0.23,0.251C10.492,12.994,10.492,13.088,10.45,13.183z"/>
	<path d="M15.466,11.57c-0.105,0.115-0.22,0.22-0.314,0.335c-0.052,0.084-0.105,0.168-0.157,0.262
		c-0.021,0.042-0.042,0.084-0.073,0.126c-0.094-0.105-0.147-0.22-0.147-0.325c0-0.094,0.021-0.178,0.084-0.262
		C14.995,11.507,15.204,11.465,15.466,11.57z"/>
	<path fill="#FFFFFF" d="M14.921,12.292c-0.105-0.115-0.147-0.22-0.147-0.325C14.775,12.073,14.827,12.188,14.921,12.292z"/>
	<path d="M16.932,8.271c-0.021,0.073-0.031,0.168-0.063,0.251c-0.031,0.063-0.094,0.105-0.147,0.157
		c-0.031-0.052-0.105-0.105-0.105-0.168c0-0.168,0.01-0.335,0.042-0.503c0.01-0.042,0.084-0.084,0.136-0.126
		c0.031,0.042,0.084,0.084,0.094,0.136C16.922,8.093,16.922,8.177,16.932,8.271z"/>
	<path fill="#FFFFFF" d="M16.932,8.271c-0.021,0.073-0.021,0.168-0.063,0.251C16.901,8.439,16.911,8.344,16.932,8.271z"/>
	<path d="M7.361,8.585C7.308,8.68,7.256,8.711,7.172,8.606C7.036,8.428,7.057,8.041,7.224,7.852C7.402,8.03,7.465,8.397,7.361,8.585
		z"/>
	<polygon points="9.179,2.94 9.326,3.799 8.561,3.39 7.797,3.799 7.944,2.94 7.315,2.333 8.174,2.207 8.561,1.432 8.949,2.207 
		9.808,2.333 	"/>
	<polygon points="12.667,2.008 12.813,2.867 12.038,2.458 11.274,2.867 11.42,2.008 10.803,1.401 11.661,1.275 12.038,0.5 
		12.426,1.275 13.284,1.401 	"/>
	<polygon points="16.143,2.94 16.29,3.799 15.525,3.39 14.751,3.799 14.897,2.94 14.279,2.333 15.138,2.207 15.525,1.432 
		15.902,2.207 16.761,2.333 	"/>
</g>
</svg>
