<?xml version="1.0" encoding="utf-8"?>
<!-- Generator: Adobe Illustrator 22.0.1, SVG Export Plug-In . SVG Version: 6.00 Build 0)  -->
<svg version="1.1" id="_x31_489fccd-b3b6-4655-ad0f-d8458427e014"
	 xmlns="http://www.w3.org/2000/svg" xmlns:xlink="http://www.w3.org/1999/xlink" x="0px" y="0px" viewBox="0 0 521.9 542.5"
	 style="enable-background:new 0 0 521.9 542.5;" xml:space="preserve">
<title>rap_legal_</title>
<g>
	<path d="M413,116.1c0-19.4-13-32.2-32.4-32.2c-58.1,0-116.1,0-174.1-0.1c-3.8-0.1-7.6,1.4-10.2,4.2c-23.1,23.2-46.3,46.4-69.5,69.5
		c-3,2.8-4.7,6.8-4.6,10.9c0,82.1,0.1,164.3,0.1,246.4c0,19.6,12.9,32.4,32.7,32.4c23.8,0,47.7,0,71.5,0h4.7c0,8.9,0,17.3,0,25.6
		c0,4.1,1,7.6,4.9,9.7c3.8,2.1,7.3,1,10.7-1.3c6-4.1,12.1-8,18-12.1c2-1.4,3.5-1.6,5.6-0.1c5.6,4,11.5,7.7,17.2,11.7
		c3.6,2.5,7.2,4.1,11.4,1.9c4.2-2.3,5-6.2,5-10.5c-0.1-8.1,0-16.1,0-24.8l5.2,0c23.8,0,47.7,0,71.5,0c19.4,0,32.3-12.9,32.3-32.3
		C413,315.3,413,215.7,413,116.1z M285.4,457.3c-3.8-2.6-7.2-4.9-10.6-7.2c-5.9-4-8.4-4-14.3,0c-3.4,2.3-6.7,4.5-10.6,7.2v-49.4
		c11.5,3.9,24,3.9,35.5,0V457.3z M394.7,414.3c0,10.3-4.5,14.8-14.8,14.8c-23.8,0-47.7,0-71.5,0H304c0-6,0.3-11.6-0.1-17.2
		c-0.7-9.2,1.4-16.6,7.4-24.3c15-19.4,13.9-44.5-0.9-63.9c-14.6-19-39.6-26.6-61.6-18.6c-22.5,8.2-36.9,30.2-35.6,54.1
		c0.7,13.5,6.1,25.2,15.4,35.1c1.4,1.6,2.3,3.7,2.5,5.8c0.2,9.5,0.1,19,0.1,28.7c-1.5,0.1-2.6,0.3-3.7,0.3c-24.3,0-48.5,0-72.8,0
		c-9.5-0.1-14.2-4.6-14.2-14.1c0-78.9,0-157.8,0-236.6v-3.7c11.4,0,22.2,0,33.1,0c4.7,0,9.4,0.2,14-0.5
		c15.1-2.6,25.3-14.7,25.4-30.1c0.1-13.4,0.1-27,0.1-40.4c0.1-0.4,0.2-0.9,0.3-1.3c1.3-0.1,2.8-0.2,4.3-0.2c54,0,108.1,0,162.2,0
		c10.5,0,14.8,4.3,14.8,14.6C394.7,216,394.7,315.1,394.7,414.3z"/>
	<path d="M351.5,247.9c-1.9-0.4-3.9-0.5-5.9-0.5c-52,0-104.1,0-156.1,0c-1.1,0-2.3-0.1-3.4,0c-5.5,0.4-9.3,4.2-9.3,9.1
		c0,5,3.8,8.7,9.4,9.1c1.3,0,2.6,0,3.8,0h77.4c26.2,0,52.5,0,78.7,0c1.8,0,3.7-0.1,5.5-0.5c3.3-0.8,5.8-3.4,6.6-6.6
		C359.3,253.8,356.3,249,351.5,247.9z"/>
	<path d="M349.5,211.2c-1.3,0-2.5,0-3.8,0H189.5c-1.6,0-3.1,0-4.7,0.1c-3.8,0.3-7,3.1-7.7,6.8c-1.6,6.2,2.9,11.1,10.3,11.1
		c26.7,0,53.3,0,80,0l64.7-0.1c5.8,0,11.6,0.1,17.4-0.1c4.9-0.1,8.9-4.1,8.9-9C358.4,215.2,354.7,211.5,349.5,211.2z"/>
	<path d="M258.5,156.6c1.3,0.1,2.5,0.1,3.8,0.1H304l42.2,0c7.9,0,12.3-3.4,12.2-9.2s-4.4-9.1-12.4-9.1h-84.3c-1.1,0-2.3,0-3.4,0.1
		c-5.4,0.5-8.8,4.2-8.7,9.2S253.1,156.1,258.5,156.6z"/>
	<path d="M259.3,192.8c14.8,0,29.5,0,44.3,0c14.9,0,29.8,0,44.7,0c4.5,0,7.8-1.6,9.5-5.8c2.4-6.2-2-12.2-9.2-12.3
		c-14.2-0.1-28.4,0-42.6,0c-15.5,0-30.9-0.1-46.4,0c-6.1,0-10,3.8-10,9.1S253.3,192.8,259.3,192.8z"/>
</g>
</svg>
