<?xml version="1.0" encoding="utf-8"?>
<!-- Generator: Adobe Illustrator 23.0.1, SVG Export Plug-In . SVG Version: 6.00 Build 0)  -->
<svg version="1.1" id="Capa_1" xmlns="http://www.w3.org/2000/svg" xmlns:xlink="http://www.w3.org/1999/xlink" x="0px" y="0px"
	 width="24px" height="24px" viewBox="0 0 24 24" enable-background="new 0 0 24 24" xml:space="preserve">
<g>
	<path d="M16.3,20.337c-0.24-0.004-0.479,0-0.719,0h-0.869v-0.776h-3.963v0.767h-0.211c-0.483,0.004-0.967,0-1.446,0.016
		c-0.357,0.012-0.67,0.288-0.686,0.642c-0.033,0.585-0.045,1.178-0.024,1.766c0.02,0.459,0.414,0.755,0.832,0.743
		c0.772-0.02,1.543-0.004,2.311-0.004c1.584,0,3.163,0.004,4.747,0.008c0.467,0,0.82-0.337,0.828-0.796
		c0.008-0.524,0.008-1.048,0-1.567C17.092,20.662,16.771,20.349,16.3,20.337z"/>
	<path d="M11.338,3.005c-0.533,0.341-1.07,0.677-1.599,1.023C9.115,4.437,8.49,4.846,7.88,5.274
		C7.704,5.397,7.445,5.492,7.624,5.846c0.094,0.187-0.005,0.471-0.016,0.712C7.42,6.502,7.157,6.505,7.061,6.379
		C6.868,6.126,6.793,5.781,7.112,5.551c0.486-0.352,1.003-0.662,1.504-0.994c0.833-0.553,1.662-1.11,2.485-1.659
		c-0.168-0.577-0.712-1.215-0.009-1.657c0.671-0.422,1.094,0.153,1.419,0.767c0.429-0.43,1.01-0.524,1.301-1.104
		c0.252-0.503,1.146-0.516,1.587-0.145c0.687,0.577,1.092,1.329,1.395,2.154c0.118,0.321-0.155,0.993-0.736,1.339
		c-0.286,0.171-0.564,0.356-0.842,0.532c0.319,0.616,0.603,1.166,0.604,1.859c0.001,0.481,0.147,1.034,0.417,1.425
		c0.38,0.551,0.253,1.079,0.182,1.626c-0.09,0.695-0.225,1.384-0.338,2.076c-0.159,0.971-0.313,1.943-0.475,2.914
		c-0.099,0.595-0.199,1.191-0.321,1.781c-0.023,0.113-0.144,0.286-0.233,0.294c-0.483,0.044-0.97,0.065-1.454,0.048
		c-0.13-0.004-0.255-0.166-0.382-0.255c0.118-0.102,0.226-0.27,0.357-0.292c0.351-0.058,0.622-0.107,0.349-0.549
		c-0.035-0.057,0-0.161,0.012-0.242c0.124-0.902,0.265-1.802,0.371-2.706c0.074-0.63,0.102-1.265,0.15-1.899
		c-0.048-0.009-0.096-0.018-0.144-0.027c-0.125,0.519-0.218,1.049-0.384,1.554c-0.239,0.727-0.501,1.449-0.816,2.146
		c-0.12,0.265-0.377,0.519-0.636,0.659c-0.445,0.24-0.508,0.585-0.379,0.987c0.122,0.382,0.003,0.585-0.366,0.617
		c-0.331,0.029-0.665,0.018-0.711-0.46c-0.068-0.717-0.084-1.377,0.394-2.027c0.28-0.38,0.294-0.956,0.428-1.444
		c0.03-0.11,0.037-0.24,0.102-0.325c0.666-0.88,0.59-1.904,0.602-2.92c0.004-0.366,0.133-0.729,0.151-1.096
		c0.011-0.23-0.006-0.523-0.137-0.687c-0.477-0.599-0.566-1.356-0.898-2.01c-0.035-0.068-0.045-0.161-0.098-0.206
		c-0.702-0.596-0.822-1.325-0.346-2.098c0.086-0.139,0.138-0.299,0.206-0.449C11.395,3.053,11.366,3.029,11.338,3.005z
		 M13.932,1.375c-0.32,0.197-0.644,0.356-0.918,0.578c-0.18,0.145-0.441,0.438-0.394,0.56c0.083,0.214,0.36,0.456,0.581,0.484
		c0.215,0.027,0.475-0.179,0.688-0.324c0.089-0.061,0.076-0.264,0.163-0.338C14.481,1.973,14.365,1.679,13.932,1.375z M14.749,3.003
		c0.219-0.011,0.404,0.016,0.562-0.038c0.169-0.058,0.397-0.16,0.45-0.299c0.149-0.39-0.433-1.229-0.827-1.311
		C14.874,1.892,14.814,2.43,14.749,3.003z"/>
	<path d="M15.327,16.681c0.024-0.004,0.047,0,0.083,0.031c-0.162,0.095-0.327,0.185-0.488,0.276
		c-0.343,0.197-0.685,0.398-1.032,0.587c-0.122,0.067-0.154,0.122-0.098,0.256c0.244,0.603,0.481,1.209,0.717,1.812
		c0.008,0.016,0.008,0.035,0.016,0.087c-0.603-0.516-1.182-1.009-1.769-1.509c-0.591,0.5-1.17,0.997-1.749,1.489
		c-0.012-0.004-0.02-0.012-0.028-0.016c0.244-0.622,0.485-1.245,0.733-1.859c0.055-0.134,0.031-0.189-0.091-0.26
		c-0.508-0.28-1.012-0.575-1.552-0.886c0.087-0.004,0.13-0.008,0.177-0.008c0.595,0,1.19-0.004,1.785,0
		c0.098,0.004,0.146-0.028,0.177-0.118c0.177-0.461,0.355-0.922,0.548-1.41c0.185,0.473,0.362,0.91,0.524,1.359
		c0.051,0.142,0.13,0.177,0.264,0.177C14.137,16.681,14.732,16.681,15.327,16.681z"/>
</g>
</svg>
