<?xml version="1.0" encoding="utf-8"?>
<!-- Generator: Adobe Illustrator 23.0.1, SVG Export Plug-In . SVG Version: 6.00 Build 0)  -->
<svg version="1.1" id="Capa_1" xmlns="http://www.w3.org/2000/svg" xmlns:xlink="http://www.w3.org/1999/xlink" x="0px" y="0px"
	 width="24px" height="24px" viewBox="0 0 24 24" enable-background="new 0 0 24 24" xml:space="preserve">
<g>
	<path d="M20.132,11.722v0.851c0,0.016,0,0.033-0.008,0.049v-0.9c0-0.098-0.041-0.188-0.098-0.246
		C20.091,11.533,20.132,11.624,20.132,11.722z"/>
	<path d="M23.021,16.968v5.713c0,0.45-0.368,0.819-0.819,0.819h-5.713c-0.45,0-0.819-0.368-0.819-0.819v-5.713
		c0-0.45,0.368-0.819,0.819-0.819h2.079v-3.225H5.431v3.225h2.071c0.458,0,0.819,0.368,0.819,0.819v5.713
		c0,0.45-0.36,0.819-0.819,0.819H1.797c-0.458,0-0.819-0.368-0.819-0.819v-5.713c0-0.45,0.36-0.819,0.819-0.819h2.071v-4.428
		c0-0.196,0.164-0.352,0.36-0.352h6.99V7.85H9.139c-0.45,0-0.819-0.368-0.819-0.819V1.319c0-0.45,0.368-0.819,0.819-0.819h5.713
		c0.45,0,0.819,0.368,0.819,0.819v5.713c0,0.45-0.368,0.819-0.819,0.819h-2.071v3.52h6.998c0.098,0,0.188,0.041,0.246,0.106
		c0.057,0.057,0.098,0.147,0.098,0.246v4.428h2.079C22.653,16.15,23.021,16.518,23.021,16.968z"/>
</g>
</svg>
