<svg id="Layer_1" data-name="Layer 1" xmlns="http://www.w3.org/2000/svg" viewBox="0 0 521.86 542.55"><title>ICONO REGLAS</title><path d="M475.82,390.65c-1.85,7.72-3,15.7-5.66,23.13a89.11,89.11,0,0,1-92.92,58.38c-40.18-4-73.39-35.76-79.11-75.66-6.78-47.28,23.57-90.94,70.1-100.85,47.86-10.19,95.91,21.43,105.78,69.63.69,3.37,1.21,6.78,1.81,10.17Zm-76.71,11.84c0-10.25,0-20.5,0-30.76,0-8.37-5.07-13.9-12.56-14s-12.88,5.45-12.92,13.72q-.15,30.94,0,61.9c0,8.2,5.61,13.77,13.06,13.6s12.36-5.62,12.41-13.75C399.15,423,399.1,412.74,399.11,402.49Zm-12.79-83.07a12.76,12.76,0,0,0-12.68,12.77,13,13,0,0,0,12.84,12.72A12.78,12.78,0,0,0,399.07,332,12.58,12.58,0,0,0,386.32,319.42Z"/><path d="M399,166.3V269.05c-1.26,0-2.41.1-3.54,0-28.13-2.86-53.17,5.25-75.84,21.5a16.26,16.26,0,0,1-10.2,3.36c-41.86-.13-83.73-.08-125.59-.07-10.69,0-15.32,4.61-15.33,15.3q0,23.21,0,46.4c0,10.1,4.85,14.94,15,15q42,0,84,0h4.9c-3.93,41.23,11,74.43,41.89,101.65h-171V166.3ZM258.08,268.25h30c15.46,0,30.92,0,46.38,0,8.09,0,13.66-5.54,13.5-13.1-.15-7.41-5.81-12.44-14.18-12.45q-64.38,0-128.77,0c-7.73,0-15.46,0-23.19,0-5.57,0-9.81,2.45-12.19,7.51-4.1,8.73,2.3,18,12.48,18C207.43,268.29,232.76,268.25,258.08,268.25ZM258,217.1h73.17c1.6,0,3.2,0,4.8,0a12.65,12.65,0,0,0,11.79-10.16c1.07-6-1.83-11.94-7.35-14a23.51,23.51,0,0,0-8.19-1.25q-74-.1-148-.05a15.41,15.41,0,0,0-3.19.07,24.33,24.33,0,0,0-6.09,1.71,12.56,12.56,0,0,0-6.15,14.3c1.53,5.72,6.39,9.44,12.79,9.46Q219.83,217.15,258,217.1Z"/><path d="M390.54,63.89c-18.54,6.54-29.31,19-29.48,38.83-.14,15.88,9.49,31.43,30.11,37.53-1.2.07-2.4.2-3.6.2q-140.34,0-280.7,0c-20,0-33.92-10.28-39.29-28.7C61.21,89.85,78,65.83,100.72,64.27c3.45-.24,6.92-.36,10.38-.36q137.34,0,274.7,0Z"/><path d="M66.22,152.65c15.39,12.19,32.53,14.49,50.81,13.13V472.22a37.35,37.35,0,0,1-19.17-3.54C78.22,459.86,67.3,444.58,66.39,423c-.67-15.7-.17-31.45-.17-47.18q0-108.54,0-217.1Z"/><path d="M194.15,344.6V319.73h95.93a14.86,14.86,0,0,1-.65,1.95c-3.24,6.83-6.41,13.7-9.84,20.44-.63,1.23-2.34,2.71-3.56,2.72-26.77.15-53.53.1-80.3.09A11.41,11.41,0,0,1,194.15,344.6Z"/></svg>