<?xml version="1.0" encoding="utf-8"?>
<!-- Generator: Adobe Illustrator 22.0.1, SVG Export Plug-In . SVG Version: 6.00 Build 0)  -->
<svg version="1.1" id="Layer_1" xmlns="http://www.w3.org/2000/svg" xmlns:xlink="http://www.w3.org/1999/xlink" x="0px" y="0px"
	 viewBox="0 0 522 542.7" style="enable-background:new 0 0 522 542.7;" xml:space="preserve">
<style type="text/css">
	.st0{fill:none;stroke:#000000;stroke-width:7.1964;stroke-miterlimit:10;}
	.st1{fill:none;stroke:#000000;stroke-width:5.8382;stroke-miterlimit:10;}
</style>
<g id="phIbY7_3_">
	<g>
		<path d="M101.6,391c22.2,0,43.9,0,65.7,0c33.4,0,66.8,0.4,100.1-0.2c9.8-0.2,15.6,1.9,16.4,12.3c0.2,2.1,1.1,4,1.9,7
			c-68.1,0-135.8,0-204.2,0c0-91.4,0-182.8,0-274.6c15.4,0,30.5,0,46.7,0c0,7.5-0.1,14.7,0,22c0.2,16.6,10.2,27.5,25.1,27.3
			c14.4-0.2,24.3-11.1,24.6-27.1c0.1-7.2,0-14.4,0-22c41.5,0,82.1,0,124.1,0c0,7.1,0,14.2,0,21.4c0.1,16.8,9.7,27.7,24.6,27.8
			c14.9,0,24.6-10.7,24.8-27.5c0.1-6.9,0-13.9,0-21.4c15.8,0,30.8,0,46.7,0c0,45.5,0,91,0,136.9c-6.2-0.5-12.1-1-19-1.5
			c0-17.9,0-35.6,0-54c-93,0-185,0-277.6,0C101.6,275.1,101.6,332.6,101.6,391z"/>
		<path d="M380,454.3c-45.2-0.2-81.6-36.8-81.3-81.8c0.3-45.3,36.5-81.2,82-81.1c45.2,0.1,81.6,36.7,81.4,81.7
			C461.8,418.3,425.2,454.5,380,454.3z M390,362.9c0-12.5-0.1-23.6,0-34.8c0.1-6.4-2.4-10.8-9.1-11.2c-7.3-0.4-10.4,4.3-10.5,10.9
			c-0.2,14.2-0.1,28.5-0.1,42.7c0,8.1,4,12.2,12.4,12.1c13.3-0.1,26.6-0.1,40,0c7.3,0.1,13.1-1.8,12.9-10.2
			c-0.2-7.8-5.8-9.7-12.7-9.6C412.4,363,401.9,362.9,390,362.9z"/>
		<path d="M311.9,135c0-7.6-0.2-15.2,0-22.8c0.3-9.7,6.4-16,15-16c8.6-0.1,14.9,6.2,15.1,15.9c0.3,15.8,0.3,31.6,0,47.3
			c-0.2,9.2-6.3,15.4-14.5,15.7c-8.5,0.3-15.1-6-15.5-15.5C311.6,151.4,311.9,143.2,311.9,135z"/>
		<path d="M167.9,136.1c0,7.9,0.2,15.8,0,23.7c-0.3,9.2-6.2,15.3-14.5,15.4c-8.3,0.2-14.9-5.9-15.1-14.9c-0.3-16.4-0.3-32.8,0-49.2
			c0.2-9.3,6.4-15,15-14.8c8.5,0.1,14.3,5.9,14.6,15.2C168.1,119.7,167.9,127.9,167.9,136.1z"/>
		<path d="M190.6,239.1c12.2,0,23.6,0,35.5,0c0,12,0,23.6,0,35.8c-12,0-23.4,0-35.5,0C190.6,263.2,190.6,251.6,190.6,239.1z"/>
		<path d="M226.2,298.8c0,12.1,0,23.4,0,35.5c-12,0-23.6,0-35.7,0c0-11.8,0-23.4,0-35.5C202.4,298.8,213.8,298.8,226.2,298.8z"/>
		<path d="M163.1,274.9c-11.9,0-23.3,0-35.4,0c0-11.7,0-23.3,0-35.6c11.7,0,23.3,0,35.4,0C163.1,251.2,163.1,262.8,163.1,274.9z"/>
		<path d="M289.3,274.8c-11.9,0-23.3,0-35.4,0c0-11.6,0-23.2,0-35.5c11.7,0,23.3,0,35.4,0C289.3,251.2,289.3,262.8,289.3,274.8z"/>
		<path d="M317.3,239c11.9,0,23.3,0,35.3,0c0,12,0,23.6,0,35.7c-11.8,0-23.1,0-35.3,0C317.3,263.3,317.3,251.7,317.3,239z"/>
		<path d="M127.4,334.5c0-11.9,0-23.2,0-35.4c11.8,0,23.4,0,35.6,0c0,11.6,0,23.2,0,35.4C151.3,334.5,140,334.5,127.4,334.5z"/>
		<path d="M253.7,335c0-12.7,0-24.1,0-36.1c12,0,23.6,0,36,0c0,9.3,0.4,18.3-0.1,27.3c-0.3,5.5-2.9,9.4-9.9,8.9
			C271.4,334.6,262.9,335,253.7,335z"/>
	</g>
</g>
</svg>
