<svg id="Layer_1" data-name="Layer 1" xmlns="http://www.w3.org/2000/svg" viewBox="0 0 521.86 542.55"><title>ICONO VS</title><path d="M233.82,412.55C241,394,248.4,375.52,255.76,357a68.41,68.41,0,0,1-17.41-8l-8.81-5.94,22.12-42,.14.09a32.39,32.39,0,0,1-5.51-16.2H205.41l-28.1-123.75h53.36l10.13,46.13,7.35-11.69c9.89-21.16,19.66-42.34,29.71-63.45l32.56-68.82.48-1a219.37,219.37,0,0,0-50-5.81c-120.66,0-218.47,97.82-218.47,218.47,0,101.32,69,186.5,162.53,211.21.3-.79.61-1.58.92-2.37Z"/><path d="M318,64.17l-.51,1.4L291,136.26c-3.09,8.34-6.26,16.66-9.42,25h45.29L278.51,238.4A80.82,80.82,0,0,1,306,234a98.16,98.16,0,0,1,22.76,2.54,66.38,66.38,0,0,1,19.48,7.8l9.14,5.64-19.95,40.74c.62.64,1.23,1.3,1.82,2,5,5.73,7.46,13,7.46,21.62A42.4,42.4,0,0,1,338.5,340c-5.26,7.16-12.65,12.7-22,16.47-8.68,3.52-18.71,5.3-29.82,5.3a108.5,108.5,0,0,1-13.22-.81c-8.92,18.57-17.83,37.14-26.91,55.66l-33.87,69.47-.92,1.86a219.2,219.2,0,0,0,49.14,5.61c120.66,0,218.47-97.81,218.47-218.47C479.4,174.15,411,89.26,318,64.17Z"/><polygon points="306.59 171.36 243.83 271.43 215.95 271.43 193.22 171.36 222.24 171.36 236.54 236.41 277.43 171.36 306.59 171.36"/><path d="M262.52,347.52q-11.14-3-18.15-7.72l11.15-21.16a62.34,62.34,0,0,0,33.31,9.87q8.15,0,12.65-2.36c3-1.57,4.51-3.74,4.51-6.51q0-3.57-4.08-5.57a73.17,73.17,0,0,0-12.65-4.29,134.17,134.17,0,0,1-16.16-5.22A28.75,28.75,0,0,1,262,296.48q-4.65-5.43-4.64-14.29a31.18,31.18,0,0,1,5.86-18.81q5.86-8.07,16.72-12.51t25.45-4.43a86.05,86.05,0,0,1,20,2.22,54.54,54.54,0,0,1,16,6.36l-10.29,21a47.23,47.23,0,0,0-12.94-5.65,54.8,54.8,0,0,0-14.51-1.93q-8.44,0-13.23,2.72t-4.79,7q0,3.72,4.15,5.72a75.08,75.08,0,0,0,12.87,4.29,124.88,124.88,0,0,1,16.08,5,28.45,28.45,0,0,1,10.94,7.87q4.56,5.28,4.57,13.86a30.7,30.7,0,0,1-5.93,18.66q-5.94,8.09-16.87,12.51t-25.38,4.43A90.5,90.5,0,0,1,262.52,347.52Z"/></svg>