<?xml version="1.0" encoding="utf-8"?>
<!-- Generator: Adobe Illustrator 23.0.1, SVG Export Plug-In . SVG Version: 6.00 Build 0)  -->
<svg version="1.1" id="Capa_1" xmlns="http://www.w3.org/2000/svg" xmlns:xlink="http://www.w3.org/1999/xlink" x="0px" y="0px"
	 width="24px" height="24px" viewBox="0 0 24 24" enable-background="new 0 0 24 24" xml:space="preserve">
<g>
	<path d="M11.985,10.264c-3.564,0-6.603,2.894-6.603,6.618C5.374,20.537,8.344,23.5,12,23.5c3.663,0,6.618-2.97,6.618-6.626
		C18.611,13.173,15.595,10.256,11.985,10.264z M16.882,16.204c-0.305,0.213-0.609,0.426-0.914,0.64
		c-0.533,0.373-1.066,0.739-1.599,1.112c-0.038,0.023-0.069,0.053-0.099,0.076c0.084,0.251,0.175,0.495,0.259,0.739
		c0.274,0.754,0.548,1.5,0.822,2.247c0.091,0.251-0.03,0.48-0.274,0.518c-0.107,0.015-0.19-0.023-0.274-0.084
		c-0.305-0.213-0.609-0.419-0.922-0.632c-0.579-0.404-1.158-0.815-1.744-1.219c-0.015-0.008-0.038-0.023-0.069-0.038
		c-0.061,0.046-0.129,0.084-0.19,0.13c-0.807,0.564-1.607,1.135-2.414,1.698c-0.091,0.061-0.183,0.107-0.297,0.091
		c-0.228-0.03-0.358-0.244-0.289-0.472c0.099-0.297,0.19-0.602,0.289-0.899c0.213-0.663,0.426-1.333,0.632-2.003
		c0.015-0.03,0.023-0.061,0.03-0.107c-0.183-0.129-0.373-0.259-0.556-0.388c-0.716-0.495-1.432-0.99-2.155-1.485
		c-0.213-0.137-0.221-0.404-0.099-0.541c0.076-0.091,0.175-0.129,0.297-0.129c1.051,0.015,2.11,0.023,3.161,0.03
		c0.053,0.008,0.099,0,0.152,0c0.046-0.122,0.084-0.236,0.122-0.35c0.267-0.868,0.541-1.744,0.815-2.612
		c0.061-0.198,0.175-0.289,0.343-0.297c0.175,0,0.289,0.076,0.358,0.251c0.084,0.236,0.168,0.472,0.251,0.708
		c0.267,0.746,0.533,1.485,0.8,2.224c0.038,0.099,0.038,0.107,0.152,0.107c0.853,0.008,1.698,0.008,2.544,0.015
		c0.229,0,0.449,0,0.678,0.008c0.236,0,0.396,0.183,0.366,0.404C17.042,16.059,16.981,16.143,16.882,16.204z"/>
	<path d="M17.621,0.972c-0.069,0.244-0.137,0.48-0.213,0.716c-0.373,1.318-0.754,2.627-1.135,3.945
		c-0.388,1.348-0.784,2.696-1.173,4.044c-0.069,0.244-0.137,0.487-0.213,0.739c-0.008,0.03-0.015,0.053-0.03,0.099
		c-1.477-0.647-2.993-0.777-4.562-0.404c0.008-0.046,0.008-0.069,0.015-0.099c0.305-1.059,0.617-2.117,0.922-3.176
		c0.327-1.15,0.663-2.292,0.998-3.442c0.244-0.845,0.487-1.691,0.731-2.536c0.008-0.03,0.015-0.061,0.023-0.091
		c0.061-0.175,0.175-0.259,0.358-0.259C13.698,0.5,14.056,0.5,14.422,0.5c0.929,0,1.858,0,2.787,0.008c0.061,0,0.122,0,0.175,0.015
		C17.575,0.576,17.674,0.767,17.621,0.972z"/>
	<path d="M11.787,3.447c0.023,0.061,0.023,0.114,0,0.175C11.452,4.78,11.124,5.93,10.789,7.08c-0.297,1.021-0.586,2.033-0.883,3.054
		c-0.023,0.076-0.053,0.114-0.13,0.137c-0.213,0.069-0.419,0.152-0.64,0.236c-0.076-0.259-0.145-0.503-0.221-0.746
		C8.695,8.976,8.466,8.184,8.238,7.4C7.811,5.923,7.385,4.453,6.958,2.975c-0.19-0.663-0.373-1.318-0.579-1.98
		C6.303,0.744,6.501,0.5,6.753,0.5c1.295,0.008,2.582,0.008,3.876,0c0.183,0,0.343,0.114,0.396,0.289
		c0.168,0.609,0.35,1.219,0.525,1.828C11.627,2.891,11.703,3.173,11.787,3.447z"/>
	<path d="M13.538,18.131c0.251,0.663,0.487,1.325,0.724,1.98c0.008,0.03,0.015,0.061,0.03,0.114
		c-0.053-0.038-0.091-0.053-0.122-0.084c-0.617-0.426-1.234-0.853-1.843-1.279c-0.183-0.129-0.32-0.129-0.503,0
		c-0.609,0.426-1.226,0.861-1.835,1.287c-0.03,0.023-0.053,0.038-0.107,0.069c0.015-0.061,0.023-0.099,0.038-0.13
		c0.221-0.693,0.434-1.378,0.663-2.064c0.061-0.206-0.015-0.381-0.183-0.503c-0.625-0.419-1.241-0.853-1.866-1.279
		c-0.008-0.008-0.023-0.023-0.038-0.038c0.038-0.038,0.084-0.023,0.13-0.023c0.723,0.008,1.447,0.015,2.178,0.023
		c0.282,0.008,0.373-0.061,0.457-0.335c0.183-0.579,0.366-1.15,0.548-1.721c0.038-0.137,0.084-0.267,0.129-0.434
		c0.03,0.061,0.046,0.091,0.053,0.122c0.251,0.693,0.503,1.386,0.754,2.087c0.038,0.114,0.084,0.221,0.198,0.267
		c0.061,0.023,0.137,0.038,0.206,0.038c0.754,0.008,1.508,0.015,2.262,0.023h0.137c-0.046,0.038-0.069,0.061-0.091,0.076
		c-0.571,0.404-1.142,0.807-1.721,1.196C13.5,17.681,13.424,17.834,13.538,18.131z"/>
</g>
</svg>
