<?xml version="1.0" encoding="utf-8"?>
<!-- Generator: Adobe Illustrator 23.0.1, SVG Export Plug-In . SVG Version: 6.00 Build 0)  -->
<svg version="1.1" id="Capa_1" xmlns="http://www.w3.org/2000/svg" xmlns:xlink="http://www.w3.org/1999/xlink" x="0px" y="0px"
	 width="24px" height="24px" viewBox="0 0 24 24" enable-background="new 0 0 24 24" xml:space="preserve">
<g>
	<path d="M11.995,0.5C5.648,0.5,0.5,5.648,0.5,11.995C0.5,18.352,5.648,23.5,11.995,23.5c6.357,0,11.505-5.148,11.505-11.505
		C23.5,5.648,18.352,0.5,11.995,0.5z M14.817,16.96l-1.649-2.226c-0.43-0.595-0.806-1.163-1.191-1.74h-0.046
		c-0.366,0.605-0.742,1.127-1.191,1.74L9.147,16.96H7.031l3.92-5.093L7.223,7.04H9.33l1.594,2.125
		c0.412,0.55,0.76,1.026,1.127,1.575h0.046c0.366-0.568,0.733-1.063,1.117-1.603l1.548-2.098h2.079l-3.728,4.763l3.856,5.157H14.817
		z"/>
</g>
</svg>
