<?xml version="1.0" encoding="utf-8"?>
<!-- Generator: Adobe Illustrator 22.0.1, SVG Export Plug-In . SVG Version: 6.00 Build 0)  -->
<svg version="1.1" id="Layer_1" xmlns="http://www.w3.org/2000/svg" xmlns:xlink="http://www.w3.org/1999/xlink" x="0px" y="0px"
	 viewBox="0 0 522 542.7" style="enable-background:new 0 0 522 542.7;" xml:space="preserve">
<style type="text/css">
	.st0{fill:none;stroke:#000000;stroke-width:7.1964;stroke-miterlimit:10;}
	.st1{fill:none;stroke:#000000;stroke-width:5.8382;stroke-miterlimit:10;}
</style>
<g>
	<path d="M196.5,506.6c-0.8-0.1-4.1,0.2-6.9-1c-7.8-3.2-13.6-3.5-18.3,5.4c-1.2,2.3-9.1,3.7-12.1,2.1
		c-20.8-11.2-41.2-23.1-61.6-35.2c-7-4.2-7.1-10.7-2.9-17c3-4.5,2.2-7.3-1.2-11.3c-16.5-19-18.4-39.3-6-60.9
		c9.1-15.9,18.4-31.8,27.5-47.7c4.9-8.6,11.6-14.7,21.7-15.9c9.5-1.2,15.7-6.1,19.7-14.9c3.2-7,8.2-13.3,11.4-20.4
		c1.6-3.7,0.7-8.5,1.4-12.6c0.5-2.9,1.1-6.6,3-8.4c3.8-3.6,8.2-6.8,12.9-9.2c17.9-9.1,23.8-25,25.6-43.5c0.3-2.7,1.1-5.6,2.5-7.9
		c3.7-6,29.6-12.3,35.9-8.7c25.1,14.3,50.2,28.7,75.2,43.4c7.8,4.6,8.8,9.5,3.9,18.2c-10,17.6-20.5,34.9-30.1,52.7
		c-2.1,3.8-2.8,9.6-1.6,13.7c4.8,17.1,3.4,33.1-5.6,48.6c-22.1,37.9-43.9,76-65.8,114C219.1,500.3,211.2,507.1,196.5,506.6z
		 M204.9,290.5c-1.2-1.2-3-3.1-3.2-3c-2.2,1.5-4.7,3.1-6,5.2c-21.4,36.8-42.7,73.7-63.8,110.7c-1.3,2.2-0.6,5.5-0.9,8.2
		c2.4-1.7,5.8-2.9,7.2-5.3c21.4-36.5,42.5-73.1,63.6-109.8C202.9,294.8,203.7,292.8,204.9,290.5z M285.2,247.9
		c-1.4-2.7-1.6-4.2-2.5-4.7c-11.5-6.6-23.1-13.2-34.8-19.5c-1-0.5-3.1,1-4.7,1.5c0.7,1.6,0.9,3.9,2,4.6
		c10.9,6.5,21.9,12.7,33.1,18.7C279.8,249.3,282.3,248.2,285.2,247.9z"/>
	<path d="M304.3,27c15.9,0.1,25.6,9.6,33,22.3c7.4,12.7,9,25.7,1.1,38.9c-16.4,27.4-32.9,54.9-49.2,82.4
		c-3.7,6.1-6.8,12.6-10.9,18.5c-1.9,2.7-6.5,6.5-8.1,5.8c-6.2-2.8-1.1-6.8,0.6-9.7c15.1-26.5,30.2-53,45.8-79.1
		c4.1-6.9,3.7-10.8-1.5-17.6c-9.7-12.7-18.3-26.6-25.1-41C282.9,32.4,287.6,27,304.3,27z"/>
	<path d="M320.7,303c8.9,14.7,17.1,28.1,25.2,41.6c30.7,51.3,61.4,102.5,92.1,153.8c0.6,1.1,1.2,2.2,1.9,3.2c2.9,4.6,4.9,9.6-1,12.9
		c-5.8,3.3-9-1.2-11.7-5.8c-37.1-62-74.1-124-111.4-185.7C310.5,314.4,316.7,310.3,320.7,303z"/>
	<path d="M288.1,204.4c-7.3-1.4-7.7-4.3-4.7-9.4c14.7-24.9,29-50.1,43.8-75c1.8-3.1,5.8-6.7,9-7c12.9-0.9,26-1.1,38.9-0.6
		c7,0.3,13.6,4.8,13.4,12c-0.2,7-3.5,14.1-6.5,20.6c-0.6,1.4-6.3,1.4-9.2,0.5c-10.4-3.1-20.8-6.4-30.9-10.6
		c-8.2-3.5-13-1.8-17.3,6.1C312.9,162.3,300.5,183.1,288.1,204.4z"/>
	<path d="M261.8,189.3c-6.7-1.4-7.9-4-4.7-9.3c6.5-10.6,12.4-21.6,18.7-32.3c3.1-5.1,2.6-9-2.2-12.9c-9.1-7.5-17.8-15.6-27-23
		c-5.8-4.7-6.2-9.2-1.8-15.1c11-14.6,21.9-14.8,32.9-0.1c0.9,1.2,1.7,2.6,2.7,3.8c12.7,17.5,17.6,34.6,2,53.8
		C274,164.8,268.6,177.7,261.8,189.3z"/>
	<path d="M352.4,152.9c7.3,1.1,15.3,0.9,21.8,3.8c4.5,2,9.7,8.4,9.7,12.8c-0.1,6.5-4.1,13.2-7.5,19.2c-0.7,1.3-6.4,0.4-9.5-0.5
		c-11-3.5-21.9-7.2-32.6-11.4c-5.9-2.3-9.5-0.8-12.4,4.3c-4.9,8.7-9.7,17.4-15.1,25.8c-1.6,2.4-5.2,3.4-7.8,5.1
		c0.2-3.2-0.6-7,0.8-9.5c6.3-11.8,13.9-22.9,19.8-35c4.6-9.5,11.6-13.1,21.5-13.2c3.7,0,7.5-0.4,11.2-0.5
		C352.3,153.4,352.3,153.2,352.4,152.9z"/>
	<path d="M306.4,377.7c10.6,27.8,20.2,53.3,29.9,78.8c5.8,15.4,11.9,30.7,17.1,46.3c1.1,3.4-0.1,10.1-2.6,11.6
		c-5.6,3.4-8.8-1.3-10.7-6.5c-13.5-36.1-26.9-72.2-40.8-108.1C295.8,390.9,302.1,386.3,306.4,377.7z"/>
	<path d="M332,230.5c-12.2-4.5-0.5-10.3-2.8-16.5c-1.3-0.5-4.1-0.9-6.1-2.5c-2.7-2.1-6.6-5-6.6-7.6c0-2.8,3.3-6.7,6.1-8.2
		c11.7-6,53.9,8.8,59.6,20.8c1.2,2.4,1.5,6.7,0.2,8.5c-1.3,1.8-5.6,2.6-8.2,2c-7.8-1.8-15.7-3.9-23.2-6.9c-7.8-3.1-13-2-16,6.2
		C334.5,227.6,333.3,228.7,332,230.5z"/>
</g>
</svg>
