<svg id="a29be112-8a89-4d09-997f-fbfacbaf17f6" data-name="Layer 1" xmlns="http://www.w3.org/2000/svg" viewBox="0 0 521.86 542.55"><title>rap_help_</title><path d="M443.21,300.2q-83,.09-166.07.05c-7.19,0-11.09,2.88-13.32,9.75q-18.91,58.17-37.75,116.39a16.52,16.52,0,0,0-.91,6.93c.9,6.63,5.81,10.19,13.46,10.2h164.2c9.28,0,12.51-2.32,15.34-11.06q13.6-42,27.22-84c3.62-11.12,7.42-22.18,11.13-33.27v-6C453.84,303.58,449.82,300.19,443.21,300.2ZM340.77,406.1a34.21,34.21,0,1,1,34.11-34A34.17,34.17,0,0,1,340.77,406.1Z"/><path d="M87,239.6c5.87-1.31,9.32-5.95,9.53-12.63.1-3.12.29-6.24.61-9.35,4.64-45.16,42.16-81.53,87.24-84.6,47.49-3.23,89.36,27.6,100,74,1.75,7.66,2.08,15.66,3.14,24.06H263.45c-1.8,8.25-3.48,16-5.2,23.89,13.63,0,27.37.18,41.1-.09a11.28,11.28,0,0,0,11.4-11.62c-.36-12.83-.08-25.88-2.38-38.42C298.7,152,251.52,111.24,198.58,109c-56.7-2.43-106.6,33-121.44,86.45C75,203.16,74,211.25,72.51,219.18v12a7.66,7.66,0,0,1,.82,1.14C76.42,238.28,81.28,240.87,87,239.6Z"/><path d="M211.54,231c15.49-.09,31,0,46.48,0h4.33c2.64-26.35-15.22-63-54.44-72.32a71.25,71.25,0,0,0-85,51C113,247.24,135,286,172.21,296.35c39.58,11,74.25-12.92,84.85-41.36h-4.45c-13.12,0-26.24.14-39.36-.11a18.41,18.41,0,0,1-8.77-2.45c-4.42-2.67-5.94-8.41-4.34-13.25A11.8,11.8,0,0,1,211.54,231Z"/><path d="M229.44,324.84a114.52,114.52,0,0,0-54.55-6c-55,6.81-97.77,54.44-98.72,110.07-.18,10.25,4.12,14.66,14.35,14.66H203a37.41,37.41,0,0,1,.13-24.55c3.16-9.47,6.21-19,9.29-28.46,6.88-21.24,13.75-42.47,20.77-64.18C231.73,325.74,230.6,325.26,229.44,324.84Z"/></svg>