<?xml version="1.0" encoding="utf-8"?>
<!-- Generator: Adobe Illustrator 23.0.1, SVG Export Plug-In . SVG Version: 6.00 Build 0)  -->
<svg version="1.1" id="Capa_1" xmlns="http://www.w3.org/2000/svg" xmlns:xlink="http://www.w3.org/1999/xlink" x="0px" y="0px"
	 width="24px" height="24px" viewBox="0 0 24 24" enable-background="new 0 0 24 24" xml:space="preserve">
<g>
	<g>
		<path d="M5.66,17.567L0.5,1.499h4.775l1.722,6.318c0.512,1.8,0.958,3.558,1.349,5.62h0.048c0.391-1.961,0.855-3.82,1.331-5.549
			l1.764-6.389h4.624l-5.31,16.068H5.66z"/>
	</g>
	<g>
		<path d="M12.632,17.97c0.988,0.489,2.582,0.996,4.208,0.996c1.488,0,2.222-0.512,2.222-1.323c0-0.769-0.729-1.222-2.566-1.842
			c-2.733-0.959-4.558-2.455-4.558-4.846c0-2.843,2.421-5.024,6.522-5.024c1.938,0,3.323,0.358,4.389,0.823l-0.91,3.439
			c-0.698-0.303-1.903-0.763-3.529-0.763c-1.324,0-2.052,0.483-2.052,1.186c0,0.817,0.86,1.145,2.907,1.901
			c2.927,1.061,4.233,2.611,4.233,4.846c0,2.777-2.18,5.138-6.918,5.138c-1.957,0-3.853-0.507-4.775-0.977L12.632,17.97z"/>
	</g>
</g>
</svg>
