<svg id="802b621c-241f-463a-a0bd-c00c9f32477e" data-name="Layer 1" xmlns="http://www.w3.org/2000/svg" viewBox="0 0 521.86 542.55"><title>rap_scorecard_</title><path d="M366.67,451.76H155.17a15.19,15.19,0,0,0-2.06-.71c-21.24-4.12-36.15-21.9-36.16-43.5q-.08-123.92,0-247.83c0-15,6.45-27,18.6-35.81a42.91,42.91,0,0,1,29.35-8c0,6.26,0,12.12,0,18,0,26.82,18.9,45.75,45.75,45.78q50.25,0,100.48,0a51,51,0,0,0,9.33-.65c21.75-4.14,36.35-21.84,36.43-44,0-6.33,0-12.66,0-18.93,25.12-2.88,47.92,17.66,48,43.24q.17,124.49,0,249a43.64,43.64,0,0,1-33.24,42.05C370,450.78,368.33,451.29,366.67,451.76Zm-9.75-192.15v-3.88q0-18.93,0-37.85c0-9.58-4.62-14.17-14.29-14.18h-97.4v55.91Zm0,96.37H245.24v55.84h72.49c8.75,0,17.49.07,26.24,0,7.18-.07,12.7-4.5,12.82-11C357.07,386,356.88,371.11,356.88,356Zm-.14-72H245.23v47.63H356.74Zm-136-24.31V204a11.16,11.16,0,0,0-1.68-.28c-14,0-28-.15-41.95,0-7.44.1-12.13,5.25-12.15,12.83-.05,13,0,26,0,39v4.08Zm-55.8,96.23c0,14.2,0,28,0,41.87q0,14.06,14,14.08,19.11,0,38.2,0c1.2,0,2.39-.13,3.59-.2V355.87Zm55.86-24.25V284H165.23v47.58Z"/><path d="M260.83,163.76q-25.11,0-50.23,0c-17.74,0-29.62-11.85-29.73-29.57q-.06-10.31,0-20.62c0-9.19,4.62-13.71,13.9-13.74,7,0,14-.09,21,0,2.13,0,3-.75,3.74-2.67C226.41,79,242.36,67.74,261,67.77S295.55,79.07,302.25,97c.88,2.35,2.1,2.89,4.39,2.85q11.06-.18,22.11,0c6.79.11,11.86,4.56,12.09,11.29a226.48,226.48,0,0,1-.24,27.33c-1.3,14.9-13.08,25.18-28.05,25.26C295.31,163.83,278.07,163.76,260.83,163.76Z"/></svg>