<?xml version="1.0" encoding="utf-8"?>
<!-- Generator: Adobe Illustrator 22.0.1, SVG Export Plug-In . SVG Version: 6.00 Build 0)  -->
<svg version="1.1" id="Layer_1" xmlns="http://www.w3.org/2000/svg" xmlns:xlink="http://www.w3.org/1999/xlink" x="0px" y="0px"
	 viewBox="0 0 522 542.7" style="enable-background:new 0 0 522 542.7;" xml:space="preserve">
<style type="text/css">
	.st0{fill:none;stroke:#000000;stroke-width:7.1964;stroke-miterlimit:10;}
	.st1{fill:none;stroke:#000000;stroke-width:5.8382;stroke-miterlimit:10;}
</style>
<g id="_x39_gkX1a_1_">
	<g>
		<path d="M192.4,281.2c36.9,0,73.3,0,110,0c0-4.9,0-9.5,0-14.5c-36.6,0-73.2,0-110,0c0-9.1,0-17.9,0-26.9c45.7,0,91.2,0,137.1,0
			c0,78.1,0,156.2,0,234.5c-45.6,0-91.2,0-137.1,0C192.4,410.1,192.4,345.9,192.4,281.2z"/>
		<path d="M351.1,340.6c36.7,0,73.1,0,109.9,0c0-4.8,0-9.4,0-14.4c-36.5,0-73.1,0-110,0c0-9.3,0-18.1,0-27.1c45.8,0,91.4,0,137.3,0
			c0,58.4,0,116.6,0,175c-45.6,0-91.3,0-137.2,0C351.1,429.9,351.1,385.6,351.1,340.6z"/>
		<path d="M171.1,336.9c0,45.9,0,91.5,0,137.3c-45.8,0-91.5,0-137.4,0c0-31.9,0-63.7,0-95.8c36.7,0,73.2,0,110.1,0
			c0-5.1,0-9.7,0-14.8c-36.6,0-73.2,0-110,0c0-9.1,0-17.7,0-26.7C79.4,336.9,125.1,336.9,171.1,336.9z"/>
		<path d="M244.2,197.9c0-7.9,0-15.6,0-23c-6.7-2.3-13.3-3.9-19.3-6.7c-19.1-9-28.9-25.3-33.9-45c-1.3-5.1-2.1-10.4-2.7-15.7
			c-0.8-6.9,1.8-9.5,8.7-9.6c3.4-0.1,6.8,0,10,0c-1.8-13.6-3.6-26.9-5.5-40.7c39.9,0,78.7,0,118.1,0c0.2,13.6-1.9,27-5.3,40.7
			c4.4,0,8.4-0.1,12.3,0c5,0.2,7.7,2.7,7.3,7.5c-2,23.6-8.9,45.1-29.9,58.8c-6.4,4.2-14.2,6.1-21.4,9c-1.3,0.5-2.9,0.7-4.7,1.1
			c0,7.8,0,15.6,0,23.6C266.6,197.9,255.7,197.9,244.2,197.9z M320.2,110.7c-1.6,0-3,0.2-4.3,0c-4.3-0.7-6.5,0.9-8.4,5.2
			c-6,13.7-14.5,25.7-27.8,33.5c-0.8,0.5-1.7,1.7-1.7,2.6c-0.2,2.9-0.1,5.9-0.1,8.8C299.1,160.3,320.9,134.2,320.2,110.7z
			 M201.8,111.1c1.1,22.8,17.4,47.2,42.3,49.7c0-3,0.1-5.9-0.1-8.8c-0.1-0.9-0.9-2.2-1.7-2.6c-12-7.1-20.3-17.5-26-29.9
			C213.3,112.9,210.1,108.3,201.8,111.1z M211.8,66.5c0.7,5.7,1.2,11.2,2.1,16.8c2.7,17.4,8.2,33.7,19.6,47.5
			c6.3,7.6,14,13.4,25.6,14.5c-9.2-5.9-15.7-12.7-20.7-21c-9.7-15.8-14.1-33.2-16.2-51.3c-0.9-7.3-1.1-7.3-8.7-6.9
			C213.1,65.9,212.9,66.1,211.8,66.5z"/>
		<path d="M204.2,223c7.6-6.7,14.3-12.6,21.2-18.4c1.1-0.9,3-1.2,4.5-1.2c20.7-0.1,41.4-0.1,62.2,0c1.4,0,3.1,0.2,4.1,1.1
			c7,5.8,13.9,11.9,21.7,18.6c-19.7,0-38.3,0-56.8,0C242.5,223,224,223,204.2,223z"/>
	</g>
</g>
</svg>
