<svg id="2f8370f7-2f46-4cf7-91b7-7300eb7dd154" data-name="Layer 1" xmlns="http://www.w3.org/2000/svg" viewBox="0 0 521.86 542.55"><title>rap_avatar profile</title><path d="M266.84,79.27c6.78,1,13.61,1.61,20.32,2.91C346.72,93.67,391.53,126,419.59,179.62c28,53.45,28.37,108.44,4,163.6-.8,1.79-1.71,3.54-2.21,4.57-5.38-1.58-10.25-3.61-15.3-4.32s-10.41-.16-16.12-.16c23.08-42.23,27.49-85.82,11.58-130.84-11.52-32.6-32.13-58.6-61.1-77.47-60.29-39.27-137.63-33.08-190.36,14.82S83.55,274.09,117,337.85c19.21,36.67,48.93,61.84,88.18,75.14,39.1,13.25,77.63,10.6,115.53-6.27v32.37a159.24,159.24,0,0,1-36.7,9.82c-65,9-120.53-10.21-165.65-57.73-27.46-28.92-43.62-63.8-48-103.54-6.86-62.57,13-115.83,58.62-159,29-27.38,63.87-43.15,103.55-48,3.45-.43,6.89-.92,10.33-1.39Z"/><path d="M452.84,449c-2.6,6.87-6.67,12.23-14.33,13.8a25.84,25.84,0,0,1-5.2.43q-40.49,0-81,0c-11.94,0-19.48-7.49-19.5-19.34q0-25.68,0-51.35c0-11.7,7.53-19.25,19.16-19.3,3.5,0,7-.15,10.49,0,2.27.13,2.95-.82,3.36-2.88,2.28-11.32,7.07-15.17,18.56-15.17h18.36c9.37,0,14.89,4.51,16.84,13.69.29,1.33.56,2.66.9,4.31,3.36,0,6.6.22,9.79,0,11.14-.87,18.76,3.63,22.53,14.29Zm-36-33.77a24,24,0,1,0-24.07,24A24,24,0,0,0,416.83,415.25Z"/><path d="M399.77,265.72c-1.22,27.24-8.34,52.39-22.73,75.39a10.52,10.52,0,0,1-4.72,3.67c-6.83,2.88-12.3,7.2-15.47,14-1,2.08-2.16,2.55-4.25,2.57-18.57.16-30.26,11.23-31.84,29.8a4.74,4.74,0,0,1-2.35,3.15c-23.72,11.67-48.73,16.7-75.15,14.44-37.09-3.18-68.56-18.31-93.75-45.55-28.51-30.83-41.46-67.59-38-109.54,4.85-58.93,43.73-107.43,100-125.64C290.61,102.35,377,151.57,395,232.83,397.37,243.62,398.21,254.75,399.77,265.72Zm-179.23-6.48c-1.39.29-2.34.55-3.32.68-21.28,3-39.31,18.34-44.29,39.39-2,8.61-2,17.83-2,26.77a29.36,29.36,0,0,0,28.91,29.1q54.93.33,109.86,0a29,29,0,0,0,28.35-24.27c1-6,.75-12.2.7-18.3a53.81,53.81,0,0,0-42.26-51.95c-2.33-.52-4.69-.94-7.33-1.46,27.06-24.08,24.06-60.67,3.09-80.82a54.11,54.11,0,0,0-75.17.26C196.42,198.78,193.49,235.18,220.54,259.24Z"/><path d="M404.83,415.24a12,12,0,1,1-11.93-12A12.08,12.08,0,0,1,404.83,415.24Z"/><path d="M254.66,343.27c-15.25,0-30.52-.59-45.73.15-19.07.94-27.47-6.59-26.21-26.42.49-7.68.85-15.22,4.48-22.15,7.71-14.75,19.92-23,36.53-23.43,20.73-.5,41.48-.35,62.22-.05,22.24.32,40.25,18.51,40.84,40.75.12,4.37.11,8.75,0,13.12a17.89,17.89,0,0,1-18.18,18C290.65,343.34,272.65,343.27,254.66,343.27Z"/><path d="M254.79,259.26a42,42,0,1,1,42-41.94A42.13,42.13,0,0,1,254.79,259.26Z"/></svg>