<?xml version="1.0" encoding="utf-8"?>
<!-- Generator: Adobe Illustrator 23.0.1, SVG Export Plug-In . SVG Version: 6.00 Build 0)  -->
<svg version="1.1" id="Capa_1" xmlns="http://www.w3.org/2000/svg" xmlns:xlink="http://www.w3.org/1999/xlink" x="0px" y="0px"
	 width="24px" height="24px" viewBox="0 0 24 24" enable-background="new 0 0 24 24" xml:space="preserve">
<g>
	<path d="M18.681,22.687c-0.002-0.381-0.07-0.451-0.447-0.458c-0.283-0.005-0.359-0.08-0.361-0.369
		c-0.002-0.47-0.001-0.939-0.002-1.409c-0.001-0.299-0.057-0.355-0.359-0.356c-0.788-0.001-1.576-0.002-2.364-0.001
		c-0.407,0-0.412,0.001-0.411-0.397c0.001-0.207-0.076-0.321-0.294-0.301c-0.16,0.014-0.255-0.058-0.312-0.203
		c-0.107-0.275-0.219-0.547-0.33-0.82c-0.542-1.327-0.62-2.676-0.257-4.066c0.274-1.048,0.621-2.069,1.042-3.065
		c0.085-0.202,0.041-0.321-0.129-0.439c-0.336-0.233-0.662-0.48-0.992-0.721c-0.247-0.18-0.366-0.133-0.406,0.165
		c-0.067,0.495-0.152,0.988-0.188,1.485c-0.115,1.585-0.225,3.171-0.308,4.758c-0.046,0.884-0.036,1.772-0.043,2.658
		c-0.001,0.198-0.084,0.278-0.274,0.266c-0.053-0.003-0.106,0.001-0.159,0.001c-0.255-0.003-0.304-0.054-0.302-0.31
		c0.004-0.402,0.01-0.803,0.01-1.205c0-1.948-0.087-3.891-0.295-5.828c-0.065-0.616-0.16-1.23-0.255-1.842
		c-0.041-0.262-0.178-0.305-0.396-0.149c-0.338,0.244-0.67,0.495-1.012,0.732c-0.166,0.115-0.183,0.23-0.114,0.422
		c0.341,0.952,0.694,1.902,0.981,2.87c0.25,0.843,0.433,1.723,0.25,2.598c-0.161,0.772-0.43,1.523-0.683,2.273
		c-0.145,0.429-0.173,0.419-0.623,0.415c-0.356-0.003-0.395,0.035-0.396,0.383c-0.001,0.284-0.033,0.317-0.311,0.317
		c-0.833,0-1.667,0-2.5,0.002c-0.256,0.001-0.322,0.067-0.323,0.325c-0.003,0.447,0,0.894-0.002,1.341
		c-0.002,0.424-0.025,0.446-0.446,0.468c-0.246,0.013-0.342,0.105-0.351,0.348c-0.005,0.159,0,0.318,0,0.477
		c0.001,0.39,0.055,0.444,0.45,0.444c2.068,0,4.136,0,6.204,0h0.568c1.909,0,3.818,0,5.727,0c0.316,0,0.405-0.09,0.411-0.402
		C18.684,22.959,18.682,22.823,18.681,22.687z M5.505,23.33c0,0-0.012-0.306-0.012-0.448c0-0.142,0.012-0.436,0.012-0.436
		s0.013,0.295,0.013,0.442C5.518,23.035,5.505,23.33,5.505,23.33z M5.75,23.338c0,0-0.035-0.306-0.035-0.447
		s0.035-0.436,0.035-0.436s0.039,0.295,0.039,0.442C5.789,23.044,5.75,23.338,5.75,23.338z M5.996,23.338
		c0,0-0.052-0.306-0.052-0.447s0.052-0.436,0.052-0.436s0.06,0.295,0.06,0.442C6.056,23.044,5.996,23.338,5.996,23.338z
		 M13.487,18.299c0.242,0.831,0.349,1.033,0.349,1.033h-0.439c0,0-0.11-0.811-0.143-1.116c-0.033-0.306-0.086-1.103-0.086-1.103
		S13.388,17.959,13.487,18.299z M13.169,12.449c0.055-0.513,0.229-1.794,0.315-1.859c0.055-0.043,0.154,0.037,0.154,0.037
		l0.415,0.309c0,0,0.099,0.067,0.1,0.156c0.002,0.106-0.369,0.917-0.526,1.351c-0.177,0.49-0.649,2.204-0.649,2.204
		S13.114,12.962,13.169,12.449z M10.715,12.443c-0.157-0.434-0.529-1.245-0.526-1.351c0.001-0.09,0.1-0.156,0.1-0.156l0.415-0.309
		c0,0,0.099-0.08,0.154-0.037c0.086,0.065,0.261,1.346,0.315,1.859c0.055,0.513,0.191,2.198,0.191,2.198
		S10.892,12.933,10.715,12.443z M10.791,18.299c0.099-0.339,0.319-1.186,0.319-1.186s-0.053,0.797-0.086,1.103
		c-0.033,0.306-0.143,1.116-0.143,1.116h-0.439C10.442,19.332,10.549,19.129,10.791,18.299z M9.406,19.923h5.172v0.153H9.406V19.923
		z M13.934,20.479v1.113h-3.95v-1.113H13.934z M6.345,23.338c0,0-0.076-0.306-0.076-0.447s0.076-0.436,0.076-0.436
		s0.087,0.295,0.087,0.442C6.432,23.044,6.345,23.338,6.345,23.338z M6.831,23.338c0,0-0.076-0.306-0.076-0.447
		s0.076-0.436,0.076-0.436s0.087,0.295,0.087,0.442C6.918,23.044,6.831,23.338,6.831,23.338z M7.427,23.338
		c0,0-0.089-0.306-0.089-0.447s0.089-0.436,0.089-0.436s0.102,0.295,0.102,0.442C7.529,23.044,7.427,23.338,7.427,23.338z
		 M8.085,23.338c0,0-0.111-0.306-0.111-0.447s0.111-0.436,0.111-0.436s0.126,0.295,0.126,0.442
		C8.211,23.044,8.085,23.338,8.085,23.338z M8.897,23.338c0,0-0.111-0.306-0.111-0.447s0.111-0.436,0.111-0.436
		s0.126,0.295,0.126,0.442C9.024,23.044,8.897,23.338,8.897,23.338z M9.727,23.338c0,0-0.111-0.306-0.111-0.447
		s0.111-0.436,0.111-0.436s0.126,0.295,0.126,0.442C9.853,23.044,9.727,23.338,9.727,23.338z M10.572,23.338
		c0,0-0.111-0.306-0.111-0.447s0.111-0.436,0.111-0.436s0.126,0.295,0.126,0.442C10.699,23.044,10.572,23.338,10.572,23.338z
		 M11.522,23.338c0,0-0.111-0.306-0.111-0.447s0.111-0.436,0.111-0.436s0.126,0.295,0.126,0.442
		C11.648,23.044,11.522,23.338,11.522,23.338z M12.405,23.338c0,0-0.111-0.306-0.111-0.447s0.111-0.436,0.111-0.436
		s0.126,0.295,0.126,0.442C12.532,23.044,12.405,23.338,12.405,23.338z M6.394,22.182v-0.175h11.195v0.175H6.394z M13.24,23.338
		c0,0-0.111-0.306-0.111-0.447s0.111-0.436,0.111-0.436s0.126,0.295,0.126,0.442C13.367,23.044,13.24,23.338,13.24,23.338z
		 M14.143,23.338c0,0-0.111-0.306-0.111-0.447s0.111-0.436,0.111-0.436s0.126,0.295,0.126,0.442
		C14.269,23.044,14.143,23.338,14.143,23.338z M15.012,23.338c0,0-0.111-0.306-0.111-0.447s0.111-0.436,0.111-0.436
		s0.126,0.295,0.126,0.442C15.138,23.044,15.012,23.338,15.012,23.338z M15.896,23.338c0,0-0.126-0.295-0.126-0.442
		c0-0.147,0.126-0.442,0.126-0.442s0.111,0.295,0.111,0.436S15.896,23.338,15.896,23.338z M16.554,23.338
		c0,0-0.102-0.295-0.102-0.442c0-0.147,0.102-0.442,0.102-0.442s0.089,0.295,0.089,0.436S16.554,23.338,16.554,23.338z
		 M17.15,23.338c0,0-0.087-0.295-0.087-0.442c0-0.147,0.087-0.442,0.087-0.442s0.076,0.295,0.076,0.436S17.15,23.338,17.15,23.338z
		 M17.636,23.338c0,0-0.087-0.295-0.087-0.442c0-0.147,0.087-0.442,0.087-0.442s0.076,0.295,0.076,0.436
		S17.636,23.338,17.636,23.338z M17.984,23.338c0,0-0.06-0.295-0.06-0.442c0-0.147,0.06-0.442,0.06-0.442s0.052,0.295,0.052,0.436
		S17.984,23.338,17.984,23.338z M18.231,23.338c0,0-0.039-0.295-0.039-0.442c0-0.147,0.039-0.442,0.039-0.442
		s0.035,0.295,0.035,0.436S18.231,23.338,18.231,23.338z M18.476,23.33c0,0-0.013-0.295-0.013-0.442
		c0-0.147,0.013-0.442,0.013-0.442s0.012,0.295,0.012,0.436C18.487,23.024,18.476,23.33,18.476,23.33z"/>
	<path d="M13.512,6.413c0.004,0.006,0.007,0.013,0.011,0.02C13.52,6.424,13.516,6.417,13.512,6.413z"/>
	<path d="M17.521,4.512c-0.045-0.093-0.2-0.136-0.313-0.192c-0.03-0.015-0.075-0.002-0.113-0.002c-1.045,0-2.09,0-3.136,0
		c-0.396,0-0.418-0.019-0.538-0.402c-0.325-1.038-0.651-2.075-0.976-3.112c-0.046-0.148-0.089-0.308-0.283-0.301
		c-0.18,0.006-0.244,0.142-0.295,0.298c-0.342,1.048-0.697,2.092-1.031,3.142c-0.079,0.248-0.211,0.331-0.461,0.325
		C9.838,4.253,9.3,4.263,8.762,4.263c-0.553,0-1.106,0.003-1.659-0.002C6.936,4.259,6.775,4.264,6.708,4.45
		c-0.07,0.194,0.05,0.304,0.195,0.411C7.81,5.519,8.71,6.186,9.618,6.843c0.181,0.131,0.231,0.263,0.157,0.481
		c-0.36,1.058-0.704,2.121-1.056,3.182c-0.05,0.151-0.089,0.297,0.065,0.409c0.158,0.116,0.281,0.017,0.407-0.075
		c0.897-0.658,1.797-1.313,2.691-1.975c0.171-0.127,0.309-0.137,0.486-0.005c0.898,0.669,1.805,1.327,2.707,1.991
		c0.125,0.092,0.243,0.197,0.404,0.077c0.155-0.115,0.11-0.257,0.06-0.408c-0.354-1.06-0.699-2.123-1.058-3.181
		c-0.075-0.22-0.041-0.364,0.156-0.501c0.484-0.338,0.955-0.694,1.431-1.043c0.44-0.322,0.884-0.638,1.313-0.974
		C17.464,4.755,17.553,4.58,17.521,4.512z M11.288,4.091c0.049-0.057,0.164-0.407,0.303-0.9c0.145-0.516,0.442-1.899,0.442-1.899
		s-0.147,2.692-0.205,2.823c-0.057,0.131-0.237,0.09-0.237,0.09h-0.442C11.149,4.205,11.239,4.148,11.288,4.091z M9.183,5.966
		C8.745,5.679,7.56,5.005,7.508,4.975c0.076,0.029,2.523,0.951,2.629,1.043c0.108,0.094,0.015,0.254,0.015,0.254l-0.133,0.421
		c0,0-0.028-0.103-0.068-0.167C9.911,6.462,9.612,6.247,9.183,5.966z M11.721,8.506c-0.074,0.015-0.38,0.22-0.793,0.523
		c-0.426,0.312-1.484,1.195-1.517,1.223c0.047-0.054,1.775-2.03,1.899-2.098c0.126-0.068,0.242,0.075,0.242,0.075l0.348,0.272
		C11.901,8.502,11.795,8.492,11.721,8.506z M13.352,6.418c0.032,0.189,0.11-0.069,0.16-0.006v0c0.004,0.005,0.008,0.011,0.011,0.02
		c0.015,0.083-0.045,0.135-0.081,0.198c-0.105-0.059-0.12,0.03-0.15,0.091c-0.037,0.077-0.001,0.11,0.075,0.118
		c-0.146,0.249-0.342,0.448-0.595,0.589c-0.085-0.115-0.168-0.044-0.23,0.018c-0.043,0.042,0.013,0.063,0.055,0.069
		c-0.331,0.138-0.662,0.117-0.994,0.001c0.036-0.01,0.101-0.003,0.073-0.065c-0.032-0.071-0.111-0.09-0.178-0.069
		c-0.045,0.014,0.011,0.055,0.011,0.085c-0.149-0.175-0.466-0.169-0.502-0.466c-0.012-0.101-0.207-0.061-0.16-0.207
		c0.029-0.001,0.078,0.077,0.084-0.01c0.005-0.08,0.004-0.176-0.126-0.157c-0.173-0.117-0.095-0.317-0.102-0.459
		c-0.008-0.167-0.022-0.376,0.102-0.536c0.002,0.042-0.028,0.114,0.043,0.106c0.062-0.007,0.084-0.079,0.086-0.144
		c0.004-0.093-0.048-0.055-0.091-0.039c-0.02-0.138,0.15-0.121,0.179-0.219c0.027-0.001,0.053-0.002,0.08-0.003
		c0.175-0.05,0.205-0.098,0.125-0.207c-0.014-0.011-0.028-0.023-0.042-0.035c0.123-0.007,0.186-0.095,0.247-0.185
		c0.044,0.047,0.069,0.11,0.163,0.069c0.095-0.041,0.091-0.108,0.091-0.184c0.291-0.068,0.581-0.044,0.872,0
		c-0.005,0.06-0.055,0.135,0.05,0.163c0.063,0.017,0.132,0.07,0.164-0.04c0.262,0.135,0.427,0.371,0.613,0.586
		c-0.041,0.003-0.084,0.002-0.108,0.045c0.009,0.085,0.028,0.165,0.119,0.203c0.026,0.003,0.052,0.005,0.079,0.008
		c0.03,0.073,0.107,0.154-0.03,0.202C13.442,5.92,13.44,5.855,13.388,5.88c-0.076,0.037-0.04,0.123-0.023,0.183
		c0.012,0.045,0.058,0.095,0.083-0.002c0.161,0.032,0.089,0.141,0.075,0.23C13.375,6.212,13.329,6.284,13.352,6.418z M14.975,10.056
		c-0.042-0.07-1.382-2.315-1.407-2.454c-0.026-0.14,0.146-0.207,0.146-0.207l0.366-0.247c0,0-0.043,0.098-0.051,0.173
		c-0.009,0.075,0.092,0.429,0.252,0.916C14.446,8.735,14.954,10.003,14.975,10.056z M13.971,5.214
		c-0.141-0.021-0.149-0.205-0.149-0.205l-0.115-0.426c0,0,0.079,0.072,0.147,0.104c0.068,0.032,0.436,0.052,0.948,0.057
		c0.536,0.005,1.948-0.07,1.948-0.07S14.113,5.235,13.971,5.214z"/>
	<path d="M16.273,7.205c-0.268-0.121-0.545-0.223-0.823-0.318c-0.167-0.058-0.516,0.215-0.47,0.369
		c0.145,0.484,0.299,0.966,0.465,1.443c0.05,0.143,0.226,0.177,0.293,0.068c0.26-0.421,0.47-0.837,0.723-1.298
		C16.487,7.405,16.353,7.242,16.273,7.205z M16.073,7.713c-0.062,0.11-0.157,0.286-0.165,0.271c-0.01-0.02,0.007-0.318-0.061-0.523
		c-0.02-0.06-0.065-0.184-0.045-0.205c0.03-0.033,0.085-0.009,0.085-0.009l0.205,0.091c0,0,0.065,0.028,0.09,0.065
		C16.216,7.452,16.113,7.635,16.073,7.713z"/>
	<path d="M8.903,6.884C8.682,6.961,8.425,7.047,8.171,7.141c-0.25,0.092-0.294,0.21-0.169,0.454c0.179,0.348,0.36,0.697,0.552,1.038
		c0.042,0.074,0.14,0.168,0.204,0.162c0.066-0.006,0.149-0.114,0.177-0.193c0.139-0.398,0.262-0.802,0.39-1.203
		C9.403,7.152,9.204,6.885,8.903,6.884z M8.537,7.423C8.468,7.627,8.486,7.926,8.476,7.946C8.468,7.96,8.373,7.785,8.311,7.675
		c-0.04-0.078-0.142-0.261-0.11-0.309C8.227,7.328,8.291,7.3,8.291,7.3l0.205-0.091c0,0,0.054-0.024,0.085,0.009
		C8.602,7.239,8.557,7.363,8.537,7.423z"/>
	<g>
		<path d="M13.512,6.413c0.004,0.006,0.007,0.013,0.011,0.02C13.52,6.424,13.516,6.417,13.512,6.413z"/>
		<path d="M12.036,5.926C12.032,6.04,11.963,6.1,11.847,6.094c-0.108-0.006-0.156-0.071-0.163-0.176
			c0.02-0.107,0.077-0.169,0.195-0.165C11.993,5.756,12.039,5.826,12.036,5.926z"/>
		<path d="M12.531,6.419c0.001,0.115-0.06,0.177-0.179,0.182c-0.099-0.008-0.168-0.053-0.165-0.165
			c0.002-0.113,0.059-0.179,0.176-0.18C12.472,6.255,12.53,6.313,12.531,6.419z"/>
		<path d="M12.036,6.432C12.04,6.535,11.98,6.6,11.872,6.6c-0.114,0-0.182-0.062-0.185-0.175c-0.002-0.105,0.06-0.161,0.13-0.167
			C11.973,6.253,12.033,6.323,12.036,6.432z"/>
		<path d="M12.534,5.923c-0.014,0.12-0.073,0.179-0.181,0.17c-0.116-0.009-0.174-0.077-0.165-0.195
			c0.009-0.115,0.084-0.153,0.187-0.146C12.486,5.761,12.526,5.835,12.534,5.923z"/>
		<path d="M12.521,5.476c-0.021,0.105-0.094,0.137-0.185,0.126c-0.091-0.011-0.157-0.059-0.15-0.164
			c0.006-0.095,0.076-0.137,0.157-0.13C12.437,5.316,12.511,5.368,12.521,5.476z"/>
		<path d="M12.971,5.942c0.004,0.082-0.041,0.146-0.134,0.158c-0.102,0-0.154-0.061-0.165-0.153C12.66,5.853,12.7,5.772,12.8,5.768
			C12.906,5.764,12.966,5.844,12.971,5.942z"/>
		<path d="M12.974,6.405c-0.025,0.093-0.062,0.182-0.172,0.182c-0.092,0-0.132-0.078-0.131-0.159c0-0.101,0.049-0.175,0.164-0.174
			C12.931,6.256,12.961,6.323,12.974,6.405z"/>
		<path d="M12.521,6.891c-0.023,0.101-0.093,0.157-0.192,0.156c-0.084-0.001-0.148-0.051-0.144-0.145
			c0.005-0.115,0.083-0.153,0.186-0.151C12.459,6.753,12.514,6.795,12.521,6.891z"/>
		<path d="M12.049,5.441c-0.017,0.1-0.078,0.161-0.181,0.164c-0.084,0.002-0.155-0.035-0.156-0.13c0-0.111,0.078-0.162,0.177-0.168
			C11.973,5.301,12.032,5.351,12.049,5.441z"/>
		<path d="M11.56,5.924c-0.015,0.093-0.057,0.168-0.166,0.172c-0.095,0.003-0.133-0.057-0.133-0.147c0-0.107,0.055-0.177,0.158-0.18
			C11.502,5.767,11.551,5.832,11.56,5.924z"/>
		<path d="M11.556,6.424c0.006,0.087-0.047,0.156-0.13,0.159c-0.103,0.002-0.16-0.068-0.164-0.175
			c-0.002-0.086,0.025-0.15,0.135-0.155C11.497,6.257,11.549,6.325,11.556,6.424z"/>
		<path d="M12.043,6.907c0.002,0.087-0.063,0.141-0.15,0.139c-0.098-0.004-0.176-0.054-0.18-0.162
			c-0.003-0.093,0.06-0.132,0.149-0.133C11.969,6.749,12.04,6.803,12.043,6.907z"/>
		<path d="M11.583,6.902c-0.002,0.065-0.058,0.118-0.133,0.1c-0.087-0.021-0.148-0.077-0.149-0.176c0-0.078,0.042-0.114,0.139-0.106
			C11.524,6.737,11.587,6.802,11.583,6.902z"/>
		<path d="M12.931,6.828c-0.025,0.094-0.08,0.167-0.181,0.175c-0.072,0.005-0.114-0.048-0.105-0.124
			c0.011-0.095,0.066-0.15,0.162-0.16C12.884,6.71,12.921,6.753,12.931,6.828z"/>
		<path d="M12.931,5.529c-0.014,0.074-0.057,0.112-0.131,0.102c-0.095-0.013-0.149-0.069-0.156-0.164
			c-0.006-0.078,0.038-0.124,0.111-0.115C12.855,5.363,12.912,5.431,12.931,5.529z"/>
		<path d="M11.59,5.463c-0.03,0.106-0.081,0.173-0.191,0.17c-0.07-0.002-0.098-0.043-0.095-0.109
			c0.006-0.108,0.072-0.165,0.171-0.172C11.549,5.347,11.581,5.405,11.59,5.463z"/>
		<path d="M13.277,5.977c-0.001,0.058-0.004,0.123-0.075,0.127c-0.099,0.005-0.125-0.071-0.135-0.151
			c-0.008-0.069,0.015-0.123,0.09-0.145C13.241,5.832,13.278,5.889,13.277,5.977z"/>
		<path d="M12.476,5.099c-0.002,0.07-0.051,0.103-0.107,0.106c-0.085,0.005-0.172-0.012-0.186-0.118
			c-0.01-0.075,0.051-0.086,0.11-0.089C12.375,4.995,12.443,5.015,12.476,5.099z"/>
		<path d="M12.479,7.234c-0.023,0.101-0.096,0.12-0.175,0.122c-0.054,0.002-0.119-0.001-0.12-0.078
			c-0.002-0.102,0.082-0.121,0.155-0.13C12.401,7.141,12.459,7.169,12.479,7.234z"/>
		<path d="M13.275,6.367c0.004,0.084-0.025,0.163-0.11,0.174c-0.074,0.01-0.1-0.064-0.098-0.13c0.002-0.08,0.022-0.156,0.122-0.159
			C13.264,6.25,13.276,6.306,13.275,6.367z"/>
		<path d="M11.151,5.931c0,0.087-0.024,0.164-0.114,0.174c-0.062,0.007-0.096-0.053-0.096-0.112c0-0.078,0.025-0.161,0.109-0.178
			C11.132,5.797,11.144,5.872,11.151,5.931z"/>
		<path d="M12.048,5.085c-0.007,0.089-0.094,0.107-0.167,0.124c-0.07-0.007-0.135-0.035-0.125-0.109
			c0.011-0.078,0.081-0.103,0.157-0.102C11.978,5,12.054,5.002,12.048,5.085z"/>
		<path d="M12.048,7.268c0.002,0.08-0.074,0.085-0.124,0.087c-0.087-0.004-0.159-0.025-0.168-0.106
			c-0.009-0.08,0.063-0.105,0.125-0.101C11.955,7.154,12.044,7.174,12.048,7.268z"/>
		<path d="M11.147,6.421c-0.001,0.056-0.015,0.124-0.081,0.119c-0.103-0.009-0.12-0.102-0.124-0.183
			c-0.002-0.057,0.032-0.104,0.1-0.108C11.138,6.269,11.148,6.343,11.147,6.421z"/>
		<path d="M13.232,5.59c-0.001,0.07-0.026,0.105-0.074,0.094c-0.092-0.02-0.133-0.088-0.134-0.179c0-0.044,0.015-0.089,0.069-0.077
			C13.186,5.45,13.21,5.531,13.232,5.59z"/>
		<path d="M11.55,7.304c-0.085-0.002-0.148-0.042-0.167-0.128c-0.011-0.05,0.023-0.073,0.064-0.084
			c0.092,0.021,0.171,0.053,0.189,0.148C11.645,7.295,11.593,7.305,11.55,7.304z"/>
		<path d="M12.853,5.186c-0.014,0.064-0.06,0.074-0.109,0.064c-0.077-0.017-0.144-0.06-0.15-0.144
			c-0.005-0.064,0.055-0.071,0.104-0.06C12.773,5.063,12.833,5.105,12.853,5.186z"/>
		<path d="M12.848,7.172c-0.024,0.09-0.091,0.134-0.185,0.132c-0.053-0.001-0.078-0.031-0.064-0.08
			c0.025-0.082,0.095-0.112,0.168-0.128C12.817,7.102,12.861,7.123,12.848,7.172z"/>
		<path d="M11.642,5.117c-0.046,0.089-0.107,0.14-0.202,0.134c-0.054-0.004-0.073-0.043-0.054-0.088
			c0.033-0.076,0.093-0.12,0.179-0.119C11.616,5.045,11.634,5.079,11.642,5.117z"/>
		<path d="M13.229,6.73c0.003,0.092-0.045,0.155-0.121,0.19c-0.062,0.009-0.081-0.021-0.083-0.07
			c-0.003-0.085,0.038-0.146,0.117-0.175C13.185,6.66,13.228,6.677,13.229,6.73z"/>
		<path d="M11.137,6.921c-0.093-0.018-0.132-0.091-0.137-0.18c-0.003-0.047,0.028-0.075,0.083-0.07
			c0.084,0.021,0.111,0.092,0.12,0.168C11.208,6.879,11.187,6.931,11.137,6.921z"/>
		<path d="M11.208,5.512c-0.026,0.088-0.051,0.162-0.144,0.17c-0.057,0.005-0.066-0.04-0.061-0.084
			c0.01-0.09,0.053-0.161,0.148-0.168C11.196,5.427,11.204,5.483,11.208,5.512z"/>
		<path d="M10.797,6.134c-0.047-0.101-0.055-0.177,0.003-0.25c0.021-0.027,0.055-0.02,0.069,0.006
			C10.916,5.977,10.884,6.049,10.797,6.134z"/>
		<path d="M12.443,4.889c-0.103,0.046-0.184,0.057-0.258-0.008c-0.036-0.032-0.004-0.063,0.025-0.078
			C12.311,4.752,12.369,4.813,12.443,4.889z"/>
		<path d="M13.139,7.059c-0.026,0.073-0.073,0.13-0.147,0.156c-0.027,0.01-0.052-0.012-0.049-0.045
			c0.007-0.087,0.068-0.129,0.14-0.154C13.107,7.008,13.137,7.023,13.139,7.059z"/>
		<path d="M12.046,7.501c0.005,0.063-0.066,0.055-0.112,0.053c-0.055-0.003-0.119-0.017-0.118-0.085
			c0.002-0.058,0.063-0.032,0.1-0.041C11.972,7.431,12.041,7.443,12.046,7.501z"/>
		<path d="M12.417,7.481c-0.016,0.066-0.088,0.077-0.153,0.074c-0.034-0.001-0.084,0.001-0.08-0.044
			c0.008-0.08,0.077-0.082,0.14-0.084C12.366,7.429,12.429,7.432,12.417,7.481z"/>
		<path d="M13.135,5.303c0.005,0.031-0.038,0.037-0.061,0.028c-0.087-0.035-0.15-0.087-0.12-0.201
			C13.054,5.154,13.117,5.209,13.135,5.303z"/>
		<path d="M10.886,6.409c-0.005,0.04-0.021,0.092-0.068,0.07c-0.065-0.029-0.058-0.1-0.055-0.161
			c0.002-0.035,0.009-0.068,0.057-0.066C10.874,6.289,10.894,6.344,10.886,6.409z"/>
		<path d="M11.232,7.213c-0.07-0.017-0.118-0.067-0.133-0.14c-0.005-0.026,0-0.055,0.042-0.058c0.066,0.021,0.112,0.066,0.136,0.135
			C11.292,7.191,11.273,7.223,11.232,7.213z"/>
		<path d="M12.049,4.857c-0.008,0.06-0.076,0.066-0.139,0.066c-0.036-0.007-0.109,0.015-0.095-0.057
			c0.01-0.051,0.074-0.076,0.13-0.079C11.994,4.785,12.056,4.805,12.049,4.857z"/>
	</g>
</g>
</svg>
