<svg id="f668a7ea-ab9e-4166-8bb5-67e824254e64" data-name="Layer 1" xmlns="http://www.w3.org/2000/svg" viewBox="0 0 521.86 542.55"><title>rap_avatar profile</title><path d="M267.73,54.73c5.33,1.07,10.68,2,16,3.22C320,66.46,351,101.08,355.86,138.11c3.22,24.39-.33,47.43-14.1,68-18.29,27.39-43.59,43.33-77.07,45.59-43.94,3-80.09-22.88-96.5-58-15.41-33-9.18-76.86,15-104.17C198,72.83,215.87,61.28,238,56.77c3.76-.76,7.56-1.36,11.34-2Z"/><path d="M260.83,464.33q-48.58,0-97.18,0c-16.61,0-32.3-3.27-46.07-13.13C101.94,440,92.73,424.67,91.11,405.69c-2.88-33.87,1.06-67.11,13.79-98.8,7.53-18.76,18.79-34.94,37.23-44.94a74.92,74.92,0,0,1,37.6-9.18c4.13.08,8.49,2.12,12.26,4.16,6.07,3.3,11.7,7.4,17.59,11q51.38,31.8,102.78,0c6.46-4,12.86-8.07,19.25-12.17,6.86-4.4,14.36-3.41,21.74-2.41,26.61,3.63,45.37,18.32,58,41.54,11.31,20.72,16.4,43.23,18.66,66.42a331.07,331.07,0,0,1,1.57,36.31c-.44,35.52-25.53,62.47-60.86,65.86-5.69.55-11.43.74-17.15.75Q307.22,464.41,260.83,464.33Z"/></svg>