<svg xmlns="http://www.w3.org/2000/svg" id="Layer_1" x="0" y="0" version="1.1" viewBox="0 0 522 542.7" xml:space="preserve" stroke-width="1.5" stroke="currentColor" aria-hidden="true">
  <style>
  </style>
  <path id="ykETkn_3_" fill="none" stroke-miterlimit="10" d="M162.2 356.9h26.9v90h-26.9c0-9.4-.3-18.7.1-28.1.4-7.2-3.4-10.5-14-10.3-15.7.3-31.4.2-47.1 0-8.6-.1-12.6 2.6-12.6 8.8.1 20.3.1 40.6 0 60.9 0 5.8 4 8.4 12 8.3 16.5-.1 32.9-.1 49.4 0 8.9.1 12.4-3.1 12.1-9.1-.2-5.3 0-10.7 0-16.9 11.3 0 21.5-.2 31.7.1 10.2.3 14.6-2.7 14.4-10.1-.4-13.7-.1-27.5-.1-41.6h27.6c0 7.4.4 14.6-.1 21.8-.6 7.8 4.3 10.7 15 10.4 14.9-.3 29.8-.2 44.8 0 9.6.1 14.3-2.5 13.9-9.6-.4-7.3-.1-14.5-.1-23 10.9 0 21.1-.3 31.2.1 11 .4 14.9-2.9 14.9-10.5-.4-29.2-.1-58.5-.2-87.7v-11.8h27.6c0 11.9.3 23.5-.1 35-.3 7.4 4.1 10.2 14.4 10 15.3-.3 30.6-.2 45.9 0 9.1.1 13.4-2.4 13.4-9-.2-28.7-.1-57.4 0-86.1 0-6.1-3.6-9-12.4-8.9-16.1.1-32.1.1-48.2-.1-9.3-.1-13.2 2.8-13 9.3.3 11.6.1 23.3.1 35.6h-26.9c-.2-2.2-.6-4.5-.6-6.9-.1-28.4 0-56.9-.1-85.3 0-10-1.7-11.1-16-11.1-8.8 0-17.6-.1-26.4-.2-.7 0-1.4-.3-3.5-.9 0-7.1-.2-14.6.1-22.1.3-6.5-3.6-9.4-13-9.3-16.1.2-32.1.1-48.2 0-8.7-.1-12.6 2.8-12.4 8.9.2 7.5 0 15.1 0 23.1h-27.6v-38.4c0-12.4-.8-13-17.9-13-8 0-16.1 0-24.1-.1-.7 0-1.5-.2-3.9-.7 0-7.1-.3-14.6.1-22.1.4-6.9-3.8-9.9-13.6-9.7-15.7.2-31.4.2-47.1 0-9.3-.1-13 2.9-13 9.4.2 19.8.2 39.5 0 59.3-.1 6.4 3.5 9.5 12.9 9.4 16.1-.2 32.1-.1 48.2 0 8.6.1 12.7-2.6 12.6-8.8-.2-7.5 0-15.1 0-23.2h26.9v89.8h-26.9c0-7.7-.2-15.2.1-22.7.2-6.6-4-9.3-13.2-9.2-16.1.2-32.1.1-48.2 0-8.8-.1-12.3 2.9-12.2 9 .2 20 .2 40.1 0 60.1 0 6.1 3.5 9 12.3 8.9 16.5-.1 32.9-.1 49.4 0 8.1 0 11.9-2.6 11.9-8.4-.1-7.8 0-15.6 0-24.1 11.8 0 22.4-.2 33 .1 9.3.2 13.1-2.8 13-9.3-.3-13.8-.1-27.6-.1-42.1h27.5c0 7.1.3 14.4-.1 21.6-.4 7.1 3.5 10.5 14 10.3 15.3-.3 30.6-.2 45.9 0 9.6.1 14.2-2.6 13.8-9.6-.4-7.3-.1-14.5-.1-22.4h26.9V395h-26.9c0-7.7-.2-15.2.1-22.7.2-6.5-3.7-9.4-13-9.3-16.1.2-32.1.1-48.2 0-8.8-.1-12.5 2.9-12.3 9 .2 7.5 0 15.1 0 23.1h-27.6v-36.7c0-14.7 0-14.7-21.3-14.7h-24.7c0-10-.3-19.6.1-29.2.3-6.8-3.5-10-13.5-9.8-15.7.2-31.4.2-47.1 0-9.3-.1-13.1 2.8-13.1 9.3.2 20 .1 40.1 0 60.1 0 6.2 4.1 8.8 12.7 8.7 16.1-.1 32.1-.1 48.2 0 9.4.1 13.1-3.1 12.7-9.5-.4-5.3-.2-10.4-.2-16.4z"/>
</svg>
